<svg width="545" height="996" viewBox="0 0 545 996" fill="none" xmlns="http://www.w3.org/2000/svg">
<rect x="208" width="80" height="260" fill="#4E1488"/>
<rect x="208" y="260" width="80" height="250" fill="#743AAF"/>
<rect x="208" y="570" width="80" height="160" fill="#FFBF00"/>
<rect x="208" y="730" width="80" height="120" fill="#FFDF7F"/>
<rect x="208" y="850" width="80" height="100" fill="#FFF4D3"/>
<rect x="208" y="510" width="80" height="60" fill="#9F6AD4"/>
<rect x="208" y="950" width="80" height="30" fill="#D9D9D9"/>
<rect x="322" y="100" width="122" height="58" rx="10" fill="#DDD3E0"/>
<path d="M334.114 136V118.545H344.648V120.42H336.227V126.318H344.102V128.193H336.227V134.125H344.784V136H334.114ZM353.878 122.909V124.614H347.094V122.909H353.878ZM349.071 119.773H351.082V132.25C351.082 132.818 351.165 133.244 351.33 133.528C351.5 133.807 351.716 133.994 351.977 134.091C352.244 134.182 352.526 134.227 352.821 134.227C353.043 134.227 353.224 134.216 353.366 134.193C353.509 134.165 353.622 134.142 353.707 134.125L354.116 135.932C353.98 135.983 353.79 136.034 353.545 136.085C353.301 136.142 352.991 136.17 352.616 136.17C352.048 136.17 351.491 136.048 350.946 135.804C350.406 135.56 349.957 135.188 349.599 134.688C349.247 134.188 349.071 133.557 349.071 132.795V119.773ZM359.196 128.125V136H357.185V118.545H359.196V124.955H359.366C359.673 124.278 360.134 123.741 360.747 123.344C361.366 122.94 362.19 122.739 363.219 122.739C364.111 122.739 364.892 122.918 365.562 123.276C366.233 123.628 366.753 124.17 367.122 124.903C367.497 125.631 367.685 126.557 367.685 127.682V136H365.673V127.818C365.673 126.778 365.403 125.974 364.864 125.406C364.33 124.832 363.588 124.545 362.639 124.545C361.98 124.545 361.389 124.685 360.866 124.963C360.349 125.241 359.94 125.648 359.639 126.182C359.344 126.716 359.196 127.364 359.196 128.125ZM373.376 128.125V136H371.364V122.909H373.308V124.955H373.478C373.785 124.29 374.251 123.756 374.876 123.352C375.501 122.943 376.308 122.739 377.296 122.739C378.183 122.739 378.958 122.92 379.623 123.284C380.288 123.642 380.805 124.188 381.174 124.92C381.543 125.648 381.728 126.568 381.728 127.682V136H379.717V127.818C379.717 126.79 379.45 125.989 378.915 125.415C378.381 124.835 377.648 124.545 376.717 124.545C376.075 124.545 375.501 124.685 374.995 124.963C374.495 125.241 374.1 125.648 373.81 126.182C373.521 126.716 373.376 127.364 373.376 128.125ZM385.403 136V122.909H387.415V136H385.403ZM386.426 120.727C386.034 120.727 385.696 120.594 385.412 120.327C385.134 120.06 384.994 119.739 384.994 119.364C384.994 118.989 385.134 118.668 385.412 118.401C385.696 118.134 386.034 118 386.426 118C386.818 118 387.153 118.134 387.432 118.401C387.716 118.668 387.858 118.989 387.858 119.364C387.858 119.739 387.716 120.06 387.432 120.327C387.153 120.594 386.818 120.727 386.426 120.727ZM396.417 136.273C395.19 136.273 394.133 135.983 393.246 135.403C392.36 134.824 391.678 134.026 391.201 133.009C390.724 131.991 390.485 130.83 390.485 129.523C390.485 128.193 390.729 127.02 391.218 126.003C391.712 124.98 392.4 124.182 393.281 123.608C394.167 123.028 395.201 122.739 396.383 122.739C397.303 122.739 398.133 122.909 398.871 123.25C399.61 123.591 400.215 124.068 400.687 124.682C401.158 125.295 401.451 126.011 401.565 126.83H399.553C399.4 126.233 399.059 125.705 398.531 125.244C398.008 124.778 397.303 124.545 396.417 124.545C395.633 124.545 394.945 124.75 394.354 125.159C393.769 125.562 393.312 126.134 392.982 126.872C392.658 127.605 392.496 128.466 392.496 129.455C392.496 130.466 392.656 131.347 392.974 132.097C393.298 132.847 393.752 133.429 394.337 133.844C394.928 134.259 395.621 134.466 396.417 134.466C396.94 134.466 397.414 134.375 397.84 134.193C398.266 134.011 398.627 133.75 398.923 133.409C399.218 133.068 399.428 132.659 399.553 132.182H401.565C401.451 132.955 401.17 133.651 400.721 134.27C400.278 134.884 399.69 135.372 398.957 135.736C398.229 136.094 397.383 136.273 396.417 136.273ZM404.505 136V122.909H406.516V136H404.505ZM405.528 120.727C405.136 120.727 404.798 120.594 404.513 120.327C404.235 120.06 404.096 119.739 404.096 119.364C404.096 118.989 404.235 118.668 404.513 118.401C404.798 118.134 405.136 118 405.528 118C405.92 118 406.255 118.134 406.533 118.401C406.817 118.668 406.96 118.989 406.96 119.364C406.96 119.739 406.817 120.06 406.533 120.327C406.255 120.594 405.92 120.727 405.528 120.727ZM415.893 122.909V124.614H409.109V122.909H415.893ZM411.087 119.773H413.098V132.25C413.098 132.818 413.18 133.244 413.345 133.528C413.516 133.807 413.732 133.994 413.993 134.091C414.26 134.182 414.541 134.227 414.837 134.227C415.058 134.227 415.24 134.216 415.382 134.193C415.524 134.165 415.638 134.142 415.723 134.125L416.132 135.932C415.996 135.983 415.805 136.034 415.561 136.085C415.317 136.142 415.007 136.17 414.632 136.17C414.064 136.17 413.507 136.048 412.962 135.804C412.422 135.56 411.973 135.188 411.615 134.688C411.263 134.188 411.087 133.557 411.087 132.795V119.773ZM420.214 140.909C419.874 140.909 419.57 140.881 419.303 140.824C419.036 140.773 418.851 140.722 418.749 140.67L419.26 138.898C419.749 139.023 420.18 139.068 420.555 139.034C420.93 139 421.263 138.832 421.553 138.531C421.848 138.236 422.118 137.756 422.362 137.091L422.737 136.068L417.896 122.909H420.078L423.692 133.341H423.828L427.442 122.909H429.624L424.067 137.909C423.817 138.585 423.507 139.145 423.138 139.588C422.768 140.037 422.339 140.369 421.851 140.585C421.368 140.801 420.822 140.909 420.214 140.909Z" fill="black"/>
<path d="M233.415 143V140.341L239.628 134.588C240.156 134.077 240.599 133.616 240.957 133.207C241.321 132.798 241.597 132.398 241.784 132.006C241.972 131.608 242.065 131.179 242.065 130.719C242.065 130.207 241.949 129.767 241.716 129.398C241.483 129.023 241.165 128.736 240.761 128.537C240.358 128.332 239.901 128.23 239.389 128.23C238.855 128.23 238.389 128.338 237.991 128.554C237.594 128.77 237.287 129.08 237.071 129.483C236.855 129.886 236.747 130.366 236.747 130.923H233.244C233.244 129.781 233.503 128.79 234.02 127.949C234.537 127.108 235.261 126.457 236.193 125.997C237.125 125.537 238.199 125.307 239.415 125.307C240.665 125.307 241.753 125.528 242.679 125.972C243.611 126.409 244.335 127.017 244.852 127.795C245.369 128.574 245.628 129.466 245.628 130.472C245.628 131.131 245.497 131.781 245.236 132.423C244.98 133.065 244.523 133.778 243.864 134.562C243.205 135.341 242.276 136.276 241.077 137.366L238.528 139.864V139.983H245.858V143H233.415ZM255.231 143.239C254.333 143.233 253.467 143.082 252.631 142.787C251.802 142.491 251.058 142.011 250.398 141.347C249.739 140.682 249.217 139.801 248.83 138.705C248.45 137.608 248.259 136.261 248.259 134.665C248.265 133.199 248.433 131.889 248.762 130.736C249.097 129.577 249.575 128.594 250.194 127.787C250.819 126.98 251.566 126.366 252.435 125.946C253.305 125.52 254.279 125.307 255.359 125.307C256.523 125.307 257.552 125.534 258.444 125.989C259.336 126.437 260.052 127.048 260.592 127.821C261.137 128.594 261.467 129.46 261.58 130.42H257.941C257.799 129.812 257.501 129.335 257.046 128.989C256.592 128.642 256.029 128.469 255.359 128.469C254.222 128.469 253.359 128.963 252.768 129.952C252.183 130.94 251.884 132.284 251.873 133.983H251.992C252.254 133.466 252.606 133.026 253.049 132.662C253.498 132.293 254.006 132.011 254.575 131.818C255.148 131.619 255.754 131.52 256.39 131.52C257.424 131.52 258.344 131.764 259.151 132.253C259.958 132.736 260.594 133.401 261.06 134.247C261.526 135.094 261.759 136.062 261.759 137.153C261.759 138.335 261.484 139.386 260.933 140.307C260.387 141.227 259.623 141.949 258.64 142.472C257.663 142.989 256.526 143.244 255.231 143.239ZM255.214 140.341C255.782 140.341 256.29 140.205 256.739 139.932C257.188 139.659 257.54 139.29 257.796 138.824C258.052 138.358 258.18 137.835 258.18 137.256C258.18 136.676 258.052 136.156 257.796 135.696C257.546 135.236 257.2 134.869 256.756 134.597C256.313 134.324 255.808 134.188 255.239 134.188C254.813 134.188 254.418 134.267 254.055 134.426C253.697 134.585 253.381 134.807 253.109 135.091C252.842 135.375 252.631 135.705 252.478 136.08C252.325 136.449 252.248 136.844 252.248 137.264C252.248 137.827 252.376 138.341 252.631 138.807C252.893 139.273 253.245 139.645 253.688 139.923C254.137 140.202 254.646 140.341 255.214 140.341Z" fill="white"/>
<path d="M233.415 401V398.341L239.628 392.588C240.156 392.077 240.599 391.616 240.957 391.207C241.321 390.798 241.597 390.398 241.784 390.006C241.972 389.608 242.065 389.179 242.065 388.719C242.065 388.207 241.949 387.767 241.716 387.398C241.483 387.023 241.165 386.736 240.761 386.537C240.358 386.332 239.901 386.23 239.389 386.23C238.855 386.23 238.389 386.338 237.991 386.554C237.594 386.77 237.287 387.08 237.071 387.483C236.855 387.886 236.747 388.366 236.747 388.923H233.244C233.244 387.781 233.503 386.79 234.02 385.949C234.537 385.108 235.261 384.457 236.193 383.997C237.125 383.537 238.199 383.307 239.415 383.307C240.665 383.307 241.753 383.528 242.679 383.972C243.611 384.409 244.335 385.017 244.852 385.795C245.369 386.574 245.628 387.466 245.628 388.472C245.628 389.131 245.497 389.781 245.236 390.423C244.98 391.065 244.523 391.778 243.864 392.562C243.205 393.341 242.276 394.276 241.077 395.366L238.528 397.864V397.983H245.858V401H233.415ZM254.907 401.239C253.702 401.239 252.629 401.017 251.685 400.574C250.748 400.131 250.004 399.52 249.452 398.741C248.901 397.963 248.614 397.071 248.592 396.065H252.171C252.211 396.741 252.495 397.29 253.023 397.71C253.552 398.131 254.18 398.341 254.907 398.341C255.487 398.341 255.998 398.213 256.441 397.957C256.89 397.696 257.239 397.335 257.489 396.875C257.745 396.409 257.873 395.875 257.873 395.273C257.873 394.659 257.742 394.119 257.481 393.653C257.225 393.187 256.87 392.824 256.415 392.562C255.961 392.301 255.441 392.168 254.856 392.162C254.344 392.162 253.847 392.267 253.364 392.477C252.887 392.687 252.515 392.974 252.248 393.338L248.967 392.75L249.793 383.545H260.464V386.562H252.836L252.384 390.935H252.487C252.793 390.503 253.256 390.145 253.876 389.861C254.495 389.577 255.188 389.435 255.955 389.435C257.006 389.435 257.944 389.682 258.768 390.176C259.592 390.67 260.242 391.349 260.719 392.213C261.197 393.071 261.433 394.06 261.427 395.179C261.433 396.355 261.16 397.401 260.609 398.315C260.063 399.224 259.299 399.94 258.316 400.463C257.339 400.98 256.202 401.239 254.907 401.239Z" fill="white"/>
<path d="M245.009 638.545V656H241.318V642.048H241.216L237.219 644.554V641.281L241.54 638.545H245.009ZM255.856 656.239C254.958 656.233 254.092 656.082 253.256 655.787C252.427 655.491 251.683 655.011 251.023 654.347C250.364 653.682 249.842 652.801 249.455 651.705C249.075 650.608 248.884 649.261 248.884 647.665C248.89 646.199 249.058 644.889 249.387 643.736C249.722 642.577 250.2 641.594 250.819 640.787C251.444 639.98 252.191 639.366 253.06 638.946C253.93 638.52 254.904 638.307 255.984 638.307C257.148 638.307 258.177 638.534 259.069 638.989C259.961 639.437 260.677 640.048 261.217 640.821C261.762 641.594 262.092 642.46 262.205 643.42H258.566C258.424 642.812 258.126 642.335 257.671 641.989C257.217 641.642 256.654 641.469 255.984 641.469C254.847 641.469 253.984 641.963 253.393 642.952C252.808 643.94 252.509 645.284 252.498 646.983H252.617C252.879 646.466 253.231 646.026 253.674 645.662C254.123 645.293 254.631 645.011 255.2 644.818C255.773 644.619 256.379 644.52 257.015 644.52C258.049 644.52 258.969 644.764 259.776 645.253C260.583 645.736 261.219 646.401 261.685 647.247C262.151 648.094 262.384 649.062 262.384 650.153C262.384 651.335 262.109 652.386 261.558 653.307C261.012 654.227 260.248 654.949 259.265 655.472C258.288 655.989 257.151 656.244 255.856 656.239ZM255.839 653.341C256.407 653.341 256.915 653.205 257.364 652.932C257.813 652.659 258.165 652.29 258.421 651.824C258.677 651.358 258.805 650.835 258.805 650.256C258.805 649.676 258.677 649.156 258.421 648.696C258.171 648.236 257.825 647.869 257.381 647.597C256.938 647.324 256.433 647.188 255.864 647.188C255.438 647.188 255.043 647.267 254.68 647.426C254.322 647.585 254.006 647.807 253.734 648.091C253.467 648.375 253.256 648.705 253.103 649.08C252.95 649.449 252.873 649.844 252.873 650.264C252.873 650.827 253.001 651.341 253.256 651.807C253.518 652.273 253.87 652.645 254.313 652.923C254.762 653.202 255.271 653.341 255.839 653.341Z" fill="black"/>
<path d="M245.009 779.545V797H241.318V783.048H241.216L237.219 785.554V782.281L241.54 779.545H245.009ZM249.157 797V794.341L255.37 788.588C255.898 788.077 256.342 787.616 256.7 787.207C257.063 786.798 257.339 786.398 257.526 786.006C257.714 785.608 257.808 785.179 257.808 784.719C257.808 784.207 257.691 783.767 257.458 783.398C257.225 783.023 256.907 782.736 256.504 782.537C256.1 782.332 255.643 782.23 255.131 782.23C254.597 782.23 254.131 782.338 253.734 782.554C253.336 782.77 253.029 783.08 252.813 783.483C252.597 783.886 252.489 784.366 252.489 784.923H248.987C248.987 783.781 249.245 782.79 249.762 781.949C250.279 781.108 251.004 780.457 251.935 779.997C252.867 779.537 253.941 779.307 255.157 779.307C256.407 779.307 257.495 779.528 258.421 779.972C259.353 780.409 260.077 781.017 260.594 781.795C261.112 782.574 261.37 783.466 261.37 784.472C261.37 785.131 261.239 785.781 260.978 786.423C260.722 787.065 260.265 787.778 259.606 788.562C258.947 789.341 258.018 790.276 256.819 791.366L254.271 793.864V793.983H261.6V797H249.157Z" fill="black"/>
<path d="M241.009 888.545V906H237.318V892.048H237.216L233.219 894.554V891.281L237.54 888.545H241.009ZM252.001 906.384C250.535 906.378 249.273 906.017 248.217 905.301C247.165 904.585 246.356 903.548 245.788 902.19C245.225 900.832 244.947 899.199 244.952 897.29C244.952 895.386 245.234 893.764 245.796 892.423C246.364 891.082 247.174 890.062 248.225 889.364C249.282 888.659 250.54 888.307 252.001 888.307C253.461 888.307 254.717 888.659 255.768 889.364C256.825 890.068 257.637 891.091 258.205 892.432C258.773 893.767 259.055 895.386 259.049 897.29C259.049 899.205 258.765 900.841 258.197 902.199C257.634 903.557 256.827 904.594 255.776 905.31C254.725 906.026 253.467 906.384 252.001 906.384ZM252.001 903.324C253.001 903.324 253.799 902.821 254.396 901.815C254.992 900.81 255.288 899.301 255.282 897.29C255.282 895.966 255.146 894.864 254.873 893.983C254.606 893.102 254.225 892.44 253.731 891.997C253.242 891.554 252.665 891.332 252.001 891.332C251.006 891.332 250.211 891.83 249.614 892.824C249.018 893.818 248.717 895.307 248.711 897.29C248.711 898.631 248.844 899.75 249.112 900.648C249.384 901.54 249.768 902.21 250.262 902.659C250.756 903.102 251.336 903.324 252.001 903.324Z" fill="black"/>
<path d="M247.114 548.239C246.216 548.233 245.349 548.082 244.514 547.787C243.685 547.491 242.94 547.011 242.281 546.347C241.622 545.682 241.099 544.801 240.713 543.705C240.332 542.608 240.142 541.261 240.142 539.665C240.148 538.199 240.315 536.889 240.645 535.736C240.98 534.577 241.457 533.594 242.077 532.787C242.702 531.98 243.449 531.366 244.318 530.946C245.188 530.52 246.162 530.307 247.241 530.307C248.406 530.307 249.435 530.534 250.327 530.989C251.219 531.437 251.935 532.048 252.474 532.821C253.02 533.594 253.349 534.46 253.463 535.42H249.824C249.682 534.812 249.384 534.335 248.929 533.989C248.474 533.642 247.912 533.469 247.241 533.469C246.105 533.469 245.241 533.963 244.651 534.952C244.065 535.94 243.767 537.284 243.756 538.983H243.875C244.136 538.466 244.489 538.026 244.932 537.662C245.381 537.293 245.889 537.011 246.457 536.818C247.031 536.619 247.636 536.52 248.273 536.52C249.307 536.52 250.227 536.764 251.034 537.253C251.841 537.736 252.477 538.401 252.943 539.247C253.409 540.094 253.642 541.062 253.642 542.153C253.642 543.335 253.366 544.386 252.815 545.307C252.27 546.227 251.506 546.949 250.523 547.472C249.545 547.989 248.409 548.244 247.114 548.239ZM247.097 545.341C247.665 545.341 248.173 545.205 248.622 544.932C249.071 544.659 249.423 544.29 249.679 543.824C249.935 543.358 250.062 542.835 250.062 542.256C250.062 541.676 249.935 541.156 249.679 540.696C249.429 540.236 249.082 539.869 248.639 539.597C248.196 539.324 247.69 539.188 247.122 539.188C246.696 539.188 246.301 539.267 245.938 539.426C245.58 539.585 245.264 539.807 244.991 540.091C244.724 540.375 244.514 540.705 244.361 541.08C244.207 541.449 244.131 541.844 244.131 542.264C244.131 542.827 244.259 543.341 244.514 543.807C244.776 544.273 245.128 544.645 245.571 544.923C246.02 545.202 246.528 545.341 247.097 545.341Z" fill="white"/>
<path d="M246.866 974.239C245.594 974.239 244.46 974.02 243.466 973.582C242.477 973.139 241.696 972.531 241.122 971.759C240.554 970.98 240.261 970.082 240.244 969.065H243.96C243.983 969.491 244.122 969.866 244.378 970.19C244.639 970.509 244.986 970.756 245.418 970.932C245.849 971.108 246.335 971.196 246.875 971.196C247.438 971.196 247.935 971.097 248.366 970.898C248.798 970.699 249.136 970.423 249.381 970.071C249.625 969.719 249.747 969.312 249.747 968.852C249.747 968.386 249.616 967.974 249.355 967.616C249.099 967.253 248.73 966.969 248.247 966.764C247.77 966.56 247.202 966.457 246.543 966.457H244.915V963.747H246.543C247.099 963.747 247.591 963.651 248.017 963.457C248.449 963.264 248.784 962.997 249.023 962.656C249.261 962.31 249.381 961.906 249.381 961.446C249.381 961.009 249.276 960.625 249.065 960.295C248.861 959.96 248.571 959.699 248.196 959.511C247.827 959.324 247.395 959.23 246.901 959.23C246.401 959.23 245.943 959.321 245.528 959.503C245.114 959.679 244.781 959.932 244.531 960.261C244.281 960.591 244.148 960.977 244.131 961.42H240.594C240.611 960.415 240.898 959.528 241.455 958.761C242.011 957.994 242.761 957.395 243.705 956.963C244.653 956.526 245.724 956.307 246.918 956.307C248.122 956.307 249.176 956.526 250.08 956.963C250.983 957.401 251.685 957.991 252.185 958.736C252.69 959.474 252.94 960.304 252.935 961.224C252.94 962.202 252.636 963.017 252.023 963.67C251.415 964.324 250.622 964.739 249.645 964.915V965.051C250.929 965.216 251.906 965.662 252.577 966.389C253.253 967.111 253.588 968.014 253.582 969.099C253.588 970.094 253.301 970.977 252.722 971.75C252.148 972.523 251.355 973.131 250.344 973.574C249.332 974.017 248.173 974.239 246.866 974.239Z" fill="black"/>
<rect x="313" y="339" width="171" height="75" rx="10" fill="#DDD3E0"/>
<path d="M325.114 372V354.545H335.648V356.42H327.227V362.318H335.102V364.193H327.227V370.125H335.784V372H325.114ZM344.878 358.909V360.614H338.094V358.909H344.878ZM340.071 355.773H342.082V368.25C342.082 368.818 342.165 369.244 342.33 369.528C342.5 369.807 342.716 369.994 342.977 370.091C343.244 370.182 343.526 370.227 343.821 370.227C344.043 370.227 344.224 370.216 344.366 370.193C344.509 370.165 344.622 370.142 344.707 370.125L345.116 371.932C344.98 371.983 344.79 372.034 344.545 372.085C344.301 372.142 343.991 372.17 343.616 372.17C343.048 372.17 342.491 372.048 341.946 371.804C341.406 371.56 340.957 371.188 340.599 370.688C340.247 370.188 340.071 369.557 340.071 368.795V355.773ZM350.196 364.125V372H348.185V354.545H350.196V360.955H350.366C350.673 360.278 351.134 359.741 351.747 359.344C352.366 358.94 353.19 358.739 354.219 358.739C355.111 358.739 355.892 358.918 356.562 359.276C357.233 359.628 357.753 360.17 358.122 360.903C358.497 361.631 358.685 362.557 358.685 363.682V372H356.673V363.818C356.673 362.778 356.403 361.974 355.864 361.406C355.33 360.832 354.588 360.545 353.639 360.545C352.98 360.545 352.389 360.685 351.866 360.963C351.349 361.241 350.94 361.648 350.639 362.182C350.344 362.716 350.196 363.364 350.196 364.125ZM364.376 364.125V372H362.364V358.909H364.308V360.955H364.478C364.785 360.29 365.251 359.756 365.876 359.352C366.501 358.943 367.308 358.739 368.296 358.739C369.183 358.739 369.958 358.92 370.623 359.284C371.288 359.642 371.805 360.188 372.174 360.92C372.543 361.648 372.728 362.568 372.728 363.682V372H370.717V363.818C370.717 362.79 370.45 361.989 369.915 361.415C369.381 360.835 368.648 360.545 367.717 360.545C367.075 360.545 366.501 360.685 365.995 360.963C365.495 361.241 365.1 361.648 364.81 362.182C364.521 362.716 364.376 363.364 364.376 364.125ZM376.403 372V358.909H378.415V372H376.403ZM377.426 356.727C377.034 356.727 376.696 356.594 376.412 356.327C376.134 356.06 375.994 355.739 375.994 355.364C375.994 354.989 376.134 354.668 376.412 354.401C376.696 354.134 377.034 354 377.426 354C377.818 354 378.153 354.134 378.432 354.401C378.716 354.668 378.858 354.989 378.858 355.364C378.858 355.739 378.716 356.06 378.432 356.327C378.153 356.594 377.818 356.727 377.426 356.727ZM387.417 372.273C386.19 372.273 385.133 371.983 384.246 371.403C383.36 370.824 382.678 370.026 382.201 369.009C381.724 367.991 381.485 366.83 381.485 365.523C381.485 364.193 381.729 363.02 382.218 362.003C382.712 360.98 383.4 360.182 384.281 359.608C385.167 359.028 386.201 358.739 387.383 358.739C388.303 358.739 389.133 358.909 389.871 359.25C390.61 359.591 391.215 360.068 391.687 360.682C392.158 361.295 392.451 362.011 392.565 362.83H390.553C390.4 362.233 390.059 361.705 389.531 361.244C389.008 360.778 388.303 360.545 387.417 360.545C386.633 360.545 385.945 360.75 385.354 361.159C384.769 361.562 384.312 362.134 383.982 362.872C383.658 363.605 383.496 364.466 383.496 365.455C383.496 366.466 383.656 367.347 383.974 368.097C384.298 368.847 384.752 369.429 385.337 369.844C385.928 370.259 386.621 370.466 387.417 370.466C387.94 370.466 388.414 370.375 388.84 370.193C389.266 370.011 389.627 369.75 389.923 369.409C390.218 369.068 390.428 368.659 390.553 368.182H392.565C392.451 368.955 392.17 369.651 391.721 370.27C391.278 370.884 390.69 371.372 389.957 371.736C389.229 372.094 388.383 372.273 387.417 372.273ZM395.505 372V358.909H397.516V372H395.505ZM396.528 356.727C396.136 356.727 395.798 356.594 395.513 356.327C395.235 356.06 395.096 355.739 395.096 355.364C395.096 354.989 395.235 354.668 395.513 354.401C395.798 354.134 396.136 354 396.528 354C396.92 354 397.255 354.134 397.533 354.401C397.817 354.668 397.96 354.989 397.96 355.364C397.96 355.739 397.817 356.06 397.533 356.327C397.255 356.594 396.92 356.727 396.528 356.727ZM406.893 358.909V360.614H400.109V358.909H406.893ZM402.087 355.773H404.098V368.25C404.098 368.818 404.18 369.244 404.345 369.528C404.516 369.807 404.732 369.994 404.993 370.091C405.26 370.182 405.541 370.227 405.837 370.227C406.058 370.227 406.24 370.216 406.382 370.193C406.524 370.165 406.638 370.142 406.723 370.125L407.132 371.932C406.996 371.983 406.805 372.034 406.561 372.085C406.317 372.142 406.007 372.17 405.632 372.17C405.064 372.17 404.507 372.048 403.962 371.804C403.422 371.56 402.973 371.188 402.615 370.688C402.263 370.188 402.087 369.557 402.087 368.795V355.773ZM411.214 376.909C410.874 376.909 410.57 376.881 410.303 376.824C410.036 376.773 409.851 376.722 409.749 376.67L410.26 374.898C410.749 375.023 411.18 375.068 411.555 375.034C411.93 375 412.263 374.832 412.553 374.531C412.848 374.236 413.118 373.756 413.362 373.091L413.737 372.068L408.896 358.909H411.078L414.692 369.341H414.828L418.442 358.909H420.624L415.067 373.909C414.817 374.585 414.507 375.145 414.138 375.588C413.768 376.037 413.339 376.369 412.851 376.585C412.368 376.801 411.822 376.909 411.214 376.909ZM433.881 372.307C433.051 372.307 432.298 372.151 431.622 371.838C430.946 371.52 430.409 371.062 430.011 370.466C429.614 369.864 429.415 369.136 429.415 368.284C429.415 367.534 429.563 366.926 429.858 366.46C430.153 365.989 430.548 365.619 431.043 365.352C431.537 365.085 432.082 364.886 432.679 364.756C433.281 364.619 433.886 364.511 434.494 364.432C435.29 364.33 435.935 364.253 436.429 364.202C436.929 364.145 437.293 364.051 437.52 363.92C437.753 363.79 437.869 363.562 437.869 363.239V363.17C437.869 362.33 437.639 361.676 437.179 361.21C436.724 360.744 436.034 360.511 435.108 360.511C434.148 360.511 433.395 360.722 432.849 361.142C432.304 361.562 431.92 362.011 431.699 362.489L429.79 361.807C430.131 361.011 430.585 360.392 431.153 359.949C431.727 359.5 432.352 359.187 433.028 359.011C433.71 358.83 434.381 358.739 435.04 358.739C435.46 358.739 435.943 358.79 436.489 358.892C437.04 358.989 437.571 359.19 438.082 359.497C438.599 359.804 439.028 360.267 439.369 360.886C439.71 361.506 439.881 362.335 439.881 363.375V372H437.869V370.227H437.767C437.631 370.511 437.403 370.815 437.085 371.139C436.767 371.463 436.344 371.739 435.815 371.966C435.287 372.193 434.642 372.307 433.881 372.307ZM434.188 370.5C434.983 370.5 435.653 370.344 436.199 370.031C436.75 369.719 437.165 369.315 437.443 368.821C437.727 368.327 437.869 367.807 437.869 367.261V365.42C437.784 365.523 437.597 365.616 437.307 365.702C437.023 365.781 436.693 365.852 436.318 365.915C435.949 365.972 435.588 366.023 435.236 366.068C434.889 366.108 434.608 366.142 434.392 366.17C433.869 366.239 433.381 366.349 432.926 366.503C432.477 366.651 432.114 366.875 431.835 367.176C431.563 367.472 431.426 367.875 431.426 368.386C431.426 369.085 431.685 369.614 432.202 369.972C432.724 370.324 433.386 370.5 434.188 370.5ZM445.563 364.125V372H443.552V358.909H445.495V360.955H445.665C445.972 360.29 446.438 359.756 447.063 359.352C447.688 358.943 448.495 358.739 449.484 358.739C450.37 358.739 451.146 358.92 451.81 359.284C452.475 359.642 452.992 360.188 453.362 360.92C453.731 361.648 453.915 362.568 453.915 363.682V372H451.904V363.818C451.904 362.79 451.637 361.989 451.103 361.415C450.569 360.835 449.836 360.545 448.904 360.545C448.262 360.545 447.688 360.685 447.183 360.963C446.683 361.241 446.288 361.648 445.998 362.182C445.708 362.716 445.563 363.364 445.563 364.125ZM462.534 372.273C461.443 372.273 460.48 371.997 459.645 371.446C458.81 370.889 458.156 370.105 457.685 369.094C457.213 368.077 456.977 366.875 456.977 365.489C456.977 364.114 457.213 362.92 457.685 361.909C458.156 360.898 458.813 360.116 459.653 359.565C460.494 359.014 461.466 358.739 462.568 358.739C463.42 358.739 464.094 358.881 464.588 359.165C465.088 359.443 465.469 359.761 465.73 360.119C465.997 360.472 466.205 360.761 466.352 360.989H466.523V354.545H468.534V372H466.591V369.989H466.352C466.205 370.227 465.994 370.528 465.722 370.892C465.449 371.25 465.06 371.571 464.554 371.855C464.048 372.134 463.375 372.273 462.534 372.273ZM462.807 370.466C463.614 370.466 464.295 370.256 464.852 369.835C465.409 369.409 465.832 368.821 466.122 368.071C466.412 367.315 466.557 366.443 466.557 365.455C466.557 364.477 466.415 363.622 466.131 362.889C465.847 362.151 465.426 361.577 464.869 361.168C464.313 360.753 463.625 360.545 462.807 360.545C461.955 360.545 461.244 360.764 460.676 361.202C460.114 361.634 459.69 362.222 459.406 362.966C459.128 363.705 458.989 364.534 458.989 365.455C458.989 366.386 459.131 367.233 459.415 367.994C459.705 368.75 460.131 369.352 460.693 369.801C461.261 370.244 461.966 370.466 462.807 370.466ZM325.83 401H323.614L330.023 383.545H332.205L338.614 401H336.398L331.182 386.307H331.045L325.83 401ZM326.648 394.182H335.58V396.057H326.648V394.182ZM341.06 401V387.909H343.003V389.955H343.173C343.446 389.256 343.886 388.713 344.494 388.327C345.102 387.935 345.832 387.739 346.685 387.739C347.548 387.739 348.267 387.935 348.841 388.327C349.42 388.713 349.872 389.256 350.196 389.955H350.332C350.668 389.278 351.17 388.741 351.841 388.344C352.511 387.94 353.315 387.739 354.253 387.739C355.423 387.739 356.381 388.105 357.125 388.838C357.869 389.565 358.241 390.699 358.241 392.239V401H356.23V392.239C356.23 391.273 355.966 390.582 355.438 390.168C354.909 389.753 354.287 389.545 353.571 389.545C352.651 389.545 351.938 389.824 351.432 390.381C350.926 390.932 350.673 391.631 350.673 392.477V401H348.628V392.034C348.628 391.29 348.386 390.69 347.903 390.236C347.42 389.776 346.798 389.545 346.037 389.545C345.514 389.545 345.026 389.685 344.571 389.963C344.122 390.241 343.759 390.628 343.48 391.122C343.207 391.611 343.071 392.176 343.071 392.818V401H341.06ZM367.408 401.273C366.146 401.273 365.058 400.994 364.143 400.438C363.234 399.875 362.533 399.091 362.038 398.085C361.55 397.074 361.305 395.898 361.305 394.557C361.305 393.216 361.55 392.034 362.038 391.011C362.533 389.983 363.22 389.182 364.101 388.608C364.987 388.028 366.021 387.739 367.203 387.739C367.885 387.739 368.558 387.852 369.223 388.08C369.888 388.307 370.493 388.676 371.038 389.188C371.584 389.693 372.018 390.364 372.342 391.199C372.666 392.034 372.828 393.062 372.828 394.284V395.136H362.737V393.398H370.783C370.783 392.659 370.635 392 370.339 391.42C370.05 390.841 369.635 390.384 369.095 390.048C368.561 389.713 367.93 389.545 367.203 389.545C366.402 389.545 365.709 389.744 365.124 390.142C364.544 390.534 364.098 391.045 363.786 391.676C363.473 392.307 363.317 392.983 363.317 393.705V394.864C363.317 395.852 363.487 396.69 363.828 397.378C364.175 398.06 364.655 398.58 365.268 398.938C365.882 399.29 366.595 399.466 367.408 399.466C367.936 399.466 368.413 399.392 368.839 399.244C369.271 399.091 369.643 398.864 369.956 398.562C370.268 398.256 370.51 397.875 370.68 397.42L372.624 397.966C372.419 398.625 372.075 399.205 371.592 399.705C371.109 400.199 370.513 400.585 369.803 400.864C369.092 401.136 368.294 401.273 367.408 401.273ZM375.888 401V387.909H377.831V389.886H377.967C378.206 389.239 378.638 388.713 379.263 388.31C379.888 387.906 380.592 387.705 381.376 387.705C381.524 387.705 381.709 387.707 381.93 387.713C382.152 387.719 382.32 387.727 382.433 387.739V389.784C382.365 389.767 382.209 389.741 381.964 389.707C381.726 389.668 381.473 389.648 381.206 389.648C380.57 389.648 380.001 389.781 379.501 390.048C379.007 390.31 378.615 390.673 378.325 391.139C378.041 391.599 377.899 392.125 377.899 392.716V401H375.888ZM384.817 401V387.909H386.829V401H384.817ZM385.84 385.727C385.448 385.727 385.11 385.594 384.826 385.327C384.548 385.06 384.408 384.739 384.408 384.364C384.408 383.989 384.548 383.668 384.826 383.401C385.11 383.134 385.448 383 385.84 383C386.232 383 386.567 383.134 386.846 383.401C387.13 383.668 387.272 383.989 387.272 384.364C387.272 384.739 387.13 385.06 386.846 385.327C386.567 385.594 386.232 385.727 385.84 385.727ZM395.831 401.273C394.604 401.273 393.547 400.983 392.661 400.403C391.774 399.824 391.092 399.026 390.615 398.009C390.138 396.991 389.899 395.83 389.899 394.523C389.899 393.193 390.143 392.02 390.632 391.003C391.126 389.98 391.814 389.182 392.695 388.608C393.581 388.028 394.615 387.739 395.797 387.739C396.717 387.739 397.547 387.909 398.286 388.25C399.024 388.591 399.629 389.068 400.101 389.682C400.572 390.295 400.865 391.011 400.979 391.83H398.967C398.814 391.233 398.473 390.705 397.945 390.244C397.422 389.778 396.717 389.545 395.831 389.545C395.047 389.545 394.359 389.75 393.768 390.159C393.183 390.562 392.726 391.134 392.396 391.872C392.072 392.605 391.911 393.466 391.911 394.455C391.911 395.466 392.07 396.347 392.388 397.097C392.712 397.847 393.166 398.429 393.751 398.844C394.342 399.259 395.036 399.466 395.831 399.466C396.354 399.466 396.828 399.375 397.254 399.193C397.68 399.011 398.041 398.75 398.337 398.409C398.632 398.068 398.842 397.659 398.967 397.182H400.979C400.865 397.955 400.584 398.651 400.135 399.27C399.692 399.884 399.104 400.372 398.371 400.736C397.643 401.094 396.797 401.273 395.831 401.273ZM407.771 401.307C406.942 401.307 406.189 401.151 405.513 400.838C404.837 400.52 404.3 400.062 403.902 399.466C403.504 398.864 403.305 398.136 403.305 397.284C403.305 396.534 403.453 395.926 403.749 395.46C404.044 394.989 404.439 394.619 404.933 394.352C405.428 394.085 405.973 393.886 406.57 393.756C407.172 393.619 407.777 393.511 408.385 393.432C409.18 393.33 409.825 393.253 410.32 393.202C410.82 393.145 411.183 393.051 411.411 392.92C411.643 392.79 411.76 392.562 411.76 392.239V392.17C411.76 391.33 411.53 390.676 411.07 390.21C410.615 389.744 409.925 389.511 408.999 389.511C408.038 389.511 407.286 389.722 406.74 390.142C406.195 390.562 405.811 391.011 405.589 391.489L403.68 390.807C404.021 390.011 404.476 389.392 405.044 388.949C405.618 388.5 406.243 388.187 406.919 388.011C407.601 387.83 408.271 387.739 408.93 387.739C409.351 387.739 409.834 387.79 410.379 387.892C410.93 387.989 411.462 388.19 411.973 388.497C412.49 388.804 412.919 389.267 413.26 389.886C413.601 390.506 413.771 391.335 413.771 392.375V401H411.76V399.227H411.658C411.521 399.511 411.294 399.815 410.976 400.139C410.658 400.463 410.234 400.739 409.706 400.966C409.178 401.193 408.533 401.307 407.771 401.307ZM408.078 399.5C408.874 399.5 409.544 399.344 410.089 399.031C410.641 398.719 411.055 398.315 411.334 397.821C411.618 397.327 411.76 396.807 411.76 396.261V394.42C411.675 394.523 411.487 394.616 411.197 394.702C410.913 394.781 410.584 394.852 410.209 394.915C409.839 394.972 409.479 395.023 409.126 395.068C408.78 395.108 408.499 395.142 408.283 395.17C407.76 395.239 407.271 395.349 406.817 395.503C406.368 395.651 406.004 395.875 405.726 396.176C405.453 396.472 405.317 396.875 405.317 397.386C405.317 398.085 405.575 398.614 406.092 398.972C406.615 399.324 407.277 399.5 408.078 399.5ZM419.454 393.125V401H417.442V387.909H419.386V389.955H419.556C419.863 389.29 420.329 388.756 420.954 388.352C421.579 387.943 422.386 387.739 423.374 387.739C424.261 387.739 425.036 387.92 425.701 388.284C426.366 388.642 426.883 389.188 427.252 389.92C427.621 390.648 427.806 391.568 427.806 392.682V401H425.795V392.818C425.795 391.79 425.528 390.989 424.994 390.415C424.46 389.835 423.727 389.545 422.795 389.545C422.153 389.545 421.579 389.685 421.073 389.963C420.573 390.241 420.178 390.648 419.888 391.182C419.599 391.716 419.454 392.364 419.454 393.125Z" fill="black"/>
<rect x="312" y="519" width="192" height="41" rx="10" fill="#DDD3E0"/>
<path d="M324.114 549V531.545H330.011C331.375 531.545 332.494 531.778 333.369 532.244C334.244 532.705 334.892 533.338 335.312 534.145C335.733 534.952 335.943 535.869 335.943 536.898C335.943 537.926 335.733 538.838 335.312 539.634C334.892 540.429 334.247 541.054 333.378 541.509C332.509 541.957 331.398 542.182 330.045 542.182H325.273V540.273H329.977C330.909 540.273 331.659 540.136 332.227 539.864C332.801 539.591 333.216 539.205 333.472 538.705C333.733 538.199 333.864 537.597 333.864 536.898C333.864 536.199 333.733 535.588 333.472 535.065C333.21 534.543 332.793 534.139 332.219 533.855C331.645 533.565 330.886 533.42 329.943 533.42H326.227V549H324.114ZM332.33 541.159L336.625 549H334.17L329.943 541.159H332.33ZM344.54 549.273C343.279 549.273 342.191 548.994 341.276 548.438C340.367 547.875 339.665 547.091 339.171 546.085C338.683 545.074 338.438 543.898 338.438 542.557C338.438 541.216 338.683 540.034 339.171 539.011C339.665 537.983 340.353 537.182 341.234 536.608C342.12 536.028 343.154 535.739 344.336 535.739C345.018 535.739 345.691 535.852 346.356 536.08C347.021 536.307 347.626 536.676 348.171 537.188C348.717 537.693 349.151 538.364 349.475 539.199C349.799 540.034 349.961 541.062 349.961 542.284V543.136H339.87V541.398H347.915C347.915 540.659 347.768 540 347.472 539.42C347.183 538.841 346.768 538.384 346.228 538.048C345.694 537.713 345.063 537.545 344.336 537.545C343.535 537.545 342.842 537.744 342.256 538.142C341.677 538.534 341.231 539.045 340.918 539.676C340.606 540.307 340.45 540.983 340.45 541.705V542.864C340.45 543.852 340.62 544.69 340.961 545.378C341.308 546.06 341.788 546.58 342.401 546.938C343.015 547.29 343.728 547.466 344.54 547.466C345.069 547.466 345.546 547.392 345.972 547.244C346.404 547.091 346.776 546.864 347.089 546.562C347.401 546.256 347.643 545.875 347.813 545.42L349.756 545.966C349.552 546.625 349.208 547.205 348.725 547.705C348.242 548.199 347.646 548.585 346.935 548.864C346.225 549.136 345.427 549.273 344.54 549.273ZM358.305 554.182C357.333 554.182 356.498 554.057 355.799 553.807C355.1 553.562 354.518 553.239 354.052 552.835C353.592 552.438 353.225 552.011 352.952 551.557L354.555 550.432C354.737 550.67 354.967 550.943 355.245 551.25C355.523 551.562 355.904 551.832 356.387 552.06C356.876 552.293 357.515 552.409 358.305 552.409C359.362 552.409 360.234 552.153 360.921 551.642C361.609 551.131 361.952 550.33 361.952 549.239V546.58H361.782C361.634 546.818 361.424 547.114 361.151 547.466C360.884 547.812 360.498 548.122 359.992 548.395C359.492 548.662 358.816 548.795 357.964 548.795C356.907 548.795 355.958 548.545 355.117 548.045C354.282 547.545 353.62 546.818 353.131 545.864C352.648 544.909 352.407 543.75 352.407 542.386C352.407 541.045 352.643 539.878 353.114 538.884C353.586 537.884 354.242 537.111 355.083 536.565C355.924 536.014 356.896 535.739 357.998 535.739C358.85 535.739 359.526 535.881 360.026 536.165C360.532 536.443 360.918 536.761 361.185 537.119C361.458 537.472 361.668 537.761 361.816 537.989H362.021V535.909H363.964V549.375C363.964 550.5 363.708 551.415 363.197 552.119C362.691 552.83 362.009 553.349 361.151 553.679C360.299 554.014 359.35 554.182 358.305 554.182ZM358.237 546.989C359.043 546.989 359.725 546.804 360.282 546.435C360.839 546.065 361.262 545.534 361.552 544.841C361.842 544.148 361.987 543.318 361.987 542.352C361.987 541.409 361.844 540.577 361.56 539.855C361.276 539.134 360.856 538.568 360.299 538.159C359.742 537.75 359.055 537.545 358.237 537.545C357.384 537.545 356.674 537.761 356.106 538.193C355.543 538.625 355.12 539.205 354.836 539.932C354.558 540.659 354.418 541.466 354.418 542.352C354.418 543.261 354.56 544.065 354.844 544.764C355.134 545.457 355.56 546.003 356.123 546.401C356.691 546.793 357.396 546.989 358.237 546.989ZM367.646 549V535.909H369.657V549H367.646ZM368.668 533.727C368.276 533.727 367.938 533.594 367.654 533.327C367.376 533.06 367.237 532.739 367.237 532.364C367.237 531.989 367.376 531.668 367.654 531.401C367.938 531.134 368.276 531 368.668 531C369.06 531 369.396 531.134 369.674 531.401C369.958 531.668 370.1 531.989 370.1 532.364C370.1 532.739 369.958 533.06 369.674 533.327C369.396 533.594 369.06 533.727 368.668 533.727ZM378.659 549.273C377.477 549.273 376.44 548.991 375.548 548.429C374.662 547.866 373.969 547.08 373.469 546.068C372.974 545.057 372.727 543.875 372.727 542.523C372.727 541.159 372.974 539.969 373.469 538.952C373.969 537.935 374.662 537.145 375.548 536.582C376.44 536.02 377.477 535.739 378.659 535.739C379.841 535.739 380.875 536.02 381.761 536.582C382.653 537.145 383.347 537.935 383.841 538.952C384.341 539.969 384.591 541.159 384.591 542.523C384.591 543.875 384.341 545.057 383.841 546.068C383.347 547.08 382.653 547.866 381.761 548.429C380.875 548.991 379.841 549.273 378.659 549.273ZM378.659 547.466C379.557 547.466 380.295 547.236 380.875 546.776C381.455 546.315 381.884 545.71 382.162 544.96C382.44 544.21 382.58 543.398 382.58 542.523C382.58 541.648 382.44 540.832 382.162 540.077C381.884 539.321 381.455 538.71 380.875 538.244C380.295 537.778 379.557 537.545 378.659 537.545C377.761 537.545 377.023 537.778 376.443 538.244C375.864 538.71 375.435 539.321 375.156 540.077C374.878 540.832 374.739 541.648 374.739 542.523C374.739 543.398 374.878 544.21 375.156 544.96C375.435 545.71 375.864 546.315 376.443 546.776C377.023 547.236 377.761 547.466 378.659 547.466ZM389.673 541.125V549H387.661V535.909H389.604V537.955H389.775C390.082 537.29 390.548 536.756 391.173 536.352C391.798 535.943 392.604 535.739 393.593 535.739C394.479 535.739 395.255 535.92 395.92 536.284C396.585 536.642 397.102 537.188 397.471 537.92C397.84 538.648 398.025 539.568 398.025 540.682V549H396.013V540.818C396.013 539.79 395.746 538.989 395.212 538.415C394.678 537.835 393.945 537.545 393.013 537.545C392.371 537.545 391.798 537.685 391.292 537.963C390.792 538.241 390.397 538.648 390.107 539.182C389.817 539.716 389.673 540.364 389.673 541.125ZM405.553 549.307C404.723 549.307 403.97 549.151 403.294 548.838C402.618 548.52 402.081 548.062 401.683 547.466C401.286 546.864 401.087 546.136 401.087 545.284C401.087 544.534 401.234 543.926 401.53 543.46C401.825 542.989 402.22 542.619 402.714 542.352C403.209 542.085 403.754 541.886 404.351 541.756C404.953 541.619 405.558 541.511 406.166 541.432C406.962 541.33 407.607 541.253 408.101 541.202C408.601 541.145 408.964 541.051 409.192 540.92C409.425 540.79 409.541 540.562 409.541 540.239V540.17C409.541 539.33 409.311 538.676 408.851 538.21C408.396 537.744 407.706 537.511 406.78 537.511C405.82 537.511 405.067 537.722 404.521 538.142C403.976 538.562 403.592 539.011 403.371 539.489L401.462 538.807C401.803 538.011 402.257 537.392 402.825 536.949C403.399 536.5 404.024 536.187 404.7 536.011C405.382 535.83 406.053 535.739 406.712 535.739C407.132 535.739 407.615 535.79 408.161 535.892C408.712 535.989 409.243 536.19 409.754 536.497C410.271 536.804 410.7 537.267 411.041 537.886C411.382 538.506 411.553 539.335 411.553 540.375V549H409.541V547.227H409.439C409.303 547.511 409.075 547.815 408.757 548.139C408.439 548.463 408.016 548.739 407.487 548.966C406.959 549.193 406.314 549.307 405.553 549.307ZM405.859 547.5C406.655 547.5 407.325 547.344 407.871 547.031C408.422 546.719 408.837 546.315 409.115 545.821C409.399 545.327 409.541 544.807 409.541 544.261V542.42C409.456 542.523 409.268 542.616 408.979 542.702C408.695 542.781 408.365 542.852 407.99 542.915C407.621 542.972 407.26 543.023 406.908 543.068C406.561 543.108 406.28 543.142 406.064 543.17C405.541 543.239 405.053 543.349 404.598 543.503C404.149 543.651 403.786 543.875 403.507 544.176C403.234 544.472 403.098 544.875 403.098 545.386C403.098 546.085 403.357 546.614 403.874 546.972C404.396 547.324 405.058 547.5 405.859 547.5ZM417.235 531.545V549H415.224V531.545H417.235ZM428.658 549H426.442L432.851 531.545H435.033L441.442 549H439.226L434.01 534.307H433.874L428.658 549ZM429.476 542.182H438.408V544.057H429.476V542.182ZM453.161 538.841L451.354 539.352C451.24 539.051 451.072 538.759 450.851 538.474C450.635 538.185 450.339 537.946 449.964 537.759C449.589 537.571 449.109 537.477 448.524 537.477C447.723 537.477 447.055 537.662 446.521 538.031C445.993 538.395 445.729 538.858 445.729 539.42C445.729 539.92 445.911 540.315 446.274 540.605C446.638 540.895 447.206 541.136 447.979 541.33L449.922 541.807C451.092 542.091 451.964 542.526 452.538 543.111C453.112 543.69 453.399 544.437 453.399 545.352C453.399 546.102 453.183 546.773 452.751 547.364C452.325 547.955 451.729 548.42 450.962 548.761C450.195 549.102 449.303 549.273 448.286 549.273C446.95 549.273 445.845 548.983 444.97 548.403C444.095 547.824 443.541 546.977 443.308 545.864L445.217 545.386C445.399 546.091 445.743 546.619 446.249 546.972C446.76 547.324 447.428 547.5 448.251 547.5C449.189 547.5 449.933 547.301 450.484 546.903C451.041 546.5 451.32 546.017 451.32 545.455C451.32 545 451.161 544.619 450.842 544.312C450.524 544 450.036 543.767 449.376 543.614L447.195 543.102C445.996 542.818 445.115 542.378 444.553 541.781C443.996 541.179 443.717 540.426 443.717 539.523C443.717 538.784 443.925 538.131 444.339 537.562C444.76 536.994 445.331 536.548 446.053 536.224C446.78 535.901 447.604 535.739 448.524 535.739C449.82 535.739 450.837 536.023 451.575 536.591C452.32 537.159 452.848 537.909 453.161 538.841ZM456.427 549V535.909H458.438V549H456.427ZM457.45 533.727C457.058 533.727 456.719 533.594 456.435 533.327C456.157 533.06 456.018 532.739 456.018 532.364C456.018 531.989 456.157 531.668 456.435 531.401C456.719 531.134 457.058 531 457.45 531C457.842 531 458.177 531.134 458.455 531.401C458.739 531.668 458.881 531.989 458.881 532.364C458.881 532.739 458.739 533.06 458.455 533.327C458.177 533.594 457.842 533.727 457.45 533.727ZM465.974 549.307C465.145 549.307 464.392 549.151 463.716 548.838C463.04 548.52 462.503 548.062 462.105 547.466C461.707 546.864 461.509 546.136 461.509 545.284C461.509 544.534 461.656 543.926 461.952 543.46C462.247 542.989 462.642 542.619 463.136 542.352C463.631 542.085 464.176 541.886 464.773 541.756C465.375 541.619 465.98 541.511 466.588 541.432C467.384 541.33 468.028 541.253 468.523 541.202C469.023 541.145 469.386 541.051 469.614 540.92C469.847 540.79 469.963 540.562 469.963 540.239V540.17C469.963 539.33 469.733 538.676 469.273 538.21C468.818 537.744 468.128 537.511 467.202 537.511C466.241 537.511 465.489 537.722 464.943 538.142C464.398 538.562 464.014 539.011 463.793 539.489L461.884 538.807C462.224 538.011 462.679 537.392 463.247 536.949C463.821 536.5 464.446 536.187 465.122 536.011C465.804 535.83 466.474 535.739 467.134 535.739C467.554 535.739 468.037 535.79 468.582 535.892C469.134 535.989 469.665 536.19 470.176 536.497C470.693 536.804 471.122 537.267 471.463 537.886C471.804 538.506 471.974 539.335 471.974 540.375V549H469.963V547.227H469.861C469.724 547.511 469.497 547.815 469.179 548.139C468.861 548.463 468.438 548.739 467.909 548.966C467.381 549.193 466.736 549.307 465.974 549.307ZM466.281 547.5C467.077 547.5 467.747 547.344 468.293 547.031C468.844 546.719 469.259 546.315 469.537 545.821C469.821 545.327 469.963 544.807 469.963 544.261V542.42C469.878 542.523 469.69 542.616 469.401 542.702C469.116 542.781 468.787 542.852 468.412 542.915C468.043 542.972 467.682 543.023 467.33 543.068C466.983 543.108 466.702 543.142 466.486 543.17C465.963 543.239 465.474 543.349 465.02 543.503C464.571 543.651 464.207 543.875 463.929 544.176C463.656 544.472 463.52 544.875 463.52 545.386C463.52 546.085 463.778 546.614 464.295 546.972C464.818 547.324 465.48 547.5 466.281 547.5ZM477.657 541.125V549H475.646V535.909H477.589V537.955H477.759C478.066 537.29 478.532 536.756 479.157 536.352C479.782 535.943 480.589 535.739 481.577 535.739C482.464 535.739 483.239 535.92 483.904 536.284C484.569 536.642 485.086 537.188 485.455 537.92C485.825 538.648 486.009 539.568 486.009 540.682V549H483.998V540.818C483.998 539.79 483.731 538.989 483.197 538.415C482.663 537.835 481.93 537.545 480.998 537.545C480.356 537.545 479.782 537.685 479.276 537.963C478.776 538.241 478.381 538.648 478.092 539.182C477.802 539.716 477.657 540.364 477.657 541.125Z" fill="black"/>
<rect x="313" y="620" width="192" height="41" rx="10" fill="#DDD3E0"/>
<path d="M325.83 650H323.614L330.023 632.545H332.205L338.614 650H336.398L331.182 635.307H331.045L325.83 650ZM326.648 643.182H335.58V645.057H326.648V643.182ZM350.332 639.841L348.526 640.352C348.412 640.051 348.244 639.759 348.023 639.474C347.807 639.185 347.511 638.946 347.136 638.759C346.761 638.571 346.281 638.477 345.696 638.477C344.895 638.477 344.227 638.662 343.693 639.031C343.165 639.395 342.901 639.858 342.901 640.42C342.901 640.92 343.082 641.315 343.446 641.605C343.81 641.895 344.378 642.136 345.151 642.33L347.094 642.807C348.264 643.091 349.136 643.526 349.71 644.111C350.284 644.69 350.571 645.437 350.571 646.352C350.571 647.102 350.355 647.773 349.923 648.364C349.497 648.955 348.901 649.42 348.134 649.761C347.366 650.102 346.474 650.273 345.457 650.273C344.122 650.273 343.017 649.983 342.142 649.403C341.267 648.824 340.713 647.977 340.48 646.864L342.389 646.386C342.571 647.091 342.915 647.619 343.42 647.972C343.932 648.324 344.599 648.5 345.423 648.5C346.361 648.5 347.105 648.301 347.656 647.903C348.213 647.5 348.491 647.017 348.491 646.455C348.491 646 348.332 645.619 348.014 645.312C347.696 645 347.207 644.767 346.548 644.614L344.366 644.102C343.168 643.818 342.287 643.378 341.724 642.781C341.168 642.179 340.889 641.426 340.889 640.523C340.889 639.784 341.097 639.131 341.511 638.562C341.932 637.994 342.503 637.548 343.224 637.224C343.952 636.901 344.776 636.739 345.696 636.739C346.991 636.739 348.009 637.023 348.747 637.591C349.491 638.159 350.02 638.909 350.332 639.841ZM353.599 650V636.909H355.61V650H353.599ZM354.621 634.727C354.229 634.727 353.891 634.594 353.607 634.327C353.329 634.06 353.19 633.739 353.19 633.364C353.19 632.989 353.329 632.668 353.607 632.401C353.891 632.134 354.229 632 354.621 632C355.013 632 355.349 632.134 355.627 632.401C355.911 632.668 356.053 632.989 356.053 633.364C356.053 633.739 355.911 634.06 355.627 634.327C355.349 634.594 355.013 634.727 354.621 634.727ZM363.146 650.307C362.317 650.307 361.564 650.151 360.888 649.838C360.212 649.52 359.675 649.062 359.277 648.466C358.879 647.864 358.68 647.136 358.68 646.284C358.68 645.534 358.828 644.926 359.124 644.46C359.419 643.989 359.814 643.619 360.308 643.352C360.803 643.085 361.348 642.886 361.945 642.756C362.547 642.619 363.152 642.511 363.76 642.432C364.555 642.33 365.2 642.253 365.695 642.202C366.195 642.145 366.558 642.051 366.786 641.92C367.018 641.79 367.135 641.562 367.135 641.239V641.17C367.135 640.33 366.905 639.676 366.445 639.21C365.99 638.744 365.3 638.511 364.374 638.511C363.413 638.511 362.661 638.722 362.115 639.142C361.57 639.562 361.186 640.011 360.964 640.489L359.055 639.807C359.396 639.011 359.851 638.392 360.419 637.949C360.993 637.5 361.618 637.187 362.294 637.011C362.976 636.83 363.646 636.739 364.305 636.739C364.726 636.739 365.209 636.79 365.754 636.892C366.305 636.989 366.837 637.19 367.348 637.497C367.865 637.804 368.294 638.267 368.635 638.886C368.976 639.506 369.146 640.335 369.146 641.375V650H367.135V648.227H367.033C366.896 648.511 366.669 648.815 366.351 649.139C366.033 649.463 365.609 649.739 365.081 649.966C364.553 650.193 363.908 650.307 363.146 650.307ZM363.453 648.5C364.249 648.5 364.919 648.344 365.464 648.031C366.016 647.719 366.43 647.315 366.709 646.821C366.993 646.327 367.135 645.807 367.135 645.261V643.42C367.05 643.523 366.862 643.616 366.572 643.702C366.288 643.781 365.959 643.852 365.584 643.915C365.214 643.972 364.854 644.023 364.501 644.068C364.155 644.108 363.874 644.142 363.658 644.17C363.135 644.239 362.646 644.349 362.192 644.503C361.743 644.651 361.379 644.875 361.101 645.176C360.828 645.472 360.692 645.875 360.692 646.386C360.692 647.085 360.95 647.614 361.467 647.972C361.99 648.324 362.652 648.5 363.453 648.5ZM374.829 642.125V650H372.817V636.909H374.761V638.955H374.931C375.238 638.29 375.704 637.756 376.329 637.352C376.954 636.943 377.761 636.739 378.749 636.739C379.636 636.739 380.411 636.92 381.076 637.284C381.741 637.642 382.258 638.188 382.627 638.92C382.996 639.648 383.181 640.568 383.181 641.682V650H381.17V641.818C381.17 640.79 380.903 639.989 380.369 639.415C379.835 638.835 379.102 638.545 378.17 638.545C377.528 638.545 376.954 638.685 376.448 638.963C375.948 639.241 375.553 639.648 375.263 640.182C374.974 640.716 374.829 641.364 374.829 642.125ZM394.595 650H392.379L398.788 632.545H400.97L407.379 650H405.163L399.947 635.307H399.811L394.595 650ZM395.413 643.182H404.345V645.057H395.413V643.182ZM409.825 650V636.909H411.768V638.955H411.939C412.212 638.256 412.652 637.713 413.26 637.327C413.868 636.935 414.598 636.739 415.45 636.739C416.314 636.739 417.033 636.935 417.607 637.327C418.186 637.713 418.638 638.256 418.962 638.955H419.098C419.433 638.278 419.936 637.741 420.607 637.344C421.277 636.94 422.081 636.739 423.018 636.739C424.189 636.739 425.146 637.105 425.891 637.838C426.635 638.565 427.007 639.699 427.007 641.239V650H424.996V641.239C424.996 640.273 424.732 639.582 424.203 639.168C423.675 638.753 423.053 638.545 422.337 638.545C421.416 638.545 420.703 638.824 420.197 639.381C419.692 639.932 419.439 640.631 419.439 641.477V650H417.393V641.034C417.393 640.29 417.152 639.69 416.669 639.236C416.186 638.776 415.564 638.545 414.803 638.545C414.28 638.545 413.791 638.685 413.337 638.963C412.888 639.241 412.524 639.628 412.246 640.122C411.973 640.611 411.837 641.176 411.837 641.818V650H409.825ZM436.173 650.273C434.912 650.273 433.824 649.994 432.909 649.438C432 648.875 431.298 648.091 430.804 647.085C430.315 646.074 430.071 644.898 430.071 643.557C430.071 642.216 430.315 641.034 430.804 640.011C431.298 638.983 431.986 638.182 432.866 637.608C433.753 637.028 434.787 636.739 435.969 636.739C436.651 636.739 437.324 636.852 437.989 637.08C438.653 637.307 439.259 637.676 439.804 638.188C440.349 638.693 440.784 639.364 441.108 640.199C441.432 641.034 441.594 642.062 441.594 643.284V644.136H431.503V642.398H439.548C439.548 641.659 439.401 641 439.105 640.42C438.815 639.841 438.401 639.384 437.861 639.048C437.327 638.713 436.696 638.545 435.969 638.545C435.168 638.545 434.474 638.744 433.889 639.142C433.31 639.534 432.864 640.045 432.551 640.676C432.239 641.307 432.082 641.983 432.082 642.705V643.864C432.082 644.852 432.253 645.69 432.594 646.378C432.94 647.06 433.42 647.58 434.034 647.938C434.648 648.29 435.361 648.466 436.173 648.466C436.702 648.466 437.179 648.392 437.605 648.244C438.037 648.091 438.409 647.864 438.722 647.562C439.034 647.256 439.276 646.875 439.446 646.42L441.389 646.966C441.185 647.625 440.841 648.205 440.358 648.705C439.875 649.199 439.278 649.585 438.568 649.864C437.858 650.136 437.06 650.273 436.173 650.273ZM444.653 650V636.909H446.597V638.886H446.733C446.972 638.239 447.403 637.713 448.028 637.31C448.653 636.906 449.358 636.705 450.142 636.705C450.29 636.705 450.474 636.707 450.696 636.713C450.918 636.719 451.085 636.727 451.199 636.739V638.784C451.131 638.767 450.974 638.741 450.73 638.707C450.491 638.668 450.239 638.648 449.972 638.648C449.335 638.648 448.767 638.781 448.267 639.048C447.773 639.31 447.381 639.673 447.091 640.139C446.807 640.599 446.665 641.125 446.665 641.716V650H444.653ZM453.583 650V636.909H455.594V650H453.583ZM454.606 634.727C454.214 634.727 453.876 634.594 453.592 634.327C453.313 634.06 453.174 633.739 453.174 633.364C453.174 632.989 453.313 632.668 453.592 632.401C453.876 632.134 454.214 632 454.606 632C454.998 632 455.333 632.134 455.612 632.401C455.896 632.668 456.038 632.989 456.038 633.364C456.038 633.739 455.896 634.06 455.612 634.327C455.333 634.594 454.998 634.727 454.606 634.727ZM464.597 650.273C463.369 650.273 462.313 649.983 461.426 649.403C460.54 648.824 459.858 648.026 459.381 647.009C458.903 645.991 458.665 644.83 458.665 643.523C458.665 642.193 458.909 641.02 459.398 640.003C459.892 638.98 460.58 638.182 461.46 637.608C462.347 637.028 463.381 636.739 464.562 636.739C465.483 636.739 466.312 636.909 467.051 637.25C467.79 637.591 468.395 638.068 468.866 638.682C469.338 639.295 469.631 640.011 469.744 640.83H467.733C467.58 640.233 467.239 639.705 466.71 639.244C466.188 638.778 465.483 638.545 464.597 638.545C463.813 638.545 463.125 638.75 462.534 639.159C461.949 639.562 461.491 640.134 461.162 640.872C460.838 641.605 460.676 642.466 460.676 643.455C460.676 644.466 460.835 645.347 461.153 646.097C461.477 646.847 461.932 647.429 462.517 647.844C463.108 648.259 463.801 648.466 464.597 648.466C465.119 648.466 465.594 648.375 466.02 648.193C466.446 648.011 466.807 647.75 467.102 647.409C467.398 647.068 467.608 646.659 467.733 646.182H469.744C469.631 646.955 469.349 647.651 468.901 648.27C468.457 648.884 467.869 649.372 467.136 649.736C466.409 650.094 465.563 650.273 464.597 650.273ZM476.537 650.307C475.707 650.307 474.955 650.151 474.278 649.838C473.602 649.52 473.065 649.062 472.668 648.466C472.27 647.864 472.071 647.136 472.071 646.284C472.071 645.534 472.219 644.926 472.514 644.46C472.81 643.989 473.205 643.619 473.699 643.352C474.193 643.085 474.739 642.886 475.335 642.756C475.938 642.619 476.543 642.511 477.151 642.432C477.946 642.33 478.591 642.253 479.085 642.202C479.585 642.145 479.949 642.051 480.176 641.92C480.409 641.79 480.526 641.562 480.526 641.239V641.17C480.526 640.33 480.295 639.676 479.835 639.21C479.381 638.744 478.69 638.511 477.764 638.511C476.804 638.511 476.051 638.722 475.506 639.142C474.96 639.562 474.577 640.011 474.355 640.489L472.446 639.807C472.787 639.011 473.241 638.392 473.81 637.949C474.384 637.5 475.009 637.187 475.685 637.011C476.366 636.83 477.037 636.739 477.696 636.739C478.116 636.739 478.599 636.79 479.145 636.892C479.696 636.989 480.227 637.19 480.739 637.497C481.256 637.804 481.685 638.267 482.026 638.886C482.366 639.506 482.537 640.335 482.537 641.375V650H480.526V648.227H480.423C480.287 648.511 480.06 648.815 479.741 649.139C479.423 649.463 479 649.739 478.472 649.966C477.943 650.193 477.298 650.307 476.537 650.307ZM476.844 648.5C477.639 648.5 478.31 648.344 478.855 648.031C479.406 647.719 479.821 647.315 480.099 646.821C480.384 646.327 480.526 645.807 480.526 645.261V643.42C480.44 643.523 480.253 643.616 479.963 643.702C479.679 643.781 479.349 643.852 478.974 643.915C478.605 643.972 478.244 644.023 477.892 644.068C477.545 644.108 477.264 644.142 477.048 644.17C476.526 644.239 476.037 644.349 475.582 644.503C475.134 644.651 474.77 644.875 474.491 645.176C474.219 645.472 474.082 645.875 474.082 646.386C474.082 647.085 474.341 647.614 474.858 647.972C475.381 648.324 476.043 648.5 476.844 648.5ZM488.219 642.125V650H486.208V636.909H488.151V638.955H488.322C488.629 638.29 489.094 637.756 489.719 637.352C490.344 636.943 491.151 636.739 492.14 636.739C493.026 636.739 493.802 636.92 494.467 637.284C495.131 637.642 495.648 638.188 496.018 638.92C496.387 639.648 496.572 640.568 496.572 641.682V650H494.56V641.818C494.56 640.79 494.293 639.989 493.759 639.415C493.225 638.835 492.492 638.545 491.56 638.545C490.918 638.545 490.344 638.685 489.839 638.963C489.339 639.241 488.944 639.648 488.654 640.182C488.364 640.716 488.219 641.364 488.219 642.125Z" fill="black"/>
<rect x="313" y="764" width="86" height="41" rx="10" fill="#DDD3E0"/>
<path d="M325.83 794H323.614L330.023 776.545H332.205L338.614 794H336.398L331.182 779.307H331.045L325.83 794ZM326.648 787.182H335.58V789.057H326.648V787.182ZM350.332 783.841L348.526 784.352C348.412 784.051 348.244 783.759 348.023 783.474C347.807 783.185 347.511 782.946 347.136 782.759C346.761 782.571 346.281 782.477 345.696 782.477C344.895 782.477 344.227 782.662 343.693 783.031C343.165 783.395 342.901 783.858 342.901 784.42C342.901 784.92 343.082 785.315 343.446 785.605C343.81 785.895 344.378 786.136 345.151 786.33L347.094 786.807C348.264 787.091 349.136 787.526 349.71 788.111C350.284 788.69 350.571 789.437 350.571 790.352C350.571 791.102 350.355 791.773 349.923 792.364C349.497 792.955 348.901 793.42 348.134 793.761C347.366 794.102 346.474 794.273 345.457 794.273C344.122 794.273 343.017 793.983 342.142 793.403C341.267 792.824 340.713 791.977 340.48 790.864L342.389 790.386C342.571 791.091 342.915 791.619 343.42 791.972C343.932 792.324 344.599 792.5 345.423 792.5C346.361 792.5 347.105 792.301 347.656 791.903C348.213 791.5 348.491 791.017 348.491 790.455C348.491 790 348.332 789.619 348.014 789.312C347.696 789 347.207 788.767 346.548 788.614L344.366 788.102C343.168 787.818 342.287 787.378 341.724 786.781C341.168 786.179 340.889 785.426 340.889 784.523C340.889 783.784 341.097 783.131 341.511 782.562C341.932 781.994 342.503 781.548 343.224 781.224C343.952 780.901 344.776 780.739 345.696 780.739C346.991 780.739 348.009 781.023 348.747 781.591C349.491 782.159 350.02 782.909 350.332 783.841ZM353.599 794V780.909H355.61V794H353.599ZM354.621 778.727C354.229 778.727 353.891 778.594 353.607 778.327C353.329 778.06 353.19 777.739 353.19 777.364C353.19 776.989 353.329 776.668 353.607 776.401C353.891 776.134 354.229 776 354.621 776C355.013 776 355.349 776.134 355.627 776.401C355.911 776.668 356.053 776.989 356.053 777.364C356.053 777.739 355.911 778.06 355.627 778.327C355.349 778.594 355.013 778.727 354.621 778.727ZM363.146 794.307C362.317 794.307 361.564 794.151 360.888 793.838C360.212 793.52 359.675 793.062 359.277 792.466C358.879 791.864 358.68 791.136 358.68 790.284C358.68 789.534 358.828 788.926 359.124 788.46C359.419 787.989 359.814 787.619 360.308 787.352C360.803 787.085 361.348 786.886 361.945 786.756C362.547 786.619 363.152 786.511 363.76 786.432C364.555 786.33 365.2 786.253 365.695 786.202C366.195 786.145 366.558 786.051 366.786 785.92C367.018 785.79 367.135 785.562 367.135 785.239V785.17C367.135 784.33 366.905 783.676 366.445 783.21C365.99 782.744 365.3 782.511 364.374 782.511C363.413 782.511 362.661 782.722 362.115 783.142C361.57 783.562 361.186 784.011 360.964 784.489L359.055 783.807C359.396 783.011 359.851 782.392 360.419 781.949C360.993 781.5 361.618 781.187 362.294 781.011C362.976 780.83 363.646 780.739 364.305 780.739C364.726 780.739 365.209 780.79 365.754 780.892C366.305 780.989 366.837 781.19 367.348 781.497C367.865 781.804 368.294 782.267 368.635 782.886C368.976 783.506 369.146 784.335 369.146 785.375V794H367.135V792.227H367.033C366.896 792.511 366.669 792.815 366.351 793.139C366.033 793.463 365.609 793.739 365.081 793.966C364.553 794.193 363.908 794.307 363.146 794.307ZM363.453 792.5C364.249 792.5 364.919 792.344 365.464 792.031C366.016 791.719 366.43 791.315 366.709 790.821C366.993 790.327 367.135 789.807 367.135 789.261V787.42C367.05 787.523 366.862 787.616 366.572 787.702C366.288 787.781 365.959 787.852 365.584 787.915C365.214 787.972 364.854 788.023 364.501 788.068C364.155 788.108 363.874 788.142 363.658 788.17C363.135 788.239 362.646 788.349 362.192 788.503C361.743 788.651 361.379 788.875 361.101 789.176C360.828 789.472 360.692 789.875 360.692 790.386C360.692 791.085 360.95 791.614 361.467 791.972C361.99 792.324 362.652 792.5 363.453 792.5ZM374.829 786.125V794H372.817V780.909H374.761V782.955H374.931C375.238 782.29 375.704 781.756 376.329 781.352C376.954 780.943 377.761 780.739 378.749 780.739C379.636 780.739 380.411 780.92 381.076 781.284C381.741 781.642 382.258 782.188 382.627 782.92C382.996 783.648 383.181 784.568 383.181 785.682V794H381.17V785.818C381.17 784.79 380.903 783.989 380.369 783.415C379.835 782.835 379.102 782.545 378.17 782.545C377.528 782.545 376.954 782.685 376.448 782.963C375.948 783.241 375.553 783.648 375.263 784.182C374.974 784.716 374.829 785.364 374.829 786.125Z" fill="black"/>
<rect x="313" y="877" width="128" height="41" rx="10" fill="#DDD3E0"/>
<rect x="313" y="944" width="86" height="41" rx="10" fill="#DDD3E0"/>
<path d="M325.83 907H323.614L330.023 889.545H332.205L338.614 907H336.398L331.182 892.307H331.045L325.83 907ZM326.648 900.182H335.58V902.057H326.648V900.182ZM341.06 907V893.909H343.003V895.955H343.173C343.446 895.256 343.886 894.713 344.494 894.327C345.102 893.935 345.832 893.739 346.685 893.739C347.548 893.739 348.267 893.935 348.841 894.327C349.42 894.713 349.872 895.256 350.196 895.955H350.332C350.668 895.278 351.17 894.741 351.841 894.344C352.511 893.94 353.315 893.739 354.253 893.739C355.423 893.739 356.381 894.105 357.125 894.838C357.869 895.565 358.241 896.699 358.241 898.239V907H356.23V898.239C356.23 897.273 355.966 896.582 355.438 896.168C354.909 895.753 354.287 895.545 353.571 895.545C352.651 895.545 351.938 895.824 351.432 896.381C350.926 896.932 350.673 897.631 350.673 898.477V907H348.628V898.034C348.628 897.29 348.386 896.69 347.903 896.236C347.42 895.776 346.798 895.545 346.037 895.545C345.514 895.545 345.026 895.685 344.571 895.963C344.122 896.241 343.759 896.628 343.48 897.122C343.207 897.611 343.071 898.176 343.071 898.818V907H341.06ZM367.408 907.273C366.146 907.273 365.058 906.994 364.143 906.438C363.234 905.875 362.533 905.091 362.038 904.085C361.55 903.074 361.305 901.898 361.305 900.557C361.305 899.216 361.55 898.034 362.038 897.011C362.533 895.983 363.22 895.182 364.101 894.608C364.987 894.028 366.021 893.739 367.203 893.739C367.885 893.739 368.558 893.852 369.223 894.08C369.888 894.307 370.493 894.676 371.038 895.188C371.584 895.693 372.018 896.364 372.342 897.199C372.666 898.034 372.828 899.062 372.828 900.284V901.136H362.737V899.398H370.783C370.783 898.659 370.635 898 370.339 897.42C370.05 896.841 369.635 896.384 369.095 896.048C368.561 895.713 367.93 895.545 367.203 895.545C366.402 895.545 365.709 895.744 365.124 896.142C364.544 896.534 364.098 897.045 363.786 897.676C363.473 898.307 363.317 898.983 363.317 899.705V900.864C363.317 901.852 363.487 902.69 363.828 903.378C364.175 904.06 364.655 904.58 365.268 904.938C365.882 905.29 366.595 905.466 367.408 905.466C367.936 905.466 368.413 905.392 368.839 905.244C369.271 905.091 369.643 904.864 369.956 904.562C370.268 904.256 370.51 903.875 370.68 903.42L372.624 903.966C372.419 904.625 372.075 905.205 371.592 905.705C371.109 906.199 370.513 906.585 369.803 906.864C369.092 907.136 368.294 907.273 367.408 907.273ZM375.888 907V893.909H377.831V895.886H377.967C378.206 895.239 378.638 894.713 379.263 894.31C379.888 893.906 380.592 893.705 381.376 893.705C381.524 893.705 381.709 893.707 381.93 893.713C382.152 893.719 382.32 893.727 382.433 893.739V895.784C382.365 895.767 382.209 895.741 381.964 895.707C381.726 895.668 381.473 895.648 381.206 895.648C380.57 895.648 380.001 895.781 379.501 896.048C379.007 896.31 378.615 896.673 378.325 897.139C378.041 897.599 377.899 898.125 377.899 898.716V907H375.888ZM384.817 907V893.909H386.829V907H384.817ZM385.84 891.727C385.448 891.727 385.11 891.594 384.826 891.327C384.548 891.06 384.408 890.739 384.408 890.364C384.408 889.989 384.548 889.668 384.826 889.401C385.11 889.134 385.448 889 385.84 889C386.232 889 386.567 889.134 386.846 889.401C387.13 889.668 387.272 889.989 387.272 890.364C387.272 890.739 387.13 891.06 386.846 891.327C386.567 891.594 386.232 891.727 385.84 891.727ZM395.831 907.273C394.604 907.273 393.547 906.983 392.661 906.403C391.774 905.824 391.092 905.026 390.615 904.009C390.138 902.991 389.899 901.83 389.899 900.523C389.899 899.193 390.143 898.02 390.632 897.003C391.126 895.98 391.814 895.182 392.695 894.608C393.581 894.028 394.615 893.739 395.797 893.739C396.717 893.739 397.547 893.909 398.286 894.25C399.024 894.591 399.629 895.068 400.101 895.682C400.572 896.295 400.865 897.011 400.979 897.83H398.967C398.814 897.233 398.473 896.705 397.945 896.244C397.422 895.778 396.717 895.545 395.831 895.545C395.047 895.545 394.359 895.75 393.768 896.159C393.183 896.562 392.726 897.134 392.396 897.872C392.072 898.605 391.911 899.466 391.911 900.455C391.911 901.466 392.07 902.347 392.388 903.097C392.712 903.847 393.166 904.429 393.751 904.844C394.342 905.259 395.036 905.466 395.831 905.466C396.354 905.466 396.828 905.375 397.254 905.193C397.68 905.011 398.041 904.75 398.337 904.409C398.632 904.068 398.842 903.659 398.967 903.182H400.979C400.865 903.955 400.584 904.651 400.135 905.27C399.692 905.884 399.104 906.372 398.371 906.736C397.643 907.094 396.797 907.273 395.831 907.273ZM407.771 907.307C406.942 907.307 406.189 907.151 405.513 906.838C404.837 906.52 404.3 906.062 403.902 905.466C403.504 904.864 403.305 904.136 403.305 903.284C403.305 902.534 403.453 901.926 403.749 901.46C404.044 900.989 404.439 900.619 404.933 900.352C405.428 900.085 405.973 899.886 406.57 899.756C407.172 899.619 407.777 899.511 408.385 899.432C409.18 899.33 409.825 899.253 410.32 899.202C410.82 899.145 411.183 899.051 411.411 898.92C411.643 898.79 411.76 898.562 411.76 898.239V898.17C411.76 897.33 411.53 896.676 411.07 896.21C410.615 895.744 409.925 895.511 408.999 895.511C408.038 895.511 407.286 895.722 406.74 896.142C406.195 896.562 405.811 897.011 405.589 897.489L403.68 896.807C404.021 896.011 404.476 895.392 405.044 894.949C405.618 894.5 406.243 894.187 406.919 894.011C407.601 893.83 408.271 893.739 408.93 893.739C409.351 893.739 409.834 893.79 410.379 893.892C410.93 893.989 411.462 894.19 411.973 894.497C412.49 894.804 412.919 895.267 413.26 895.886C413.601 896.506 413.771 897.335 413.771 898.375V907H411.76V905.227H411.658C411.521 905.511 411.294 905.815 410.976 906.139C410.658 906.463 410.234 906.739 409.706 906.966C409.178 907.193 408.533 907.307 407.771 907.307ZM408.078 905.5C408.874 905.5 409.544 905.344 410.089 905.031C410.641 904.719 411.055 904.315 411.334 903.821C411.618 903.327 411.76 902.807 411.76 902.261V900.42C411.675 900.523 411.487 900.616 411.197 900.702C410.913 900.781 410.584 900.852 410.209 900.915C409.839 900.972 409.479 901.023 409.126 901.068C408.78 901.108 408.499 901.142 408.283 901.17C407.76 901.239 407.271 901.349 406.817 901.503C406.368 901.651 406.004 901.875 405.726 902.176C405.453 902.472 405.317 902.875 405.317 903.386C405.317 904.085 405.575 904.614 406.092 904.972C406.615 905.324 407.277 905.5 408.078 905.5ZM419.454 899.125V907H417.442V893.909H419.386V895.955H419.556C419.863 895.29 420.329 894.756 420.954 894.352C421.579 893.943 422.386 893.739 423.374 893.739C424.261 893.739 425.036 893.92 425.701 894.284C426.366 894.642 426.883 895.188 427.252 895.92C427.621 896.648 427.806 897.568 427.806 898.682V907H425.795V898.818C425.795 897.79 425.528 896.989 424.994 896.415C424.46 895.835 423.727 895.545 422.795 895.545C422.153 895.545 421.579 895.685 421.073 895.963C420.573 896.241 420.178 896.648 419.888 897.182C419.599 897.716 419.454 898.364 419.454 899.125Z" fill="black"/>
<path d="M339.841 964.273C339.841 966.114 339.509 967.705 338.844 969.045C338.179 970.386 337.267 971.42 336.108 972.148C334.949 972.875 333.625 973.239 332.136 973.239C330.648 973.239 329.324 972.875 328.165 972.148C327.006 971.42 326.094 970.386 325.429 969.045C324.764 967.705 324.432 966.114 324.432 964.273C324.432 962.432 324.764 960.841 325.429 959.5C326.094 958.159 327.006 957.125 328.165 956.398C329.324 955.67 330.648 955.307 332.136 955.307C333.625 955.307 334.949 955.67 336.108 956.398C337.267 957.125 338.179 958.159 338.844 959.5C339.509 960.841 339.841 962.432 339.841 964.273ZM337.795 964.273C337.795 962.761 337.543 961.486 337.037 960.446C336.537 959.406 335.858 958.619 335 958.085C334.148 957.551 333.193 957.284 332.136 957.284C331.08 957.284 330.122 957.551 329.264 958.085C328.412 958.619 327.733 959.406 327.227 960.446C326.727 961.486 326.477 962.761 326.477 964.273C326.477 965.784 326.727 967.06 327.227 968.099C327.733 969.139 328.412 969.926 329.264 970.46C330.122 970.994 331.08 971.261 332.136 971.261C333.193 971.261 334.148 970.994 335 970.46C335.858 969.926 336.537 969.139 337.037 968.099C337.543 967.06 337.795 965.784 337.795 964.273ZM348.815 959.909V961.614H342.031V959.909H348.815ZM344.009 956.773H346.02V969.25C346.02 969.818 346.102 970.244 346.267 970.528C346.438 970.807 346.653 970.994 346.915 971.091C347.182 971.182 347.463 971.227 347.759 971.227C347.98 971.227 348.162 971.216 348.304 971.193C348.446 971.165 348.56 971.142 348.645 971.125L349.054 972.932C348.918 972.983 348.727 973.034 348.483 973.085C348.239 973.142 347.929 973.17 347.554 973.17C346.986 973.17 346.429 973.048 345.884 972.804C345.344 972.56 344.895 972.188 344.537 971.688C344.185 971.188 344.009 970.557 344.009 969.795V956.773ZM354.134 965.125V973H352.122V955.545H354.134V961.955H354.304C354.611 961.278 355.071 960.741 355.685 960.344C356.304 959.94 357.128 959.739 358.156 959.739C359.048 959.739 359.83 959.918 360.5 960.276C361.17 960.628 361.69 961.17 362.06 961.903C362.435 962.631 362.622 963.557 362.622 964.682V973H360.611V964.818C360.611 963.778 360.341 962.974 359.801 962.406C359.267 961.832 358.526 961.545 357.577 961.545C356.918 961.545 356.327 961.685 355.804 961.963C355.287 962.241 354.878 962.648 354.577 963.182C354.281 963.716 354.134 964.364 354.134 965.125ZM371.79 973.273C370.529 973.273 369.441 972.994 368.526 972.438C367.617 971.875 366.915 971.091 366.421 970.085C365.933 969.074 365.688 967.898 365.688 966.557C365.688 965.216 365.933 964.034 366.421 963.011C366.915 961.983 367.603 961.182 368.484 960.608C369.37 960.028 370.404 959.739 371.586 959.739C372.268 959.739 372.941 959.852 373.606 960.08C374.271 960.307 374.876 960.676 375.421 961.188C375.967 961.693 376.401 962.364 376.725 963.199C377.049 964.034 377.211 965.062 377.211 966.284V967.136H367.12V965.398H375.165C375.165 964.659 375.018 964 374.722 963.42C374.433 962.841 374.018 962.384 373.478 962.048C372.944 961.713 372.313 961.545 371.586 961.545C370.785 961.545 370.092 961.744 369.506 962.142C368.927 962.534 368.481 963.045 368.168 963.676C367.856 964.307 367.7 964.983 367.7 965.705V966.864C367.7 967.852 367.87 968.69 368.211 969.378C368.558 970.06 369.038 970.58 369.651 970.938C370.265 971.29 370.978 971.466 371.79 971.466C372.319 971.466 372.796 971.392 373.222 971.244C373.654 971.091 374.026 970.864 374.339 970.562C374.651 970.256 374.893 969.875 375.063 969.42L377.006 969.966C376.802 970.625 376.458 971.205 375.975 971.705C375.492 972.199 374.896 972.585 374.185 972.864C373.475 973.136 372.677 973.273 371.79 973.273ZM380.271 973V959.909H382.214V961.886H382.35C382.589 961.239 383.021 960.713 383.646 960.31C384.271 959.906 384.975 959.705 385.759 959.705C385.907 959.705 386.092 959.707 386.313 959.713C386.535 959.719 386.702 959.727 386.816 959.739V961.784C386.748 961.767 386.592 961.741 386.347 961.707C386.109 961.668 385.856 961.648 385.589 961.648C384.952 961.648 384.384 961.781 383.884 962.048C383.39 962.31 382.998 962.673 382.708 963.139C382.424 963.599 382.282 964.125 382.282 964.716V973H380.271Z" fill="black"/>
<rect x="172" y="10" width="3" height="545" fill="#9F6AD4"/>
<rect x="172" y="551" width="17" height="3" fill="#9F6AD4"/>
<rect x="172" y="10" width="17" height="3" fill="#9F6AD4"/>
<path d="M59.5227 258.477C57.5227 258.477 55.7216 258.08 54.1193 257.284C52.517 256.489 51.233 255.398 50.267 254.011C49.3011 252.625 48.7727 251.045 48.6818 249.273H52.7727C52.9318 250.852 53.6477 252.159 54.9205 253.193C56.2045 254.216 57.7386 254.727 59.5227 254.727C60.9545 254.727 62.2273 254.392 63.3409 253.722C64.4659 253.051 65.3466 252.131 65.983 250.96C66.6307 249.778 66.9545 248.443 66.9545 246.955C66.9545 245.432 66.6193 244.074 65.9489 242.881C65.2898 241.676 64.3807 240.727 63.2216 240.034C62.0625 239.341 60.7386 238.989 59.25 238.977C58.1818 238.966 57.0852 239.131 55.9602 239.472C54.8352 239.801 53.9091 240.227 53.1818 240.75L49.2273 240.273L51.3409 223.091H69.4773V226.841H54.8864L53.6591 237.136H53.8636C54.5795 236.568 55.4773 236.097 56.5568 235.722C57.6364 235.347 58.7614 235.159 59.9318 235.159C62.0682 235.159 63.9716 235.67 65.642 236.693C67.3239 237.705 68.642 239.091 69.5966 240.852C70.5625 242.614 71.0455 244.625 71.0455 246.886C71.0455 249.114 70.5455 251.102 69.5455 252.852C68.5568 254.591 67.1932 255.966 65.4545 256.977C63.7159 257.977 61.7386 258.477 59.5227 258.477ZM78.9077 258L94.5213 227.114V226.841H76.5213V223.091H98.8849V227.045L83.3395 258H78.9077ZM123.034 251.455V249.614C123.034 248.341 123.295 247.176 123.818 246.119C124.352 245.051 125.125 244.199 126.136 243.562C127.159 242.915 128.398 242.591 129.852 242.591C131.33 242.591 132.568 242.915 133.568 243.562C134.568 244.199 135.324 245.051 135.835 246.119C136.347 247.176 136.602 248.341 136.602 249.614V251.455C136.602 252.727 136.341 253.898 135.818 254.966C135.307 256.023 134.545 256.875 133.534 257.523C132.534 258.159 131.307 258.477 129.852 258.477C128.375 258.477 127.131 258.159 126.119 257.523C125.108 256.875 124.341 256.023 123.818 254.966C123.295 253.898 123.034 252.727 123.034 251.455ZM126.511 249.614V251.455C126.511 252.511 126.761 253.46 127.261 254.301C127.761 255.131 128.625 255.545 129.852 255.545C131.045 255.545 131.886 255.131 132.375 254.301C132.875 253.46 133.125 252.511 133.125 251.455V249.614C133.125 248.557 132.886 247.614 132.409 246.784C131.932 245.943 131.08 245.523 129.852 245.523C128.659 245.523 127.801 245.943 127.278 246.784C126.767 247.614 126.511 248.557 126.511 249.614ZM105.648 231.477V229.636C105.648 228.364 105.909 227.199 106.432 226.142C106.966 225.074 107.739 224.222 108.75 223.585C109.773 222.937 111.011 222.614 112.466 222.614C113.943 222.614 115.182 222.937 116.182 223.585C117.182 224.222 117.938 225.074 118.449 226.142C118.96 227.199 119.216 228.364 119.216 229.636V231.477C119.216 232.75 118.955 233.92 118.432 234.989C117.92 236.045 117.159 236.898 116.148 237.545C115.148 238.182 113.92 238.5 112.466 238.5C110.989 238.5 109.744 238.182 108.733 237.545C107.722 236.898 106.955 236.045 106.432 234.989C105.909 233.92 105.648 232.75 105.648 231.477ZM109.125 229.636V231.477C109.125 232.534 109.375 233.483 109.875 234.324C110.375 235.153 111.239 235.568 112.466 235.568C113.659 235.568 114.5 235.153 114.989 234.324C115.489 233.483 115.739 232.534 115.739 231.477V229.636C115.739 228.58 115.5 227.636 115.023 226.807C114.545 225.966 113.693 225.545 112.466 225.545C111.273 225.545 110.415 225.966 109.892 226.807C109.381 227.636 109.125 228.58 109.125 229.636ZM106.943 258L130.943 223.091H134.83L110.83 258H106.943Z" fill="#4E1488"/>
<path d="M32.8857 292V281.091H34.5618V292H32.8857ZM33.7379 279.273C33.4112 279.273 33.1295 279.161 32.8928 278.939C32.6607 278.716 32.5447 278.449 32.5447 278.136C32.5447 277.824 32.6607 277.556 32.8928 277.334C33.1295 277.111 33.4112 277 33.7379 277C34.0646 277 34.344 277.111 34.576 277.334C34.8127 277.556 34.9311 277.824 34.9311 278.136C34.9311 278.449 34.8127 278.716 34.576 278.939C34.344 279.161 34.0646 279.273 33.7379 279.273ZM41.7511 292.227C40.842 292.227 40.0394 291.998 39.3434 291.538C38.6474 291.074 38.1029 290.421 37.7099 289.578C37.3169 288.731 37.1204 287.729 37.1204 286.574C37.1204 285.428 37.3169 284.434 37.7099 283.591C38.1029 282.748 38.6497 282.097 39.3505 281.638C40.0513 281.179 40.8609 280.949 41.7795 280.949C42.4897 280.949 43.0508 281.067 43.4627 281.304C43.8794 281.536 44.1966 281.801 44.4144 282.099C44.637 282.393 44.8098 282.634 44.9329 282.824H45.0749V277.455H46.7511V292H45.1317V290.324H44.9329C44.8098 290.523 44.6346 290.774 44.4073 291.077C44.18 291.375 43.8557 291.643 43.4343 291.879C43.0129 292.111 42.4518 292.227 41.7511 292.227ZM41.9783 290.722C42.6507 290.722 43.2189 290.546 43.6829 290.196C44.1469 289.841 44.4996 289.351 44.7411 288.726C44.9826 288.096 45.1033 287.369 45.1033 286.545C45.1033 285.731 44.985 285.018 44.7482 284.408C44.5115 283.792 44.1611 283.314 43.6971 282.973C43.2331 282.627 42.6602 282.455 41.9783 282.455C41.2681 282.455 40.6763 282.637 40.2028 283.001C39.734 283.361 39.3813 283.851 39.1445 284.472C38.9125 285.087 38.7965 285.778 38.7965 286.545C38.7965 287.322 38.9149 288.027 39.1516 288.662C39.3931 289.292 39.7482 289.794 40.217 290.168C40.6905 290.537 41.2776 290.722 41.9783 290.722ZM54.6275 292.227C53.5763 292.227 52.6696 291.995 51.9073 291.531C51.1497 291.062 50.565 290.409 50.1531 289.571C49.7459 288.728 49.5423 287.748 49.5423 286.631C49.5423 285.513 49.7459 284.528 50.1531 283.676C50.565 282.819 51.1379 282.152 51.8718 281.673C52.6104 281.19 53.4722 280.949 54.457 280.949C55.0252 280.949 55.5863 281.044 56.1403 281.233C56.6942 281.422 57.1985 281.73 57.6531 282.156C58.1076 282.578 58.4698 283.136 58.7397 283.832C59.0096 284.528 59.1445 285.385 59.1445 286.403V287.114H50.7354V285.665H57.44C57.44 285.049 57.3169 284.5 57.0707 284.017C56.8292 283.534 56.4835 283.153 56.0337 282.874C55.5887 282.594 55.0631 282.455 54.457 282.455C53.7894 282.455 53.2118 282.62 52.7241 282.952C52.2411 283.278 51.8694 283.705 51.609 284.23C51.3486 284.756 51.2184 285.319 51.2184 285.92V286.886C51.2184 287.71 51.3604 288.409 51.6445 288.982C51.9334 289.55 52.3335 289.983 52.8448 290.281C53.3562 290.575 53.9504 290.722 54.6275 290.722C55.0678 290.722 55.4656 290.66 55.8207 290.537C56.1805 290.409 56.4906 290.22 56.7511 289.969C57.0115 289.713 57.2127 289.396 57.3548 289.017L58.9741 289.472C58.8036 290.021 58.5172 290.504 58.1147 290.92C57.7122 291.332 57.2151 291.654 56.6232 291.886C56.0314 292.114 55.3661 292.227 54.6275 292.227ZM63.3704 285.438V292H61.6942V281.091H63.3136V282.795H63.4556C63.7113 282.241 64.0996 281.796 64.6204 281.46C65.1412 281.119 65.8136 280.949 66.6374 280.949C67.3761 280.949 68.0224 281.1 68.5763 281.403C69.1303 281.702 69.5612 282.156 69.869 282.767C70.1767 283.373 70.3306 284.14 70.3306 285.068V292H68.6545V285.182C68.6545 284.325 68.4319 283.657 67.9869 283.179C67.5418 282.696 66.931 282.455 66.1545 282.455C65.6194 282.455 65.1412 282.571 64.7198 282.803C64.3031 283.035 63.9741 283.373 63.7326 283.818C63.4911 284.263 63.3704 284.803 63.3704 285.438ZM78.1378 281.091V282.511H72.4844V281.091H78.1378ZM74.1321 278.477H75.8082V288.875C75.8082 289.348 75.8769 289.704 76.0142 289.94C76.1563 290.172 76.3362 290.329 76.554 290.409C76.7765 290.485 77.0109 290.523 77.2571 290.523C77.4418 290.523 77.5933 290.513 77.7116 290.494C77.83 290.471 77.9247 290.452 77.9957 290.438L78.3366 291.943C78.223 291.986 78.0644 292.028 77.8608 292.071C77.6572 292.118 77.3991 292.142 77.0866 292.142C76.6132 292.142 76.1491 292.04 75.6946 291.837C75.2448 291.633 74.8707 291.323 74.5724 290.906C74.2789 290.49 74.1321 289.964 74.1321 289.33V278.477ZM80.6591 292V281.091H82.3352V292H80.6591ZM81.5114 279.273C81.1847 279.273 80.9029 279.161 80.6662 278.939C80.4342 278.716 80.3182 278.449 80.3182 278.136C80.3182 277.824 80.4342 277.556 80.6662 277.334C80.9029 277.111 81.1847 277 81.5114 277C81.8381 277 82.1174 277.111 82.3494 277.334C82.5862 277.556 82.7045 277.824 82.7045 278.136C82.7045 278.449 82.5862 278.716 82.3494 278.939C82.1174 279.161 81.8381 279.273 81.5114 279.273ZM90.2631 281.091V282.511H84.3825V281.091H90.2631ZM86.1438 292V279.585C86.1438 278.96 86.2906 278.439 86.5842 278.023C86.8777 277.606 87.2589 277.294 87.7276 277.085C88.1964 276.877 88.6912 276.773 89.212 276.773C89.6239 276.773 89.9601 276.806 90.2205 276.872C90.4809 276.938 90.6751 277 90.8029 277.057L90.32 278.506C90.2347 278.477 90.1164 278.442 89.9648 278.399C89.8181 278.357 89.6239 278.335 89.3825 278.335C88.8285 278.335 88.4284 278.475 88.1822 278.754C87.9407 279.034 87.82 279.443 87.82 279.983V292H86.1438ZM93.6918 296.091C93.4077 296.091 93.1544 296.067 92.9318 296.02C92.7093 295.977 92.5554 295.935 92.4702 295.892L92.8963 294.415C93.3035 294.519 93.6634 294.557 93.9759 294.528C94.2884 294.5 94.5653 294.36 94.8068 294.109C95.053 293.863 95.2779 293.463 95.4815 292.909L95.794 292.057L91.7599 281.091H93.5781L96.5895 289.784H96.7031L99.7145 281.091H101.533L96.902 293.591C96.6937 294.154 96.4356 294.621 96.1278 294.99C95.8201 295.364 95.4626 295.641 95.0554 295.821C94.6529 296.001 94.1984 296.091 93.6918 296.091ZM109.597 292V277.455H111.273V282.824H111.415C111.539 282.634 111.709 282.393 111.927 282.099C112.149 281.801 112.467 281.536 112.879 281.304C113.295 281.067 113.859 280.949 114.569 280.949C115.487 280.949 116.297 281.179 116.998 281.638C117.699 282.097 118.246 282.748 118.638 283.591C119.031 284.434 119.228 285.428 119.228 286.574C119.228 287.729 119.031 288.731 118.638 289.578C118.246 290.421 117.701 291.074 117.005 291.538C116.309 291.998 115.506 292.227 114.597 292.227C113.897 292.227 113.335 292.111 112.914 291.879C112.493 291.643 112.168 291.375 111.941 291.077C111.714 290.774 111.539 290.523 111.415 290.324H111.217V292H109.597ZM111.245 286.545C111.245 287.369 111.366 288.096 111.607 288.726C111.849 289.351 112.201 289.841 112.665 290.196C113.129 290.546 113.698 290.722 114.37 290.722C115.071 290.722 115.656 290.537 116.124 290.168C116.598 289.794 116.953 289.292 117.19 288.662C117.431 288.027 117.552 287.322 117.552 286.545C117.552 285.778 117.433 285.087 117.197 284.472C116.965 283.851 116.612 283.361 116.138 283.001C115.67 282.637 115.08 282.455 114.37 282.455C113.688 282.455 113.115 282.627 112.651 282.973C112.187 283.314 111.837 283.792 111.6 284.408C111.363 285.018 111.245 285.731 111.245 286.545ZM122.481 296.091C122.197 296.091 121.943 296.067 121.721 296.02C121.498 295.977 121.344 295.935 121.259 295.892L121.685 294.415C122.093 294.519 122.452 294.557 122.765 294.528C123.077 294.5 123.354 294.36 123.596 294.109C123.842 293.863 124.067 293.463 124.271 292.909L124.583 292.057L120.549 281.091H122.367L125.379 289.784H125.492L128.504 281.091H130.322L125.691 293.591C125.483 294.154 125.225 294.621 124.917 294.99C124.609 295.364 124.252 295.641 123.844 295.821C123.442 296.001 122.987 296.091 122.481 296.091ZM15.1886 305.091V306.511H9.53516V305.091H15.1886ZM11.1829 302.477H12.859V312.875C12.859 313.348 12.9277 313.704 13.065 313.94C13.207 314.172 13.387 314.329 13.6048 314.409C13.8273 314.485 14.0617 314.523 14.3079 314.523C14.4925 314.523 14.6441 314.513 14.7624 314.494C14.8808 314.471 14.9755 314.452 15.0465 314.438L15.3874 315.943C15.2738 315.986 15.1152 316.028 14.9116 316.071C14.708 316.118 14.4499 316.142 14.1374 316.142C13.6639 316.142 13.1999 316.04 12.7454 315.837C12.2956 315.633 11.9215 315.323 11.6232 314.906C11.3297 314.49 11.1829 313.964 11.1829 313.33V302.477ZM19.6204 309.438V316H17.9442V301.455H19.6204V306.795H19.7624C20.0181 306.232 20.4016 305.785 20.913 305.453C21.4291 305.117 22.1156 304.949 22.9727 304.949C23.716 304.949 24.3671 305.098 24.9258 305.396C25.4845 305.69 25.9177 306.142 26.2255 306.753C26.538 307.359 26.6942 308.131 26.6942 309.068V316H25.0181V309.182C25.0181 308.315 24.7932 307.645 24.3434 307.172C23.8983 306.694 23.2804 306.455 22.4897 306.455C21.9405 306.455 21.448 306.571 21.0124 306.803C20.5816 307.035 20.2406 307.373 19.9897 307.818C19.7435 308.263 19.6204 308.803 19.6204 309.438ZM34.3345 316.227C33.2834 316.227 32.3767 315.995 31.6143 315.531C30.8568 315.062 30.272 314.409 29.8601 313.571C29.4529 312.728 29.2493 311.748 29.2493 310.631C29.2493 309.513 29.4529 308.528 29.8601 307.676C30.272 306.819 30.8449 306.152 31.5788 305.673C32.3175 305.19 33.1792 304.949 34.1641 304.949C34.7322 304.949 35.2933 305.044 35.8473 305.233C36.4013 305.422 36.9055 305.73 37.3601 306.156C37.8146 306.578 38.1768 307.136 38.4467 307.832C38.7166 308.528 38.8516 309.385 38.8516 310.403V311.114H30.4425V309.665H37.147C37.147 309.049 37.0239 308.5 36.7777 308.017C36.5362 307.534 36.1906 307.153 35.7408 306.874C35.2957 306.594 34.7701 306.455 34.1641 306.455C33.4964 306.455 32.9188 306.62 32.4311 306.952C31.9482 307.278 31.5765 307.705 31.3161 308.23C31.0556 308.756 30.9254 309.319 30.9254 309.92V310.886C30.9254 311.71 31.0675 312.409 31.3516 312.982C31.6404 313.55 32.0405 313.983 32.5518 314.281C33.0632 314.575 33.6574 314.722 34.3345 314.722C34.7749 314.722 35.1726 314.66 35.5277 314.537C35.8875 314.409 36.1977 314.22 36.4581 313.969C36.7185 313.713 36.9197 313.396 37.0618 313.017L38.6811 313.472C38.5107 314.021 38.2242 314.504 37.8217 314.92C37.4193 315.332 36.9221 315.654 36.3303 315.886C35.7384 316.114 35.0732 316.227 34.3345 316.227ZM41.4013 316V305.091H43.0774V316H41.4013ZM42.2536 303.273C41.9268 303.273 41.6451 303.161 41.4084 302.939C41.1764 302.716 41.0604 302.449 41.0604 302.136C41.0604 301.824 41.1764 301.556 41.4084 301.334C41.6451 301.111 41.9268 301 42.2536 301C42.5803 301 42.8596 301.111 43.0916 301.334C43.3284 301.556 43.4467 301.824 43.4467 302.136C43.4467 302.449 43.3284 302.716 43.0916 302.939C42.8596 303.161 42.5803 303.273 42.2536 303.273ZM46.1474 316V305.091H47.7667V306.739H47.8803C48.0792 306.199 48.439 305.761 48.9599 305.425C49.4807 305.089 50.0678 304.92 50.7212 304.92C50.8443 304.92 50.9982 304.923 51.1829 304.928C51.3675 304.932 51.5072 304.939 51.6019 304.949V306.653C51.5451 306.639 51.4149 306.618 51.2113 306.589C51.0124 306.556 50.8017 306.54 50.5792 306.54C50.0489 306.54 49.5754 306.651 49.1587 306.874C48.7468 307.091 48.4201 307.394 48.1786 307.783C47.9419 308.166 47.8235 308.604 47.8235 309.097V316H46.1474ZM66.9411 307.534L65.4354 307.96C65.3407 307.709 65.201 307.465 65.0163 307.229C64.8364 306.987 64.5902 306.788 64.2777 306.632C63.9652 306.476 63.5651 306.398 63.0774 306.398C62.4098 306.398 61.8535 306.552 61.4084 306.859C60.968 307.162 60.7479 307.548 60.7479 308.017C60.7479 308.434 60.8994 308.763 61.2024 309.004C61.5054 309.246 61.9789 309.447 62.6229 309.608L64.2422 310.006C65.2176 310.242 65.9444 310.605 66.4226 311.092C66.9008 311.575 67.1399 312.198 67.1399 312.96C67.1399 313.585 66.96 314.144 66.6001 314.636C66.245 315.129 65.7479 315.517 65.1087 315.801C64.4695 316.085 63.7261 316.227 62.8786 316.227C61.7659 316.227 60.8449 315.986 60.1158 315.503C59.3866 315.02 58.925 314.314 58.7308 313.386L60.3217 312.989C60.4732 313.576 60.7597 314.016 61.1811 314.31C61.6072 314.603 62.1636 314.75 62.8501 314.75C63.6314 314.75 64.2517 314.584 64.7109 314.253C65.175 313.917 65.407 313.514 65.407 313.045C65.407 312.667 65.2744 312.349 65.0092 312.094C64.7441 311.833 64.3369 311.639 63.7876 311.511L61.9695 311.085C60.9704 310.848 60.2365 310.482 59.7678 309.984C59.3037 309.482 59.0717 308.855 59.0717 308.102C59.0717 307.487 59.2446 306.942 59.5902 306.469C59.9406 305.995 60.4164 305.624 61.0178 305.354C61.6238 305.084 62.3104 304.949 63.0774 304.949C64.157 304.949 65.0045 305.186 65.62 305.659C66.2403 306.133 66.6806 306.758 66.9411 307.534ZM69.663 320.091V305.091H71.2823V306.824H71.4812C71.6043 306.634 71.7747 306.393 71.9925 306.099C72.2151 305.801 72.5323 305.536 72.9442 305.304C73.3609 305.067 73.9244 304.949 74.6346 304.949C75.5531 304.949 76.3628 305.179 77.0636 305.638C77.7643 306.097 78.3112 306.748 78.7042 307.591C79.0972 308.434 79.2937 309.428 79.2937 310.574C79.2937 311.729 79.0972 312.731 78.7042 313.578C78.3112 314.421 77.7667 315.074 77.0707 315.538C76.3746 315.998 75.5721 316.227 74.663 316.227C73.9622 316.227 73.4012 316.111 72.9798 315.879C72.5584 315.643 72.234 315.375 72.0067 315.077C71.7795 314.774 71.6043 314.523 71.4812 314.324H71.3391V320.091H69.663ZM71.3107 310.545C71.3107 311.369 71.4315 312.096 71.6729 312.726C71.9144 313.351 72.2672 313.841 72.7312 314.196C73.1952 314.546 73.7634 314.722 74.4357 314.722C75.1365 314.722 75.7212 314.537 76.19 314.168C76.6635 313.794 77.0186 313.292 77.2553 312.662C77.4968 312.027 77.6175 311.322 77.6175 310.545C77.6175 309.778 77.4992 309.087 77.2624 308.472C77.0304 307.851 76.6777 307.361 76.2042 307.001C75.7354 306.637 75.146 306.455 74.4357 306.455C73.7539 306.455 73.181 306.627 72.717 306.973C72.253 307.314 71.9026 307.792 71.6658 308.408C71.4291 309.018 71.3107 309.731 71.3107 310.545ZM86.4244 316.227C85.3732 316.227 84.4665 315.995 83.7042 315.531C82.9466 315.062 82.3619 314.409 81.9499 313.571C81.5427 312.728 81.3391 311.748 81.3391 310.631C81.3391 309.513 81.5427 308.528 81.9499 307.676C82.3619 306.819 82.9348 306.152 83.6687 305.673C84.4073 305.19 85.2691 304.949 86.2539 304.949C86.8221 304.949 87.3832 305.044 87.9371 305.233C88.4911 305.422 88.9954 305.73 89.4499 306.156C89.9045 306.578 90.2667 307.136 90.5366 307.832C90.8065 308.528 90.9414 309.385 90.9414 310.403V311.114H82.5323V309.665H89.2369C89.2369 309.049 89.1138 308.5 88.8675 308.017C88.6261 307.534 88.2804 307.153 87.8306 306.874C87.3855 306.594 86.86 306.455 86.2539 306.455C85.5863 306.455 85.0086 306.62 84.521 306.952C84.038 307.278 83.6663 307.705 83.4059 308.23C83.1455 308.756 83.0153 309.319 83.0153 309.92V310.886C83.0153 311.71 83.1573 312.409 83.4414 312.982C83.7302 313.55 84.1303 313.983 84.6417 314.281C85.1531 314.575 85.7473 314.722 86.4244 314.722C86.8647 314.722 87.2624 314.66 87.6175 314.537C87.9774 314.409 88.2875 314.22 88.5479 313.969C88.8084 313.713 89.0096 313.396 89.1516 313.017L90.771 313.472C90.6005 314.021 90.314 314.504 89.9116 314.92C89.5091 315.332 89.012 315.654 88.4201 315.886C87.8282 316.114 87.163 316.227 86.4244 316.227ZM97.9229 316.227C96.9002 316.227 96.0195 315.986 95.2809 315.503C94.5423 315.02 93.9741 314.355 93.5763 313.507C93.1786 312.66 92.9798 311.691 92.9798 310.602C92.9798 309.494 93.1834 308.517 93.5906 307.669C94.0025 306.817 94.5754 306.152 95.3093 305.673C96.0479 305.19 96.9097 304.949 97.8945 304.949C98.6616 304.949 99.3529 305.091 99.9684 305.375C100.584 305.659 101.088 306.057 101.481 306.568C101.874 307.08 102.118 307.676 102.213 308.358H100.537C100.409 307.861 100.125 307.42 99.6843 307.037C99.2487 306.649 98.6616 306.455 97.9229 306.455C97.2695 306.455 96.6966 306.625 96.2042 306.966C95.7165 307.302 95.3353 307.778 95.0607 308.393C94.7908 309.004 94.6559 309.722 94.6559 310.545C94.6559 311.388 94.7885 312.122 95.0536 312.747C95.3235 313.372 95.7023 313.857 96.19 314.203C96.6824 314.549 97.2601 314.722 97.9229 314.722C98.3585 314.722 98.7539 314.646 99.109 314.494C99.4641 314.343 99.7648 314.125 100.011 313.841C100.257 313.557 100.432 313.216 100.537 312.818H102.213C102.118 313.462 101.884 314.042 101.51 314.558C101.14 315.07 100.65 315.477 100.039 315.78C99.4334 316.078 98.7279 316.227 97.9229 316.227ZM104.663 316V305.091H106.339V316H104.663ZM105.515 303.273C105.189 303.273 104.907 303.161 104.67 302.939C104.438 302.716 104.322 302.449 104.322 302.136C104.322 301.824 104.438 301.556 104.67 301.334C104.907 301.111 105.189 301 105.515 301C105.842 301 106.121 301.111 106.353 301.334C106.59 301.556 106.708 301.824 106.708 302.136C106.708 302.449 106.59 302.716 106.353 302.939C106.121 303.161 105.842 303.273 105.515 303.273ZM114.267 305.091V306.511H108.386V305.091H114.267ZM110.148 316V303.585C110.148 302.96 110.295 302.439 110.588 302.023C110.882 301.606 111.263 301.294 111.732 301.085C112.2 300.877 112.695 300.773 113.216 300.773C113.628 300.773 113.964 300.806 114.224 300.872C114.485 300.938 114.679 301 114.807 301.057L114.324 302.506C114.239 302.477 114.12 302.442 113.969 302.399C113.822 302.357 113.628 302.335 113.386 302.335C112.832 302.335 112.432 302.475 112.186 302.754C111.945 303.034 111.824 303.443 111.824 303.983V316H110.148ZM116.616 316V305.091H118.292V316H116.616ZM117.468 303.273C117.142 303.273 116.86 303.161 116.623 302.939C116.391 302.716 116.275 302.449 116.275 302.136C116.275 301.824 116.391 301.556 116.623 301.334C116.86 301.111 117.142 301 117.468 301C117.795 301 118.074 301.111 118.306 301.334C118.543 301.556 118.662 301.824 118.662 302.136C118.662 302.449 118.543 302.716 118.306 302.939C118.074 303.161 117.795 303.273 117.468 303.273ZM125.794 316.227C124.771 316.227 123.891 315.986 123.152 315.503C122.413 315.02 121.845 314.355 121.447 313.507C121.05 312.66 120.851 311.691 120.851 310.602C120.851 309.494 121.054 308.517 121.462 307.669C121.874 306.817 122.446 306.152 123.18 305.673C123.919 305.19 124.781 304.949 125.766 304.949C126.533 304.949 127.224 305.091 127.839 305.375C128.455 305.659 128.959 306.057 129.352 306.568C129.745 307.08 129.989 307.676 130.084 308.358H128.408C128.28 307.861 127.996 307.42 127.555 307.037C127.12 306.649 126.533 306.455 125.794 306.455C125.141 306.455 124.568 306.625 124.075 306.966C123.588 307.302 123.206 307.778 122.932 308.393C122.662 309.004 122.527 309.722 122.527 310.545C122.527 311.388 122.66 312.122 122.925 312.747C123.195 313.372 123.573 313.857 124.061 314.203C124.554 314.549 125.131 314.722 125.794 314.722C126.23 314.722 126.625 314.646 126.98 314.494C127.335 314.343 127.636 314.125 127.882 313.841C128.128 313.557 128.304 313.216 128.408 312.818H130.084C129.989 313.462 129.755 314.042 129.381 314.558C129.011 315.07 128.521 315.477 127.911 315.78C127.304 316.078 126.599 316.227 125.794 316.227ZM55.3892 340.227C54.3381 340.227 53.4313 339.995 52.669 339.531C51.9115 339.062 51.3267 338.409 50.9148 337.571C50.5076 336.728 50.304 335.748 50.304 334.631C50.304 333.513 50.5076 332.528 50.9148 331.676C51.3267 330.819 51.8996 330.152 52.6335 329.673C53.3722 329.19 54.2339 328.949 55.2188 328.949C55.7869 328.949 56.348 329.044 56.902 329.233C57.456 329.422 57.9602 329.73 58.4148 330.156C58.8693 330.578 59.2315 331.136 59.5014 331.832C59.7713 332.528 59.9062 333.385 59.9062 334.403V335.114H51.4972V333.665H58.2017C58.2017 333.049 58.0786 332.5 57.8324 332.017C57.5909 331.534 57.2453 331.153 56.7955 330.874C56.3504 330.594 55.8248 330.455 55.2188 330.455C54.5511 330.455 53.9735 330.62 53.4858 330.952C53.0028 331.278 52.6312 331.705 52.3707 332.23C52.1103 332.756 51.9801 333.319 51.9801 333.92V334.886C51.9801 335.71 52.1222 336.409 52.4062 336.982C52.6951 337.55 53.0952 337.983 53.6065 338.281C54.1179 338.575 54.7121 338.722 55.3892 338.722C55.8295 338.722 56.2273 338.66 56.5824 338.537C56.9422 338.409 57.2524 338.22 57.5128 337.969C57.7732 337.713 57.9744 337.396 58.1165 337.017L59.7358 337.472C59.5653 338.021 59.2789 338.504 58.8764 338.92C58.474 339.332 57.9768 339.654 57.3849 339.886C56.7931 340.114 56.1278 340.227 55.3892 340.227ZM67.2003 329.091V330.511H61.5469V329.091H67.2003ZM63.1946 326.477H64.8707V336.875C64.8707 337.348 64.9394 337.704 65.0767 337.94C65.2188 338.172 65.3987 338.329 65.6165 338.409C65.839 338.485 66.0734 338.523 66.3196 338.523C66.5043 338.523 66.6558 338.513 66.7741 338.494C66.8925 338.471 66.9872 338.452 67.0582 338.438L67.3991 339.943C67.2855 339.986 67.1269 340.028 66.9233 340.071C66.7197 340.118 66.4616 340.142 66.1491 340.142C65.6757 340.142 65.2116 340.04 64.7571 339.837C64.3073 339.633 63.9332 339.323 63.6349 338.906C63.3414 338.49 63.1946 337.964 63.1946 337.33V326.477ZM71.6321 333.438V340H69.956V325.455H71.6321V330.795H71.7741C72.0298 330.232 72.4134 329.785 72.9247 329.453C73.4408 329.117 74.1274 328.949 74.9844 328.949C75.7277 328.949 76.3788 329.098 76.9375 329.396C77.4962 329.69 77.9295 330.142 78.2372 330.753C78.5497 331.359 78.706 332.131 78.706 333.068V340H77.0298V333.182C77.0298 332.315 76.8049 331.645 76.3551 331.172C75.91 330.694 75.2921 330.455 74.5014 330.455C73.9522 330.455 73.4598 330.571 73.0241 330.803C72.5933 331.035 72.2524 331.373 72.0014 331.818C71.7552 332.263 71.6321 332.803 71.6321 333.438ZM83.4485 333.438V340H81.7724V329.091H83.3917V330.795H83.5337C83.7894 330.241 84.1777 329.796 84.6985 329.46C85.2193 329.119 85.8917 328.949 86.7156 328.949C87.4542 328.949 88.1005 329.1 88.6545 329.403C89.2085 329.702 89.6393 330.156 89.9471 330.767C90.2549 331.373 90.4087 332.14 90.4087 333.068V340H88.7326V333.182C88.7326 332.325 88.5101 331.657 88.065 331.179C87.6199 330.696 87.0091 330.455 86.2326 330.455C85.6976 330.455 85.2193 330.571 84.7979 330.803C84.3813 331.035 84.0522 331.373 83.8107 331.818C83.5692 332.263 83.4485 332.803 83.4485 333.438ZM93.4716 340V329.091H95.1477V340H93.4716ZM94.3239 327.273C93.9972 327.273 93.7154 327.161 93.4787 326.939C93.2467 326.716 93.1307 326.449 93.1307 326.136C93.1307 325.824 93.2467 325.556 93.4787 325.334C93.7154 325.111 93.9972 325 94.3239 325C94.6506 325 94.9299 325.111 95.1619 325.334C95.3987 325.556 95.517 325.824 95.517 326.136C95.517 326.449 95.3987 326.716 95.1619 326.939C94.9299 327.161 94.6506 327.273 94.3239 327.273ZM102.65 340.227C101.627 340.227 100.746 339.986 100.007 339.503C99.2688 339.02 98.7006 338.355 98.3029 337.507C97.9052 336.66 97.7063 335.691 97.7063 334.602C97.7063 333.494 97.9099 332.517 98.3171 331.669C98.729 330.817 99.302 330.152 100.036 329.673C100.775 329.19 101.636 328.949 102.621 328.949C103.388 328.949 104.079 329.091 104.695 329.375C105.31 329.659 105.815 330.057 106.208 330.568C106.601 331.08 106.845 331.676 106.939 332.358H105.263C105.135 331.861 104.851 331.42 104.411 331.037C103.975 330.649 103.388 330.455 102.65 330.455C101.996 330.455 101.423 330.625 100.931 330.966C100.443 331.302 100.062 331.778 99.7873 332.393C99.5174 333.004 99.3825 333.722 99.3825 334.545C99.3825 335.388 99.515 336.122 99.7802 336.747C100.05 337.372 100.429 337.857 100.917 338.203C101.409 338.549 101.987 338.722 102.65 338.722C103.085 338.722 103.48 338.646 103.836 338.494C104.191 338.343 104.491 338.125 104.738 337.841C104.984 337.557 105.159 337.216 105.263 336.818H106.939C106.845 337.462 106.61 338.042 106.236 338.558C105.867 339.07 105.377 339.477 104.766 339.78C104.16 340.078 103.454 340.227 102.65 340.227ZM109.39 340V329.091H111.066V340H109.39ZM110.242 327.273C109.915 327.273 109.633 327.161 109.397 326.939C109.165 326.716 109.049 326.449 109.049 326.136C109.049 325.824 109.165 325.556 109.397 325.334C109.633 325.111 109.915 325 110.242 325C110.569 325 110.848 325.111 111.08 325.334C111.317 325.556 111.435 325.824 111.435 326.136C111.435 326.449 111.317 326.716 111.08 326.939C110.848 327.161 110.569 327.273 110.242 327.273ZM118.88 329.091V330.511H113.227V329.091H118.88ZM114.874 326.477H116.55V336.875C116.55 337.348 116.619 337.704 116.756 337.94C116.898 338.172 117.078 338.329 117.296 338.409C117.519 338.485 117.753 338.523 117.999 338.523C118.184 338.523 118.335 338.513 118.454 338.494C118.572 338.471 118.667 338.452 118.738 338.438L119.079 339.943C118.965 339.986 118.807 340.028 118.603 340.071C118.399 340.118 118.141 340.142 117.829 340.142C117.355 340.142 116.891 340.04 116.437 339.837C115.987 339.633 115.613 339.323 115.315 338.906C115.021 338.49 114.874 337.964 114.874 337.33V326.477ZM122.481 344.091C122.197 344.091 121.943 344.067 121.721 344.02C121.498 343.977 121.344 343.935 121.259 343.892L121.685 342.415C122.093 342.519 122.452 342.557 122.765 342.528C123.077 342.5 123.354 342.36 123.596 342.109C123.842 341.863 124.067 341.463 124.271 340.909L124.583 340.057L120.549 329.091H122.367L125.379 337.784H125.492L128.504 329.091H130.322L125.691 341.591C125.483 342.154 125.225 342.621 124.917 342.99C124.609 343.364 124.252 343.641 123.844 343.821C123.442 344.001 122.987 344.091 122.481 344.091Z" fill="#4E1488"/>
</svg>
