<svg width="1015" height="297" viewBox="0 0 1015 297" fill="none" xmlns="http://www.w3.org/2000/svg">
<rect x="260" y="104.116" width="80" height="260" transform="rotate(90 260 104.116)" fill="#4E1488"/>
<rect x="509" y="104.036" width="80" height="250" transform="rotate(90 509 104.036)" fill="#743AAF"/>
<rect x="728.002" y="103.952" width="80" height="160" transform="rotate(90 728.002 103.952)" fill="#FFBF00"/>
<rect x="848" y="103.908" width="80" height="120" transform="rotate(90 848 103.908)" fill="#FFDF7F"/>
<rect x="947.002" y="103.873" width="80" height="100" transform="rotate(90 947.002 103.873)" fill="#FFF4D3"/>
<rect x="569.002" y="103.986" width="80" height="60" transform="rotate(90 569.002 103.986)" fill="#9F6AD4"/>
<rect x="977.002" y="103.853" width="80" height="30" transform="rotate(90 977.002 103.853)" fill="#D9D9D9"/>
<rect x="73.998" y="53" width="103" height="37" rx="10" fill="#DDD3E0"/>
<path d="M85.7594 79V64.4545H94.5378V66.017H87.5208V70.9318H94.0833V72.4943H87.5208V77.4375H94.6515V79H85.7594ZM102.23 68.0909V69.5114H96.5762V68.0909H102.23ZM98.2239 65.4773H99.9V75.875C99.9 76.3485 99.9687 76.7036 100.106 76.9403C100.248 77.1723 100.428 77.3286 100.646 77.4091C100.868 77.4848 101.103 77.5227 101.349 77.5227C101.534 77.5227 101.685 77.5133 101.803 77.4943C101.922 77.4706 102.017 77.4517 102.088 77.4375L102.428 78.9432C102.315 78.9858 102.156 79.0284 101.953 79.071C101.749 79.1184 101.491 79.142 101.178 79.142C100.705 79.142 100.241 79.0402 99.7864 78.8366C99.3366 78.633 98.9625 78.3229 98.6642 77.9062C98.3707 77.4896 98.2239 76.964 98.2239 76.3295V65.4773ZM106.661 72.4375V79H104.985V64.4545H106.661V69.7955H106.803C107.059 69.232 107.443 68.7846 107.954 68.4531C108.47 68.117 109.157 67.9489 110.014 67.9489C110.757 67.9489 111.408 68.098 111.967 68.3963C112.526 68.6899 112.959 69.142 113.267 69.7528C113.579 70.3589 113.735 71.1307 113.735 72.0682V79H112.059V72.1818C112.059 71.3153 111.834 70.6454 111.384 70.1719C110.939 69.6937 110.321 69.4545 109.531 69.4545C108.981 69.4545 108.489 69.5705 108.053 69.8026C107.623 70.0346 107.282 70.3731 107.031 70.8182C106.785 71.2633 106.661 71.803 106.661 72.4375ZM118.478 72.4375V79H116.802V68.0909H118.421V69.7955H118.563C118.819 69.2415 119.207 68.7964 119.728 68.4602C120.249 68.1193 120.921 67.9489 121.745 67.9489C122.483 67.9489 123.13 68.1004 123.684 68.4034C124.238 68.7017 124.669 69.1562 124.976 69.767C125.284 70.3731 125.438 71.1402 125.438 72.0682V79H123.762V72.1818C123.762 71.3248 123.539 70.6572 123.094 70.179C122.649 69.696 122.038 69.4545 121.262 69.4545C120.727 69.4545 120.249 69.5705 119.827 69.8026C119.411 70.0346 119.081 70.3731 118.84 70.8182C118.599 71.2633 118.478 71.803 118.478 72.4375ZM128.501 79V68.0909H130.177V79H128.501ZM129.353 66.2727C129.026 66.2727 128.745 66.1615 128.508 65.9389C128.276 65.7164 128.16 65.4489 128.16 65.1364C128.16 64.8239 128.276 64.5563 128.508 64.3338C128.745 64.1113 129.026 64 129.353 64C129.68 64 129.959 64.1113 130.191 64.3338C130.428 64.5563 130.546 64.8239 130.546 65.1364C130.546 65.4489 130.428 65.7164 130.191 65.9389C129.959 66.1615 129.68 66.2727 129.353 66.2727ZM137.679 79.2273C136.656 79.2273 135.775 78.9858 135.037 78.5028C134.298 78.0199 133.73 77.3546 133.332 76.5071C132.934 75.6596 132.736 74.6913 132.736 73.6023C132.736 72.4943 132.939 71.5166 133.346 70.669C133.758 69.8168 134.331 69.1515 135.065 68.6733C135.804 68.1903 136.666 67.9489 137.65 67.9489C138.417 67.9489 139.109 68.0909 139.724 68.375C140.34 68.6591 140.844 69.0568 141.237 69.5682C141.63 70.0795 141.874 70.6761 141.969 71.358H140.292C140.165 70.8608 139.881 70.4205 139.44 70.0369C139.005 69.6487 138.417 69.4545 137.679 69.4545C137.025 69.4545 136.452 69.625 135.96 69.9659C135.472 70.3021 135.091 70.7779 134.817 71.3935C134.547 72.0043 134.412 72.7216 134.412 73.5455C134.412 74.3883 134.544 75.1222 134.809 75.7472C135.079 76.3722 135.458 76.8575 135.946 77.2031C136.438 77.5488 137.016 77.7216 137.679 77.7216C138.114 77.7216 138.51 77.6458 138.865 77.4943C139.22 77.3428 139.521 77.125 139.767 76.8409C140.013 76.5568 140.188 76.2159 140.292 75.8182H141.969C141.874 76.4621 141.64 77.0421 141.265 77.5582C140.896 78.0696 140.406 78.4768 139.795 78.7798C139.189 79.0781 138.484 79.2273 137.679 79.2273ZM144.419 79V68.0909H146.095V79H144.419ZM145.271 66.2727C144.944 66.2727 144.663 66.1615 144.426 65.9389C144.194 65.7164 144.078 65.4489 144.078 65.1364C144.078 64.8239 144.194 64.5563 144.426 64.3338C144.663 64.1113 144.944 64 145.271 64C145.598 64 145.877 64.1113 146.109 64.3338C146.346 64.5563 146.464 64.8239 146.464 65.1364C146.464 65.4489 146.346 65.7164 146.109 65.9389C145.877 66.1615 145.598 66.2727 145.271 66.2727ZM153.909 68.0909V69.5114H148.256V68.0909H153.909ZM149.904 65.4773H151.58V75.875C151.58 76.3485 151.648 76.7036 151.786 76.9403C151.928 77.1723 152.108 77.3286 152.325 77.4091C152.548 77.4848 152.782 77.5227 153.029 77.5227C153.213 77.5227 153.365 77.5133 153.483 77.4943C153.602 77.4706 153.696 77.4517 153.767 77.4375L154.108 78.9432C153.994 78.9858 153.836 79.0284 153.632 79.071C153.429 79.1184 153.171 79.142 152.858 79.142C152.385 79.142 151.921 79.0402 151.466 78.8366C151.016 78.633 150.642 78.3229 150.344 77.9062C150.05 77.4896 149.904 76.964 149.904 76.3295V65.4773ZM157.51 83.0909C157.226 83.0909 156.973 83.0672 156.75 83.0199C156.528 82.9773 156.374 82.9347 156.289 82.892L156.715 81.4148C157.122 81.5189 157.482 81.5568 157.794 81.5284C158.107 81.5 158.384 81.3603 158.625 81.1094C158.871 80.8632 159.096 80.4631 159.3 79.9091L159.612 79.0568L155.578 68.0909H157.396L160.408 76.7841H160.521L163.533 68.0909H165.351L160.72 80.5909C160.512 81.1544 160.254 81.6207 159.946 81.9901C159.638 82.3641 159.281 82.6411 158.874 82.821C158.471 83.0009 158.017 83.0909 157.51 83.0909Z" fill="black"/>
<path d="M115.413 153V150.341L121.626 144.588C122.154 144.077 122.597 143.616 122.955 143.207C123.319 142.798 123.595 142.398 123.782 142.006C123.97 141.608 124.063 141.179 124.063 140.719C124.063 140.207 123.947 139.767 123.714 139.398C123.481 139.023 123.163 138.736 122.759 138.537C122.356 138.332 121.899 138.23 121.387 138.23C120.853 138.23 120.387 138.338 119.99 138.554C119.592 138.77 119.285 139.08 119.069 139.483C118.853 139.886 118.745 140.366 118.745 140.923H115.242C115.242 139.781 115.501 138.79 116.018 137.949C116.535 137.108 117.259 136.457 118.191 135.997C119.123 135.537 120.197 135.307 121.413 135.307C122.663 135.307 123.751 135.528 124.677 135.972C125.609 136.409 126.333 137.017 126.85 137.795C127.367 138.574 127.626 139.466 127.626 140.472C127.626 141.131 127.495 141.781 127.234 142.423C126.978 143.065 126.521 143.778 125.862 144.562C125.203 145.341 124.274 146.276 123.075 147.366L120.526 149.864V149.983H127.856V153H115.413ZM137.229 153.239C136.331 153.233 135.465 153.082 134.629 152.787C133.8 152.491 133.056 152.011 132.396 151.347C131.737 150.682 131.215 149.801 130.828 148.705C130.448 147.608 130.257 146.261 130.257 144.665C130.263 143.199 130.431 141.889 130.76 140.736C131.095 139.577 131.573 138.594 132.192 137.787C132.817 136.98 133.564 136.366 134.433 135.946C135.303 135.52 136.277 135.307 137.357 135.307C138.521 135.307 139.55 135.534 140.442 135.989C141.334 136.437 142.05 137.048 142.59 137.821C143.135 138.594 143.465 139.46 143.578 140.42H139.939C139.797 139.812 139.499 139.335 139.044 138.989C138.59 138.642 138.027 138.469 137.357 138.469C136.22 138.469 135.357 138.963 134.766 139.952C134.181 140.94 133.882 142.284 133.871 143.983H133.99C134.252 143.466 134.604 143.026 135.047 142.662C135.496 142.293 136.004 142.011 136.573 141.818C137.146 141.619 137.752 141.52 138.388 141.52C139.422 141.52 140.343 141.764 141.149 142.253C141.956 142.736 142.593 143.401 143.058 144.247C143.524 145.094 143.757 146.062 143.757 147.153C143.757 148.335 143.482 149.386 142.931 150.307C142.385 151.227 141.621 151.949 140.638 152.472C139.661 152.989 138.524 153.244 137.229 153.239ZM137.212 150.341C137.78 150.341 138.289 150.205 138.737 149.932C139.186 149.659 139.539 149.29 139.794 148.824C140.05 148.358 140.178 147.835 140.178 147.256C140.178 146.676 140.05 146.156 139.794 145.696C139.544 145.236 139.198 144.869 138.754 144.597C138.311 144.324 137.806 144.188 137.237 144.188C136.811 144.188 136.416 144.267 136.053 144.426C135.695 144.585 135.379 144.807 135.107 145.091C134.84 145.375 134.629 145.705 134.476 146.08C134.323 146.449 134.246 146.844 134.246 147.264C134.246 147.827 134.374 148.341 134.629 148.807C134.891 149.273 135.243 149.645 135.686 149.923C136.135 150.202 136.644 150.341 137.212 150.341Z" fill="white"/>
<path d="M366.413 152V149.341L372.626 143.588C373.154 143.077 373.597 142.616 373.955 142.207C374.319 141.798 374.595 141.398 374.782 141.006C374.97 140.608 375.063 140.179 375.063 139.719C375.063 139.207 374.947 138.767 374.714 138.398C374.481 138.023 374.163 137.736 373.759 137.537C373.356 137.332 372.899 137.23 372.387 137.23C371.853 137.23 371.387 137.338 370.99 137.554C370.592 137.77 370.285 138.08 370.069 138.483C369.853 138.886 369.745 139.366 369.745 139.923H366.242C366.242 138.781 366.501 137.79 367.018 136.949C367.535 136.108 368.259 135.457 369.191 134.997C370.123 134.537 371.197 134.307 372.413 134.307C373.663 134.307 374.751 134.528 375.677 134.972C376.609 135.409 377.333 136.017 377.85 136.795C378.367 137.574 378.626 138.466 378.626 139.472C378.626 140.131 378.495 140.781 378.234 141.423C377.978 142.065 377.521 142.778 376.862 143.562C376.203 144.341 375.274 145.276 374.075 146.366L371.526 148.864V148.983H378.856V152H366.413ZM387.905 152.239C386.7 152.239 385.627 152.017 384.683 151.574C383.746 151.131 383.002 150.52 382.45 149.741C381.899 148.963 381.612 148.071 381.59 147.065H385.169C385.209 147.741 385.493 148.29 386.021 148.71C386.55 149.131 387.178 149.341 387.905 149.341C388.485 149.341 388.996 149.213 389.439 148.957C389.888 148.696 390.237 148.335 390.487 147.875C390.743 147.409 390.871 146.875 390.871 146.273C390.871 145.659 390.74 145.119 390.479 144.653C390.223 144.187 389.868 143.824 389.414 143.562C388.959 143.301 388.439 143.168 387.854 143.162C387.343 143.162 386.845 143.267 386.362 143.477C385.885 143.687 385.513 143.974 385.246 144.338L381.965 143.75L382.791 134.545H393.462V137.562H385.834L385.382 141.935H385.485C385.791 141.503 386.254 141.145 386.874 140.861C387.493 140.577 388.186 140.435 388.953 140.435C390.004 140.435 390.942 140.682 391.766 141.176C392.59 141.67 393.24 142.349 393.718 143.213C394.195 144.071 394.431 145.06 394.425 146.179C394.431 147.355 394.158 148.401 393.607 149.315C393.061 150.224 392.297 150.94 391.314 151.463C390.337 151.98 389.2 152.239 387.905 152.239Z" fill="white"/>
<path d="M645.009 134.545V152H641.318V138.048H641.216L637.219 140.554V137.281L641.54 134.545H645.009ZM655.856 152.239C654.958 152.233 654.092 152.082 653.256 151.787C652.427 151.491 651.683 151.011 651.023 150.347C650.364 149.682 649.842 148.801 649.455 147.705C649.075 146.608 648.884 145.261 648.884 143.665C648.89 142.199 649.058 140.889 649.387 139.736C649.722 138.577 650.2 137.594 650.819 136.787C651.444 135.98 652.191 135.366 653.06 134.946C653.93 134.52 654.904 134.307 655.984 134.307C657.148 134.307 658.177 134.534 659.069 134.989C659.961 135.437 660.677 136.048 661.217 136.821C661.762 137.594 662.092 138.46 662.205 139.42H658.566C658.424 138.812 658.126 138.335 657.671 137.989C657.217 137.642 656.654 137.469 655.984 137.469C654.847 137.469 653.984 137.963 653.393 138.952C652.808 139.94 652.509 141.284 652.498 142.983H652.617C652.879 142.466 653.231 142.026 653.674 141.662C654.123 141.293 654.631 141.011 655.2 140.818C655.773 140.619 656.379 140.52 657.015 140.52C658.049 140.52 658.969 140.764 659.776 141.253C660.583 141.736 661.219 142.401 661.685 143.247C662.151 144.094 662.384 145.062 662.384 146.153C662.384 147.335 662.109 148.386 661.558 149.307C661.012 150.227 660.248 150.949 659.265 151.472C658.288 151.989 657.151 152.244 655.856 152.239ZM655.839 149.341C656.407 149.341 656.915 149.205 657.364 148.932C657.813 148.659 658.165 148.29 658.421 147.824C658.677 147.358 658.805 146.835 658.805 146.256C658.805 145.676 658.677 145.156 658.421 144.696C658.171 144.236 657.825 143.869 657.381 143.597C656.938 143.324 656.433 143.188 655.864 143.188C655.438 143.188 655.043 143.267 654.68 143.426C654.322 143.585 654.006 143.807 653.734 144.091C653.467 144.375 653.256 144.705 653.103 145.08C652.95 145.449 652.873 145.844 652.873 146.264C652.873 146.827 653.001 147.341 653.256 147.807C653.518 148.273 653.87 148.645 654.313 148.923C654.762 149.202 655.271 149.341 655.839 149.341Z" fill="black"/>
<path d="M781.007 134.545V152H777.316V138.048H777.214L773.217 140.554V137.281L777.538 134.545H781.007ZM785.155 152V149.341L791.368 143.588C791.896 143.077 792.34 142.616 792.698 142.207C793.061 141.798 793.337 141.398 793.524 141.006C793.712 140.608 793.806 140.179 793.806 139.719C793.806 139.207 793.689 138.767 793.456 138.398C793.223 138.023 792.905 137.736 792.502 137.537C792.098 137.332 791.641 137.23 791.129 137.23C790.595 137.23 790.129 137.338 789.732 137.554C789.334 137.77 789.027 138.08 788.811 138.483C788.595 138.886 788.487 139.366 788.487 139.923H784.985C784.985 138.781 785.243 137.79 785.76 136.949C786.277 136.108 787.002 135.457 787.933 134.997C788.865 134.537 789.939 134.307 791.155 134.307C792.405 134.307 793.493 134.528 794.419 134.972C795.351 135.409 796.075 136.017 796.593 136.795C797.11 137.574 797.368 138.466 797.368 139.472C797.368 140.131 797.237 140.781 796.976 141.423C796.72 142.065 796.263 142.778 795.604 143.562C794.945 144.341 794.016 145.276 792.817 146.366L790.269 148.864V148.983H797.598V152H785.155Z" fill="black"/>
<path d="M889.009 134.545V152H885.318V138.048H885.216L881.219 140.554V137.281L885.54 134.545H889.009ZM900.001 152.384C898.535 152.378 897.273 152.017 896.217 151.301C895.165 150.585 894.356 149.548 893.788 148.19C893.225 146.832 892.947 145.199 892.952 143.29C892.952 141.386 893.234 139.764 893.796 138.423C894.364 137.082 895.174 136.062 896.225 135.364C897.282 134.659 898.54 134.307 900.001 134.307C901.461 134.307 902.717 134.659 903.768 135.364C904.825 136.068 905.637 137.091 906.205 138.432C906.773 139.767 907.055 141.386 907.049 143.29C907.049 145.205 906.765 146.841 906.197 148.199C905.634 149.557 904.827 150.594 903.776 151.31C902.725 152.026 901.467 152.384 900.001 152.384ZM900.001 149.324C901.001 149.324 901.799 148.821 902.396 147.815C902.992 146.81 903.288 145.301 903.282 143.29C903.282 141.966 903.146 140.864 902.873 139.983C902.606 139.102 902.225 138.44 901.731 137.997C901.242 137.554 900.665 137.332 900.001 137.332C899.006 137.332 898.211 137.83 897.614 138.824C897.018 139.818 896.717 141.307 896.711 143.29C896.711 144.631 896.844 145.75 897.112 146.648C897.384 147.54 897.768 148.21 898.262 148.659C898.756 149.102 899.336 149.324 900.001 149.324Z" fill="black"/>
<path d="M540.114 152.239C539.216 152.233 538.349 152.082 537.514 151.787C536.685 151.491 535.94 151.011 535.281 150.347C534.622 149.682 534.099 148.801 533.713 147.705C533.332 146.608 533.142 145.261 533.142 143.665C533.148 142.199 533.315 140.889 533.645 139.736C533.98 138.577 534.457 137.594 535.077 136.787C535.702 135.98 536.449 135.366 537.318 134.946C538.188 134.52 539.162 134.307 540.241 134.307C541.406 134.307 542.435 134.534 543.327 134.989C544.219 135.437 544.935 136.048 545.474 136.821C546.02 137.594 546.349 138.46 546.463 139.42H542.824C542.682 138.812 542.384 138.335 541.929 137.989C541.474 137.642 540.912 137.469 540.241 137.469C539.105 137.469 538.241 137.963 537.651 138.952C537.065 139.94 536.767 141.284 536.756 142.983H536.875C537.136 142.466 537.489 142.026 537.932 141.662C538.381 141.293 538.889 141.011 539.457 140.818C540.031 140.619 540.636 140.52 541.273 140.52C542.307 140.52 543.227 140.764 544.034 141.253C544.841 141.736 545.477 142.401 545.943 143.247C546.409 144.094 546.642 145.062 546.642 146.153C546.642 147.335 546.366 148.386 545.815 149.307C545.27 150.227 544.506 150.949 543.523 151.472C542.545 151.989 541.409 152.244 540.114 152.239ZM540.097 149.341C540.665 149.341 541.173 149.205 541.622 148.932C542.071 148.659 542.423 148.29 542.679 147.824C542.935 147.358 543.062 146.835 543.062 146.256C543.062 145.676 542.935 145.156 542.679 144.696C542.429 144.236 542.082 143.869 541.639 143.597C541.196 143.324 540.69 143.188 540.122 143.188C539.696 143.188 539.301 143.267 538.938 143.426C538.58 143.585 538.264 143.807 537.991 144.091C537.724 144.375 537.514 144.705 537.361 145.08C537.207 145.449 537.131 145.844 537.131 146.264C537.131 146.827 537.259 147.341 537.514 147.807C537.776 148.273 538.128 148.645 538.571 148.923C539.02 149.202 539.528 149.341 540.097 149.341Z" fill="white"/>
<path d="M961.866 152.239C960.594 152.239 959.46 152.02 958.466 151.582C957.477 151.139 956.696 150.531 956.122 149.759C955.554 148.98 955.261 148.082 955.244 147.065H958.96C958.983 147.491 959.122 147.866 959.378 148.19C959.639 148.509 959.986 148.756 960.418 148.932C960.849 149.108 961.335 149.196 961.875 149.196C962.438 149.196 962.935 149.097 963.366 148.898C963.798 148.699 964.136 148.423 964.381 148.071C964.625 147.719 964.747 147.312 964.747 146.852C964.747 146.386 964.616 145.974 964.355 145.616C964.099 145.253 963.73 144.969 963.247 144.764C962.77 144.56 962.202 144.457 961.543 144.457H959.915V141.747H961.543C962.099 141.747 962.591 141.651 963.017 141.457C963.449 141.264 963.784 140.997 964.023 140.656C964.261 140.31 964.381 139.906 964.381 139.446C964.381 139.009 964.276 138.625 964.065 138.295C963.861 137.96 963.571 137.699 963.196 137.511C962.827 137.324 962.395 137.23 961.901 137.23C961.401 137.23 960.943 137.321 960.528 137.503C960.114 137.679 959.781 137.932 959.531 138.261C959.281 138.591 959.148 138.977 959.131 139.42H955.594C955.611 138.415 955.898 137.528 956.455 136.761C957.011 135.994 957.761 135.395 958.705 134.963C959.653 134.526 960.724 134.307 961.918 134.307C963.122 134.307 964.176 134.526 965.08 134.963C965.983 135.401 966.685 135.991 967.185 136.736C967.69 137.474 967.94 138.304 967.935 139.224C967.94 140.202 967.636 141.017 967.023 141.67C966.415 142.324 965.622 142.739 964.645 142.915V143.051C965.929 143.216 966.906 143.662 967.577 144.389C968.253 145.111 968.588 146.014 968.582 147.099C968.588 148.094 968.301 148.977 967.722 149.75C967.148 150.523 966.355 151.131 965.344 151.574C964.332 152.017 963.173 152.239 961.866 152.239Z" fill="black"/>
<rect x="266.998" y="53" width="238" height="37" rx="10" fill="#DDD3E0"/>
<path d="M278.759 79V64.4545H287.538V66.017H280.521V70.9318H287.083V72.4943H280.521V77.4375H287.651V79H278.759ZM295.23 68.0909V69.5114H289.576V68.0909H295.23ZM291.224 65.4773H292.9V75.875C292.9 76.3485 292.969 76.7036 293.106 76.9403C293.248 77.1723 293.428 77.3286 293.646 77.4091C293.868 77.4848 294.103 77.5227 294.349 77.5227C294.534 77.5227 294.685 77.5133 294.803 77.4943C294.922 77.4706 295.017 77.4517 295.088 77.4375L295.428 78.9432C295.315 78.9858 295.156 79.0284 294.953 79.071C294.749 79.1184 294.491 79.142 294.178 79.142C293.705 79.142 293.241 79.0402 292.786 78.8366C292.337 78.633 291.963 78.3229 291.664 77.9062C291.371 77.4896 291.224 76.964 291.224 76.3295V65.4773ZM299.661 72.4375V79H297.985V64.4545H299.661V69.7955H299.803C300.059 69.232 300.443 68.7846 300.954 68.4531C301.47 68.117 302.157 67.9489 303.014 67.9489C303.757 67.9489 304.408 68.098 304.967 68.3963C305.526 68.6899 305.959 69.142 306.267 69.7528C306.579 70.3589 306.735 71.1307 306.735 72.0682V79H305.059V72.1818C305.059 71.3153 304.834 70.6454 304.384 70.1719C303.939 69.6937 303.321 69.4545 302.531 69.4545C301.981 69.4545 301.489 69.5705 301.053 69.8026C300.623 70.0346 300.282 70.3731 300.031 70.8182C299.785 71.2633 299.661 71.803 299.661 72.4375ZM311.478 72.4375V79H309.802V68.0909H311.421V69.7955H311.563C311.819 69.2415 312.207 68.7964 312.728 68.4602C313.249 68.1193 313.921 67.9489 314.745 67.9489C315.483 67.9489 316.13 68.1004 316.684 68.4034C317.238 68.7017 317.669 69.1562 317.976 69.767C318.284 70.3731 318.438 71.1402 318.438 72.0682V79H316.762V72.1818C316.762 71.3248 316.539 70.6572 316.094 70.179C315.649 69.696 315.038 69.4545 314.262 69.4545C313.727 69.4545 313.249 69.5705 312.827 69.8026C312.411 70.0346 312.081 70.3731 311.84 70.8182C311.599 71.2633 311.478 71.803 311.478 72.4375ZM321.501 79V68.0909H323.177V79H321.501ZM322.353 66.2727C322.026 66.2727 321.745 66.1615 321.508 65.9389C321.276 65.7164 321.16 65.4489 321.16 65.1364C321.16 64.8239 321.276 64.5563 321.508 64.3338C321.745 64.1113 322.026 64 322.353 64C322.68 64 322.959 64.1113 323.191 64.3338C323.428 64.5563 323.546 64.8239 323.546 65.1364C323.546 65.4489 323.428 65.7164 323.191 65.9389C322.959 66.1615 322.68 66.2727 322.353 66.2727ZM330.679 79.2273C329.656 79.2273 328.775 78.9858 328.037 78.5028C327.298 78.0199 326.73 77.3546 326.332 76.5071C325.934 75.6596 325.736 74.6913 325.736 73.6023C325.736 72.4943 325.939 71.5166 326.346 70.669C326.758 69.8168 327.331 69.1515 328.065 68.6733C328.804 68.1903 329.666 67.9489 330.65 67.9489C331.417 67.9489 332.109 68.0909 332.724 68.375C333.34 68.6591 333.844 69.0568 334.237 69.5682C334.63 70.0795 334.874 70.6761 334.969 71.358H333.292C333.165 70.8608 332.881 70.4205 332.44 70.0369C332.005 69.6487 331.417 69.4545 330.679 69.4545C330.025 69.4545 329.452 69.625 328.96 69.9659C328.472 70.3021 328.091 70.7779 327.817 71.3935C327.547 72.0043 327.412 72.7216 327.412 73.5455C327.412 74.3883 327.544 75.1222 327.809 75.7472C328.079 76.3722 328.458 76.8575 328.946 77.2031C329.438 77.5488 330.016 77.7216 330.679 77.7216C331.114 77.7216 331.51 77.6458 331.865 77.4943C332.22 77.3428 332.521 77.125 332.767 76.8409C333.013 76.5568 333.188 76.2159 333.292 75.8182H334.969C334.874 76.4621 334.64 77.0421 334.265 77.5582C333.896 78.0696 333.406 78.4768 332.795 78.7798C332.189 79.0781 331.484 79.2273 330.679 79.2273ZM337.419 79V68.0909H339.095V79H337.419ZM338.271 66.2727C337.944 66.2727 337.663 66.1615 337.426 65.9389C337.194 65.7164 337.078 65.4489 337.078 65.1364C337.078 64.8239 337.194 64.5563 337.426 64.3338C337.663 64.1113 337.944 64 338.271 64C338.598 64 338.877 64.1113 339.109 64.3338C339.346 64.5563 339.464 64.8239 339.464 65.1364C339.464 65.4489 339.346 65.7164 339.109 65.9389C338.877 66.1615 338.598 66.2727 338.271 66.2727ZM346.909 68.0909V69.5114H341.256V68.0909H346.909ZM342.904 65.4773H344.58V75.875C344.58 76.3485 344.648 76.7036 344.786 76.9403C344.928 77.1723 345.108 77.3286 345.325 77.4091C345.548 77.4848 345.782 77.5227 346.029 77.5227C346.213 77.5227 346.365 77.5133 346.483 77.4943C346.602 77.4706 346.696 77.4517 346.767 77.4375L347.108 78.9432C346.994 78.9858 346.836 79.0284 346.632 79.071C346.429 79.1184 346.171 79.142 345.858 79.142C345.385 79.142 344.921 79.0402 344.466 78.8366C344.016 78.633 343.642 78.3229 343.344 77.9062C343.05 77.4896 342.904 76.964 342.904 76.3295V65.4773ZM350.51 83.0909C350.226 83.0909 349.973 83.0672 349.75 83.0199C349.528 82.9773 349.374 82.9347 349.289 82.892L349.715 81.4148C350.122 81.5189 350.482 81.5568 350.794 81.5284C351.107 81.5 351.384 81.3603 351.625 81.1094C351.871 80.8632 352.096 80.4631 352.3 79.9091L352.612 79.0568L348.578 68.0909H350.396L353.408 76.7841H353.521L356.533 68.0909H358.351L353.72 80.5909C353.512 81.1544 353.254 81.6207 352.946 81.9901C352.638 82.3641 352.281 82.6411 351.874 82.821C351.471 83.0009 351.017 83.0909 350.51 83.0909ZM369.399 79.2557C368.707 79.2557 368.08 79.1255 367.517 78.8651C366.953 78.5999 366.506 78.2188 366.174 77.7216C365.843 77.2197 365.677 76.6136 365.677 75.9034C365.677 75.2784 365.8 74.7718 366.046 74.3835C366.293 73.9905 366.622 73.6828 367.034 73.4602C367.445 73.2377 367.9 73.072 368.397 72.9631C368.899 72.8494 369.403 72.7595 369.91 72.6932C370.573 72.608 371.11 72.544 371.522 72.5014C371.939 72.4541 372.242 72.3759 372.431 72.267C372.625 72.1581 372.722 71.9687 372.722 71.6989V71.642C372.722 70.9413 372.531 70.3968 372.147 70.0085C371.768 69.6203 371.193 69.4261 370.421 69.4261C369.621 69.4261 368.994 69.6013 368.539 69.9517C368.085 70.3021 367.765 70.6761 367.58 71.0739L365.99 70.5057C366.274 69.8428 366.652 69.3267 367.126 68.9574C367.604 68.5833 368.125 68.3229 368.688 68.1761C369.257 68.0246 369.815 67.9489 370.365 67.9489C370.715 67.9489 371.117 67.9915 371.572 68.0767C372.031 68.1572 372.474 68.3253 372.9 68.581C373.331 68.8366 373.688 69.2225 373.972 69.7386C374.257 70.2547 374.399 70.946 374.399 71.8125V79H372.722V77.5227H372.637C372.524 77.7595 372.334 78.0128 372.069 78.2827C371.804 78.5526 371.451 78.7822 371.011 78.9716C370.57 79.161 370.033 79.2557 369.399 79.2557ZM369.654 77.75C370.317 77.75 370.876 77.6198 371.33 77.3594C371.79 77.099 372.135 76.7628 372.367 76.3509C372.604 75.9389 372.722 75.5057 372.722 75.0511V73.517C372.651 73.6023 372.495 73.6804 372.254 73.7514C372.017 73.8177 371.742 73.8769 371.43 73.929C371.122 73.9763 370.821 74.0189 370.528 74.0568C370.239 74.09 370.005 74.1184 369.825 74.142C369.389 74.1989 368.982 74.2912 368.603 74.419C368.229 74.5421 367.926 74.7292 367.694 74.9801C367.467 75.2263 367.353 75.5625 367.353 75.9886C367.353 76.571 367.569 77.0114 367.999 77.3097C368.435 77.6032 368.987 77.75 369.654 77.75ZM379.134 72.4375V79H377.458V68.0909H379.077V69.7955H379.219C379.475 69.2415 379.863 68.7964 380.384 68.4602C380.905 68.1193 381.577 67.9489 382.401 67.9489C383.14 67.9489 383.786 68.1004 384.34 68.4034C384.894 68.7017 385.325 69.1562 385.633 69.767C385.94 70.3731 386.094 71.1402 386.094 72.0682V79H384.418V72.1818C384.418 71.3248 384.196 70.6572 383.751 70.179C383.305 69.696 382.695 69.4545 381.918 69.4545C381.383 69.4545 380.905 69.5705 380.483 69.8026C380.067 70.0346 379.738 70.3731 379.496 70.8182C379.255 71.2633 379.134 71.803 379.134 72.4375ZM393.276 79.2273C392.367 79.2273 391.565 78.9976 390.869 78.5384C390.173 78.0743 389.628 77.4209 389.235 76.5781C388.842 75.7306 388.646 74.7292 388.646 73.5739C388.646 72.428 388.842 71.4337 389.235 70.5909C389.628 69.7481 390.175 69.0971 390.876 68.6378C391.577 68.1785 392.386 67.9489 393.305 67.9489C394.015 67.9489 394.576 68.0672 394.988 68.304C395.405 68.536 395.722 68.8011 395.94 69.0994C396.162 69.393 396.335 69.6345 396.458 69.8239H396.6V64.4545H398.276V79H396.657V77.3239H396.458C396.335 77.5227 396.16 77.7737 395.933 78.0767C395.705 78.375 395.381 78.6425 394.96 78.8793C394.538 79.1113 393.977 79.2273 393.276 79.2273ZM393.504 77.7216C394.176 77.7216 394.744 77.5464 395.208 77.196C395.672 76.8409 396.025 76.3509 396.267 75.7259C396.508 75.0961 396.629 74.3693 396.629 73.5455C396.629 72.7311 396.51 72.0185 396.274 71.4077C396.037 70.7921 395.686 70.3139 395.222 69.973C394.758 69.6274 394.186 69.4545 393.504 69.4545C392.794 69.4545 392.202 69.6368 391.728 70.0014C391.259 70.3613 390.907 70.8513 390.67 71.4716C390.438 72.0871 390.322 72.7784 390.322 73.5455C390.322 74.322 390.44 75.0275 390.677 75.6619C390.919 76.2917 391.274 76.7936 391.742 77.1676C392.216 77.5369 392.803 77.7216 393.504 77.7216ZM408.028 79H406.181L411.522 64.4545H413.34L418.681 79H416.835L412.488 66.7557H412.374L408.028 79ZM408.71 73.3182H416.153V74.8807H408.71V73.3182ZM420.72 79V68.0909H422.339V69.7955H422.481C422.708 69.2131 423.075 68.7609 423.582 68.4389C424.088 68.1122 424.697 67.9489 425.407 67.9489C426.127 67.9489 426.726 68.1122 427.204 68.4389C427.687 68.7609 428.063 69.2131 428.333 69.7955H428.447C428.726 69.232 429.145 68.7846 429.704 68.4531C430.263 68.117 430.933 67.9489 431.714 67.9489C432.689 67.9489 433.487 68.2543 434.107 68.8651C434.728 69.4711 435.038 70.4157 435.038 71.6989V79H433.362V71.6989C433.362 70.8939 433.142 70.3187 432.701 69.973C432.261 69.6274 431.742 69.4545 431.146 69.4545C430.379 69.4545 429.785 69.6866 429.363 70.1506C428.942 70.6098 428.731 71.1922 428.731 71.8977V79H427.026V71.5284C427.026 70.9081 426.825 70.4086 426.423 70.0298C426.02 69.6463 425.502 69.4545 424.867 69.4545C424.432 69.4545 424.025 69.5705 423.646 69.8026C423.272 70.0346 422.969 70.3565 422.737 70.7685C422.509 71.1757 422.396 71.6468 422.396 72.1818V79H420.72ZM442.676 79.2273C441.625 79.2273 440.718 78.9953 439.956 78.5312C439.199 78.0625 438.614 77.4091 438.202 76.571C437.795 75.7282 437.591 74.7481 437.591 73.6307C437.591 72.5133 437.795 71.5284 438.202 70.6761C438.614 69.8191 439.187 69.1515 439.921 68.6733C440.659 68.1903 441.521 67.9489 442.506 67.9489C443.074 67.9489 443.635 68.0436 444.189 68.233C444.743 68.4223 445.247 68.7301 445.702 69.1562C446.156 69.5777 446.519 70.1364 446.789 70.8324C447.058 71.5284 447.193 72.3854 447.193 73.4034V74.1136H438.784V72.6648H445.489C445.489 72.0492 445.366 71.5 445.119 71.017C444.878 70.5341 444.532 70.1529 444.083 69.8736C443.637 69.5942 443.112 69.4545 442.506 69.4545C441.838 69.4545 441.261 69.6203 440.773 69.9517C440.29 70.2784 439.918 70.7045 439.658 71.2301C439.397 71.7557 439.267 72.3191 439.267 72.9205V73.8864C439.267 74.7102 439.409 75.4086 439.693 75.9815C439.982 76.5497 440.382 76.983 440.894 77.2812C441.405 77.5748 441.999 77.7216 442.676 77.7216C443.117 77.7216 443.514 77.66 443.869 77.5369C444.229 77.4091 444.539 77.2197 444.8 76.9688C445.06 76.7131 445.262 76.3958 445.404 76.017L447.023 76.4716C446.852 77.0208 446.566 77.5038 446.164 77.9205C445.761 78.3324 445.264 78.6544 444.672 78.8864C444.08 79.1136 443.415 79.2273 442.676 79.2273ZM449.743 79V68.0909H451.362V69.7386H451.476C451.675 69.1989 452.035 68.7609 452.556 68.4247C453.076 68.0885 453.664 67.9205 454.317 67.9205C454.44 67.9205 454.594 67.9228 454.779 67.9276C454.963 67.9323 455.103 67.9394 455.198 67.9489V69.6534C455.141 69.6392 455.011 69.6179 454.807 69.5895C454.608 69.5563 454.397 69.5398 454.175 69.5398C453.645 69.5398 453.171 69.651 452.754 69.8736C452.343 70.0914 452.016 70.3944 451.774 70.7827C451.538 71.1662 451.419 71.6042 451.419 72.0966V79H449.743ZM457.184 79V68.0909H458.861V79H457.184ZM458.037 66.2727C457.71 66.2727 457.428 66.1615 457.192 65.9389C456.96 65.7164 456.844 65.4489 456.844 65.1364C456.844 64.8239 456.96 64.5563 457.192 64.3338C457.428 64.1113 457.71 64 458.037 64C458.363 64 458.643 64.1113 458.875 64.3338C459.112 64.5563 459.23 64.8239 459.23 65.1364C459.23 65.4489 459.112 65.7164 458.875 65.9389C458.643 66.1615 458.363 66.2727 458.037 66.2727ZM466.362 79.2273C465.34 79.2273 464.459 78.9858 463.72 78.5028C462.982 78.0199 462.414 77.3546 462.016 76.5071C461.618 75.6596 461.419 74.6913 461.419 73.6023C461.419 72.4943 461.623 71.5166 462.03 70.669C462.442 69.8168 463.015 69.1515 463.749 68.6733C464.487 68.1903 465.349 67.9489 466.334 67.9489C467.101 67.9489 467.792 68.0909 468.408 68.375C469.023 68.6591 469.528 69.0568 469.921 69.5682C470.314 70.0795 470.557 70.6761 470.652 71.358H468.976C468.848 70.8608 468.564 70.4205 468.124 70.0369C467.688 69.6487 467.101 69.4545 466.362 69.4545C465.709 69.4545 465.136 69.625 464.644 69.9659C464.156 70.3021 463.775 70.7779 463.5 71.3935C463.23 72.0043 463.095 72.7216 463.095 73.5455C463.095 74.3883 463.228 75.1222 463.493 75.7472C463.763 76.3722 464.142 76.8575 464.629 77.2031C465.122 77.5488 465.7 77.7216 466.362 77.7216C466.798 77.7216 467.193 77.6458 467.548 77.4943C467.904 77.3428 468.204 77.125 468.45 76.8409C468.697 76.5568 468.872 76.2159 468.976 75.8182H470.652C470.557 76.4621 470.323 77.0421 469.949 77.5582C469.58 78.0696 469.09 78.4768 468.479 78.7798C467.873 79.0781 467.167 79.2273 466.362 79.2273ZM476.313 79.2557C475.621 79.2557 474.994 79.1255 474.431 78.8651C473.867 78.5999 473.42 78.2188 473.088 77.7216C472.757 77.2197 472.591 76.6136 472.591 75.9034C472.591 75.2784 472.714 74.7718 472.96 74.3835C473.207 73.9905 473.536 73.6828 473.948 73.4602C474.36 73.2377 474.814 73.072 475.311 72.9631C475.813 72.8494 476.317 72.7595 476.824 72.6932C477.487 72.608 478.024 72.544 478.436 72.5014C478.853 72.4541 479.156 72.3759 479.345 72.267C479.539 72.1581 479.637 71.9687 479.637 71.6989V71.642C479.637 70.9413 479.445 70.3968 479.061 70.0085C478.682 69.6203 478.107 69.4261 477.335 69.4261C476.535 69.4261 475.908 69.6013 475.453 69.9517C474.999 70.3021 474.679 70.6761 474.494 71.0739L472.904 70.5057C473.188 69.8428 473.566 69.3267 474.04 68.9574C474.518 68.5833 475.039 68.3229 475.602 68.1761C476.171 68.0246 476.729 67.9489 477.279 67.9489C477.629 67.9489 478.031 67.9915 478.486 68.0767C478.945 68.1572 479.388 68.3253 479.814 68.581C480.245 68.8366 480.602 69.2225 480.887 69.7386C481.171 70.2547 481.313 70.946 481.313 71.8125V79H479.637V77.5227H479.551C479.438 77.7595 479.248 78.0128 478.983 78.2827C478.718 78.5526 478.365 78.7822 477.925 78.9716C477.485 79.161 476.947 79.2557 476.313 79.2557ZM476.568 77.75C477.231 77.75 477.79 77.6198 478.244 77.3594C478.704 77.099 479.049 76.7628 479.281 76.3509C479.518 75.9389 479.637 75.5057 479.637 75.0511V73.517C479.566 73.6023 479.409 73.6804 479.168 73.7514C478.931 73.8177 478.656 73.8769 478.344 73.929C478.036 73.9763 477.735 74.0189 477.442 74.0568C477.153 74.09 476.919 74.1184 476.739 74.142C476.303 74.1989 475.896 74.2912 475.517 74.419C475.143 74.5421 474.84 74.7292 474.608 74.9801C474.381 75.2263 474.267 75.5625 474.267 75.9886C474.267 76.571 474.483 77.0114 474.914 77.3097C475.349 77.6032 475.901 77.75 476.568 77.75ZM486.048 72.4375V79H484.372V68.0909H485.991V69.7955H486.133C486.389 69.2415 486.777 68.7964 487.298 68.4602C487.819 68.1193 488.491 67.9489 489.315 67.9489C490.054 67.9489 490.7 68.1004 491.254 68.4034C491.808 68.7017 492.239 69.1562 492.547 69.767C492.854 70.3731 493.008 71.1402 493.008 72.0682V79H491.332V72.1818C491.332 71.3248 491.11 70.6572 490.665 70.179C490.22 69.696 489.609 69.4545 488.832 69.4545C488.297 69.4545 487.819 69.5705 487.398 69.8026C486.981 70.0346 486.652 70.3731 486.41 70.8182C486.169 71.2633 486.048 71.803 486.048 72.4375Z" fill="black"/>
<rect x="464" width="159" height="38" rx="10" fill="#DDD3E0"/>
<path d="M475.761 26V11.4545H480.676C481.813 11.4545 482.745 11.6487 483.474 12.0369C484.204 12.4205 484.743 12.9484 485.094 13.6207C485.444 14.2931 485.619 15.0578 485.619 15.9148C485.619 16.7718 485.444 17.5317 485.094 18.1946C484.743 18.8575 484.206 19.3783 483.482 19.7571C482.757 20.1312 481.831 20.3182 480.705 20.3182H476.727V18.7273H480.648C481.424 18.7273 482.049 18.6136 482.523 18.3864C483.001 18.1591 483.347 17.8371 483.56 17.4205C483.777 16.9991 483.886 16.4972 483.886 15.9148C483.886 15.3324 483.777 14.8234 483.56 14.3878C483.342 13.9522 482.994 13.616 482.516 13.3793C482.037 13.1378 481.405 13.017 480.619 13.017H477.523V26H475.761ZM482.608 19.4659L486.188 26H484.142L480.619 19.4659H482.608ZM492.784 26.2273C491.733 26.2273 490.826 25.9953 490.064 25.5312C489.306 25.0625 488.721 24.4091 488.309 23.571C487.902 22.7282 487.699 21.7481 487.699 20.6307C487.699 19.5133 487.902 18.5284 488.309 17.6761C488.721 16.8191 489.294 16.1515 490.028 15.6733C490.767 15.1903 491.628 14.9489 492.613 14.9489C493.181 14.9489 493.743 15.0436 494.297 15.233C494.85 15.4223 495.355 15.7301 495.809 16.1562C496.264 16.5777 496.626 17.1364 496.896 17.8324C497.166 18.5284 497.301 19.3854 497.301 20.4034V21.1136H488.892V19.6648H495.596C495.596 19.0492 495.473 18.5 495.227 18.017C494.985 17.5341 494.64 17.1529 494.19 16.8736C493.745 16.5942 493.219 16.4545 492.613 16.4545C491.946 16.4545 491.368 16.6203 490.88 16.9517C490.397 17.2784 490.026 17.7045 489.765 18.2301C489.505 18.7557 489.375 19.3191 489.375 19.9205V20.8864C489.375 21.7102 489.517 22.4086 489.801 22.9815C490.09 23.5497 490.49 23.983 491.001 24.2812C491.512 24.5748 492.107 24.7216 492.784 24.7216C493.224 24.7216 493.622 24.66 493.977 24.5369C494.337 24.4091 494.647 24.2197 494.907 23.9688C495.168 23.7131 495.369 23.3958 495.511 23.017L497.13 23.4716C496.96 24.0208 496.673 24.5038 496.271 24.9205C495.868 25.3324 495.371 25.6544 494.779 25.8864C494.188 26.1136 493.522 26.2273 492.784 26.2273ZM504.254 30.3182C503.444 30.3182 502.748 30.214 502.166 30.0057C501.583 29.8021 501.098 29.5322 500.71 29.196C500.326 28.8646 500.021 28.5095 499.794 28.1307L501.129 27.1932C501.28 27.392 501.472 27.6193 501.704 27.875C501.936 28.1354 502.253 28.3603 502.656 28.5497C503.063 28.7438 503.596 28.8409 504.254 28.8409C505.135 28.8409 505.861 28.6278 506.434 28.2017C507.007 27.7756 507.294 27.108 507.294 26.1989V23.983H507.152C507.029 24.1818 506.853 24.428 506.626 24.7216C506.404 25.0104 506.082 25.2685 505.66 25.4957C505.243 25.7183 504.68 25.8295 503.97 25.8295C503.089 25.8295 502.298 25.6212 501.598 25.2045C500.902 24.7879 500.35 24.1818 499.943 23.3864C499.54 22.5909 499.339 21.625 499.339 20.4886C499.339 19.3712 499.536 18.3982 499.929 17.5696C500.322 16.7363 500.868 16.0923 501.569 15.6378C502.27 15.1785 503.08 14.9489 503.998 14.9489C504.708 14.9489 505.272 15.0672 505.689 15.304C506.11 15.536 506.432 15.8011 506.654 16.0994C506.882 16.393 507.057 16.6345 507.18 16.8239H507.35V15.0909H508.97V26.3125C508.97 27.25 508.757 28.0123 508.331 28.5994C507.909 29.1913 507.341 29.6245 506.626 29.8991C505.916 30.1785 505.125 30.3182 504.254 30.3182ZM504.197 24.3239C504.869 24.3239 505.438 24.17 505.902 23.8622C506.366 23.5545 506.718 23.1117 506.96 22.5341C507.201 21.9564 507.322 21.2652 507.322 20.4602C507.322 19.6742 507.204 18.9806 506.967 18.3793C506.73 17.7779 506.38 17.3068 505.916 16.9659C505.452 16.625 504.879 16.4545 504.197 16.4545C503.487 16.4545 502.895 16.6345 502.422 16.9943C501.953 17.3542 501.6 17.8371 501.363 18.4432C501.131 19.0492 501.015 19.7216 501.015 20.4602C501.015 21.2178 501.134 21.8878 501.37 22.4702C501.612 23.0478 501.967 23.5024 502.436 23.8338C502.909 24.1605 503.496 24.3239 504.197 24.3239ZM512.038 26V15.0909H513.714V26H512.038ZM512.89 13.2727C512.564 13.2727 512.282 13.1615 512.045 12.9389C511.813 12.7164 511.697 12.4489 511.697 12.1364C511.697 11.8239 511.813 11.5563 512.045 11.3338C512.282 11.1113 512.564 11 512.89 11C513.217 11 513.496 11.1113 513.728 11.3338C513.965 11.5563 514.083 11.8239 514.083 12.1364C514.083 12.4489 513.965 12.7164 513.728 12.9389C513.496 13.1615 513.217 13.2727 512.89 13.2727ZM521.216 26.2273C520.231 26.2273 519.367 25.9929 518.624 25.5241C517.885 25.0554 517.307 24.3996 516.891 23.5568C516.479 22.714 516.273 21.7292 516.273 20.6023C516.273 19.4659 516.479 18.474 516.891 17.6264C517.307 16.7789 517.885 16.1207 518.624 15.652C519.367 15.1832 520.231 14.9489 521.216 14.9489C522.201 14.9489 523.063 15.1832 523.801 15.652C524.545 16.1207 525.122 16.7789 525.534 17.6264C525.951 18.474 526.159 19.4659 526.159 20.6023C526.159 21.7292 525.951 22.714 525.534 23.5568C525.122 24.3996 524.545 25.0554 523.801 25.5241C523.063 25.9929 522.201 26.2273 521.216 26.2273ZM521.216 24.7216C521.964 24.7216 522.58 24.5298 523.062 24.1463C523.545 23.7628 523.903 23.2585 524.135 22.6335C524.367 22.0085 524.483 21.3314 524.483 20.6023C524.483 19.8731 524.367 19.1937 524.135 18.5639C523.903 17.9342 523.545 17.4252 523.062 17.0369C522.58 16.6487 521.964 16.4545 521.216 16.4545C520.468 16.4545 519.852 16.6487 519.369 17.0369C518.886 17.4252 518.529 17.9342 518.297 18.5639C518.065 19.1937 517.949 19.8731 517.949 20.6023C517.949 21.3314 518.065 22.0085 518.297 22.6335C518.529 23.2585 518.886 23.7628 519.369 24.1463C519.852 24.5298 520.468 24.7216 521.216 24.7216ZM530.394 19.4375V26H528.718V15.0909H530.337V16.7955H530.479C530.735 16.2415 531.123 15.7964 531.644 15.4602C532.165 15.1193 532.837 14.9489 533.661 14.9489C534.4 14.9489 535.046 15.1004 535.6 15.4034C536.154 15.7017 536.585 16.1562 536.892 16.767C537.2 17.3731 537.354 18.1402 537.354 19.0682V26H535.678V19.1818C535.678 18.3248 535.455 17.6572 535.01 17.179C534.565 16.696 533.954 16.4545 533.178 16.4545C532.643 16.4545 532.165 16.5705 531.743 16.8026C531.327 17.0346 530.998 17.3731 530.756 17.8182C530.515 18.2633 530.394 18.803 530.394 19.4375ZM543.627 26.2557C542.936 26.2557 542.308 26.1255 541.745 25.8651C541.182 25.5999 540.734 25.2188 540.403 24.7216C540.071 24.2197 539.906 23.6136 539.906 22.9034C539.906 22.2784 540.029 21.7718 540.275 21.3835C540.521 20.9905 540.85 20.6828 541.262 20.4602C541.674 20.2377 542.129 20.072 542.626 19.9631C543.128 19.8494 543.632 19.7595 544.138 19.6932C544.801 19.608 545.339 19.544 545.751 19.5014C546.167 19.4541 546.47 19.3759 546.66 19.267C546.854 19.1581 546.951 18.9687 546.951 18.6989V18.642C546.951 17.9413 546.759 17.3968 546.376 17.0085C545.997 16.6203 545.422 16.4261 544.65 16.4261C543.85 16.4261 543.222 16.6013 542.768 16.9517C542.313 17.3021 541.994 17.6761 541.809 18.0739L540.218 17.5057C540.502 16.8428 540.881 16.3267 541.354 15.9574C541.833 15.5833 542.353 15.3229 542.917 15.1761C543.485 15.0246 544.044 14.9489 544.593 14.9489C544.943 14.9489 545.346 14.9915 545.8 15.0767C546.26 15.1572 546.702 15.3253 547.129 15.581C547.559 15.8366 547.917 16.2225 548.201 16.7386C548.485 17.2547 548.627 17.946 548.627 18.8125V26H546.951V24.5227H546.866C546.752 24.7595 546.563 25.0128 546.298 25.2827C546.032 25.5526 545.68 25.7822 545.239 25.9716C544.799 26.161 544.262 26.2557 543.627 26.2557ZM543.883 24.75C544.546 24.75 545.104 24.6198 545.559 24.3594C546.018 24.099 546.364 23.7628 546.596 23.3509C546.833 22.9389 546.951 22.5057 546.951 22.0511V20.517C546.88 20.6023 546.724 20.6804 546.482 20.7514C546.246 20.8177 545.971 20.8769 545.658 20.929C545.351 20.9763 545.05 21.0189 544.756 21.0568C544.468 21.09 544.233 21.1184 544.053 21.142C543.618 21.1989 543.21 21.2912 542.832 21.419C542.458 21.5421 542.155 21.7292 541.923 21.9801C541.695 22.2263 541.582 22.5625 541.582 22.9886C541.582 23.571 541.797 24.0114 542.228 24.3097C542.664 24.6032 543.215 24.75 543.883 24.75ZM553.363 11.4545V26H551.686V11.4545H553.363ZM562.881 26H561.035L566.376 11.4545H568.194L573.535 26H571.688L567.342 13.7557H567.228L562.881 26ZM563.563 20.3182H571.006V21.8807H563.563V20.3182ZM583.3 17.5341L581.795 17.9602C581.7 17.7093 581.56 17.4654 581.376 17.2287C581.196 16.9872 580.95 16.7884 580.637 16.6321C580.325 16.4759 579.924 16.3977 579.437 16.3977C578.769 16.3977 578.213 16.5516 577.768 16.8594C577.327 17.1624 577.107 17.5483 577.107 18.017C577.107 18.4337 577.259 18.7628 577.562 19.0043C577.865 19.2457 578.338 19.447 578.982 19.608L580.602 20.0057C581.577 20.2424 582.304 20.6046 582.782 21.0923C583.26 21.5753 583.499 22.1979 583.499 22.9602C583.499 23.5852 583.319 24.1439 582.96 24.6364C582.604 25.1288 582.107 25.517 581.468 25.8011C580.829 26.0852 580.085 26.2273 579.238 26.2273C578.125 26.2273 577.204 25.9858 576.475 25.5028C575.746 25.0199 575.284 24.3144 575.09 23.3864L576.681 22.9886C576.833 23.5758 577.119 24.0161 577.54 24.3097C577.967 24.6032 578.523 24.75 579.21 24.75C579.991 24.75 580.611 24.5843 581.07 24.2528C581.534 23.9167 581.766 23.5142 581.766 23.0455C581.766 22.6667 581.634 22.3494 581.369 22.0938C581.103 21.8333 580.696 21.6392 580.147 21.5114L578.329 21.0852C577.33 20.8485 576.596 20.4815 576.127 19.9844C575.663 19.4825 575.431 18.8551 575.431 18.1023C575.431 17.4867 575.604 16.9422 575.95 16.4688C576.3 15.9953 576.776 15.6236 577.377 15.3537C577.983 15.0838 578.67 14.9489 579.437 14.9489C580.516 14.9489 581.364 15.1856 581.979 15.6591C582.6 16.1326 583.04 16.7576 583.3 17.5341ZM586.022 26V15.0909H587.699V26H586.022ZM586.875 13.2727C586.548 13.2727 586.266 13.1615 586.029 12.9389C585.797 12.7164 585.681 12.4489 585.681 12.1364C585.681 11.8239 585.797 11.5563 586.029 11.3338C586.266 11.1113 586.548 11 586.875 11C587.201 11 587.481 11.1113 587.713 11.3338C587.949 11.5563 588.068 11.8239 588.068 12.1364C588.068 12.4489 587.949 12.7164 587.713 12.9389C587.481 13.1615 587.201 13.2727 586.875 13.2727ZM593.979 26.2557C593.287 26.2557 592.66 26.1255 592.097 25.8651C591.533 25.5999 591.086 25.2188 590.754 24.7216C590.423 24.2197 590.257 23.6136 590.257 22.9034C590.257 22.2784 590.38 21.7718 590.626 21.3835C590.873 20.9905 591.202 20.6828 591.614 20.4602C592.026 20.2377 592.48 20.072 592.977 19.9631C593.479 19.8494 593.983 19.7595 594.49 19.6932C595.153 19.608 595.69 19.544 596.102 19.5014C596.519 19.4541 596.822 19.3759 597.011 19.267C597.205 19.1581 597.303 18.9687 597.303 18.6989V18.642C597.303 17.9413 597.111 17.3968 596.727 17.0085C596.348 16.6203 595.773 16.4261 595.001 16.4261C594.201 16.4261 593.574 16.6013 593.119 16.9517C592.665 17.3021 592.345 17.6761 592.161 18.0739L590.57 17.5057C590.854 16.8428 591.232 16.3267 591.706 15.9574C592.184 15.5833 592.705 15.3229 593.268 15.1761C593.837 15.0246 594.395 14.9489 594.945 14.9489C595.295 14.9489 595.697 14.9915 596.152 15.0767C596.611 15.1572 597.054 15.3253 597.48 15.581C597.911 15.8366 598.268 16.2225 598.553 16.7386C598.837 17.2547 598.979 17.946 598.979 18.8125V26H597.303V24.5227H597.217C597.104 24.7595 596.914 25.0128 596.649 25.2827C596.384 25.5526 596.031 25.7822 595.591 25.9716C595.151 26.161 594.613 26.2557 593.979 26.2557ZM594.234 24.75C594.897 24.75 595.456 24.6198 595.911 24.3594C596.37 24.099 596.715 23.7628 596.947 23.3509C597.184 22.9389 597.303 22.5057 597.303 22.0511V20.517C597.232 20.6023 597.075 20.6804 596.834 20.7514C596.597 20.8177 596.322 20.8769 596.01 20.929C595.702 20.9763 595.402 21.0189 595.108 21.0568C594.819 21.09 594.585 21.1184 594.405 21.142C593.969 21.1989 593.562 21.2912 593.183 21.419C592.809 21.5421 592.506 21.7292 592.274 21.9801C592.047 22.2263 591.933 22.5625 591.933 22.9886C591.933 23.571 592.149 24.0114 592.58 24.3097C593.015 24.6032 593.567 24.75 594.234 24.75ZM603.714 19.4375V26H602.038V15.0909H603.657V16.7955H603.799C604.055 16.2415 604.443 15.7964 604.964 15.4602C605.485 15.1193 606.157 14.9489 606.981 14.9489C607.72 14.9489 608.366 15.1004 608.92 15.4034C609.474 15.7017 609.905 16.1562 610.213 16.767C610.52 17.3731 610.674 18.1402 610.674 19.0682V26H608.998V19.1818C608.998 18.3248 608.776 17.6572 608.331 17.179C607.886 16.696 607.275 16.4545 606.498 16.4545C605.963 16.4545 605.485 16.5705 605.064 16.8026C604.647 17.0346 604.318 17.3731 604.076 17.8182C603.835 18.2633 603.714 18.803 603.714 19.4375Z" fill="black"/>
<rect x="565" y="53" width="165" height="38" rx="10" fill="#DDD3E0"/>
<path d="M577.358 79H575.511L580.852 64.4545H582.67L588.011 79H586.165L581.818 66.7557H581.705L577.358 79ZM578.04 73.3182H585.483V74.8807H578.04V73.3182ZM597.777 70.5341L596.271 70.9602C596.177 70.7093 596.037 70.4654 595.852 70.2287C595.672 69.9872 595.426 69.7884 595.114 69.6321C594.801 69.4759 594.401 69.3977 593.913 69.3977C593.246 69.3977 592.689 69.5516 592.244 69.8594C591.804 70.1624 591.584 70.5483 591.584 71.017C591.584 71.4337 591.735 71.7628 592.038 72.0043C592.341 72.2457 592.815 72.447 593.459 72.608L595.078 73.0057C596.054 73.2424 596.78 73.6046 597.259 74.0923C597.737 74.5753 597.976 75.1979 597.976 75.9602C597.976 76.5852 597.796 77.1439 597.436 77.6364C597.081 78.1288 596.584 78.517 595.945 78.8011C595.305 79.0852 594.562 79.2273 593.714 79.2273C592.602 79.2273 591.681 78.9858 590.952 78.5028C590.223 78.0199 589.761 77.3144 589.567 76.3864L591.158 75.9886C591.309 76.5758 591.596 77.0161 592.017 77.3097C592.443 77.6032 593 77.75 593.686 77.75C594.467 77.75 595.088 77.5843 595.547 77.2528C596.011 76.9167 596.243 76.5142 596.243 76.0455C596.243 75.6667 596.11 75.3494 595.845 75.0938C595.58 74.8333 595.173 74.6392 594.624 74.5114L592.805 74.0852C591.806 73.8485 591.072 73.4815 590.604 72.9844C590.14 72.4825 589.908 71.8551 589.908 71.1023C589.908 70.4867 590.08 69.9422 590.426 69.4688C590.777 68.9953 591.252 68.6236 591.854 68.3537C592.46 68.0838 593.146 67.9489 593.913 67.9489C594.993 67.9489 595.84 68.1856 596.456 68.6591C597.076 69.1326 597.517 69.7576 597.777 70.5341ZM600.499 79V68.0909H602.175V79H600.499ZM601.351 66.2727C601.025 66.2727 600.743 66.1615 600.506 65.9389C600.274 65.7164 600.158 65.4489 600.158 65.1364C600.158 64.8239 600.274 64.5563 600.506 64.3338C600.743 64.1113 601.025 64 601.351 64C601.678 64 601.957 64.1113 602.189 64.3338C602.426 64.5563 602.544 64.8239 602.544 65.1364C602.544 65.4489 602.426 65.7164 602.189 65.9389C601.957 66.1615 601.678 66.2727 601.351 66.2727ZM608.455 79.2557C607.764 79.2557 607.137 79.1255 606.573 78.8651C606.01 78.5999 605.562 78.2188 605.231 77.7216C604.899 77.2197 604.734 76.6136 604.734 75.9034C604.734 75.2784 604.857 74.7718 605.103 74.3835C605.349 73.9905 605.678 73.6828 606.09 73.4602C606.502 73.2377 606.957 73.072 607.454 72.9631C607.956 72.8494 608.46 72.7595 608.967 72.6932C609.629 72.608 610.167 72.544 610.579 72.5014C610.996 72.4541 611.299 72.3759 611.488 72.267C611.682 72.1581 611.779 71.9687 611.779 71.6989V71.642C611.779 70.9413 611.587 70.3968 611.204 70.0085C610.825 69.6203 610.25 69.4261 609.478 69.4261C608.678 69.4261 608.05 69.6013 607.596 69.9517C607.141 70.3021 606.822 70.6761 606.637 71.0739L605.046 70.5057C605.33 69.8428 605.709 69.3267 606.183 68.9574C606.661 68.5833 607.182 68.3229 607.745 68.1761C608.313 68.0246 608.872 67.9489 609.421 67.9489C609.772 67.9489 610.174 67.9915 610.629 68.0767C611.088 68.1572 611.531 68.3253 611.957 68.581C612.388 68.8366 612.745 69.2225 613.029 69.7386C613.313 70.2547 613.455 70.946 613.455 71.8125V79H611.779V77.5227H611.694C611.58 77.7595 611.391 78.0128 611.126 78.2827C610.861 78.5526 610.508 78.7822 610.067 78.9716C609.627 79.161 609.09 79.2557 608.455 79.2557ZM608.711 77.75C609.374 77.75 609.933 77.6198 610.387 77.3594C610.846 77.099 611.192 76.7628 611.424 76.3509C611.661 75.9389 611.779 75.5057 611.779 75.0511V73.517C611.708 73.6023 611.552 73.6804 611.31 73.7514C611.074 73.8177 610.799 73.8769 610.487 73.929C610.179 73.9763 609.878 74.0189 609.585 74.0568C609.296 74.09 609.061 74.1184 608.881 74.142C608.446 74.1989 608.039 74.2912 607.66 74.419C607.286 74.5421 606.983 74.7292 606.751 74.9801C606.523 75.2263 606.41 75.5625 606.41 75.9886C606.41 76.571 606.625 77.0114 607.056 77.3097C607.492 77.6032 608.043 77.75 608.711 77.75ZM618.191 72.4375V79H616.515V68.0909H618.134V69.7955H618.276C618.532 69.2415 618.92 68.7964 619.441 68.4602C619.962 68.1193 620.634 67.9489 621.458 67.9489C622.196 67.9489 622.843 68.1004 623.397 68.4034C623.951 68.7017 624.382 69.1562 624.689 69.767C624.997 70.3731 625.151 71.1402 625.151 72.0682V79H623.475V72.1818C623.475 71.3248 623.252 70.6572 622.807 70.179C622.362 69.696 621.751 69.4545 620.975 69.4545C620.44 69.4545 619.962 69.5705 619.54 69.8026C619.123 70.0346 618.794 70.3731 618.553 70.8182C618.311 71.2633 618.191 71.803 618.191 72.4375ZM634.663 79H632.816L638.157 64.4545H639.975L645.316 79H643.469L639.123 66.7557H639.009L634.663 79ZM635.344 73.3182H642.788V74.8807H635.344V73.3182ZM647.354 79V68.0909H648.974V69.7955H649.116C649.343 69.2131 649.71 68.7609 650.217 68.4389C650.723 68.1122 651.332 67.9489 652.042 67.9489C652.762 67.9489 653.361 68.1122 653.839 68.4389C654.322 68.7609 654.698 69.2131 654.968 69.7955H655.082C655.361 69.232 655.78 68.7846 656.339 68.4531C656.897 68.117 657.567 67.9489 658.349 67.9489C659.324 67.9489 660.122 68.2543 660.742 68.8651C661.362 69.4711 661.673 70.4157 661.673 71.6989V79H659.996V71.6989C659.996 70.8939 659.776 70.3187 659.336 69.973C658.896 69.6274 658.377 69.4545 657.781 69.4545C657.013 69.4545 656.419 69.6866 655.998 70.1506C655.576 70.6098 655.366 71.1922 655.366 71.8977V79H653.661V71.5284C653.661 70.9081 653.46 70.4086 653.058 70.0298C652.655 69.6463 652.137 69.4545 651.502 69.4545C651.067 69.4545 650.659 69.5705 650.281 69.8026C649.906 70.0346 649.603 70.3565 649.371 70.7685C649.144 71.1757 649.031 71.6468 649.031 72.1818V79H647.354ZM669.311 79.2273C668.26 79.2273 667.353 78.9953 666.591 78.5312C665.833 78.0625 665.249 77.4091 664.837 76.571C664.429 75.7282 664.226 74.7481 664.226 73.6307C664.226 72.5133 664.429 71.5284 664.837 70.6761C665.249 69.8191 665.821 69.1515 666.555 68.6733C667.294 68.1903 668.156 67.9489 669.141 67.9489C669.709 67.9489 670.27 68.0436 670.824 68.233C671.378 68.4223 671.882 68.7301 672.337 69.1562C672.791 69.5777 673.153 70.1364 673.423 70.8324C673.693 71.5284 673.828 72.3854 673.828 73.4034V74.1136H665.419V72.6648H672.124C672.124 72.0492 672 71.5 671.754 71.017C671.513 70.5341 671.167 70.1529 670.717 69.8736C670.272 69.5942 669.747 69.4545 669.141 69.4545C668.473 69.4545 667.895 69.6203 667.408 69.9517C666.925 70.2784 666.553 70.7045 666.293 71.2301C666.032 71.7557 665.902 72.3191 665.902 72.9205V73.8864C665.902 74.7102 666.044 75.4086 666.328 75.9815C666.617 76.5497 667.017 76.983 667.528 77.2812C668.04 77.5748 668.634 77.7216 669.311 77.7216C669.751 77.7216 670.149 77.66 670.504 77.5369C670.864 77.4091 671.174 77.2197 671.435 76.9688C671.695 76.7131 671.896 76.3958 672.038 76.017L673.658 76.4716C673.487 77.0208 673.201 77.5038 672.798 77.9205C672.396 78.3324 671.899 78.6544 671.307 78.8864C670.715 79.1136 670.05 79.2273 669.311 79.2273ZM676.378 79V68.0909H677.997V69.7386H678.111C678.31 69.1989 678.67 68.7609 679.19 68.4247C679.711 68.0885 680.298 67.9205 680.952 67.9205C681.075 67.9205 681.229 67.9228 681.413 67.9276C681.598 67.9323 681.738 67.9394 681.832 67.9489V69.6534C681.776 69.6392 681.645 69.6179 681.442 69.5895C681.243 69.5563 681.032 69.5398 680.81 69.5398C680.279 69.5398 679.806 69.651 679.389 69.8736C678.977 70.0914 678.651 70.3944 678.409 70.7827C678.172 71.1662 678.054 71.6042 678.054 72.0966V79H676.378ZM683.819 79V68.0909H685.495V79H683.819ZM684.672 66.2727C684.345 66.2727 684.063 66.1615 683.826 65.9389C683.594 65.7164 683.478 65.4489 683.478 65.1364C683.478 64.8239 683.594 64.5563 683.826 64.3338C684.063 64.1113 684.345 64 684.672 64C684.998 64 685.278 64.1113 685.51 64.3338C685.746 64.5563 685.865 64.8239 685.865 65.1364C685.865 65.4489 685.746 65.7164 685.51 65.9389C685.278 66.1615 684.998 66.2727 684.672 66.2727ZM692.997 79.2273C691.974 79.2273 691.094 78.9858 690.355 78.5028C689.616 78.0199 689.048 77.3546 688.651 76.5071C688.253 75.6596 688.054 74.6913 688.054 73.6023C688.054 72.4943 688.258 71.5166 688.665 70.669C689.077 69.8168 689.65 69.1515 690.384 68.6733C691.122 68.1903 691.984 67.9489 692.969 67.9489C693.736 67.9489 694.427 68.0909 695.043 68.375C695.658 68.6591 696.162 69.0568 696.555 69.5682C696.948 70.0795 697.192 70.6761 697.287 71.358H695.611C695.483 70.8608 695.199 70.4205 694.759 70.0369C694.323 69.6487 693.736 69.4545 692.997 69.4545C692.344 69.4545 691.771 69.625 691.278 69.9659C690.791 70.3021 690.41 70.7779 690.135 71.3935C689.865 72.0043 689.73 72.7216 689.73 73.5455C689.73 74.3883 689.863 75.1222 690.128 75.7472C690.398 76.3722 690.777 76.8575 691.264 77.2031C691.757 77.5488 692.334 77.7216 692.997 77.7216C693.433 77.7216 693.828 77.6458 694.183 77.4943C694.538 77.3428 694.839 77.125 695.085 76.8409C695.331 76.5568 695.507 76.2159 695.611 75.8182H697.287C697.192 76.4621 696.958 77.0421 696.584 77.5582C696.214 78.0696 695.724 78.4768 695.114 78.7798C694.508 79.0781 693.802 79.2273 692.997 79.2273ZM702.947 79.2557C702.256 79.2557 701.629 79.1255 701.065 78.8651C700.502 78.5999 700.054 78.2188 699.723 77.7216C699.392 77.2197 699.226 76.6136 699.226 75.9034C699.226 75.2784 699.349 74.7718 699.595 74.3835C699.841 73.9905 700.17 73.6828 700.582 73.4602C700.994 73.2377 701.449 73.072 701.946 72.9631C702.448 72.8494 702.952 72.7595 703.459 72.6932C704.122 72.608 704.659 72.544 705.071 72.5014C705.488 72.4541 705.791 72.3759 705.98 72.267C706.174 72.1581 706.271 71.9687 706.271 71.6989V71.642C706.271 70.9413 706.08 70.3968 705.696 70.0085C705.317 69.6203 704.742 69.4261 703.97 69.4261C703.17 69.4261 702.543 69.6013 702.088 69.9517C701.634 70.3021 701.314 70.6761 701.129 71.0739L699.538 70.5057C699.822 69.8428 700.201 69.3267 700.675 68.9574C701.153 68.5833 701.674 68.3229 702.237 68.1761C702.805 68.0246 703.364 67.9489 703.913 67.9489C704.264 67.9489 704.666 67.9915 705.121 68.0767C705.58 68.1572 706.023 68.3253 706.449 68.581C706.88 68.8366 707.237 69.2225 707.521 69.7386C707.805 70.2547 707.947 70.946 707.947 71.8125V79H706.271V77.5227H706.186C706.072 77.7595 705.883 78.0128 705.618 78.2827C705.353 78.5526 705 78.7822 704.56 78.9716C704.119 79.161 703.582 79.2557 702.947 79.2557ZM703.203 77.75C703.866 77.75 704.425 77.6198 704.879 77.3594C705.339 77.099 705.684 76.7628 705.916 76.3509C706.153 75.9389 706.271 75.5057 706.271 75.0511V73.517C706.2 73.6023 706.044 73.6804 705.803 73.7514C705.566 73.8177 705.291 73.8769 704.979 73.929C704.671 73.9763 704.37 74.0189 704.077 74.0568C703.788 74.09 703.554 74.1184 703.374 74.142C702.938 74.1989 702.531 74.2912 702.152 74.419C701.778 74.5421 701.475 74.7292 701.243 74.9801C701.016 75.2263 700.902 75.5625 700.902 75.9886C700.902 76.571 701.117 77.0114 701.548 77.3097C701.984 77.6032 702.536 77.75 703.203 77.75ZM712.683 72.4375V79H711.007V68.0909H712.626V69.7955H712.768C713.024 69.2415 713.412 68.7964 713.933 68.4602C714.454 68.1193 715.126 67.9489 715.95 67.9489C716.689 67.9489 717.335 68.1004 717.889 68.4034C718.443 68.7017 718.874 69.1562 719.181 69.767C719.489 70.3731 719.643 71.1402 719.643 72.0682V79H717.967V72.1818C717.967 71.3248 717.744 70.6572 717.299 70.179C716.854 69.696 716.243 69.4545 715.467 69.4545C714.932 69.4545 714.454 69.5705 714.032 69.8026C713.616 70.0346 713.287 70.3731 713.045 70.8182C712.804 71.2633 712.683 71.803 712.683 72.4375Z" fill="black"/>
<rect x="752.998" y="55" width="74" height="37" rx="10" fill="#DDD3E0"/>
<path d="M764.356 81H762.509L767.85 66.4545H769.669L775.009 81H773.163L768.816 68.7557H768.703L764.356 81ZM765.038 75.3182H772.481V76.8807H765.038V75.3182ZM784.775 72.5341L783.269 72.9602C783.175 72.7093 783.035 72.4654 782.85 72.2287C782.67 71.9872 782.424 71.7884 782.112 71.6321C781.799 71.4759 781.399 71.3977 780.911 71.3977C780.244 71.3977 779.687 71.5516 779.242 71.8594C778.802 72.1624 778.582 72.5483 778.582 73.017C778.582 73.4337 778.733 73.7628 779.036 74.0043C779.339 74.2457 779.813 74.447 780.457 74.608L782.076 75.0057C783.052 75.2424 783.778 75.6046 784.257 76.0923C784.735 76.5753 784.974 77.1979 784.974 77.9602C784.974 78.5852 784.794 79.1439 784.434 79.6364C784.079 80.1288 783.582 80.517 782.943 80.8011C782.303 81.0852 781.56 81.2273 780.713 81.2273C779.6 81.2273 778.679 80.9858 777.95 80.5028C777.221 80.0199 776.759 79.3144 776.565 78.3864L778.156 77.9886C778.307 78.5758 778.594 79.0161 779.015 79.3097C779.441 79.6032 779.998 79.75 780.684 79.75C781.465 79.75 782.086 79.5843 782.545 79.2528C783.009 78.9167 783.241 78.5142 783.241 78.0455C783.241 77.6667 783.108 77.3494 782.843 77.0938C782.578 76.8333 782.171 76.6392 781.622 76.5114L779.803 76.0852C778.804 75.8485 778.07 75.4815 777.602 74.9844C777.138 74.4825 776.906 73.8551 776.906 73.1023C776.906 72.4867 777.079 71.9422 777.424 71.4688C777.775 70.9953 778.25 70.6236 778.852 70.3537C779.458 70.0838 780.144 69.9489 780.911 69.9489C781.991 69.9489 782.838 70.1856 783.454 70.6591C784.074 71.1326 784.515 71.7576 784.775 72.5341ZM787.497 81V70.0909H789.173V81H787.497ZM788.349 68.2727C788.023 68.2727 787.741 68.1615 787.504 67.9389C787.272 67.7164 787.156 67.4489 787.156 67.1364C787.156 66.8239 787.272 66.5563 787.504 66.3338C787.741 66.1113 788.023 66 788.349 66C788.676 66 788.955 66.1113 789.187 66.3338C789.424 66.5563 789.542 66.8239 789.542 67.1364C789.542 67.4489 789.424 67.7164 789.187 67.9389C788.955 68.1615 788.676 68.2727 788.349 68.2727ZM795.453 81.2557C794.762 81.2557 794.135 81.1255 793.571 80.8651C793.008 80.5999 792.56 80.2188 792.229 79.7216C791.897 79.2197 791.732 78.6136 791.732 77.9034C791.732 77.2784 791.855 76.7718 792.101 76.3835C792.347 75.9905 792.676 75.6828 793.088 75.4602C793.5 75.2377 793.955 75.072 794.452 74.9631C794.954 74.8494 795.458 74.7595 795.965 74.6932C796.628 74.608 797.165 74.544 797.577 74.5014C797.994 74.4541 798.297 74.3759 798.486 74.267C798.68 74.1581 798.777 73.9687 798.777 73.6989V73.642C798.777 72.9413 798.585 72.3968 798.202 72.0085C797.823 71.6203 797.248 71.4261 796.476 71.4261C795.676 71.4261 795.048 71.6013 794.594 71.9517C794.139 72.3021 793.82 72.6761 793.635 73.0739L792.044 72.5057C792.328 71.8428 792.707 71.3267 793.181 70.9574C793.659 70.5833 794.18 70.3229 794.743 70.1761C795.311 70.0246 795.87 69.9489 796.419 69.9489C796.77 69.9489 797.172 69.9915 797.627 70.0767C798.086 70.1572 798.529 70.3253 798.955 70.581C799.386 70.8366 799.743 71.2225 800.027 71.7386C800.311 72.2547 800.453 72.946 800.453 73.8125V81H798.777V79.5227H798.692C798.578 79.7595 798.389 80.0128 798.124 80.2827C797.859 80.5526 797.506 80.7822 797.066 80.9716C796.625 81.161 796.088 81.2557 795.453 81.2557ZM795.709 79.75C796.372 79.75 796.931 79.6198 797.385 79.3594C797.844 79.099 798.19 78.7628 798.422 78.3509C798.659 77.9389 798.777 77.5057 798.777 77.0511V75.517C798.706 75.6023 798.55 75.6804 798.308 75.7514C798.072 75.8177 797.797 75.8769 797.485 75.929C797.177 75.9763 796.876 76.0189 796.583 76.0568C796.294 76.09 796.059 76.1184 795.879 76.142C795.444 76.1989 795.037 76.2912 794.658 76.419C794.284 76.5421 793.981 76.7292 793.749 76.9801C793.521 77.2263 793.408 77.5625 793.408 77.9886C793.408 78.571 793.623 79.0114 794.054 79.3097C794.49 79.6032 795.041 79.75 795.709 79.75ZM805.189 74.4375V81H803.513V70.0909H805.132V71.7955H805.274C805.53 71.2415 805.918 70.7964 806.439 70.4602C806.96 70.1193 807.632 69.9489 808.456 69.9489C809.194 69.9489 809.841 70.1004 810.395 70.4034C810.949 70.7017 811.38 71.1562 811.687 71.767C811.995 72.3731 812.149 73.1402 812.149 74.0682V81H810.473V74.1818C810.473 73.3248 810.25 72.6572 809.805 72.179C809.36 71.696 808.749 71.4545 807.973 71.4545C807.438 71.4545 806.96 71.5705 806.538 71.8026C806.122 72.0346 805.792 72.3731 805.551 72.8182C805.309 73.2633 805.189 73.803 805.189 74.4375Z" fill="black"/>
<rect x="842" y="55" width="109" height="36" rx="10" fill="#DDD3E0"/>
<rect x="919" y="1" width="86" height="41" rx="10" fill="#DDD3E0"/>
<path d="M854.358 81H852.511L857.852 66.4545H859.67L865.011 81H863.165L858.818 68.7557H858.705L854.358 81ZM855.04 75.3182H862.483V76.8807H855.04V75.3182ZM867.05 81V70.0909H868.669V71.7955H868.811C869.038 71.2131 869.405 70.7609 869.912 70.4389C870.419 70.1122 871.027 69.9489 871.737 69.9489C872.457 69.9489 873.056 70.1122 873.534 70.4389C874.017 70.7609 874.393 71.2131 874.663 71.7955H874.777C875.056 71.232 875.475 70.7846 876.034 70.4531C876.593 70.117 877.263 69.9489 878.044 69.9489C879.019 69.9489 879.817 70.2543 880.438 70.8651C881.058 71.4711 881.368 72.4157 881.368 73.6989V81H879.692V73.6989C879.692 72.8939 879.472 72.3187 879.031 71.973C878.591 71.6274 878.072 71.4545 877.476 71.4545C876.709 71.4545 876.115 71.6866 875.693 72.1506C875.272 72.6098 875.061 73.1922 875.061 73.8977V81H873.357V73.5284C873.357 72.9081 873.155 72.4086 872.753 72.0298C872.35 71.6463 871.832 71.4545 871.197 71.4545C870.762 71.4545 870.355 71.5705 869.976 71.8026C869.602 72.0346 869.299 72.3565 869.067 72.7685C868.839 73.1757 868.726 73.6468 868.726 74.1818V81H867.05ZM889.006 81.2273C887.955 81.2273 887.049 80.9953 886.286 80.5312C885.529 80.0625 884.944 79.4091 884.532 78.571C884.125 77.7282 883.921 76.7481 883.921 75.6307C883.921 74.5133 884.125 73.5284 884.532 72.6761C884.944 71.8191 885.517 71.1515 886.251 70.6733C886.989 70.1903 887.851 69.9489 888.836 69.9489C889.404 69.9489 889.965 70.0436 890.519 70.233C891.073 70.4223 891.577 70.7301 892.032 71.1562C892.487 71.5777 892.849 72.1364 893.119 72.8324C893.388 73.5284 893.523 74.3854 893.523 75.4034V76.1136H885.114V74.6648H891.819C891.819 74.0492 891.696 73.5 891.45 73.017C891.208 72.5341 890.862 72.1529 890.413 71.8736C889.968 71.5942 889.442 71.4545 888.836 71.4545C888.168 71.4545 887.591 71.6203 887.103 71.9517C886.62 72.2784 886.248 72.7045 885.988 73.2301C885.728 73.7557 885.597 74.3191 885.597 74.9205V75.8864C885.597 76.7102 885.739 77.4086 886.023 77.9815C886.312 78.5497 886.712 78.983 887.224 79.2812C887.735 79.5748 888.329 79.7216 889.006 79.7216C889.447 79.7216 889.844 79.66 890.2 79.5369C890.559 79.4091 890.87 79.2197 891.13 78.9688C891.39 78.7131 891.592 78.3958 891.734 78.017L893.353 78.4716C893.183 79.0208 892.896 79.5038 892.494 79.9205C892.091 80.3324 891.594 80.6544 891.002 80.8864C890.41 81.1136 889.745 81.2273 889.006 81.2273ZM896.073 81V70.0909H897.692V71.7386H897.806C898.005 71.1989 898.365 70.7609 898.886 70.4247C899.406 70.0885 899.994 69.9205 900.647 69.9205C900.77 69.9205 900.924 69.9228 901.109 69.9276C901.293 69.9323 901.433 69.9394 901.528 69.9489V71.6534C901.471 71.6392 901.341 71.6179 901.137 71.5895C900.938 71.5563 900.728 71.5398 900.505 71.5398C899.975 71.5398 899.501 71.651 899.085 71.8736C898.673 72.0914 898.346 72.3944 898.104 72.7827C897.868 73.1662 897.749 73.6042 897.749 74.0966V81H896.073ZM903.515 81V70.0909H905.191V81H903.515ZM904.367 68.2727C904.04 68.2727 903.758 68.1615 903.522 67.9389C903.29 67.7164 903.174 67.4489 903.174 67.1364C903.174 66.8239 903.29 66.5563 903.522 66.3338C903.758 66.1113 904.04 66 904.367 66C904.694 66 904.973 66.1113 905.205 66.3338C905.442 66.5563 905.56 66.8239 905.56 67.1364C905.56 67.4489 905.442 67.7164 905.205 67.9389C904.973 68.1615 904.694 68.2727 904.367 68.2727ZM912.692 81.2273C911.67 81.2273 910.789 80.9858 910.05 80.5028C909.312 80.0199 908.744 79.3546 908.346 78.5071C907.948 77.6596 907.749 76.6913 907.749 75.6023C907.749 74.4943 907.953 73.5166 908.36 72.669C908.772 71.8168 909.345 71.1515 910.079 70.6733C910.817 70.1903 911.679 69.9489 912.664 69.9489C913.431 69.9489 914.122 70.0909 914.738 70.375C915.353 70.6591 915.858 71.0568 916.251 71.5682C916.644 72.0795 916.888 72.6761 916.982 73.358H915.306C915.178 72.8608 914.894 72.4205 914.454 72.0369C914.018 71.6487 913.431 71.4545 912.692 71.4545C912.039 71.4545 911.466 71.625 910.974 71.9659C910.486 72.3021 910.105 72.7779 909.83 73.3935C909.56 74.0043 909.425 74.7216 909.425 75.5455C909.425 76.3883 909.558 77.1222 909.823 77.7472C910.093 78.3722 910.472 78.8575 910.96 79.2031C911.452 79.5488 912.03 79.7216 912.692 79.7216C913.128 79.7216 913.523 79.6458 913.879 79.4943C914.234 79.3428 914.534 79.125 914.781 78.8409C915.027 78.5568 915.202 78.2159 915.306 77.8182H916.982C916.888 78.4621 916.653 79.0421 916.279 79.5582C915.91 80.0696 915.42 80.4768 914.809 80.7798C914.203 81.0781 913.497 81.2273 912.692 81.2273ZM922.643 81.2557C921.951 81.2557 921.324 81.1255 920.761 80.8651C920.197 80.5999 919.75 80.2188 919.418 79.7216C919.087 79.2197 918.921 78.6136 918.921 77.9034C918.921 77.2784 919.044 76.7718 919.29 76.3835C919.537 75.9905 919.866 75.6828 920.278 75.4602C920.69 75.2377 921.144 75.072 921.641 74.9631C922.143 74.8494 922.647 74.7595 923.154 74.6932C923.817 74.608 924.354 74.544 924.766 74.5014C925.183 74.4541 925.486 74.3759 925.675 74.267C925.87 74.1581 925.967 73.9687 925.967 73.6989V73.642C925.967 72.9413 925.775 72.3968 925.391 72.0085C925.013 71.6203 924.437 71.4261 923.665 71.4261C922.865 71.4261 922.238 71.6013 921.783 71.9517C921.329 72.3021 921.009 72.6761 920.825 73.0739L919.234 72.5057C919.518 71.8428 919.897 71.3267 920.37 70.9574C920.848 70.5833 921.369 70.3229 921.933 70.1761C922.501 70.0246 923.059 69.9489 923.609 69.9489C923.959 69.9489 924.362 69.9915 924.816 70.0767C925.275 70.1572 925.718 70.3253 926.144 70.581C926.575 70.8366 926.933 71.2225 927.217 71.7386C927.501 72.2547 927.643 72.946 927.643 73.8125V81H925.967V79.5227H925.881C925.768 79.7595 925.578 80.0128 925.313 80.2827C925.048 80.5526 924.695 80.7822 924.255 80.9716C923.815 81.161 923.277 81.2557 922.643 81.2557ZM922.898 79.75C923.561 79.75 924.12 79.6198 924.575 79.3594C925.034 79.099 925.379 78.7628 925.612 78.3509C925.848 77.9389 925.967 77.5057 925.967 77.0511V75.517C925.896 75.6023 925.739 75.6804 925.498 75.7514C925.261 75.8177 924.987 75.8769 924.674 75.929C924.366 75.9763 924.066 76.0189 923.772 76.0568C923.483 76.09 923.249 76.1184 923.069 76.142C922.633 76.1989 922.226 76.2912 921.847 76.419C921.473 76.5421 921.17 76.7292 920.938 76.9801C920.711 77.2263 920.597 77.5625 920.597 77.9886C920.597 78.571 920.813 79.0114 921.244 79.3097C921.679 79.6032 922.231 79.75 922.898 79.75ZM932.378 74.4375V81H930.702V70.0909H932.321V71.7955H932.463C932.719 71.2415 933.107 70.7964 933.628 70.4602C934.149 70.1193 934.821 69.9489 935.645 69.9489C936.384 69.9489 937.03 70.1004 937.584 70.4034C938.138 70.7017 938.569 71.1562 938.877 71.767C939.185 72.3731 939.338 73.1402 939.338 74.0682V81H937.662V74.1818C937.662 73.3248 937.44 72.6572 936.995 72.179C936.55 71.696 935.939 71.4545 935.162 71.4545C934.627 71.4545 934.149 71.5705 933.728 71.8026C933.311 72.0346 932.982 72.3731 932.74 72.8182C932.499 73.2633 932.378 73.803 932.378 74.4375Z" fill="black"/>
<path d="M948.034 20.7273C948.034 22.2614 947.757 23.5871 947.203 24.7045C946.649 25.822 945.889 26.6837 944.923 27.2898C943.957 27.8958 942.854 28.1989 941.614 28.1989C940.373 28.1989 939.27 27.8958 938.304 27.2898C937.338 26.6837 936.578 25.822 936.024 24.7045C935.47 23.5871 935.193 22.2614 935.193 20.7273C935.193 19.1932 935.47 17.8674 936.024 16.75C936.578 15.6326 937.338 14.7708 938.304 14.1648C939.27 13.5587 940.373 13.2557 941.614 13.2557C942.854 13.2557 943.957 13.5587 944.923 14.1648C945.889 14.7708 946.649 15.6326 947.203 16.75C947.757 17.8674 948.034 19.1932 948.034 20.7273ZM946.33 20.7273C946.33 19.4678 946.119 18.4048 945.697 17.5384C945.281 16.6719 944.715 16.0161 944 15.571C943.29 15.1259 942.494 14.9034 941.614 14.9034C940.733 14.9034 939.935 15.1259 939.22 15.571C938.51 16.0161 937.944 16.6719 937.523 17.5384C937.106 18.4048 936.898 19.4678 936.898 20.7273C936.898 21.9867 937.106 23.0497 937.523 23.9162C937.944 24.7827 938.51 25.4384 939.22 25.8835C939.935 26.3286 940.733 26.5511 941.614 26.5511C942.494 26.5511 943.29 26.3286 944 25.8835C944.715 25.4384 945.281 24.7827 945.697 23.9162C946.119 23.0497 946.33 21.9867 946.33 20.7273ZM955.513 17.0909V18.5114H949.859V17.0909H955.513ZM951.507 14.4773H953.183V24.875C953.183 25.3485 953.252 25.7036 953.389 25.9403C953.531 26.1723 953.711 26.3286 953.929 26.4091C954.152 26.4848 954.386 26.5227 954.632 26.5227C954.817 26.5227 954.968 26.5133 955.087 26.4943C955.205 26.4706 955.3 26.4517 955.371 26.4375L955.712 27.9432C955.598 27.9858 955.439 28.0284 955.236 28.071C955.032 28.1184 954.774 28.142 954.462 28.142C953.988 28.142 953.524 28.0402 953.07 27.8366C952.62 27.633 952.246 27.3229 951.947 26.9062C951.654 26.4896 951.507 25.964 951.507 25.3295V14.4773ZM959.945 21.4375V28H958.268V13.4545H959.945V18.7955H960.087C960.342 18.232 960.726 17.7846 961.237 17.4531C961.753 17.117 962.44 16.9489 963.297 16.9489C964.04 16.9489 964.691 17.098 965.25 17.3963C965.809 17.6899 966.242 18.142 966.55 18.7528C966.862 19.3589 967.018 20.1307 967.018 21.0682V28H965.342V21.1818C965.342 20.3153 965.117 19.6454 964.668 19.1719C964.223 18.6937 963.605 18.4545 962.814 18.4545C962.265 18.4545 961.772 18.5705 961.337 18.8026C960.906 19.0346 960.565 19.3731 960.314 19.8182C960.068 20.2633 959.945 20.803 959.945 21.4375ZM974.659 28.2273C973.608 28.2273 972.701 27.9953 971.939 27.5312C971.181 27.0625 970.596 26.4091 970.184 25.571C969.777 24.7282 969.574 23.7481 969.574 22.6307C969.574 21.5133 969.777 20.5284 970.184 19.6761C970.596 18.8191 971.169 18.1515 971.903 17.6733C972.642 17.1903 973.503 16.9489 974.488 16.9489C975.056 16.9489 975.618 17.0436 976.172 17.233C976.725 17.4223 977.23 17.7301 977.684 18.1562C978.139 18.5777 978.501 19.1364 978.771 19.8324C979.041 20.5284 979.176 21.3854 979.176 22.4034V23.1136H970.767V21.6648H977.471C977.471 21.0492 977.348 20.5 977.102 20.017C976.86 19.5341 976.515 19.1529 976.065 18.8736C975.62 18.5942 975.094 18.4545 974.488 18.4545C973.821 18.4545 973.243 18.6203 972.755 18.9517C972.272 19.2784 971.901 19.7045 971.64 20.2301C971.38 20.7557 971.25 21.3191 971.25 21.9205V22.8864C971.25 23.7102 971.392 24.4086 971.676 24.9815C971.965 25.5497 972.365 25.983 972.876 26.2812C973.387 26.5748 973.982 26.7216 974.659 26.7216C975.099 26.7216 975.497 26.66 975.852 26.5369C976.212 26.4091 976.522 26.2197 976.782 25.9688C977.043 25.7131 977.244 25.3958 977.386 25.017L979.005 25.4716C978.835 26.0208 978.548 26.5038 978.146 26.9205C977.743 27.3324 977.246 27.6544 976.654 27.8864C976.063 28.1136 975.397 28.2273 974.659 28.2273ZM981.725 28V17.0909H983.345V18.7386H983.458C983.657 18.1989 984.017 17.7609 984.538 17.4247C985.059 17.0885 985.646 16.9205 986.299 16.9205C986.422 16.9205 986.576 16.9228 986.761 16.9276C986.946 16.9323 987.085 16.9394 987.18 16.9489V18.6534C987.123 18.6392 986.993 18.6179 986.789 18.5895C986.591 18.5563 986.38 18.5398 986.157 18.5398C985.627 18.5398 985.154 18.651 984.737 18.8736C984.325 19.0914 983.998 19.3944 983.757 19.7827C983.52 20.1662 983.402 20.6042 983.402 21.0966V28H981.725Z" fill="black"/>
<path d="M544 38V90.5" stroke="black"/>
<circle cx="544" cy="92" r="2" fill="black"/>
<path d="M960 42V92.7273" stroke="black"/>
<ellipse cx="960" cy="94.3637" rx="2" ry="1.63636" fill="black"/>
<path d="M260.534 265V254.091H262.21V265H260.534ZM261.386 252.273C261.06 252.273 260.778 252.161 260.541 251.939C260.309 251.716 260.193 251.449 260.193 251.136C260.193 250.824 260.309 250.556 260.541 250.334C260.778 250.111 261.06 250 261.386 250C261.713 250 261.992 250.111 262.224 250.334C262.461 250.556 262.58 250.824 262.58 251.136C262.58 251.449 262.461 251.716 262.224 251.939C261.992 252.161 261.713 252.273 261.386 252.273ZM269.4 265.227C268.49 265.227 267.688 264.998 266.992 264.538C266.296 264.074 265.751 263.421 265.358 262.578C264.965 261.731 264.769 260.729 264.769 259.574C264.769 258.428 264.965 257.434 265.358 256.591C265.751 255.748 266.298 255.097 266.999 254.638C267.7 254.179 268.509 253.949 269.428 253.949C270.138 253.949 270.699 254.067 271.111 254.304C271.528 254.536 271.845 254.801 272.063 255.099C272.285 255.393 272.458 255.634 272.581 255.824H272.723V250.455H274.4V265H272.78V263.324H272.581C272.458 263.523 272.283 263.774 272.056 264.077C271.828 264.375 271.504 264.643 271.083 264.879C270.661 265.111 270.1 265.227 269.4 265.227ZM269.627 263.722C270.299 263.722 270.867 263.546 271.331 263.196C271.795 262.841 272.148 262.351 272.39 261.726C272.631 261.096 272.752 260.369 272.752 259.545C272.752 258.731 272.633 258.018 272.397 257.408C272.16 256.792 271.81 256.314 271.346 255.973C270.882 255.627 270.309 255.455 269.627 255.455C268.917 255.455 268.325 255.637 267.851 256.001C267.382 256.361 267.03 256.851 266.793 257.472C266.561 258.087 266.445 258.778 266.445 259.545C266.445 260.322 266.563 261.027 266.8 261.662C267.042 262.292 267.397 262.794 267.865 263.168C268.339 263.537 268.926 263.722 269.627 263.722ZM282.276 265.227C281.225 265.227 280.318 264.995 279.556 264.531C278.798 264.062 278.213 263.409 277.801 262.571C277.394 261.728 277.191 260.748 277.191 259.631C277.191 258.513 277.394 257.528 277.801 256.676C278.213 255.819 278.786 255.152 279.52 254.673C280.259 254.19 281.121 253.949 282.105 253.949C282.674 253.949 283.235 254.044 283.789 254.233C284.343 254.422 284.847 254.73 285.301 255.156C285.756 255.578 286.118 256.136 286.388 256.832C286.658 257.528 286.793 258.385 286.793 259.403V260.114H278.384V258.665H285.088C285.088 258.049 284.965 257.5 284.719 257.017C284.478 256.534 284.132 256.153 283.682 255.874C283.237 255.594 282.712 255.455 282.105 255.455C281.438 255.455 280.86 255.62 280.373 255.952C279.89 256.278 279.518 256.705 279.257 257.23C278.997 257.756 278.867 258.319 278.867 258.92V259.886C278.867 260.71 279.009 261.409 279.293 261.982C279.582 262.55 279.982 262.983 280.493 263.281C281.005 263.575 281.599 263.722 282.276 263.722C282.716 263.722 283.114 263.66 283.469 263.537C283.829 263.409 284.139 263.22 284.4 262.969C284.66 262.713 284.861 262.396 285.003 262.017L286.623 262.472C286.452 263.021 286.166 263.504 285.763 263.92C285.361 264.332 284.864 264.654 284.272 264.886C283.68 265.114 283.015 265.227 282.276 265.227ZM291.019 258.438V265H289.343V254.091H290.962V255.795H291.104C291.36 255.241 291.748 254.796 292.269 254.46C292.79 254.119 293.462 253.949 294.286 253.949C295.025 253.949 295.671 254.1 296.225 254.403C296.779 254.702 297.21 255.156 297.517 255.767C297.825 256.373 297.979 257.14 297.979 258.068V265H296.303V258.182C296.303 257.325 296.08 256.657 295.635 256.179C295.19 255.696 294.579 255.455 293.803 255.455C293.268 255.455 292.79 255.571 292.368 255.803C291.952 256.035 291.623 256.373 291.381 256.818C291.14 257.263 291.019 257.803 291.019 258.438ZM305.786 254.091V255.511H300.133V254.091H305.786ZM301.781 251.477H303.457V261.875C303.457 262.348 303.525 262.704 303.663 262.94C303.805 263.172 303.985 263.329 304.202 263.409C304.425 263.485 304.659 263.523 304.906 263.523C305.09 263.523 305.242 263.513 305.36 263.494C305.478 263.471 305.573 263.452 305.644 263.438L305.985 264.943C305.871 264.986 305.713 265.028 305.509 265.071C305.306 265.118 305.048 265.142 304.735 265.142C304.262 265.142 303.798 265.04 303.343 264.837C302.893 264.633 302.519 264.323 302.221 263.906C301.927 263.49 301.781 262.964 301.781 262.33V251.477ZM308.308 265V254.091H309.984V265H308.308ZM309.16 252.273C308.833 252.273 308.551 252.161 308.315 251.939C308.083 251.716 307.967 251.449 307.967 251.136C307.967 250.824 308.083 250.556 308.315 250.334C308.551 250.111 308.833 250 309.16 250C309.487 250 309.766 250.111 309.998 250.334C310.235 250.556 310.353 250.824 310.353 251.136C310.353 251.449 310.235 251.716 309.998 251.939C309.766 252.161 309.487 252.273 309.16 252.273ZM317.912 254.091V255.511H312.031V254.091H317.912ZM313.792 265V252.585C313.792 251.96 313.939 251.439 314.233 251.023C314.526 250.606 314.907 250.294 315.376 250.085C315.845 249.877 316.34 249.773 316.86 249.773C317.272 249.773 317.609 249.806 317.869 249.872C318.129 249.938 318.324 250 318.451 250.057L317.968 251.506C317.883 251.477 317.765 251.442 317.613 251.399C317.467 251.357 317.272 251.335 317.031 251.335C316.477 251.335 316.077 251.475 315.831 251.754C315.589 252.034 315.468 252.443 315.468 252.983V265H313.792ZM321.34 269.091C321.056 269.091 320.803 269.067 320.58 269.02C320.358 268.977 320.204 268.935 320.119 268.892L320.545 267.415C320.952 267.519 321.312 267.557 321.624 267.528C321.937 267.5 322.214 267.36 322.455 267.109C322.701 266.863 322.926 266.463 323.13 265.909L323.442 265.057L319.408 254.091H321.227L324.238 262.784H324.352L327.363 254.091H329.181L324.55 266.591C324.342 267.154 324.084 267.621 323.776 267.99C323.469 268.364 323.111 268.641 322.704 268.821C322.301 269.001 321.847 269.091 321.34 269.091ZM337.246 265V250.455H338.922V255.824H339.064C339.187 255.634 339.357 255.393 339.575 255.099C339.798 254.801 340.115 254.536 340.527 254.304C340.944 254.067 341.507 253.949 342.217 253.949C343.136 253.949 343.946 254.179 344.646 254.638C345.347 255.097 345.894 255.748 346.287 256.591C346.68 257.434 346.876 258.428 346.876 259.574C346.876 260.729 346.68 261.731 346.287 262.578C345.894 263.421 345.349 264.074 344.653 264.538C343.957 264.998 343.155 265.227 342.246 265.227C341.545 265.227 340.984 265.111 340.562 264.879C340.141 264.643 339.817 264.375 339.589 264.077C339.362 263.774 339.187 263.523 339.064 263.324H338.865V265H337.246ZM338.893 259.545C338.893 260.369 339.014 261.096 339.256 261.726C339.497 262.351 339.85 262.841 340.314 263.196C340.778 263.546 341.346 263.722 342.018 263.722C342.719 263.722 343.304 263.537 343.773 263.168C344.246 262.794 344.601 262.292 344.838 261.662C345.08 261.027 345.2 260.322 345.2 259.545C345.2 258.778 345.082 258.087 344.845 257.472C344.613 256.851 344.26 256.361 343.787 256.001C343.318 255.637 342.729 255.455 342.018 255.455C341.337 255.455 340.764 255.627 340.3 255.973C339.836 256.314 339.485 256.792 339.249 257.408C339.012 258.018 338.893 258.731 338.893 259.545ZM350.129 269.091C349.845 269.091 349.592 269.067 349.369 269.02C349.147 268.977 348.993 268.935 348.908 268.892L349.334 267.415C349.741 267.519 350.101 267.557 350.413 267.528C350.726 267.5 351.003 267.36 351.244 267.109C351.491 266.863 351.715 266.463 351.919 265.909L352.232 265.057L348.197 254.091H350.016L353.027 262.784H353.141L356.152 254.091H357.97L353.339 266.591C353.131 267.154 352.873 267.621 352.565 267.99C352.258 268.364 351.9 268.641 351.493 268.821C351.09 269.001 350.636 269.091 350.129 269.091ZM370.552 254.091V255.511H364.898V254.091H370.552ZM366.546 251.477H368.222V261.875C368.222 262.348 368.291 262.704 368.428 262.94C368.57 263.172 368.75 263.329 368.968 263.409C369.191 263.485 369.425 263.523 369.671 263.523C369.856 263.523 370.007 263.513 370.126 263.494C370.244 263.471 370.339 263.452 370.41 263.438L370.751 264.943C370.637 264.986 370.478 265.028 370.275 265.071C370.071 265.118 369.813 265.142 369.501 265.142C369.027 265.142 368.563 265.04 368.109 264.837C367.659 264.633 367.285 264.323 366.987 263.906C366.693 263.49 366.546 262.964 366.546 262.33V251.477ZM374.984 258.438V265H373.308V250.455H374.984V255.795H375.126C375.381 255.232 375.765 254.785 376.276 254.453C376.792 254.117 377.479 253.949 378.336 253.949C379.079 253.949 379.73 254.098 380.289 254.396C380.848 254.69 381.281 255.142 381.589 255.753C381.901 256.359 382.058 257.131 382.058 258.068V265H380.381V258.182C380.381 257.315 380.156 256.645 379.707 256.172C379.262 255.694 378.644 255.455 377.853 255.455C377.304 255.455 376.811 255.571 376.376 255.803C375.945 256.035 375.604 256.373 375.353 256.818C375.107 257.263 374.984 257.803 374.984 258.438ZM389.698 265.227C388.647 265.227 387.74 264.995 386.978 264.531C386.22 264.062 385.635 263.409 385.223 262.571C384.816 261.728 384.613 260.748 384.613 259.631C384.613 258.513 384.816 257.528 385.223 256.676C385.635 255.819 386.208 255.152 386.942 254.673C387.681 254.19 388.542 253.949 389.527 253.949C390.096 253.949 390.657 254.044 391.211 254.233C391.765 254.422 392.269 254.73 392.723 255.156C393.178 255.578 393.54 256.136 393.81 256.832C394.08 257.528 394.215 258.385 394.215 259.403V260.114H385.806V258.665H392.51C392.51 258.049 392.387 257.5 392.141 257.017C391.9 256.534 391.554 256.153 391.104 255.874C390.659 255.594 390.133 255.455 389.527 255.455C388.86 255.455 388.282 255.62 387.794 255.952C387.311 256.278 386.94 256.705 386.679 257.23C386.419 257.756 386.289 258.319 386.289 258.92V259.886C386.289 260.71 386.431 261.409 386.715 261.982C387.004 262.55 387.404 262.983 387.915 263.281C388.426 263.575 389.021 263.722 389.698 263.722C390.138 263.722 390.536 263.66 390.891 263.537C391.251 263.409 391.561 263.22 391.821 262.969C392.082 262.713 392.283 262.396 392.425 262.017L394.044 262.472C393.874 263.021 393.587 263.504 393.185 263.92C392.783 264.332 392.285 264.654 391.694 264.886C391.102 265.114 390.436 265.227 389.698 265.227ZM396.765 265V254.091H398.441V265H396.765ZM397.617 252.273C397.29 252.273 397.008 252.161 396.772 251.939C396.54 251.716 396.424 251.449 396.424 251.136C396.424 250.824 396.54 250.556 396.772 250.334C397.008 250.111 397.29 250 397.617 250C397.944 250 398.223 250.111 398.455 250.334C398.692 250.556 398.81 250.824 398.81 251.136C398.81 251.449 398.692 251.716 398.455 251.939C398.223 252.161 397.944 252.273 397.617 252.273ZM401.511 265V254.091H403.13V255.739H403.244C403.442 255.199 403.802 254.761 404.323 254.425C404.844 254.089 405.431 253.92 406.085 253.92C406.208 253.92 406.362 253.923 406.546 253.928C406.731 253.932 406.871 253.939 406.965 253.949V255.653C406.908 255.639 406.778 255.618 406.575 255.589C406.376 255.556 406.165 255.54 405.942 255.54C405.412 255.54 404.939 255.651 404.522 255.874C404.11 256.091 403.783 256.394 403.542 256.783C403.305 257.166 403.187 257.604 403.187 258.097V265H401.511ZM268.261 280.534L266.756 280.96C266.661 280.709 266.521 280.465 266.337 280.229C266.157 279.987 265.911 279.788 265.598 279.632C265.286 279.476 264.885 279.398 264.398 279.398C263.73 279.398 263.174 279.552 262.729 279.859C262.288 280.162 262.068 280.548 262.068 281.017C262.068 281.434 262.22 281.763 262.523 282.004C262.826 282.246 263.299 282.447 263.943 282.608L265.562 283.006C266.538 283.242 267.265 283.605 267.743 284.092C268.221 284.575 268.46 285.198 268.46 285.96C268.46 286.585 268.28 287.144 267.92 287.636C267.565 288.129 267.068 288.517 266.429 288.801C265.79 289.085 265.046 289.227 264.199 289.227C263.086 289.227 262.165 288.986 261.436 288.503C260.707 288.02 260.245 287.314 260.051 286.386L261.642 285.989C261.794 286.576 262.08 287.016 262.501 287.31C262.928 287.603 263.484 287.75 264.17 287.75C264.952 287.75 265.572 287.584 266.031 287.253C266.495 286.917 266.727 286.514 266.727 286.045C266.727 285.667 266.595 285.349 266.33 285.094C266.064 284.833 265.657 284.639 265.108 284.511L263.29 284.085C262.291 283.848 261.557 283.482 261.088 282.984C260.624 282.482 260.392 281.855 260.392 281.102C260.392 280.487 260.565 279.942 260.911 279.469C261.261 278.995 261.737 278.624 262.338 278.354C262.944 278.084 263.631 277.949 264.398 277.949C265.477 277.949 266.325 278.186 266.94 278.659C267.561 279.133 268.001 279.758 268.261 280.534ZM270.983 293.091V278.091H272.603V279.824H272.801C272.925 279.634 273.095 279.393 273.313 279.099C273.535 278.801 273.853 278.536 274.265 278.304C274.681 278.067 275.245 277.949 275.955 277.949C276.873 277.949 277.683 278.179 278.384 278.638C279.085 279.097 279.632 279.748 280.025 280.591C280.417 281.434 280.614 282.428 280.614 283.574C280.614 284.729 280.417 285.731 280.025 286.578C279.632 287.421 279.087 288.074 278.391 288.538C277.695 288.998 276.892 289.227 275.983 289.227C275.283 289.227 274.721 289.111 274.3 288.879C273.879 288.643 273.554 288.375 273.327 288.077C273.1 287.774 272.925 287.523 272.801 287.324H272.659V293.091H270.983ZM272.631 283.545C272.631 284.369 272.752 285.096 272.993 285.726C273.235 286.351 273.587 286.841 274.051 287.196C274.516 287.546 275.084 287.722 275.756 287.722C276.457 287.722 277.042 287.537 277.51 287.168C277.984 286.794 278.339 286.292 278.576 285.662C278.817 285.027 278.938 284.322 278.938 283.545C278.938 282.778 278.819 282.087 278.583 281.472C278.351 280.851 277.998 280.361 277.525 280.001C277.056 279.637 276.466 279.455 275.756 279.455C275.074 279.455 274.501 279.627 274.037 279.973C273.573 280.314 273.223 280.792 272.986 281.408C272.749 282.018 272.631 282.731 272.631 283.545ZM287.745 289.227C286.694 289.227 285.787 288.995 285.025 288.531C284.267 288.062 283.682 287.409 283.27 286.571C282.863 285.728 282.659 284.748 282.659 283.631C282.659 282.513 282.863 281.528 283.27 280.676C283.682 279.819 284.255 279.152 284.989 278.673C285.728 278.19 286.589 277.949 287.574 277.949C288.142 277.949 288.703 278.044 289.257 278.233C289.811 278.422 290.316 278.73 290.77 279.156C291.225 279.578 291.587 280.136 291.857 280.832C292.127 281.528 292.262 282.385 292.262 283.403V284.114H283.853V282.665H290.557C290.557 282.049 290.434 281.5 290.188 281.017C289.946 280.534 289.601 280.153 289.151 279.874C288.706 279.594 288.18 279.455 287.574 279.455C286.907 279.455 286.329 279.62 285.841 279.952C285.358 280.278 284.987 280.705 284.726 281.23C284.466 281.756 284.336 282.319 284.336 282.92V283.886C284.336 284.71 284.478 285.409 284.762 285.982C285.051 286.55 285.451 286.983 285.962 287.281C286.473 287.575 287.068 287.722 287.745 287.722C288.185 287.722 288.583 287.66 288.938 287.537C289.298 287.409 289.608 287.22 289.868 286.969C290.129 286.713 290.33 286.396 290.472 286.017L292.091 286.472C291.921 287.021 291.634 287.504 291.232 287.92C290.829 288.332 290.332 288.654 289.74 288.886C289.149 289.114 288.483 289.227 287.745 289.227ZM299.243 289.227C298.221 289.227 297.34 288.986 296.601 288.503C295.863 288.02 295.294 287.355 294.897 286.507C294.499 285.66 294.3 284.691 294.3 283.602C294.3 282.494 294.504 281.517 294.911 280.669C295.323 279.817 295.896 279.152 296.63 278.673C297.368 278.19 298.23 277.949 299.215 277.949C299.982 277.949 300.673 278.091 301.289 278.375C301.904 278.659 302.408 279.057 302.801 279.568C303.194 280.08 303.438 280.676 303.533 281.358H301.857C301.729 280.861 301.445 280.42 301.005 280.037C300.569 279.649 299.982 279.455 299.243 279.455C298.59 279.455 298.017 279.625 297.525 279.966C297.037 280.302 296.656 280.778 296.381 281.393C296.111 282.004 295.976 282.722 295.976 283.545C295.976 284.388 296.109 285.122 296.374 285.747C296.644 286.372 297.023 286.857 297.51 287.203C298.003 287.549 298.58 287.722 299.243 287.722C299.679 287.722 300.074 287.646 300.429 287.494C300.784 287.343 301.085 287.125 301.331 286.841C301.578 286.557 301.753 286.216 301.857 285.818H303.533C303.438 286.462 303.204 287.042 302.83 287.558C302.461 288.07 301.971 288.477 301.36 288.78C300.754 289.078 300.048 289.227 299.243 289.227ZM305.983 289V278.091H307.659V289H305.983ZM306.836 276.273C306.509 276.273 306.227 276.161 305.99 275.939C305.758 275.716 305.642 275.449 305.642 275.136C305.642 274.824 305.758 274.556 305.99 274.334C306.227 274.111 306.509 274 306.836 274C307.162 274 307.442 274.111 307.674 274.334C307.91 274.556 308.029 274.824 308.029 275.136C308.029 275.449 307.91 275.716 307.674 275.939C307.442 276.161 307.162 276.273 306.836 276.273ZM315.587 278.091V279.511H309.707V278.091H315.587ZM311.468 289V276.585C311.468 275.96 311.615 275.439 311.908 275.023C312.202 274.606 312.583 274.294 313.052 274.085C313.521 273.877 314.015 273.773 314.536 273.773C314.948 273.773 315.284 273.806 315.545 273.872C315.805 273.938 315.999 274 316.127 274.057L315.644 275.506C315.559 275.477 315.441 275.442 315.289 275.399C315.142 275.357 314.948 275.335 314.707 275.335C314.153 275.335 313.753 275.475 313.506 275.754C313.265 276.034 313.144 276.443 313.144 276.983V289H311.468ZM317.936 289V278.091H319.613V289H317.936ZM318.789 276.273C318.462 276.273 318.18 276.161 317.944 275.939C317.712 275.716 317.596 275.449 317.596 275.136C317.596 274.824 317.712 274.556 317.944 274.334C318.18 274.111 318.462 274 318.789 274C319.115 274 319.395 274.111 319.627 274.334C319.864 274.556 319.982 274.824 319.982 275.136C319.982 275.449 319.864 275.716 319.627 275.939C319.395 276.161 319.115 276.273 318.789 276.273ZM327.114 289.227C326.092 289.227 325.211 288.986 324.472 288.503C323.734 288.02 323.165 287.355 322.768 286.507C322.37 285.66 322.171 284.691 322.171 283.602C322.171 282.494 322.375 281.517 322.782 280.669C323.194 279.817 323.767 279.152 324.501 278.673C325.239 278.19 326.101 277.949 327.086 277.949C327.853 277.949 328.544 278.091 329.16 278.375C329.775 278.659 330.28 279.057 330.673 279.568C331.066 280.08 331.309 280.676 331.404 281.358H329.728C329.6 280.861 329.316 280.42 328.876 280.037C328.44 279.649 327.853 279.455 327.114 279.455C326.461 279.455 325.888 279.625 325.396 279.966C324.908 280.302 324.527 280.778 324.252 281.393C323.982 282.004 323.847 282.722 323.847 283.545C323.847 284.388 323.98 285.122 324.245 285.747C324.515 286.372 324.894 286.857 325.381 287.203C325.874 287.549 326.451 287.722 327.114 287.722C327.55 287.722 327.945 287.646 328.3 287.494C328.656 287.343 328.956 287.125 329.202 286.841C329.449 286.557 329.624 286.216 329.728 285.818H331.404C331.309 286.462 331.075 287.042 330.701 287.558C330.332 288.07 329.842 288.477 329.231 288.78C328.625 289.078 327.919 289.227 327.114 289.227ZM344.053 289.227C343.002 289.227 342.095 288.995 341.333 288.531C340.576 288.062 339.991 287.409 339.579 286.571C339.172 285.728 338.968 284.748 338.968 283.631C338.968 282.513 339.172 281.528 339.579 280.676C339.991 279.819 340.564 279.152 341.298 278.673C342.036 278.19 342.898 277.949 343.883 277.949C344.451 277.949 345.012 278.044 345.566 278.233C346.12 278.422 346.624 278.73 347.079 279.156C347.533 279.578 347.896 280.136 348.165 280.832C348.435 281.528 348.57 282.385 348.57 283.403V284.114H340.161V282.665H346.866C346.866 282.049 346.743 281.5 346.496 281.017C346.255 280.534 345.909 280.153 345.46 279.874C345.014 279.594 344.489 279.455 343.883 279.455C343.215 279.455 342.638 279.62 342.15 279.952C341.667 280.278 341.295 280.705 341.035 281.23C340.774 281.756 340.644 282.319 340.644 282.92V283.886C340.644 284.71 340.786 285.409 341.07 285.982C341.359 286.55 341.759 286.983 342.271 287.281C342.782 287.575 343.376 287.722 344.053 287.722C344.494 287.722 344.891 287.66 345.246 287.537C345.606 287.409 345.916 287.22 346.177 286.969C346.437 286.713 346.638 286.396 346.781 286.017L348.4 286.472C348.229 287.021 347.943 287.504 347.54 287.92C347.138 288.332 346.641 288.654 346.049 288.886C345.457 289.114 344.792 289.227 344.053 289.227ZM355.864 278.091V279.511H350.211V278.091H355.864ZM351.859 275.477H353.535V285.875C353.535 286.348 353.603 286.704 353.741 286.94C353.883 287.172 354.063 287.329 354.281 287.409C354.503 287.485 354.737 287.523 354.984 287.523C355.168 287.523 355.32 287.513 355.438 287.494C355.557 287.471 355.651 287.452 355.722 287.438L356.063 288.943C355.95 288.986 355.791 289.028 355.587 289.071C355.384 289.118 355.126 289.142 354.813 289.142C354.34 289.142 353.876 289.04 353.421 288.837C352.971 288.633 352.597 288.323 352.299 287.906C352.005 287.49 351.859 286.964 351.859 286.33V275.477ZM360.296 282.438V289H358.62V274.455H360.296V279.795H360.438C360.694 279.232 361.077 278.785 361.589 278.453C362.105 278.117 362.791 277.949 363.648 277.949C364.392 277.949 365.043 278.098 365.602 278.396C366.16 278.69 366.594 279.142 366.901 279.753C367.214 280.359 367.37 281.131 367.37 282.068V289H365.694V282.182C365.694 281.315 365.469 280.645 365.019 280.172C364.574 279.694 363.956 279.455 363.165 279.455C362.616 279.455 362.124 279.571 361.688 279.803C361.257 280.035 360.916 280.373 360.665 280.818C360.419 281.263 360.296 281.803 360.296 282.438ZM372.113 282.438V289H370.436V278.091H372.056V279.795H372.198C372.453 279.241 372.842 278.796 373.363 278.46C373.883 278.119 374.556 277.949 375.38 277.949C376.118 277.949 376.765 278.1 377.319 278.403C377.873 278.702 378.303 279.156 378.611 279.767C378.919 280.373 379.073 281.14 379.073 282.068V289H377.397V282.182C377.397 281.325 377.174 280.657 376.729 280.179C376.284 279.696 375.673 279.455 374.897 279.455C374.362 279.455 373.883 279.571 373.462 279.803C373.045 280.035 372.716 280.373 372.475 280.818C372.233 281.263 372.113 281.803 372.113 282.438ZM382.136 289V278.091H383.812V289H382.136ZM382.988 276.273C382.661 276.273 382.379 276.161 382.143 275.939C381.911 275.716 381.795 275.449 381.795 275.136C381.795 274.824 381.911 274.556 382.143 274.334C382.379 274.111 382.661 274 382.988 274C383.315 274 383.594 274.111 383.826 274.334C384.063 274.556 384.181 274.824 384.181 275.136C384.181 275.449 384.063 275.716 383.826 275.939C383.594 276.161 383.315 276.273 382.988 276.273ZM391.314 289.227C390.291 289.227 389.41 288.986 388.672 288.503C387.933 288.02 387.365 287.355 386.967 286.507C386.569 285.66 386.37 284.691 386.37 283.602C386.37 282.494 386.574 281.517 386.981 280.669C387.393 279.817 387.966 279.152 388.7 278.673C389.439 278.19 390.3 277.949 391.285 277.949C392.052 277.949 392.743 278.091 393.359 278.375C393.975 278.659 394.479 279.057 394.872 279.568C395.265 280.08 395.509 280.676 395.603 281.358H393.927C393.799 280.861 393.515 280.42 393.075 280.037C392.639 279.649 392.052 279.455 391.314 279.455C390.66 279.455 390.087 279.625 389.595 279.966C389.107 280.302 388.726 280.778 388.451 281.393C388.181 282.004 388.047 282.722 388.047 283.545C388.047 284.388 388.179 285.122 388.444 285.747C388.714 286.372 389.093 286.857 389.581 287.203C390.073 287.549 390.651 287.722 391.314 287.722C391.749 287.722 392.145 287.646 392.5 287.494C392.855 287.343 393.155 287.125 393.402 286.841C393.648 286.557 393.823 286.216 393.927 285.818H395.603C395.509 286.462 395.274 287.042 394.9 287.558C394.531 288.07 394.041 288.477 393.43 288.78C392.824 289.078 392.118 289.227 391.314 289.227ZM398.054 289V278.091H399.73V289H398.054ZM398.906 276.273C398.579 276.273 398.297 276.161 398.061 275.939C397.829 275.716 397.713 275.449 397.713 275.136C397.713 274.824 397.829 274.556 398.061 274.334C398.297 274.111 398.579 274 398.906 274C399.233 274 399.512 274.111 399.744 274.334C399.981 274.556 400.099 274.824 400.099 275.136C400.099 275.449 399.981 275.716 399.744 275.939C399.512 276.161 399.233 276.273 398.906 276.273ZM407.544 278.091V279.511H401.891V278.091H407.544ZM403.538 275.477H405.214V285.875C405.214 286.348 405.283 286.704 405.42 286.94C405.563 287.172 405.742 287.329 405.96 287.409C406.183 287.485 406.417 287.523 406.663 287.523C406.848 287.523 407 287.513 407.118 287.494C407.236 287.471 407.331 287.452 407.402 287.438L407.743 288.943C407.629 288.986 407.471 289.028 407.267 289.071C407.063 289.118 406.805 289.142 406.493 289.142C406.019 289.142 405.555 289.04 405.101 288.837C404.651 288.633 404.277 288.323 403.979 287.906C403.685 287.49 403.538 286.964 403.538 286.33V275.477ZM411.145 293.091C410.861 293.091 410.607 293.067 410.385 293.02C410.162 292.977 410.009 292.935 409.923 292.892L410.349 291.415C410.757 291.519 411.116 291.557 411.429 291.528C411.741 291.5 412.018 291.36 412.26 291.109C412.506 290.863 412.731 290.463 412.935 289.909L413.247 289.057L409.213 278.091H411.031L414.043 286.784H414.156L417.168 278.091H418.986L414.355 290.591C414.147 291.154 413.889 291.621 413.581 291.99C413.273 292.364 412.916 292.641 412.509 292.821C412.106 293.001 411.652 293.091 411.145 293.091Z" fill="#4E1488"/>
<rect x="8" y="220" width="3" height="545" transform="rotate(-90 8 220)" fill="#9F6AD4"/>
<rect x="549" y="220" width="17" height="3" transform="rotate(-90 549 220)" fill="#9F6AD4"/>
<rect x="8" y="220" width="17" height="3" transform="rotate(-90 8 220)" fill="#9F6AD4"/>
<path d="M159.523 285.477C157.523 285.477 155.722 285.08 154.119 284.284C152.517 283.489 151.233 282.398 150.267 281.011C149.301 279.625 148.773 278.045 148.682 276.273H152.773C152.932 277.852 153.648 279.159 154.92 280.193C156.205 281.216 157.739 281.727 159.523 281.727C160.955 281.727 162.227 281.392 163.341 280.722C164.466 280.051 165.347 279.131 165.983 277.96C166.631 276.778 166.955 275.443 166.955 273.955C166.955 272.432 166.619 271.074 165.949 269.881C165.29 268.676 164.381 267.727 163.222 267.034C162.063 266.341 160.739 265.989 159.25 265.977C158.182 265.966 157.085 266.131 155.96 266.472C154.835 266.801 153.909 267.227 153.182 267.75L149.227 267.273L151.341 250.091H169.477V253.841H154.886L153.659 264.136H153.864C154.58 263.568 155.477 263.097 156.557 262.722C157.636 262.347 158.761 262.159 159.932 262.159C162.068 262.159 163.972 262.67 165.642 263.693C167.324 264.705 168.642 266.091 169.597 267.852C170.562 269.614 171.045 271.625 171.045 273.886C171.045 276.114 170.545 278.102 169.545 279.852C168.557 281.591 167.193 282.966 165.455 283.977C163.716 284.977 161.739 285.477 159.523 285.477ZM178.908 285L194.521 254.114V253.841H176.521V250.091H198.885V254.045L183.339 285H178.908ZM223.034 278.455V276.614C223.034 275.341 223.295 274.176 223.818 273.119C224.352 272.051 225.125 271.199 226.136 270.562C227.159 269.915 228.398 269.591 229.852 269.591C231.33 269.591 232.568 269.915 233.568 270.562C234.568 271.199 235.324 272.051 235.835 273.119C236.347 274.176 236.602 275.341 236.602 276.614V278.455C236.602 279.727 236.341 280.898 235.818 281.966C235.307 283.023 234.545 283.875 233.534 284.523C232.534 285.159 231.307 285.477 229.852 285.477C228.375 285.477 227.131 285.159 226.119 284.523C225.108 283.875 224.341 283.023 223.818 281.966C223.295 280.898 223.034 279.727 223.034 278.455ZM226.511 276.614V278.455C226.511 279.511 226.761 280.46 227.261 281.301C227.761 282.131 228.625 282.545 229.852 282.545C231.045 282.545 231.886 282.131 232.375 281.301C232.875 280.46 233.125 279.511 233.125 278.455V276.614C233.125 275.557 232.886 274.614 232.409 273.784C231.932 272.943 231.08 272.523 229.852 272.523C228.659 272.523 227.801 272.943 227.278 273.784C226.767 274.614 226.511 275.557 226.511 276.614ZM205.648 258.477V256.636C205.648 255.364 205.909 254.199 206.432 253.142C206.966 252.074 207.739 251.222 208.75 250.585C209.773 249.937 211.011 249.614 212.466 249.614C213.943 249.614 215.182 249.937 216.182 250.585C217.182 251.222 217.938 252.074 218.449 253.142C218.96 254.199 219.216 255.364 219.216 256.636V258.477C219.216 259.75 218.955 260.92 218.432 261.989C217.92 263.045 217.159 263.898 216.148 264.545C215.148 265.182 213.92 265.5 212.466 265.5C210.989 265.5 209.744 265.182 208.733 264.545C207.722 263.898 206.955 263.045 206.432 261.989C205.909 260.92 205.648 259.75 205.648 258.477ZM209.125 256.636V258.477C209.125 259.534 209.375 260.483 209.875 261.324C210.375 262.153 211.239 262.568 212.466 262.568C213.659 262.568 214.5 262.153 214.989 261.324C215.489 260.483 215.739 259.534 215.739 258.477V256.636C215.739 255.58 215.5 254.636 215.023 253.807C214.545 252.966 213.693 252.545 212.466 252.545C211.273 252.545 210.415 252.966 209.892 253.807C209.381 254.636 209.125 255.58 209.125 256.636ZM206.943 285L230.943 250.091H234.83L210.83 285H206.943Z" fill="#4E1488"/>
</svg>
