<svg width="400" height="195" viewBox="0 0 400 195" fill="none" xmlns="http://www.w3.org/2000/svg">
<path d="M113.372 58.9773H107.286V52.7746C107.286 49.0526 112.992 48.7098 113.372 52.8828V58.9773Z" fill="#FFBF00"/>
<ellipse cx="110.329" cy="47.064" rx="3.04294" ry="2.80305" fill="#FFBF00"/>
<path d="M122.424 58.9773H116.338V52.7746C116.338 49.0526 122.044 48.7098 122.424 52.8828V58.9773Z" fill="#FFBF00"/>
<ellipse cx="119.381" cy="47.064" rx="3.04294" ry="2.80305" fill="#FFBF00"/>
<path d="M131.477 58.9773H125.391V52.7746C125.391 49.0526 131.097 48.7098 131.477 52.8828V58.9773Z" fill="#FFBF00"/>
<ellipse cx="128.434" cy="47.064" rx="3.04294" ry="2.80305" fill="#FFBF00"/>
<path d="M140.53 58.9773H134.444V52.7746C134.444 49.0526 140.15 48.7098 140.53 52.8828V58.9773Z" fill="#FFBF00"/>
<ellipse cx="137.487" cy="47.064" rx="3.04294" ry="2.80305" fill="#FFBF00"/>
<path d="M149.583 58.9773H143.498V52.7746C143.498 49.0526 149.203 48.7098 149.583 52.8828V58.9773Z" fill="#FFBF00"/>
<ellipse cx="146.54" cy="47.064" rx="3.04294" ry="2.80305" fill="#FFBF00"/>
<path d="M113.372 39.3558H107.286V33.153C107.286 29.4311 112.992 29.0883 113.372 33.2613V39.3558Z" fill="#FFBF00"/>
<ellipse cx="110.329" cy="27.4425" rx="3.04294" ry="2.80305" fill="#FFBF00"/>
<path d="M122.424 39.3558H116.338V33.153C116.338 29.4311 122.044 29.0883 122.424 33.2613V39.3558Z" fill="#FFBF00"/>
<ellipse cx="119.381" cy="27.4425" rx="3.04294" ry="2.80305" fill="#FFBF00"/>
<path d="M131.477 39.3558H125.391V33.153C125.391 29.4311 131.097 29.0883 131.477 33.2613V39.3558Z" fill="#FFBF00"/>
<ellipse cx="128.434" cy="27.4425" rx="3.04294" ry="2.80305" fill="#FFBF00"/>
<path d="M140.53 39.3558H134.444V33.153C134.444 29.4311 140.15 29.0883 140.53 33.2613V39.3558Z" fill="#FFBF00"/>
<ellipse cx="137.487" cy="27.4425" rx="3.04294" ry="2.80305" fill="#FFBF00"/>
<path d="M149.583 39.3558H143.498V33.153C143.498 29.4311 149.203 29.0883 149.583 33.2613V39.3558Z" fill="#FFBF00"/>
<ellipse cx="146.54" cy="27.4425" rx="3.04294" ry="2.80305" fill="#FFBF00"/>
<path d="M295.102 59.3979H289.016V53.1951C289.016 49.4731 294.722 49.1304 295.102 53.3033V59.3979Z" fill="#FFBF00"/>
<ellipse cx="292.059" cy="47.4845" rx="3.04294" ry="2.80305" fill="#FFBF00"/>
<path d="M304.154 59.3979H298.068V53.1951C298.068 49.4731 303.773 49.1304 304.154 53.3033V59.3979Z" fill="#FFBF00"/>
<ellipse cx="301.111" cy="47.4845" rx="3.04294" ry="2.80305" fill="#FFBF00"/>
<path d="M313.207 59.3979H307.121V53.1951C307.121 49.4731 312.827 49.1304 313.207 53.3033V59.3979Z" fill="#FFBF00"/>
<ellipse cx="310.164" cy="47.4845" rx="3.04294" ry="2.80305" fill="#FFBF00"/>
<path d="M322.26 59.3979H316.174V53.1951C316.174 49.4731 321.88 49.1304 322.26 53.3033V59.3979Z" fill="#FFBF00"/>
<ellipse cx="319.217" cy="47.4845" rx="3.04294" ry="2.80305" fill="#FFBF00"/>
<path d="M331.313 59.3979H325.227V53.1951C325.227 49.4731 330.933 49.1304 331.313 53.3033V59.3979Z" fill="#FFBF00"/>
<ellipse cx="328.27" cy="47.4845" rx="3.04294" ry="2.80305" fill="#FFBF00"/>
<path d="M203.872 59.3138H197.786V53.111C197.786 49.389 203.492 49.0463 203.872 53.2192V59.3138Z" fill="#FFBF00"/>
<ellipse cx="200.829" cy="47.4004" rx="3.04294" ry="2.80305" fill="#FFBF00"/>
<path d="M212.924 59.3138H206.838V53.111C206.838 49.389 212.544 49.0463 212.924 53.2192V59.3138Z" fill="#FFBF00"/>
<ellipse cx="209.881" cy="47.4004" rx="3.04294" ry="2.80305" fill="#FFBF00"/>
<path d="M221.977 59.3138H215.891V53.111C215.891 49.389 221.597 49.0463 221.977 53.2192V59.3138Z" fill="#FFBF00"/>
<ellipse cx="218.934" cy="47.4004" rx="3.04294" ry="2.80305" fill="#FFBF00"/>
<path d="M231.03 59.3138H224.944V53.111C224.944 49.389 230.65 49.0463 231.03 53.2192V59.3138Z" fill="#FFBF00"/>
<ellipse cx="227.987" cy="47.4004" rx="3.04294" ry="2.80305" fill="#FFBF00"/>
<path d="M240.083 59.3138H233.997V53.111C233.997 49.389 239.703 49.0463 240.083 53.2192V59.3138Z" fill="#FFBF00"/>
<ellipse cx="237.04" cy="47.4004" rx="3.04294" ry="2.80305" fill="#FFBF00"/>
<path d="M158.637 58.9773H152.551V52.7746C152.551 49.0526 158.256 48.7098 158.637 52.8828V58.9773Z" fill="#FFBF00"/>
<ellipse cx="155.594" cy="47.064" rx="3.04294" ry="2.80305" fill="#FFBF00"/>
<path d="M167.69 58.9773H161.604V52.7746C161.604 49.0526 167.309 48.7098 167.69 52.8828V58.9773Z" fill="#FFBF00"/>
<ellipse cx="164.647" cy="47.064" rx="3.04294" ry="2.80305" fill="#FFBF00"/>
<path d="M176.741 58.9773H170.656V52.7746C170.656 49.0526 176.361 48.7098 176.741 52.8828V58.9773Z" fill="#FFBF00"/>
<ellipse cx="173.698" cy="47.064" rx="3.04294" ry="2.80305" fill="#FFBF00"/>
<path d="M185.794 58.9773H179.709V52.7746C179.709 49.0526 185.414 48.7098 185.794 52.8828V58.9773Z" fill="#FFBF00"/>
<ellipse cx="182.752" cy="47.064" rx="3.04294" ry="2.80305" fill="#FFBF00"/>
<path d="M194.846 58.9773H188.76V52.7746C188.76 49.0526 194.466 48.7098 194.846 52.8828V58.9773Z" fill="#FFBF00"/>
<ellipse cx="191.803" cy="47.064" rx="3.04294" ry="2.80305" fill="#FFBF00"/>
<path d="M158.637 39.3558H152.551V33.153C152.551 29.4311 158.256 29.0883 158.637 33.2613V39.3558Z" fill="#FFBF00"/>
<ellipse cx="155.594" cy="27.4425" rx="3.04294" ry="2.80305" fill="#FFBF00"/>
<path d="M167.69 39.3558H161.604V33.153C161.604 29.4311 167.309 29.0883 167.69 33.2613V39.3558Z" fill="#FFBF00"/>
<ellipse cx="164.647" cy="27.4425" rx="3.04294" ry="2.80305" fill="#FFBF00"/>
<path d="M176.741 39.3558H170.656V33.153C170.656 29.4311 176.361 29.0883 176.741 33.2613V39.3558Z" fill="#FFBF00"/>
<ellipse cx="173.698" cy="27.4425" rx="3.04294" ry="2.80305" fill="#FFBF00"/>
<path d="M185.794 39.3558H179.709V33.153C179.709 29.4311 185.414 29.0883 185.794 33.2613V39.3558Z" fill="#FFBF00"/>
<ellipse cx="182.752" cy="27.4425" rx="3.04294" ry="2.80305" fill="#FFBF00"/>
<path d="M194.846 39.3558H188.76V33.153C188.76 29.4311 194.466 29.0883 194.846 33.2613V39.3558Z" fill="#FFBF00"/>
<ellipse cx="191.803" cy="27.4425" rx="3.04294" ry="2.80305" fill="#FFBF00"/>
<path d="M239.634 111.946H233.548V105.743C233.548 102.021 239.254 101.679 239.634 105.852V111.946Z" fill="#563381"/>
<ellipse cx="236.591" cy="100.033" rx="3.04294" ry="2.80305" fill="#563381"/>
<path d="M248.686 111.946H242.6V105.743C242.6 102.021 248.305 101.679 248.686 105.852V111.946Z" fill="#563381"/>
<ellipse cx="245.643" cy="100.033" rx="3.04294" ry="2.80305" fill="#563381"/>
<path d="M257.739 111.946H251.653V105.743C251.653 102.021 257.358 101.679 257.739 105.852V111.946Z" fill="#563381"/>
<ellipse cx="254.696" cy="100.033" rx="3.04294" ry="2.80305" fill="#563381"/>
<path d="M266.792 111.946H260.706V105.743C260.706 102.021 266.412 101.679 266.792 105.852V111.946Z" fill="#563381"/>
<ellipse cx="263.749" cy="100.033" rx="3.04294" ry="2.80305" fill="#563381"/>
<path d="M275.845 111.946H269.759V105.743C269.759 102.021 275.465 101.679 275.845 105.852V111.946Z" fill="#563381"/>
<ellipse cx="272.802" cy="100.033" rx="3.04294" ry="2.80305" fill="#563381"/>
<path d="M112.642 111.946H106.556V105.743C106.556 102.021 112.262 101.679 112.642 105.852V111.946Z" fill="#563381"/>
<ellipse cx="109.599" cy="100.033" rx="3.04294" ry="2.80305" fill="#563381"/>
<path d="M121.694 111.946H115.608V105.743C115.608 102.021 121.313 101.679 121.694 105.852V111.946Z" fill="#563381"/>
<ellipse cx="118.651" cy="100.033" rx="3.04294" ry="2.80305" fill="#563381"/>
<path d="M130.747 111.946H124.661V105.743C124.661 102.021 130.366 101.679 130.747 105.852V111.946Z" fill="#563381"/>
<ellipse cx="127.704" cy="100.033" rx="3.04294" ry="2.80305" fill="#563381"/>
<path d="M139.8 111.946H133.714V105.743C133.714 102.021 139.42 101.679 139.8 105.852V111.946Z" fill="#563381"/>
<ellipse cx="136.757" cy="100.033" rx="3.04294" ry="2.80305" fill="#563381"/>
<path d="M148.853 111.946H142.767V105.743C142.767 102.021 148.473 101.679 148.853 105.852V111.946Z" fill="#563381"/>
<ellipse cx="145.81" cy="100.033" rx="3.04294" ry="2.80305" fill="#563381"/>
<path d="M284.897 111.946H278.811V105.743C278.811 102.021 284.516 101.679 284.897 105.852V111.946Z" fill="#563381"/>
<ellipse cx="281.854" cy="100.033" rx="3.04294" ry="2.80305" fill="#563381"/>
<path d="M293.95 111.946H287.864V105.743C287.864 102.021 293.57 101.679 293.95 105.852V111.946Z" fill="#563381"/>
<ellipse cx="290.907" cy="100.033" rx="3.04294" ry="2.80305" fill="#563381"/>
<path d="M303.003 111.946H296.917V105.743C296.917 102.021 302.623 101.679 303.003 105.852V111.946Z" fill="#563381"/>
<ellipse cx="299.96" cy="100.033" rx="3.04294" ry="2.80305" fill="#563381"/>
<path d="M312.055 111.946H305.969V105.743C305.969 102.021 311.674 101.679 312.055 105.852V111.946Z" fill="#563381"/>
<ellipse cx="309.012" cy="100.033" rx="3.04294" ry="2.80305" fill="#563381"/>
<path d="M321.108 111.946H315.022V105.743C315.022 102.021 320.727 101.679 321.108 105.852V111.946Z" fill="#563381"/>
<ellipse cx="318.065" cy="100.033" rx="3.04294" ry="2.80305" fill="#563381"/>
<path d="M157.905 111.946H151.819V105.743C151.819 102.021 157.524 101.679 157.905 105.852V111.946Z" fill="#563381"/>
<ellipse cx="154.862" cy="100.033" rx="3.04294" ry="2.80305" fill="#563381"/>
<path d="M166.958 111.946H160.872V105.743C160.872 102.021 166.578 101.679 166.958 105.852V111.946Z" fill="#563381"/>
<ellipse cx="163.915" cy="100.033" rx="3.04294" ry="2.80305" fill="#563381"/>
<path d="M176.011 111.946H169.925V105.743C169.925 102.021 175.631 101.679 176.011 105.852V111.946Z" fill="#563381"/>
<ellipse cx="172.968" cy="100.033" rx="3.04294" ry="2.80305" fill="#563381"/>
<path d="M185.063 111.946H178.977V105.743C178.977 102.021 184.682 101.679 185.063 105.852V111.946Z" fill="#563381"/>
<ellipse cx="182.02" cy="100.033" rx="3.04294" ry="2.80305" fill="#563381"/>
<path d="M194.116 111.946H188.03V105.743C188.03 102.021 193.736 101.679 194.116 105.852V111.946Z" fill="#563381"/>
<ellipse cx="191.073" cy="100.033" rx="3.04294" ry="2.80305" fill="#563381"/>
<path d="M200.952 184.2H194.867V177.998C194.867 174.276 200.572 173.933 200.952 178.106V184.2Z" fill="#563381"/>
<ellipse cx="197.91" cy="172.287" rx="3.04294" ry="2.80305" fill="#563381"/>
<path d="M210.006 184.2H203.92V177.998C203.92 174.276 209.625 173.933 210.006 178.106V184.2Z" fill="#563381"/>
<ellipse cx="206.963" cy="172.287" rx="3.04294" ry="2.80305" fill="#563381"/>
<path d="M219.059 184.2H212.973V177.998C212.973 174.276 218.678 173.933 219.059 178.106V184.2Z" fill="#563381"/>
<ellipse cx="216.016" cy="172.287" rx="3.04294" ry="2.80305" fill="#563381"/>
<path d="M228.112 184.2H222.026V177.998C222.026 174.276 227.732 173.933 228.112 178.106V184.2Z" fill="#563381"/>
<ellipse cx="225.069" cy="172.287" rx="3.04294" ry="2.80305" fill="#563381"/>
<path d="M237.165 184.2H231.079V177.998C231.079 174.276 236.785 173.933 237.165 178.106V184.2Z" fill="#563381"/>
<ellipse cx="234.122" cy="172.287" rx="3.04294" ry="2.80305" fill="#563381"/>
<path d="M110.452 184.2H104.367V177.998C104.367 174.276 110.072 173.933 110.452 178.106V184.2Z" fill="#563381"/>
<ellipse cx="107.41" cy="172.287" rx="3.04294" ry="2.80305" fill="#563381"/>
<path d="M119.506 184.2H113.42V177.998C113.42 174.276 119.125 173.933 119.506 178.106V184.2Z" fill="#563381"/>
<ellipse cx="116.463" cy="172.287" rx="3.04294" ry="2.80305" fill="#563381"/>
<path d="M128.559 184.2H122.473V177.998C122.473 174.276 128.178 173.933 128.559 178.106V184.2Z" fill="#563381"/>
<ellipse cx="125.516" cy="172.287" rx="3.04294" ry="2.80305" fill="#563381"/>
<path d="M137.612 184.2H131.526V177.998C131.526 174.276 137.232 173.933 137.612 178.106V184.2Z" fill="#563381"/>
<ellipse cx="134.569" cy="172.287" rx="3.04294" ry="2.80305" fill="#563381"/>
<path d="M146.665 184.2H140.579V177.998C140.579 174.276 146.285 173.933 146.665 178.106V184.2Z" fill="#563381"/>
<ellipse cx="143.622" cy="172.287" rx="3.04294" ry="2.80305" fill="#563381"/>
<path d="M246.215 184.2H240.129V177.998C240.129 174.276 245.835 173.933 246.215 178.106V184.2Z" fill="#563381"/>
<ellipse cx="243.172" cy="172.287" rx="3.04294" ry="2.80305" fill="#563381"/>
<path d="M255.268 184.2H249.183V177.998C249.183 174.276 254.888 173.933 255.268 178.106V184.2Z" fill="#563381"/>
<ellipse cx="252.225" cy="172.287" rx="3.04294" ry="2.80305" fill="#563381"/>
<path d="M264.322 184.2H258.236V177.998C258.236 174.276 263.941 173.933 264.322 178.106V184.2Z" fill="#563381"/>
<ellipse cx="261.279" cy="172.287" rx="3.04294" ry="2.80305" fill="#563381"/>
<path d="M273.375 184.2H267.289V177.998C267.289 174.276 272.994 173.933 273.375 178.106V184.2Z" fill="#563381"/>
<ellipse cx="270.332" cy="172.287" rx="3.04294" ry="2.80305" fill="#563381"/>
<path d="M282.428 184.2H276.342V177.998C276.342 174.276 282.047 173.933 282.428 178.106V184.2Z" fill="#563381"/>
<ellipse cx="279.385" cy="172.287" rx="3.04294" ry="2.80305" fill="#563381"/>
<path d="M155.715 184.2H149.629V177.998C149.629 174.276 155.335 173.933 155.715 178.106V184.2Z" fill="#563381"/>
<ellipse cx="152.672" cy="172.287" rx="3.04294" ry="2.80305" fill="#563381"/>
<path d="M164.768 184.2H158.683V177.998C158.683 174.276 164.388 173.933 164.768 178.106V184.2Z" fill="#563381"/>
<ellipse cx="161.725" cy="172.287" rx="3.04294" ry="2.80305" fill="#563381"/>
<path d="M173.822 184.2H167.736V177.998C167.736 174.276 173.441 173.933 173.822 178.106V184.2Z" fill="#563381"/>
<ellipse cx="170.779" cy="172.287" rx="3.04294" ry="2.80305" fill="#563381"/>
<path d="M182.875 184.2H176.789V177.998C176.789 174.276 182.494 173.933 182.875 178.106V184.2Z" fill="#563381"/>
<ellipse cx="179.832" cy="172.287" rx="3.04294" ry="2.80305" fill="#563381"/>
<path d="M191.928 184.2H185.842V177.998C185.842 174.276 191.547 173.933 191.928 178.106V184.2Z" fill="#563381"/>
<ellipse cx="188.885" cy="172.287" rx="3.04294" ry="2.80305" fill="#563381"/>
<path d="M340.366 59.3979H334.28V53.1951C334.28 49.4731 339.986 49.1304 340.366 53.3033V59.3979Z" fill="#FFBF00"/>
<ellipse cx="337.323" cy="47.4845" rx="3.04294" ry="2.80305" fill="#FFBF00"/>
<path d="M294.372 39.6922H288.286V33.4894C288.286 29.7674 293.992 29.4247 294.372 33.5976V39.6922Z" fill="#FFBF00"/>
<ellipse cx="291.329" cy="27.7789" rx="3.04294" ry="2.80305" fill="#FFBF00"/>
<path d="M303.424 39.6922H297.338V33.4894C297.338 29.7674 303.044 29.4247 303.424 33.5976V39.6922Z" fill="#FFBF00"/>
<ellipse cx="300.381" cy="27.7789" rx="3.04294" ry="2.80305" fill="#FFBF00"/>
<path d="M330.134 112.03H324.048V105.827C324.048 102.105 329.754 101.762 330.134 105.935V112.03Z" fill="#563381"/>
<ellipse cx="327.091" cy="100.116" rx="3.04294" ry="2.80305" fill="#563381"/>
<path d="M339.186 112.03H333.1V105.827C333.1 102.105 338.805 101.762 339.186 105.935V112.03Z" fill="#563381"/>
<ellipse cx="336.143" cy="100.116" rx="3.04294" ry="2.80305" fill="#563381"/>
<path d="M112.642 131.652H106.556V125.449C106.556 121.727 112.262 121.384 112.642 125.557V131.652Z" fill="#563381"/>
<ellipse cx="109.599" cy="119.739" rx="3.04294" ry="2.80305" fill="#563381"/>
<path d="M121.695 131.652H115.609V125.449C115.609 121.727 121.315 121.384 121.695 125.557V131.652Z" fill="#563381"/>
<ellipse cx="118.652" cy="119.739" rx="3.04294" ry="2.80305" fill="#563381"/>
<path d="M203.142 111.946H197.056V105.743C197.056 102.021 202.762 101.679 203.142 105.852V111.946Z" fill="#563381"/>
<ellipse cx="200.099" cy="100.033" rx="3.04294" ry="2.80305" fill="#563381"/>
<path d="M212.194 111.946H206.108V105.743C206.108 102.021 211.813 101.679 212.194 105.852V111.946Z" fill="#563381"/>
<ellipse cx="209.151" cy="100.033" rx="3.04294" ry="2.80305" fill="#563381"/>
<path d="M221.247 111.946H215.161V105.743C215.161 102.021 220.866 101.679 221.247 105.852V111.946Z" fill="#563381"/>
<ellipse cx="218.204" cy="100.033" rx="3.04294" ry="2.80305" fill="#563381"/>
<path d="M230.3 111.946H224.214V105.743C224.214 102.021 229.92 101.679 230.3 105.852V111.946Z" fill="#563381"/>
<ellipse cx="227.257" cy="100.033" rx="3.04294" ry="2.80305" fill="#563381"/>
<path d="M312.477 39.6922H306.391V33.4894C306.391 29.7674 312.097 29.4247 312.477 33.5976V39.6922Z" fill="#FFBF00"/>
<ellipse cx="309.434" cy="27.7789" rx="3.04294" ry="2.80305" fill="#FFBF00"/>
<path d="M321.529 39.6922H315.443V33.4894C315.443 29.7674 321.148 29.4247 321.529 33.5976V39.6922Z" fill="#FFBF00"/>
<ellipse cx="318.486" cy="27.7789" rx="3.04294" ry="2.80305" fill="#FFBF00"/>
<path d="M249.137 59.3138H243.051V53.111C243.051 49.389 248.756 49.0463 249.137 53.2192V59.3138Z" fill="#FFBF00"/>
<ellipse cx="246.094" cy="47.4004" rx="3.04294" ry="2.80305" fill="#FFBF00"/>
<path d="M258.19 59.3138H252.104V53.111C252.104 49.389 257.809 49.0463 258.19 53.2192V59.3138Z" fill="#FFBF00"/>
<ellipse cx="255.147" cy="47.4004" rx="3.04294" ry="2.80305" fill="#FFBF00"/>
<path d="M267.241 59.3123H261.155V53.1095C261.155 49.3876 266.861 49.0448 267.241 53.2177V59.3123Z" fill="#FFBF00"/>
<ellipse cx="264.198" cy="47.399" rx="3.04294" ry="2.80305" fill="#FFBF00"/>
<path d="M276.294 59.3123H270.209V53.1095C270.209 49.3876 275.914 49.0448 276.294 53.2177V59.3123Z" fill="#FFBF00"/>
<ellipse cx="273.252" cy="47.399" rx="3.04294" ry="2.80305" fill="#FFBF00"/>
<path d="M285.346 59.3123H279.26V53.1095C279.26 49.3876 284.966 49.0448 285.346 53.2177V59.3123Z" fill="#FFBF00"/>
<ellipse cx="282.303" cy="47.399" rx="3.04294" ry="2.80305" fill="#FFBF00"/>
<path d="M203.872 39.6922H197.786V33.4894C197.786 29.7674 203.492 29.4247 203.872 33.5976V39.6922Z" fill="#FFBF00"/>
<ellipse cx="200.829" cy="27.7789" rx="3.04294" ry="2.80305" fill="#FFBF00"/>
<path d="M212.924 39.6922H206.838V33.4894C206.838 29.7674 212.544 29.4247 212.924 33.5976V39.6922Z" fill="#FFBF00"/>
<ellipse cx="209.881" cy="27.7789" rx="3.04294" ry="2.80305" fill="#FFBF00"/>
<path d="M330.555 39.946H324.469V33.7432C324.469 30.0212 330.175 29.6785 330.555 33.8514V39.946Z" fill="#FFBF00"/>
<ellipse cx="327.512" cy="28.0326" rx="3.04294" ry="2.80305" fill="#FFBF00"/>
<path d="M339.607 39.946H333.521V33.7432C333.521 30.0212 339.226 29.6785 339.607 33.8514V39.946Z" fill="#FFBF00"/>
<ellipse cx="336.564" cy="28.0326" rx="3.04294" ry="2.80305" fill="#FFBF00"/>
<path d="M221.977 39.6922H215.891V33.4894C215.891 29.7674 221.597 29.4247 221.977 33.5976V39.6922Z" fill="#FFBF00"/>
<ellipse cx="218.934" cy="27.7789" rx="3.04294" ry="2.80305" fill="#FFBF00"/>
<path d="M231.03 39.6922H224.944V33.4894C224.944 29.7674 230.65 29.4247 231.03 33.5976V39.6922Z" fill="#FFBF00"/>
<ellipse cx="227.987" cy="27.7789" rx="3.04294" ry="2.80305" fill="#FFBF00"/>
<path d="M240.083 39.6922H233.997V33.4894C233.997 29.7674 239.703 29.4247 240.083 33.5976V39.6922Z" fill="#FFBF00"/>
<ellipse cx="237.04" cy="27.7789" rx="3.04294" ry="2.80305" fill="#FFBF00"/>
<path d="M249.137 39.6922H243.051V33.4894C243.051 29.7674 248.756 29.4247 249.137 33.5976V39.6922Z" fill="#FFBF00"/>
<ellipse cx="246.094" cy="27.7789" rx="3.04294" ry="2.80305" fill="#FFBF00"/>
<path d="M258.19 39.6922H252.104V33.4894C252.104 29.7674 257.809 29.4247 258.19 33.5976V39.6922Z" fill="#FFBF00"/>
<ellipse cx="255.147" cy="27.7789" rx="3.04294" ry="2.80305" fill="#FFBF00"/>
<path d="M267.241 39.6922H261.155V33.4894C261.155 29.7674 266.861 29.4247 267.241 33.5976V39.6922Z" fill="#FFBF00"/>
<ellipse cx="264.198" cy="27.7789" rx="3.04294" ry="2.80305" fill="#FFBF00"/>
<path d="M276.294 39.6922H270.209V33.4894C270.209 29.7674 275.914 29.4247 276.294 33.5976V39.6922Z" fill="#FFBF00"/>
<ellipse cx="273.252" cy="27.7789" rx="3.04294" ry="2.80305" fill="#FFBF00"/>
<path d="M285.346 39.6922H279.26V33.4894C279.26 29.7674 284.966 29.4247 285.346 33.5976V39.6922Z" fill="#FFBF00"/>
<ellipse cx="282.303" cy="27.7789" rx="3.04294" ry="2.80305" fill="#FFBF00"/>
<rect x="1" y="44" width="101" height="28" rx="5" fill="white"/>
<path d="M105.907 47.2562L94.9324 56.8606L88.2026 47.2564L105.907 47.2562Z" fill="white"/>
<path d="M8.64205 52.0909V63H7.32102V52.0909H8.64205ZM12.2282 52.0909V53.0497C12.2282 53.3409 12.175 53.6516 12.0684 53.9819C11.9655 54.3086 11.8128 54.6264 11.6104 54.9354C11.4115 55.2408 11.17 55.5071 10.8859 55.7344L10.2041 55.1804C10.4278 54.8608 10.6214 54.5288 10.7847 54.1843C10.9516 53.8363 11.0351 53.4652 11.0351 53.071V52.0909H12.2282ZM13.5666 63V54.8182H14.7811V56.0966H14.8876C15.0581 55.6598 15.3333 55.3207 15.7132 55.0792C16.0932 54.8342 16.5495 54.7116 17.0822 54.7116C17.622 54.7116 18.0712 54.8342 18.4299 55.0792C18.7921 55.3207 19.0744 55.6598 19.2768 56.0966H19.362C19.5716 55.674 19.8858 55.3384 20.3049 55.0898C20.7239 54.8377 21.2264 54.7116 21.8123 54.7116C22.5439 54.7116 23.1422 54.9407 23.6074 55.3988C24.0726 55.8533 24.3052 56.5618 24.3052 57.5241V63H23.0481V57.5241C23.0481 56.9205 22.883 56.489 22.5527 56.2298C22.2225 55.9705 21.8336 55.8409 21.3862 55.8409C20.8109 55.8409 20.3652 56.0149 20.0492 56.3629C19.7331 56.7074 19.5751 57.1442 19.5751 57.6733V63H18.2967V57.3963C18.2967 56.9311 18.1458 56.5565 17.8439 56.2724C17.5421 55.9847 17.1532 55.8409 16.6774 55.8409C16.3507 55.8409 16.0453 55.9279 15.7612 56.1019C15.4806 56.2759 15.2534 56.5174 15.0794 56.8263C14.9089 57.1317 14.8237 57.4851 14.8237 57.8864V63H13.5666ZM30.9929 63V52.0909H34.679C35.5348 52.0909 36.2344 52.2454 36.7777 52.5543C37.3246 52.8597 37.7294 53.2734 37.9922 53.7955C38.255 54.3175 38.3864 54.8999 38.3864 55.5426C38.3864 56.1854 38.255 56.7695 37.9922 57.2951C37.733 57.8207 37.3317 58.2397 36.7884 58.5522C36.245 58.8612 35.549 59.0156 34.7003 59.0156H32.0582V57.8438H34.6577C35.2436 57.8438 35.7141 57.7425 36.0692 57.5401C36.4244 57.3377 36.6818 57.0643 36.8416 56.7198C37.005 56.3718 37.0866 55.9794 37.0866 55.5426C37.0866 55.1058 37.005 54.7152 36.8416 54.3707C36.6818 54.0263 36.4226 53.7564 36.0639 53.5611C35.7053 53.3622 35.2294 53.2628 34.6364 53.2628H32.3139V63H30.9929ZM42.7516 63.1918C42.2331 63.1918 41.7626 63.0941 41.34 62.8988C40.9174 62.6999 40.5819 62.4141 40.3333 62.0412C40.0847 61.6648 39.9604 61.2102 39.9604 60.6776C39.9604 60.2088 40.0527 59.8288 40.2374 59.5376C40.4221 59.2429 40.6689 59.0121 40.9778 58.8452C41.2868 58.6783 41.6277 58.554 42.0005 58.4723C42.377 58.3871 42.7551 58.3196 43.1351 58.2699C43.6323 58.206 44.0353 58.158 44.3443 58.1261C44.6568 58.0906 44.8841 58.032 45.0261 57.9503C45.1717 57.8686 45.2445 57.7266 45.2445 57.5241V57.4815C45.2445 56.956 45.1007 56.5476 44.813 56.2564C44.5289 55.9652 44.0975 55.8196 43.5186 55.8196C42.9185 55.8196 42.448 55.951 42.1071 56.2138C41.7662 56.4766 41.5265 56.7571 41.388 57.0554L40.1948 56.6293C40.4078 56.1321 40.6919 55.745 41.0471 55.468C41.4057 55.1875 41.7963 54.9922 42.2189 54.8821C42.6451 54.7685 43.0641 54.7116 43.476 54.7116C43.7388 54.7116 44.0407 54.7436 44.3816 54.8075C44.726 54.8679 45.0581 54.994 45.3777 55.1857C45.7008 55.3775 45.9689 55.6669 46.182 56.054C46.3951 56.4411 46.5016 56.9595 46.5016 57.6094V63H45.2445V61.892H45.1806C45.0953 62.0696 44.9533 62.2596 44.7544 62.462C44.5556 62.6644 44.291 62.8366 43.9608 62.9787C43.6305 63.1207 43.2275 63.1918 42.7516 63.1918ZM42.9434 62.0625C43.4405 62.0625 43.8596 61.9648 44.2005 61.7695C44.5449 61.5742 44.8042 61.3221 44.9782 61.0131C45.1557 60.7042 45.2445 60.3793 45.2445 60.0384V58.8878C45.1912 58.9517 45.074 59.0103 44.8929 59.0636C44.7154 59.1133 44.5094 59.1577 44.275 59.1967C44.0442 59.2322 43.8187 59.2642 43.5985 59.2926C43.3819 59.3175 43.2061 59.3388 43.0712 59.3565C42.7445 59.3991 42.4391 59.4684 42.155 59.5643C41.8745 59.6566 41.6472 59.7969 41.4732 59.9851C41.3027 60.1697 41.2175 60.4219 41.2175 60.7415C41.2175 61.1783 41.3791 61.5085 41.7022 61.7322C42.0289 61.9524 42.4426 62.0625 42.9434 62.0625ZM49.968 60.017L49.9466 58.4616H50.2023L53.7819 54.8182H55.3373L51.5233 58.6747H51.4168L49.968 60.017ZM48.7961 63V52.0909H50.0532V63H48.7961ZM53.9949 63L50.7989 58.9517L51.6938 58.0781L55.593 63H53.9949ZM56.9553 63V54.8182H58.2124V63H56.9553ZM57.5945 53.4545C57.3494 53.4545 57.1381 53.3711 56.9606 53.2042C56.7866 53.0373 56.6996 52.8366 56.6996 52.6023C56.6996 52.3679 56.7866 52.1673 56.9606 52.0004C57.1381 51.8335 57.3494 51.75 57.5945 51.75C57.8395 51.75 58.049 51.8335 58.223 52.0004C58.4006 52.1673 58.4893 52.3679 58.4893 52.6023C58.4893 52.8366 58.4006 53.0373 58.223 53.2042C58.049 53.3711 57.8395 53.4545 57.5945 53.4545ZM66.3103 56.6506L65.181 56.9702C65.11 56.782 65.0052 56.5991 64.8667 56.4215C64.7318 56.2404 64.5471 56.0913 64.3128 55.9741C64.0784 55.8569 63.7783 55.7983 63.4126 55.7983C62.9118 55.7983 62.4946 55.9137 62.1608 56.1445C61.8305 56.3718 61.6654 56.6612 61.6654 57.0128C61.6654 57.3253 61.779 57.5721 62.0063 57.7532C62.2336 57.9343 62.5887 58.0852 63.0716 58.206L64.2861 58.5043C65.0177 58.6818 65.5628 58.9535 65.9214 59.3192C66.2801 59.6815 66.4594 60.1484 66.4594 60.7202C66.4594 61.1889 66.3245 61.608 66.0546 61.9773C65.7883 62.3466 65.4154 62.6378 64.936 62.8509C64.4566 63.0639 63.8991 63.1705 63.2634 63.1705C62.4289 63.1705 61.7382 62.9893 61.1913 62.6271C60.6444 62.2649 60.2982 61.7358 60.1526 61.0398L61.3458 60.7415C61.4594 61.1818 61.6743 61.5121 61.9903 61.7322C62.3099 61.9524 62.7272 62.0625 63.2421 62.0625C63.828 62.0625 64.2932 61.9382 64.6377 61.6896C64.9857 61.4375 65.1597 61.1357 65.1597 60.7841C65.1597 60.5 65.0603 60.2621 64.8614 60.0703C64.6626 59.875 64.3572 59.7294 63.9452 59.6335L62.5816 59.3139C61.8323 59.1364 61.2819 58.8612 60.9303 58.4883C60.5823 58.1119 60.4083 57.6413 60.4083 57.0767C60.4083 56.6151 60.5379 56.2067 60.7971 55.8516C61.0599 55.4964 61.4168 55.2177 61.8678 55.0153C62.3224 54.8129 62.8373 54.7116 63.4126 54.7116C64.2222 54.7116 64.8579 54.8892 65.3195 55.2443C65.7847 55.5994 66.115 56.0682 66.3103 56.6506ZM71.91 54.8182V55.8835H67.6699V54.8182H71.91ZM68.9057 52.858H70.1628V60.6562C70.1628 61.0114 70.2143 61.2777 70.3173 61.4553C70.4238 61.6293 70.5588 61.7464 70.7221 61.8068C70.889 61.8636 71.0648 61.892 71.2495 61.892C71.388 61.892 71.5016 61.8849 71.5904 61.8707C71.6792 61.853 71.7502 61.8388 71.8034 61.8281L72.0591 62.9574C71.9739 62.9893 71.8549 63.0213 71.7022 63.0533C71.5495 63.0888 71.356 63.1065 71.1216 63.1065C70.7665 63.1065 70.4185 63.0302 70.0776 62.8775C69.7402 62.7248 69.4597 62.4922 69.236 62.1797C69.0158 61.8672 68.9057 61.473 68.9057 60.9972V52.858ZM76.2086 63.1918C75.6902 63.1918 75.2196 63.0941 74.7971 62.8988C74.3745 62.6999 74.0389 62.4141 73.7903 62.0412C73.5417 61.6648 73.4174 61.2102 73.4174 60.6776C73.4174 60.2088 73.5098 59.8288 73.6944 59.5376C73.8791 59.2429 74.1259 59.0121 74.4348 58.8452C74.7438 58.6783 75.0847 58.554 75.4576 58.4723C75.834 58.3871 76.2122 58.3196 76.5922 58.2699C77.0893 58.206 77.4924 58.158 77.8013 58.1261C78.1138 58.0906 78.3411 58.032 78.4831 57.9503C78.6287 57.8686 78.7015 57.7266 78.7015 57.5241V57.4815C78.7015 56.956 78.5577 56.5476 78.2701 56.2564C77.986 55.9652 77.5545 55.8196 76.9757 55.8196C76.3755 55.8196 75.905 55.951 75.5641 56.2138C75.2232 56.4766 74.9835 56.7571 74.845 57.0554L73.6518 56.6293C73.8649 56.1321 74.149 55.745 74.5041 55.468C74.8627 55.1875 75.2534 54.9922 75.676 54.8821C76.1021 54.7685 76.5211 54.7116 76.9331 54.7116C77.1958 54.7116 77.4977 54.7436 77.8386 54.8075C78.1831 54.8679 78.5151 54.994 78.8347 55.1857C79.1578 55.3775 79.426 55.6669 79.639 56.054C79.8521 56.4411 79.9586 56.9595 79.9586 57.6094V63H78.7015V61.892H78.6376C78.5524 62.0696 78.4103 62.2596 78.2115 62.462C78.0126 62.6644 77.748 62.8366 77.4178 62.9787C77.0875 63.1207 76.6845 63.1918 76.2086 63.1918ZM76.4004 62.0625C76.8975 62.0625 77.3166 61.9648 77.6575 61.7695C78.002 61.5742 78.2612 61.3221 78.4352 61.0131C78.6127 60.7042 78.7015 60.3793 78.7015 60.0384V58.8878C78.6483 58.9517 78.5311 59.0103 78.35 59.0636C78.1724 59.1133 77.9664 59.1577 77.7321 59.1967C77.5012 59.2322 77.2757 59.2642 77.0556 59.2926C76.839 59.3175 76.6632 59.3388 76.5282 59.3565C76.2015 59.3991 75.8961 59.4684 75.612 59.5643C75.3315 59.6566 75.1042 59.7969 74.9302 59.9851C74.7598 60.1697 74.6745 60.4219 74.6745 60.7415C74.6745 61.1783 74.8361 61.5085 75.1593 61.7322C75.486 61.9524 75.8997 62.0625 76.4004 62.0625ZM83.5102 58.0781V63H82.2531V54.8182H83.4676V56.0966H83.5741C83.7659 55.6811 84.0571 55.3473 84.4477 55.0952C84.8383 54.8395 85.3426 54.7116 85.9605 54.7116C86.5145 54.7116 86.9992 54.8253 87.4147 55.0526C87.8302 55.2763 88.1533 55.6172 88.3841 56.0753C88.615 56.5298 88.7304 57.1051 88.7304 57.8011V63H87.4733V57.8864C87.4733 57.2436 87.3064 56.7429 86.9726 56.3842C86.6388 56.022 86.1807 55.8409 85.5983 55.8409C85.197 55.8409 84.8383 55.9279 84.5223 56.1019C84.2098 56.2759 83.963 56.5298 83.7819 56.8636C83.6008 57.1974 83.5102 57.6023 83.5102 58.0781ZM91.0275 63V54.8182H92.2846V63H91.0275ZM91.6667 53.4545C91.4217 53.4545 91.2104 53.3711 91.0328 53.2042C90.8588 53.0373 90.7718 52.8366 90.7718 52.6023C90.7718 52.3679 90.8588 52.1673 91.0328 52.0004C91.2104 51.8335 91.4217 51.75 91.6667 51.75C91.9118 51.75 92.1213 51.8335 92.2953 52.0004C92.4728 52.1673 92.5616 52.3679 92.5616 52.6023C92.5616 52.8366 92.4728 53.0373 92.2953 53.2042C92.1213 53.3711 91.9118 53.4545 91.6667 53.4545ZM96.249 52.0909L96.1425 59.9318H94.9067L94.8002 52.0909H96.249ZM95.5246 63.0852C95.2618 63.0852 95.0363 62.9911 94.8481 62.8029C94.6599 62.6147 94.5658 62.3892 94.5658 62.1264C94.5658 61.8636 94.6599 61.6381 94.8481 61.4499C95.0363 61.2617 95.2618 61.1676 95.5246 61.1676C95.7874 61.1676 96.0129 61.2617 96.2011 61.4499C96.3893 61.6381 96.4834 61.8636 96.4834 62.1264C96.4834 62.3004 96.439 62.4602 96.3502 62.6058C96.265 62.7514 96.1496 62.8686 96.004 62.9574C95.8619 63.0426 95.7021 63.0852 95.5246 63.0852Z" fill="black"/>
<rect width="90" height="27" rx="5" transform="matrix(-1 0 0 1 93 4)" fill="white"/>
<path d="M90.9936 7.99998L90.0908 27.6831L101.327 28.2377L90.9936 7.99998Z" fill="white"/>
<path d="M8.64205 11.0909V22H7.32102V11.0909H8.64205ZM12.2282 11.0909V12.0497C12.2282 12.3409 12.175 12.6516 12.0684 12.9819C11.9655 13.3086 11.8128 13.6264 11.6104 13.9354C11.4115 14.2408 11.17 14.5071 10.8859 14.7344L10.2041 14.1804C10.4278 13.8608 10.6214 13.5288 10.7847 13.1843C10.9516 12.8363 11.0351 12.4652 11.0351 12.071V11.0909H12.2282ZM13.5666 22V13.8182H14.7811V15.0966H14.8876C15.0581 14.6598 15.3333 14.3207 15.7132 14.0792C16.0932 13.8342 16.5495 13.7116 17.0822 13.7116C17.622 13.7116 18.0712 13.8342 18.4299 14.0792C18.7921 14.3207 19.0744 14.6598 19.2768 15.0966H19.362C19.5716 14.674 19.8858 14.3384 20.3049 14.0898C20.7239 13.8377 21.2264 13.7116 21.8123 13.7116C22.5439 13.7116 23.1422 13.9407 23.6074 14.3988C24.0726 14.8533 24.3052 15.5618 24.3052 16.5241V22H23.0481V16.5241C23.0481 15.9205 22.883 15.489 22.5527 15.2298C22.2225 14.9705 21.8336 14.8409 21.3862 14.8409C20.8109 14.8409 20.3652 15.0149 20.0492 15.3629C19.7331 15.7074 19.5751 16.1442 19.5751 16.6733V22H18.2967V16.3963C18.2967 15.9311 18.1458 15.5565 17.8439 15.2724C17.5421 14.9847 17.1532 14.8409 16.6774 14.8409C16.3507 14.8409 16.0453 14.9279 15.7612 15.1019C15.4806 15.2759 15.2534 15.5174 15.0794 15.8263C14.9089 16.1317 14.8237 16.4851 14.8237 16.8864V22H13.5666ZM30.9929 22V11.0909H32.3139V15.9489H38.1307V11.0909H39.4517V22H38.1307V17.1207H32.3139V22H30.9929ZM41.926 22V13.8182H43.1404V15.0966H43.247C43.4174 14.6598 43.6926 14.3207 44.0726 14.0792C44.4526 13.8342 44.9089 13.7116 45.4416 13.7116C45.9814 13.7116 46.4306 13.8342 46.7892 14.0792C47.1515 14.3207 47.4338 14.6598 47.6362 15.0966H47.7214C47.9309 14.674 48.2452 14.3384 48.6642 14.0898C49.0833 13.8377 49.5858 13.7116 50.1717 13.7116C50.9032 13.7116 51.5016 13.9407 51.9668 14.3988C52.432 14.8533 52.6646 15.5618 52.6646 16.5241V22H51.4075V16.5241C51.4075 15.9205 51.2424 15.489 50.9121 15.2298C50.5819 14.9705 50.193 14.8409 49.7456 14.8409C49.1703 14.8409 48.7246 15.0149 48.4086 15.3629C48.0925 15.7074 47.9345 16.1442 47.9345 16.6733V22H46.6561V16.3963C46.6561 15.9311 46.5051 15.5565 46.2033 15.2724C45.9015 14.9847 45.5126 14.8409 45.0368 14.8409C44.71 14.8409 44.4047 14.9279 44.1206 15.1019C43.84 15.2759 43.6127 15.5174 43.4387 15.8263C43.2683 16.1317 43.1831 16.4851 43.1831 16.8864V22H41.926ZM58.2869 22.1705C57.5483 22.1705 56.9002 21.9947 56.3427 21.6431C55.7887 21.2915 55.3555 20.7997 55.043 20.1676C54.734 19.5355 54.5795 18.7969 54.5795 17.9517C54.5795 17.0994 54.734 16.3555 55.043 15.7198C55.3555 15.0842 55.7887 14.5906 56.3427 14.239C56.9002 13.8874 57.5483 13.7116 58.2869 13.7116C59.0256 13.7116 59.6719 13.8874 60.2259 14.239C60.7834 14.5906 61.2166 15.0842 61.5256 15.7198C61.8381 16.3555 61.9943 17.0994 61.9943 17.9517C61.9943 18.7969 61.8381 19.5355 61.5256 20.1676C61.2166 20.7997 60.7834 21.2915 60.2259 21.6431C59.6719 21.9947 59.0256 22.1705 58.2869 22.1705ZM58.2869 21.0412C58.848 21.0412 59.3097 20.8974 59.6719 20.6097C60.0341 20.3221 60.3022 19.9439 60.4762 19.4751C60.6502 19.0064 60.7372 18.4986 60.7372 17.9517C60.7372 17.4048 60.6502 16.8952 60.4762 16.4229C60.3022 15.9506 60.0341 15.5689 59.6719 15.2777C59.3097 14.9865 58.848 14.8409 58.2869 14.8409C57.7259 14.8409 57.2642 14.9865 56.902 15.2777C56.5398 15.5689 56.2717 15.9506 56.0977 16.4229C55.9237 16.8952 55.8366 17.4048 55.8366 17.9517C55.8366 18.4986 55.9237 19.0064 56.0977 19.4751C56.2717 19.9439 56.5398 20.3221 56.902 20.6097C57.2642 20.8974 57.7259 21.0412 58.2869 21.0412ZM65.1704 17.0781V22H63.9133V13.8182H65.1278V15.0966H65.2343C65.426 14.6811 65.7172 14.3473 66.1079 14.0952C66.4985 13.8395 67.0028 13.7116 67.6207 13.7116C68.1746 13.7116 68.6594 13.8253 69.0748 14.0526C69.4903 14.2763 69.8135 14.6172 70.0443 15.0753C70.2751 15.5298 70.3905 16.1051 70.3905 16.8011V22H69.1334V16.8864C69.1334 16.2436 68.9665 15.7429 68.6327 15.3842C68.2989 15.022 67.8408 14.8409 67.2584 14.8409C66.8572 14.8409 66.4985 14.9279 66.1824 15.1019C65.8699 15.2759 65.6231 15.5298 65.442 15.8636C65.2609 16.1974 65.1704 16.6023 65.1704 17.0781ZM75.9902 25.2386C75.383 25.2386 74.861 25.1605 74.4242 25.0043C73.9874 24.8516 73.6234 24.6491 73.3322 24.397C73.0446 24.1484 72.8155 23.8821 72.6451 23.598L73.6465 22.8949C73.7601 23.044 73.9039 23.2145 74.0779 23.4062C74.252 23.6016 74.4899 23.7702 74.7917 23.9123C75.0971 24.0579 75.4966 24.1307 75.9902 24.1307C76.6507 24.1307 77.1958 23.9709 77.6255 23.6513C78.0552 23.3317 78.2701 22.831 78.2701 22.1491V20.4872H78.1635C78.0712 20.6364 77.9398 20.821 77.7694 21.0412C77.6025 21.2578 77.361 21.4513 77.0449 21.6218C76.7324 21.7887 76.3098 21.8722 75.7772 21.8722C75.1167 21.8722 74.5236 21.7159 73.998 21.4034C73.476 21.0909 73.0623 20.6364 72.7569 20.0398C72.4551 19.4432 72.3042 18.7187 72.3042 17.8665C72.3042 17.0284 72.4515 16.2987 72.7463 15.6772C73.041 15.0522 73.4512 14.5692 73.9767 14.2283C74.5023 13.8839 75.1096 13.7116 75.7985 13.7116C76.3311 13.7116 76.7537 13.8004 77.0662 13.978C77.3823 14.152 77.6238 14.3509 77.7907 14.5746C77.9611 14.7947 78.0925 14.9759 78.1848 15.1179H78.3127V13.8182H79.5272V22.2344C79.5272 22.9375 79.3674 23.5092 79.0478 23.9496C78.7317 24.3935 78.3056 24.7184 77.7694 24.9244C77.2367 25.1339 76.6436 25.2386 75.9902 25.2386ZM75.9476 20.7429C76.4519 20.7429 76.878 20.6275 77.226 20.3967C77.574 20.1658 77.8386 19.8338 78.0197 19.4006C78.2008 18.9673 78.2914 18.4489 78.2914 17.8452C78.2914 17.2557 78.2026 16.7354 78.025 16.2844C77.8475 15.8335 77.5847 15.4801 77.2367 15.2244C76.8887 14.9687 76.459 14.8409 75.9476 14.8409C75.415 14.8409 74.9711 14.9759 74.6159 15.2457C74.2644 15.5156 73.9998 15.8778 73.8223 16.3324C73.6483 16.7869 73.5613 17.2912 73.5613 17.8452C73.5613 18.4134 73.65 18.9158 73.8276 19.3526C74.0087 19.7859 74.275 20.1268 74.6266 20.3754C74.9817 20.6204 75.4221 20.7429 75.9476 20.7429ZM83.4902 11.0909L83.3837 18.9318H82.1479L82.0414 11.0909H83.4902ZM82.7658 22.0852C82.503 22.0852 82.2775 21.9911 82.0893 21.8029C81.9011 21.6147 81.807 21.3892 81.807 21.1264C81.807 20.8636 81.9011 20.6381 82.0893 20.4499C82.2775 20.2617 82.503 20.1676 82.7658 20.1676C83.0286 20.1676 83.2541 20.2617 83.4423 20.4499C83.6305 20.6381 83.7246 20.8636 83.7246 21.1264C83.7246 21.3004 83.6802 21.4602 83.5914 21.6058C83.5062 21.7514 83.3908 21.8686 83.2452 21.9574C83.1032 22.0426 82.9434 22.0852 82.7658 22.0852Z" fill="black"/>
<path d="M103.654 153.269C103.654 148.332 106.495 146.218 109.657 146.218C112.854 146.218 115.695 148.332 115.695 153.269C115.695 158.171 112.871 160.284 109.657 160.284C106.442 160.284 103.654 158.171 103.654 153.269ZM109.657 159.272C112.374 159.272 114.381 157.212 114.381 153.269C114.381 149.291 112.392 147.231 109.657 147.231C106.957 147.231 104.968 149.237 104.968 153.269C104.968 157.229 106.922 159.272 109.657 159.272ZM119.357 147.905H120.511V150.694H122.891V151.653H120.511V157.673C120.511 158.668 120.937 159.094 122.003 159.094C122.536 159.094 123.069 158.988 123.069 158.988V160.018C123.069 160.018 122.536 160.16 121.701 160.16C119.907 160.16 119.286 159.201 119.286 157.816V151.653H117.51V150.729H117.918C119.108 150.729 119.357 150.463 119.357 148.758V147.905ZM131.226 160V154.104C131.226 153.34 131.155 152.63 130.817 152.168C130.498 151.724 129.983 151.511 129.255 151.511C127.336 151.511 126.502 152.932 126.502 154.512V160H125.259V146.005H126.502V152.328H126.537C126.963 151.298 127.994 150.463 129.539 150.463C131.546 150.463 132.451 151.546 132.451 153.677V160H131.226ZM141.628 154.69V154.601C141.61 153.145 141.113 151.422 139.142 151.422C137.401 151.422 136.478 152.772 136.318 154.69H141.628ZM142.729 157.673C142.392 159.094 141.024 160.231 139.195 160.231C136.353 160.231 135.057 158.331 135.057 155.418C135.057 152.594 136.495 150.463 139.142 150.463C141.894 150.463 142.871 152.665 142.871 154.867V155.631H136.3C136.371 157.887 137.259 159.254 139.213 159.254C140.847 159.254 141.397 158.188 141.557 157.673H142.729ZM145.516 160V150.694H146.67V152.63H146.706C147.097 151.546 148.233 150.516 149.636 150.516H149.796V151.742H149.548C148.091 151.742 146.759 152.701 146.759 154.903V160H145.516ZM155.916 155.134C155.916 154.163 156.005 153.216 156.182 152.292C156.372 151.369 156.662 150.487 157.053 149.646C157.443 148.805 157.935 148.03 158.527 147.319H160.001C159.456 148.053 158.994 148.847 158.615 149.699C158.248 150.552 157.97 151.434 157.781 152.345C157.591 153.257 157.497 154.181 157.497 155.116C157.497 156.028 157.591 156.933 157.781 157.833C157.97 158.733 158.248 159.597 158.615 160.426C158.982 161.267 159.438 162.06 159.983 162.806H158.527C157.935 162.108 157.443 161.344 157.053 160.515C156.662 159.698 156.372 158.834 156.182 157.922C156.005 157.01 155.916 156.081 155.916 155.134ZM163.798 153.162H167.368C169.108 153.162 170.511 152.31 170.511 150.214C170.511 148.42 169.286 147.479 167.403 147.479H163.798V153.162ZM170.476 160L167.527 154.21H163.798V160H162.537V146.414H167.403C168.38 146.414 169.303 146.609 170.067 147.017C171.115 147.604 171.808 148.634 171.808 150.196C171.808 152.488 170.351 153.624 168.842 153.997V154.033L171.932 160H170.476ZM180.53 154.69V154.601C180.512 153.145 180.015 151.422 178.044 151.422C176.303 151.422 175.38 152.772 175.22 154.69H180.53ZM181.631 157.673C181.294 159.094 179.926 160.231 178.097 160.231C175.255 160.231 173.959 158.331 173.959 155.418C173.959 152.594 175.397 150.463 178.044 150.463C180.796 150.463 181.773 152.665 181.773 154.867V155.631H175.202C175.273 157.887 176.161 159.254 178.115 159.254C179.749 159.254 180.299 158.188 180.459 157.673H181.631ZM190.632 155.915V154.619C190.632 152.985 189.673 151.457 187.755 151.457C185.89 151.457 185.002 153.02 185.002 155.223C185.002 157.372 185.73 158.97 187.826 158.97C189.602 158.97 190.632 157.514 190.632 155.915ZM187.773 163.534C185.801 163.534 184.309 162.593 184.079 160.995H185.286C185.464 161.829 186.245 162.557 187.808 162.557C189.371 162.557 190.614 161.847 190.614 159.609V158.135H190.596C190.064 159.201 188.927 159.947 187.488 159.947C185.712 159.947 183.723 158.775 183.723 155.223C183.723 152.115 185.393 150.463 187.737 150.463C189.282 150.463 190.241 151.369 190.632 152.274H190.667V150.694H191.822V159.627C191.822 162.309 190.117 163.534 187.773 163.534ZM195.257 148.385V146.982H196.589V148.385H195.257ZM195.293 160V150.694H196.536V160H195.293ZM203.296 160.231C200.508 160.231 199.211 158.188 199.211 155.347C199.211 152.541 200.721 150.463 203.296 150.463C206.102 150.463 207.363 152.541 207.363 155.347C207.363 158.206 205.889 160.231 203.296 160.231ZM203.296 151.422C201.467 151.422 200.472 152.949 200.472 155.347C200.472 157.744 201.36 159.254 203.314 159.254C205.196 159.254 206.084 157.744 206.084 155.347C206.084 152.949 205.232 151.422 203.296 151.422ZM216.002 160V154.121C216.002 153.34 215.931 152.63 215.594 152.168C215.274 151.724 214.759 151.511 214.031 151.511C212.13 151.511 211.278 152.914 211.278 154.512V160H210.035V150.694H211.189V152.345H211.225C211.722 151.298 212.77 150.463 214.315 150.463C216.322 150.463 217.228 151.546 217.228 153.677V160H216.002ZM222.959 159.148C224.291 159.148 225.818 158.1 225.818 155.809V155.418C223.509 155.56 222.337 155.702 221.751 156.128C221.325 156.43 221.112 156.892 221.112 157.478C221.112 158.579 221.84 159.148 222.959 159.148ZM221.502 153.162H220.33C220.348 151.706 221.609 150.463 223.705 150.463C226.28 150.463 227.008 151.884 227.008 153.891V157.94C227.008 158.792 227.257 159.094 227.914 159.112V160.089H227.754C226.422 160.089 225.942 159.503 225.871 158.26H225.836C225.268 159.467 224.131 160.142 222.71 160.142C220.97 160.142 219.851 159.183 219.851 157.531C219.851 156.466 220.313 155.702 221.129 155.258C222.053 154.743 223.58 154.583 225.836 154.459V153.873C225.836 152.416 225.321 151.404 223.669 151.404C222.248 151.404 221.573 152.203 221.502 153.162ZM230.24 160V146.005H231.483V160H230.24ZM244.294 147.639C244.259 147.728 244.01 148.527 243.726 149.308L241.808 154.53H246.763L244.862 149.291C244.56 148.474 244.33 147.639 244.33 147.639H244.294ZM248.752 160L247.136 155.56H241.435L239.819 160H238.558L243.584 146.414H245.076L250.084 160H248.752ZM258.603 152.932H257.413C257.271 152.026 256.507 151.422 255.246 151.422C253.967 151.422 253.168 152.15 253.168 153.091C253.168 153.997 253.683 154.423 254.624 154.548L256.294 154.779C258.07 155.027 258.798 155.933 258.798 157.354C258.798 159.112 257.359 160.231 255.246 160.231C253.363 160.231 251.836 159.467 251.587 157.389H252.795C252.99 158.49 253.683 159.254 255.264 159.254C256.702 159.254 257.59 158.508 257.59 157.46C257.59 156.626 257.324 156.093 255.974 155.897L254.447 155.684C252.884 155.471 251.996 154.725 251.996 153.198C251.996 151.564 253.328 150.463 255.281 150.463C257.217 150.463 258.443 151.369 258.603 152.932ZM261.406 148.385V146.982H262.738V148.385H261.406ZM261.442 160V150.694H262.685V160H261.442ZM268.486 159.148C269.818 159.148 271.346 158.1 271.346 155.809V155.418C269.037 155.56 267.865 155.702 267.278 156.128C266.852 156.43 266.639 156.892 266.639 157.478C266.639 158.579 267.367 159.148 268.486 159.148ZM267.03 153.162H265.858C265.875 151.706 267.136 150.463 269.232 150.463C271.807 150.463 272.535 151.884 272.535 153.891V157.94C272.535 158.792 272.784 159.094 273.441 159.112V160.089H273.281C271.949 160.089 271.47 159.503 271.399 158.26H271.363C270.795 159.467 269.658 160.142 268.238 160.142C266.497 160.142 265.378 159.183 265.378 157.531C265.378 156.466 265.84 155.702 266.657 155.258C267.58 154.743 269.108 154.583 271.363 154.459V153.873C271.363 152.416 270.848 151.404 269.197 151.404C267.776 151.404 267.101 152.203 267.03 153.162ZM281.908 160V154.121C281.908 153.34 281.837 152.63 281.5 152.168C281.18 151.724 280.665 151.511 279.937 151.511C278.037 151.511 277.184 152.914 277.184 154.512V160H275.941V150.694H277.095V152.345H277.131C277.628 151.298 278.676 150.463 280.221 150.463C282.228 150.463 283.134 151.546 283.134 153.677V160H281.908ZM285.439 162.078L286.168 158.064H287.748L286.363 162.078H285.439ZM300.688 154.69V154.601C300.67 153.145 300.173 151.422 298.201 151.422C296.461 151.422 295.537 152.772 295.377 154.69H300.688ZM301.789 157.673C301.451 159.094 300.084 160.231 298.254 160.231C295.413 160.231 294.116 158.331 294.116 155.418C294.116 152.594 295.555 150.463 298.201 150.463C300.954 150.463 301.931 152.665 301.931 154.867V155.631H295.36C295.431 157.887 296.319 159.254 298.272 159.254C299.906 159.254 300.457 158.188 300.617 157.673H301.789ZM305.108 147.905H306.263V150.694H308.643V151.653H306.263V157.673C306.263 158.668 306.689 159.094 307.755 159.094C308.287 159.094 308.82 158.988 308.82 158.988V160.018C308.82 160.018 308.287 160.16 307.453 160.16C305.659 160.16 305.037 159.201 305.037 157.816V151.653H303.261V150.729H303.67C304.86 150.729 305.108 150.463 305.108 148.758V147.905ZM318.092 153.287H316.867C316.76 152.345 315.997 151.44 314.54 151.44C312.746 151.44 311.681 152.896 311.681 155.329C311.681 157.727 312.498 159.236 314.487 159.236C316.227 159.236 316.76 158.082 316.92 157.141H318.11C317.826 159.183 316.387 160.231 314.469 160.231C311.77 160.231 310.402 158.331 310.402 155.418C310.402 152.576 311.912 150.445 314.522 150.445C316.21 150.445 317.861 151.227 318.092 153.287ZM320.12 160V158.313H321.807V160H320.12ZM327.572 155.134C327.572 156.081 327.477 157.01 327.288 157.922C327.11 158.834 326.826 159.698 326.435 160.515C326.056 161.344 325.565 162.108 324.961 162.806H323.505C324.049 162.06 324.505 161.267 324.872 160.426C325.239 159.597 325.518 158.733 325.707 157.833C325.897 156.933 325.991 156.028 325.991 155.116C325.991 154.181 325.897 153.257 325.707 152.345C325.518 151.434 325.239 150.552 324.872 149.699C324.505 148.847 324.044 148.053 323.487 147.319H324.961C325.565 148.03 326.056 148.805 326.435 149.646C326.826 150.487 327.11 151.369 327.288 152.292C327.477 153.216 327.572 154.163 327.572 155.134Z" fill="#C9B8DF"/>
<path d="M103.654 153.269C103.654 148.332 106.495 146.218 109.657 146.218C112.854 146.218 115.695 148.332 115.695 153.269C115.695 158.171 112.871 160.284 109.657 160.284C106.442 160.284 103.654 158.171 103.654 153.269ZM109.657 159.272C112.374 159.272 114.381 157.212 114.381 153.269C114.381 149.291 112.392 147.231 109.657 147.231C106.957 147.231 104.968 149.237 104.968 153.269C104.968 157.229 106.922 159.272 109.657 159.272ZM119.357 147.905H120.511V150.694H122.891V151.653H120.511V157.673C120.511 158.668 120.937 159.094 122.003 159.094C122.536 159.094 123.069 158.988 123.069 158.988V160.018C123.069 160.018 122.536 160.16 121.701 160.16C119.907 160.16 119.286 159.201 119.286 157.816V151.653H117.51V150.729H117.918C119.108 150.729 119.357 150.463 119.357 148.758V147.905ZM131.226 160V154.104C131.226 153.34 131.155 152.63 130.817 152.168C130.498 151.724 129.983 151.511 129.255 151.511C127.336 151.511 126.502 152.932 126.502 154.512V160H125.259V146.005H126.502V152.328H126.537C126.963 151.298 127.994 150.463 129.539 150.463C131.546 150.463 132.451 151.546 132.451 153.677V160H131.226ZM141.628 154.69V154.601C141.61 153.145 141.113 151.422 139.142 151.422C137.401 151.422 136.478 152.772 136.318 154.69H141.628ZM142.729 157.673C142.392 159.094 141.024 160.231 139.195 160.231C136.353 160.231 135.057 158.331 135.057 155.418C135.057 152.594 136.495 150.463 139.142 150.463C141.894 150.463 142.871 152.665 142.871 154.867V155.631H136.3C136.371 157.887 137.259 159.254 139.213 159.254C140.847 159.254 141.397 158.188 141.557 157.673H142.729ZM145.516 160V150.694H146.67V152.63H146.706C147.097 151.546 148.233 150.516 149.636 150.516H149.796V151.742H149.548C148.091 151.742 146.759 152.701 146.759 154.903V160H145.516ZM155.916 155.134C155.916 154.163 156.005 153.216 156.182 152.292C156.372 151.369 156.662 150.487 157.053 149.646C157.443 148.805 157.935 148.03 158.527 147.319H160.001C159.456 148.053 158.994 148.847 158.615 149.699C158.248 150.552 157.97 151.434 157.781 152.345C157.591 153.257 157.497 154.181 157.497 155.116C157.497 156.028 157.591 156.933 157.781 157.833C157.97 158.733 158.248 159.597 158.615 160.426C158.982 161.267 159.438 162.06 159.983 162.806H158.527C157.935 162.108 157.443 161.344 157.053 160.515C156.662 159.698 156.372 158.834 156.182 157.922C156.005 157.01 155.916 156.081 155.916 155.134ZM163.798 153.162H167.368C169.108 153.162 170.511 152.31 170.511 150.214C170.511 148.42 169.286 147.479 167.403 147.479H163.798V153.162ZM170.476 160L167.527 154.21H163.798V160H162.537V146.414H167.403C168.38 146.414 169.303 146.609 170.067 147.017C171.115 147.604 171.808 148.634 171.808 150.196C171.808 152.488 170.351 153.624 168.842 153.997V154.033L171.932 160H170.476ZM180.53 154.69V154.601C180.512 153.145 180.015 151.422 178.044 151.422C176.303 151.422 175.38 152.772 175.22 154.69H180.53ZM181.631 157.673C181.294 159.094 179.926 160.231 178.097 160.231C175.255 160.231 173.959 158.331 173.959 155.418C173.959 152.594 175.397 150.463 178.044 150.463C180.796 150.463 181.773 152.665 181.773 154.867V155.631H175.202C175.273 157.887 176.161 159.254 178.115 159.254C179.749 159.254 180.299 158.188 180.459 157.673H181.631ZM190.632 155.915V154.619C190.632 152.985 189.673 151.457 187.755 151.457C185.89 151.457 185.002 153.02 185.002 155.223C185.002 157.372 185.73 158.97 187.826 158.97C189.602 158.97 190.632 157.514 190.632 155.915ZM187.773 163.534C185.801 163.534 184.309 162.593 184.079 160.995H185.286C185.464 161.829 186.245 162.557 187.808 162.557C189.371 162.557 190.614 161.847 190.614 159.609V158.135H190.596C190.064 159.201 188.927 159.947 187.488 159.947C185.712 159.947 183.723 158.775 183.723 155.223C183.723 152.115 185.393 150.463 187.737 150.463C189.282 150.463 190.241 151.369 190.632 152.274H190.667V150.694H191.822V159.627C191.822 162.309 190.117 163.534 187.773 163.534ZM195.257 148.385V146.982H196.589V148.385H195.257ZM195.293 160V150.694H196.536V160H195.293ZM203.296 160.231C200.508 160.231 199.211 158.188 199.211 155.347C199.211 152.541 200.721 150.463 203.296 150.463C206.102 150.463 207.363 152.541 207.363 155.347C207.363 158.206 205.889 160.231 203.296 160.231ZM203.296 151.422C201.467 151.422 200.472 152.949 200.472 155.347C200.472 157.744 201.36 159.254 203.314 159.254C205.196 159.254 206.084 157.744 206.084 155.347C206.084 152.949 205.232 151.422 203.296 151.422ZM216.002 160V154.121C216.002 153.34 215.931 152.63 215.594 152.168C215.274 151.724 214.759 151.511 214.031 151.511C212.13 151.511 211.278 152.914 211.278 154.512V160H210.035V150.694H211.189V152.345H211.225C211.722 151.298 212.77 150.463 214.315 150.463C216.322 150.463 217.228 151.546 217.228 153.677V160H216.002ZM222.959 159.148C224.291 159.148 225.818 158.1 225.818 155.809V155.418C223.509 155.56 222.337 155.702 221.751 156.128C221.325 156.43 221.112 156.892 221.112 157.478C221.112 158.579 221.84 159.148 222.959 159.148ZM221.502 153.162H220.33C220.348 151.706 221.609 150.463 223.705 150.463C226.28 150.463 227.008 151.884 227.008 153.891V157.94C227.008 158.792 227.257 159.094 227.914 159.112V160.089H227.754C226.422 160.089 225.942 159.503 225.871 158.26H225.836C225.268 159.467 224.131 160.142 222.71 160.142C220.97 160.142 219.851 159.183 219.851 157.531C219.851 156.466 220.313 155.702 221.129 155.258C222.053 154.743 223.58 154.583 225.836 154.459V153.873C225.836 152.416 225.321 151.404 223.669 151.404C222.248 151.404 221.573 152.203 221.502 153.162ZM230.24 160V146.005H231.483V160H230.24ZM244.294 147.639C244.259 147.728 244.01 148.527 243.726 149.308L241.808 154.53H246.763L244.862 149.291C244.56 148.474 244.33 147.639 244.33 147.639H244.294ZM248.752 160L247.136 155.56H241.435L239.819 160H238.558L243.584 146.414H245.076L250.084 160H248.752ZM258.603 152.932H257.413C257.271 152.026 256.507 151.422 255.246 151.422C253.967 151.422 253.168 152.15 253.168 153.091C253.168 153.997 253.683 154.423 254.624 154.548L256.294 154.779C258.07 155.027 258.798 155.933 258.798 157.354C258.798 159.112 257.359 160.231 255.246 160.231C253.363 160.231 251.836 159.467 251.587 157.389H252.795C252.99 158.49 253.683 159.254 255.264 159.254C256.702 159.254 257.59 158.508 257.59 157.46C257.59 156.626 257.324 156.093 255.974 155.897L254.447 155.684C252.884 155.471 251.996 154.725 251.996 153.198C251.996 151.564 253.328 150.463 255.281 150.463C257.217 150.463 258.443 151.369 258.603 152.932ZM261.406 148.385V146.982H262.738V148.385H261.406ZM261.442 160V150.694H262.685V160H261.442ZM268.486 159.148C269.818 159.148 271.346 158.1 271.346 155.809V155.418C269.037 155.56 267.865 155.702 267.278 156.128C266.852 156.43 266.639 156.892 266.639 157.478C266.639 158.579 267.367 159.148 268.486 159.148ZM267.03 153.162H265.858C265.875 151.706 267.136 150.463 269.232 150.463C271.807 150.463 272.535 151.884 272.535 153.891V157.94C272.535 158.792 272.784 159.094 273.441 159.112V160.089H273.281C271.949 160.089 271.47 159.503 271.399 158.26H271.363C270.795 159.467 269.658 160.142 268.238 160.142C266.497 160.142 265.378 159.183 265.378 157.531C265.378 156.466 265.84 155.702 266.657 155.258C267.58 154.743 269.108 154.583 271.363 154.459V153.873C271.363 152.416 270.848 151.404 269.197 151.404C267.776 151.404 267.101 152.203 267.03 153.162ZM281.908 160V154.121C281.908 153.34 281.837 152.63 281.5 152.168C281.18 151.724 280.665 151.511 279.937 151.511C278.037 151.511 277.184 152.914 277.184 154.512V160H275.941V150.694H277.095V152.345H277.131C277.628 151.298 278.676 150.463 280.221 150.463C282.228 150.463 283.134 151.546 283.134 153.677V160H281.908ZM285.439 162.078L286.168 158.064H287.748L286.363 162.078H285.439ZM300.688 154.69V154.601C300.67 153.145 300.173 151.422 298.201 151.422C296.461 151.422 295.537 152.772 295.377 154.69H300.688ZM301.789 157.673C301.451 159.094 300.084 160.231 298.254 160.231C295.413 160.231 294.116 158.331 294.116 155.418C294.116 152.594 295.555 150.463 298.201 150.463C300.954 150.463 301.931 152.665 301.931 154.867V155.631H295.36C295.431 157.887 296.319 159.254 298.272 159.254C299.906 159.254 300.457 158.188 300.617 157.673H301.789ZM305.108 147.905H306.263V150.694H308.643V151.653H306.263V157.673C306.263 158.668 306.689 159.094 307.755 159.094C308.287 159.094 308.82 158.988 308.82 158.988V160.018C308.82 160.018 308.287 160.16 307.453 160.16C305.659 160.16 305.037 159.201 305.037 157.816V151.653H303.261V150.729H303.67C304.86 150.729 305.108 150.463 305.108 148.758V147.905ZM318.092 153.287H316.867C316.76 152.345 315.997 151.44 314.54 151.44C312.746 151.44 311.681 152.896 311.681 155.329C311.681 157.727 312.498 159.236 314.487 159.236C316.227 159.236 316.76 158.082 316.92 157.141H318.11C317.826 159.183 316.387 160.231 314.469 160.231C311.77 160.231 310.402 158.331 310.402 155.418C310.402 152.576 311.912 150.445 314.522 150.445C316.21 150.445 317.861 151.227 318.092 153.287ZM320.12 160V158.313H321.807V160H320.12ZM327.572 155.134C327.572 156.081 327.477 157.01 327.288 157.922C327.11 158.834 326.826 159.698 326.435 160.515C326.056 161.344 325.565 162.108 324.961 162.806H323.505C324.049 162.06 324.505 161.267 324.872 160.426C325.239 159.597 325.518 158.733 325.707 157.833C325.897 156.933 325.991 156.028 325.991 155.116C325.991 154.181 325.897 153.257 325.707 152.345C325.518 151.434 325.239 150.552 324.872 149.699C324.505 148.847 324.044 148.053 323.487 147.319H324.961C325.565 148.03 326.056 148.805 326.435 149.646C326.826 150.487 327.11 151.369 327.288 152.292C327.477 153.216 327.572 154.163 327.572 155.134Z" fill="black"/>
<path d="M111.039 75.639C111.004 75.7278 110.755 76.527 110.471 77.3085L108.553 82.5299H113.508L111.608 77.2907C111.306 76.4738 111.075 75.639 111.075 75.639H111.039ZM115.497 88L113.881 83.56H108.18L106.564 88H105.303L110.329 74.4136H111.821L116.829 88H115.497ZM125.348 80.9315H124.158C124.016 80.0258 123.252 79.4219 121.991 79.4219C120.713 79.4219 119.913 80.1501 119.913 81.0914C119.913 81.9971 120.428 82.4234 121.37 82.5477L123.039 82.7786C124.815 83.0272 125.543 83.933 125.543 85.3538C125.543 87.112 124.105 88.2309 121.991 88.2309C120.109 88.2309 118.581 87.4672 118.333 85.3893H119.54C119.736 86.4904 120.428 87.2541 122.009 87.2541C123.448 87.2541 124.336 86.5082 124.336 85.4603C124.336 84.6256 124.069 84.0928 122.719 83.8974L121.192 83.6843C119.629 83.4712 118.741 82.7253 118.741 81.1979C118.741 79.564 120.073 78.4629 122.027 78.4629C123.963 78.4629 125.188 79.3686 125.348 80.9315ZM128.151 76.385V74.9819H129.483V76.385H128.151ZM128.187 88V78.6938H129.43V88H128.187ZM135.231 87.1475C136.563 87.1475 138.091 86.0997 138.091 83.8086V83.4179C135.782 83.56 134.61 83.7021 134.024 84.1283C133.598 84.4302 133.384 84.892 133.384 85.4781C133.384 86.5792 134.113 87.1475 135.231 87.1475ZM133.775 81.1624H132.603C132.621 79.7061 133.882 78.4629 135.977 78.4629C138.553 78.4629 139.281 79.8837 139.281 81.8906V85.9398C139.281 86.7923 139.529 87.0942 140.186 87.112V88.0888H140.027C138.695 88.0888 138.215 87.5027 138.144 86.2595H138.109C137.54 87.4672 136.404 88.1421 134.983 88.1421C133.242 88.1421 132.123 87.183 132.123 85.5314C132.123 84.4658 132.585 83.7021 133.402 83.2581C134.326 82.743 135.853 82.5832 138.109 82.4589V81.8728C138.109 80.4165 137.594 79.4042 135.942 79.4042C134.521 79.4042 133.846 80.2034 133.775 81.1624ZM148.654 88V82.1214C148.654 81.34 148.583 80.6296 148.245 80.1678C147.926 79.7238 147.41 79.5107 146.682 79.5107C144.782 79.5107 143.93 80.9138 143.93 82.5122V88H142.686V78.6938H143.841V80.3454H143.876C144.374 79.2976 145.421 78.4629 146.966 78.4629C148.973 78.4629 149.879 79.5462 149.879 81.6774V88H148.654ZM161.27 88.2309C158.481 88.2309 157.185 86.1885 157.185 83.3469C157.185 80.5408 158.694 78.4629 161.27 78.4629C164.076 78.4629 165.337 80.5408 165.337 83.3469C165.337 86.2062 163.863 88.2309 161.27 88.2309ZM161.27 79.4219C159.44 79.4219 158.446 80.9493 158.446 83.3469C158.446 85.7445 159.334 87.2541 161.287 87.2541C163.17 87.2541 164.058 85.7445 164.058 83.3469C164.058 80.9493 163.205 79.4219 161.27 79.4219ZM168.008 88V78.6938H169.163V80.6296H169.198C169.589 79.5462 170.725 78.5162 172.129 78.5162H172.288V79.7416H172.04C170.583 79.7416 169.251 80.7006 169.251 82.9029V88H168.008ZM184.091 75.639C184.056 75.7278 183.807 76.527 183.523 77.3085L181.605 82.5299H186.56L184.66 77.2907C184.358 76.4738 184.127 75.639 184.127 75.639H184.091ZM188.549 88L186.933 83.56H181.232L179.616 88H178.355L183.381 74.4136H184.873L189.881 88H188.549ZM198.4 80.9315H197.21C197.068 80.0258 196.304 79.4219 195.043 79.4219C193.764 79.4219 192.965 80.1501 192.965 81.0914C192.965 81.9971 193.48 82.4234 194.421 82.5477L196.091 82.7786C197.867 83.0272 198.595 83.933 198.595 85.3538C198.595 87.112 197.157 88.2309 195.043 88.2309C193.161 88.2309 191.633 87.4672 191.385 85.3893H192.592C192.788 86.4904 193.48 87.2541 195.061 87.2541C196.499 87.2541 197.387 86.5082 197.387 85.4603C197.387 84.6256 197.121 84.0928 195.771 83.8974L194.244 83.6843C192.681 83.4712 191.793 82.7253 191.793 81.1979C191.793 79.564 193.125 78.4629 195.079 78.4629C197.014 78.4629 198.24 79.3686 198.4 80.9315ZM201.203 76.385V74.9819H202.535V76.385H201.203ZM201.239 88V78.6938H202.482V88H201.239ZM208.283 87.1475C209.615 87.1475 211.143 86.0997 211.143 83.8086V83.4179C208.834 83.56 207.662 83.7021 207.076 84.1283C206.649 84.4302 206.436 84.892 206.436 85.4781C206.436 86.5792 207.164 87.1475 208.283 87.1475ZM206.827 81.1624H205.655C205.673 79.7061 206.934 78.4629 209.029 78.4629C211.604 78.4629 212.333 79.8837 212.333 81.8906V85.9398C212.333 86.7923 212.581 87.0942 213.238 87.112V88.0888H213.079C211.747 88.0888 211.267 87.5027 211.196 86.2595H211.16C210.592 87.4672 209.455 88.1421 208.035 88.1421C206.294 88.1421 205.175 87.183 205.175 85.5314C205.175 84.4658 205.637 83.7021 206.454 83.2581C207.378 82.743 208.905 82.5832 211.16 82.4589V81.8728C211.16 80.4165 210.645 79.4042 208.994 79.4042C207.573 79.4042 206.898 80.2034 206.827 81.1624ZM221.706 88V82.1214C221.706 81.34 221.635 80.6296 221.297 80.1678C220.977 79.7238 220.462 79.5107 219.734 79.5107C217.834 79.5107 216.981 80.9138 216.981 82.5122V88H215.738V78.6938H216.893V80.3454H216.928C217.425 79.2976 218.473 78.4629 220.018 78.4629C222.025 78.4629 222.931 79.5462 222.931 81.6774V88H221.706ZM235.689 75.639C235.653 75.7278 235.405 76.527 235.121 77.3085L233.203 82.5299H238.158L236.257 77.2907C235.955 76.4738 235.724 75.639 235.724 75.639H235.689ZM240.147 88L238.531 83.56H232.83L231.213 88H229.952L234.979 74.4136H236.47L241.479 88H240.147ZM243.852 88V78.6938H245.007V80.3454H245.042C245.522 79.2976 246.587 78.4629 248.115 78.4629C249.553 78.4629 250.566 79.0667 250.885 80.4698H250.921C251.383 79.3686 252.502 78.4629 254.064 78.4629C256.054 78.4629 256.977 79.5462 256.977 81.6774V88H255.752V82.1214C255.752 81.34 255.681 80.6296 255.343 80.1501C255.023 79.7061 254.508 79.5107 253.78 79.5107C251.862 79.5107 251.027 80.9138 251.027 82.5122V88H249.802V82.1037C249.802 81.34 249.731 80.6296 249.394 80.1678C249.074 79.7238 248.577 79.5107 247.848 79.5107C245.93 79.5107 245.096 80.9138 245.096 82.4944V88H243.852ZM266.153 82.6898V82.601C266.136 81.1446 265.638 79.4219 263.667 79.4219C261.927 79.4219 261.003 80.7717 260.843 82.6898H266.153ZM267.255 85.6734C266.917 87.0942 265.55 88.2309 263.72 88.2309C260.879 88.2309 259.582 86.3306 259.582 83.4179C259.582 80.5941 261.021 78.4629 263.667 78.4629C266.42 78.4629 267.397 80.6651 267.397 82.8674V83.631H260.825C260.897 85.8866 261.785 87.2541 263.738 87.2541C265.372 87.2541 265.923 86.1885 266.082 85.6734H267.255ZM270.042 88V78.6938H271.196V80.6296H271.231C271.622 79.5462 272.759 78.5162 274.162 78.5162H274.322V79.7416H274.073C272.617 79.7416 271.285 80.7006 271.285 82.9029V88H270.042ZM276.718 76.385V74.9819H278.05V76.385H276.718ZM276.754 88V78.6938H277.997V88H276.754ZM288.362 81.2867H287.137C287.03 80.3454 286.267 79.4397 284.81 79.4397C283.017 79.4397 281.951 80.896 281.951 83.3291C281.951 85.7267 282.768 87.2363 284.757 87.2363C286.498 87.2363 287.03 86.0819 287.19 85.1406H288.38C288.096 87.183 286.657 88.2309 284.739 88.2309C282.04 88.2309 280.672 86.3306 280.672 83.4179C280.672 80.5763 282.182 78.4451 284.793 78.4451C286.48 78.4451 288.131 79.2266 288.362 81.2867ZM293.389 87.1475C294.721 87.1475 296.248 86.0997 296.248 83.8086V83.4179C293.94 83.56 292.768 83.7021 292.181 84.1283C291.755 84.4302 291.542 84.892 291.542 85.4781C291.542 86.5792 292.27 87.1475 293.389 87.1475ZM291.933 81.1624H290.761C290.778 79.7061 292.039 78.4629 294.135 78.4629C296.71 78.4629 297.438 79.8837 297.438 81.8906V85.9398C297.438 86.7923 297.687 87.0942 298.344 87.112V88.0888H298.184C296.852 88.0888 296.373 87.5027 296.302 86.2595H296.266C295.698 87.4672 294.561 88.1421 293.14 88.1421C291.4 88.1421 290.281 87.183 290.281 85.5314C290.281 84.4658 290.743 83.7021 291.56 83.2581C292.483 82.743 294.011 82.5832 296.266 82.4589V81.8728C296.266 80.4165 295.751 79.4042 294.1 79.4042C292.679 79.4042 292.004 80.2034 291.933 81.1624ZM306.811 88V82.1214C306.811 81.34 306.74 80.6296 306.403 80.1678C306.083 79.7238 305.568 79.5107 304.84 79.5107C302.94 79.5107 302.087 80.9138 302.087 82.5122V88H300.844V78.6938H301.998V80.3454H302.034C302.531 79.2976 303.579 78.4629 305.124 78.4629C307.131 78.4629 308.037 79.5462 308.037 81.6774V88H306.811Z" fill="#C9B8DF"/>
<path d="M111.039 75.639C111.004 75.7278 110.755 76.527 110.471 77.3085L108.553 82.5299H113.508L111.608 77.2907C111.306 76.4738 111.075 75.639 111.075 75.639H111.039ZM115.497 88L113.881 83.56H108.18L106.564 88H105.303L110.329 74.4136H111.821L116.829 88H115.497ZM125.348 80.9315H124.158C124.016 80.0258 123.252 79.4219 121.991 79.4219C120.713 79.4219 119.913 80.1501 119.913 81.0914C119.913 81.9971 120.428 82.4234 121.37 82.5477L123.039 82.7786C124.815 83.0272 125.543 83.933 125.543 85.3538C125.543 87.112 124.105 88.2309 121.991 88.2309C120.109 88.2309 118.581 87.4672 118.333 85.3893H119.54C119.736 86.4904 120.428 87.2541 122.009 87.2541C123.448 87.2541 124.336 86.5082 124.336 85.4603C124.336 84.6256 124.069 84.0928 122.719 83.8974L121.192 83.6843C119.629 83.4712 118.741 82.7253 118.741 81.1979C118.741 79.564 120.073 78.4629 122.027 78.4629C123.963 78.4629 125.188 79.3686 125.348 80.9315ZM128.151 76.385V74.9819H129.483V76.385H128.151ZM128.187 88V78.6938H129.43V88H128.187ZM135.231 87.1475C136.563 87.1475 138.091 86.0997 138.091 83.8086V83.4179C135.782 83.56 134.61 83.7021 134.024 84.1283C133.598 84.4302 133.384 84.892 133.384 85.4781C133.384 86.5792 134.113 87.1475 135.231 87.1475ZM133.775 81.1624H132.603C132.621 79.7061 133.882 78.4629 135.977 78.4629C138.553 78.4629 139.281 79.8837 139.281 81.8906V85.9398C139.281 86.7923 139.529 87.0942 140.186 87.112V88.0888H140.027C138.695 88.0888 138.215 87.5027 138.144 86.2595H138.109C137.54 87.4672 136.404 88.1421 134.983 88.1421C133.242 88.1421 132.123 87.183 132.123 85.5314C132.123 84.4658 132.585 83.7021 133.402 83.2581C134.326 82.743 135.853 82.5832 138.109 82.4589V81.8728C138.109 80.4165 137.594 79.4042 135.942 79.4042C134.521 79.4042 133.846 80.2034 133.775 81.1624ZM148.654 88V82.1214C148.654 81.34 148.583 80.6296 148.245 80.1678C147.926 79.7238 147.41 79.5107 146.682 79.5107C144.782 79.5107 143.93 80.9138 143.93 82.5122V88H142.686V78.6938H143.841V80.3454H143.876C144.374 79.2976 145.421 78.4629 146.966 78.4629C148.973 78.4629 149.879 79.5462 149.879 81.6774V88H148.654ZM161.27 88.2309C158.481 88.2309 157.185 86.1885 157.185 83.3469C157.185 80.5408 158.694 78.4629 161.27 78.4629C164.076 78.4629 165.337 80.5408 165.337 83.3469C165.337 86.2062 163.863 88.2309 161.27 88.2309ZM161.27 79.4219C159.44 79.4219 158.446 80.9493 158.446 83.3469C158.446 85.7445 159.334 87.2541 161.287 87.2541C163.17 87.2541 164.058 85.7445 164.058 83.3469C164.058 80.9493 163.205 79.4219 161.27 79.4219ZM168.008 88V78.6938H169.163V80.6296H169.198C169.589 79.5462 170.725 78.5162 172.129 78.5162H172.288V79.7416H172.04C170.583 79.7416 169.251 80.7006 169.251 82.9029V88H168.008ZM184.091 75.639C184.056 75.7278 183.807 76.527 183.523 77.3085L181.605 82.5299H186.56L184.66 77.2907C184.358 76.4738 184.127 75.639 184.127 75.639H184.091ZM188.549 88L186.933 83.56H181.232L179.616 88H178.355L183.381 74.4136H184.873L189.881 88H188.549ZM198.4 80.9315H197.21C197.068 80.0258 196.304 79.4219 195.043 79.4219C193.764 79.4219 192.965 80.1501 192.965 81.0914C192.965 81.9971 193.48 82.4234 194.421 82.5477L196.091 82.7786C197.867 83.0272 198.595 83.933 198.595 85.3538C198.595 87.112 197.157 88.2309 195.043 88.2309C193.161 88.2309 191.633 87.4672 191.385 85.3893H192.592C192.788 86.4904 193.48 87.2541 195.061 87.2541C196.499 87.2541 197.387 86.5082 197.387 85.4603C197.387 84.6256 197.121 84.0928 195.771 83.8974L194.244 83.6843C192.681 83.4712 191.793 82.7253 191.793 81.1979C191.793 79.564 193.125 78.4629 195.079 78.4629C197.014 78.4629 198.24 79.3686 198.4 80.9315ZM201.203 76.385V74.9819H202.535V76.385H201.203ZM201.239 88V78.6938H202.482V88H201.239ZM208.283 87.1475C209.615 87.1475 211.143 86.0997 211.143 83.8086V83.4179C208.834 83.56 207.662 83.7021 207.076 84.1283C206.649 84.4302 206.436 84.892 206.436 85.4781C206.436 86.5792 207.164 87.1475 208.283 87.1475ZM206.827 81.1624H205.655C205.673 79.7061 206.934 78.4629 209.029 78.4629C211.604 78.4629 212.333 79.8837 212.333 81.8906V85.9398C212.333 86.7923 212.581 87.0942 213.238 87.112V88.0888H213.079C211.747 88.0888 211.267 87.5027 211.196 86.2595H211.16C210.592 87.4672 209.455 88.1421 208.035 88.1421C206.294 88.1421 205.175 87.183 205.175 85.5314C205.175 84.4658 205.637 83.7021 206.454 83.2581C207.378 82.743 208.905 82.5832 211.16 82.4589V81.8728C211.16 80.4165 210.645 79.4042 208.994 79.4042C207.573 79.4042 206.898 80.2034 206.827 81.1624ZM221.706 88V82.1214C221.706 81.34 221.635 80.6296 221.297 80.1678C220.977 79.7238 220.462 79.5107 219.734 79.5107C217.834 79.5107 216.981 80.9138 216.981 82.5122V88H215.738V78.6938H216.893V80.3454H216.928C217.425 79.2976 218.473 78.4629 220.018 78.4629C222.025 78.4629 222.931 79.5462 222.931 81.6774V88H221.706ZM235.689 75.639C235.653 75.7278 235.405 76.527 235.121 77.3085L233.203 82.5299H238.158L236.257 77.2907C235.955 76.4738 235.724 75.639 235.724 75.639H235.689ZM240.147 88L238.531 83.56H232.83L231.213 88H229.952L234.979 74.4136H236.47L241.479 88H240.147ZM243.852 88V78.6938H245.007V80.3454H245.042C245.522 79.2976 246.587 78.4629 248.115 78.4629C249.553 78.4629 250.566 79.0667 250.885 80.4698H250.921C251.383 79.3686 252.502 78.4629 254.064 78.4629C256.054 78.4629 256.977 79.5462 256.977 81.6774V88H255.752V82.1214C255.752 81.34 255.681 80.6296 255.343 80.1501C255.023 79.7061 254.508 79.5107 253.78 79.5107C251.862 79.5107 251.027 80.9138 251.027 82.5122V88H249.802V82.1037C249.802 81.34 249.731 80.6296 249.394 80.1678C249.074 79.7238 248.577 79.5107 247.848 79.5107C245.93 79.5107 245.096 80.9138 245.096 82.4944V88H243.852ZM266.153 82.6898V82.601C266.136 81.1446 265.638 79.4219 263.667 79.4219C261.927 79.4219 261.003 80.7717 260.843 82.6898H266.153ZM267.255 85.6734C266.917 87.0942 265.55 88.2309 263.72 88.2309C260.879 88.2309 259.582 86.3306 259.582 83.4179C259.582 80.5941 261.021 78.4629 263.667 78.4629C266.42 78.4629 267.397 80.6651 267.397 82.8674V83.631H260.825C260.897 85.8866 261.785 87.2541 263.738 87.2541C265.372 87.2541 265.923 86.1885 266.082 85.6734H267.255ZM270.042 88V78.6938H271.196V80.6296H271.231C271.622 79.5462 272.759 78.5162 274.162 78.5162H274.322V79.7416H274.073C272.617 79.7416 271.285 80.7006 271.285 82.9029V88H270.042ZM276.718 76.385V74.9819H278.05V76.385H276.718ZM276.754 88V78.6938H277.997V88H276.754ZM288.362 81.2867H287.137C287.03 80.3454 286.267 79.4397 284.81 79.4397C283.017 79.4397 281.951 80.896 281.951 83.3291C281.951 85.7267 282.768 87.2363 284.757 87.2363C286.498 87.2363 287.03 86.0819 287.19 85.1406H288.38C288.096 87.183 286.657 88.2309 284.739 88.2309C282.04 88.2309 280.672 86.3306 280.672 83.4179C280.672 80.5763 282.182 78.4451 284.793 78.4451C286.48 78.4451 288.131 79.2266 288.362 81.2867ZM293.389 87.1475C294.721 87.1475 296.248 86.0997 296.248 83.8086V83.4179C293.94 83.56 292.768 83.7021 292.181 84.1283C291.755 84.4302 291.542 84.892 291.542 85.4781C291.542 86.5792 292.27 87.1475 293.389 87.1475ZM291.933 81.1624H290.761C290.778 79.7061 292.039 78.4629 294.135 78.4629C296.71 78.4629 297.438 79.8837 297.438 81.8906V85.9398C297.438 86.7923 297.687 87.0942 298.344 87.112V88.0888H298.184C296.852 88.0888 296.373 87.5027 296.302 86.2595H296.266C295.698 87.4672 294.561 88.1421 293.14 88.1421C291.4 88.1421 290.281 87.183 290.281 85.5314C290.281 84.4658 290.743 83.7021 291.56 83.2581C292.483 82.743 294.011 82.5832 296.266 82.4589V81.8728C296.266 80.4165 295.751 79.4042 294.1 79.4042C292.679 79.4042 292.004 80.2034 291.933 81.1624ZM306.811 88V82.1214C306.811 81.34 306.74 80.6296 306.403 80.1678C306.083 79.7238 305.568 79.5107 304.84 79.5107C302.94 79.5107 302.087 80.9138 302.087 82.5122V88H300.844V78.6938H301.998V80.3454H302.034C302.531 79.2976 303.579 78.4629 305.124 78.4629C307.131 78.4629 308.037 79.5462 308.037 81.6774V88H306.811Z" fill="black"/>
<path d="M115.958 7.03664H114.715C114.573 5.52704 113.773 4.23056 111.518 4.23056C109.547 4.23056 108.25 5.22512 108.25 6.84128C108.25 8.2976 108.925 8.97248 110.701 9.29216L112.974 9.70064C115.23 10.1091 116.366 11.3168 116.366 13.2171C116.366 15.6147 114.626 17.2842 111.447 17.2842C108.321 17.2842 106.545 15.3483 106.385 13.2171H107.664C107.859 14.709 108.907 16.2541 111.465 16.2541C114.093 16.2541 115.088 14.8866 115.088 13.3237C115.088 12.0272 114.466 11.228 112.708 10.9083L110.523 10.5176C107.859 10.0381 106.954 8.81264 106.954 6.91232C106.954 4.67456 108.854 3.21824 111.518 3.21824C114.288 3.21824 115.869 4.71008 115.958 7.03664ZM120.574 12.9507C120.574 14.6202 121.462 16.2363 123.398 16.2363C125.245 16.2363 126.168 14.6912 126.168 12.2403C126.168 10.1446 125.494 8.45744 123.433 8.45744C121.569 8.45744 120.574 9.9848 120.574 11.601V12.9507ZM119.366 20.3389V7.69376H120.538V9.34544H120.574C121.16 8.19104 122.243 7.46288 123.682 7.46288C125.618 7.46288 127.429 8.6528 127.429 12.2403C127.429 15.6147 125.618 17.2309 123.487 17.2309C122.066 17.2309 120.982 16.3429 120.645 15.4549H120.61V20.3389H119.366ZM136.083 11.6898V11.601C136.065 10.1446 135.568 8.42192 133.596 8.42192C131.856 8.42192 130.932 9.77168 130.772 11.6898H136.083ZM137.184 14.6734C136.846 16.0942 135.479 17.2309 133.65 17.2309C130.808 17.2309 129.511 15.3306 129.511 12.4179C129.511 9.59408 130.95 7.46288 133.596 7.46288C136.349 7.46288 137.326 9.66512 137.326 11.8674V12.631H130.755C130.826 14.8866 131.714 16.2541 133.667 16.2541C135.301 16.2541 135.852 15.1885 136.012 14.6734H137.184ZM146.966 10.2867H145.741C145.634 9.34544 144.87 8.43968 143.414 8.43968C141.62 8.43968 140.555 9.896 140.555 12.3291C140.555 14.7267 141.372 16.2363 143.361 16.2363C145.101 16.2363 145.634 15.0819 145.794 14.1406H146.984C146.7 16.183 145.261 17.2309 143.343 17.2309C140.643 17.2309 139.276 15.3306 139.276 12.4179C139.276 9.57632 140.786 7.44512 143.396 7.44512C145.083 7.44512 146.735 8.22656 146.966 10.2867ZM149.44 5.38496V3.98192H150.772V5.38496H149.44ZM149.475 17V7.69376H150.718V17H149.475ZM155.845 8.6528V17H154.601V8.6528H152.79V7.69376H154.601V5.34944C154.601 3.75104 155.614 2.95184 157.194 2.95184C157.496 2.95184 157.798 2.9696 158.136 3.04064V4.07072C157.923 4.01744 157.638 3.98192 157.248 3.98192C156.289 3.98192 155.845 4.42592 155.845 5.56256V7.69376H158.207V8.6528H155.845ZM160.279 5.38496V3.98192H161.611V5.38496H160.279ZM160.315 17V7.69376H161.558V17H160.315ZM171.924 10.2867H170.698C170.592 9.34544 169.828 8.43968 168.372 8.43968C166.578 8.43968 165.512 9.896 165.512 12.3291C165.512 14.7267 166.329 16.2363 168.318 16.2363C170.059 16.2363 170.592 15.0819 170.752 14.1406H171.941C171.657 16.183 170.219 17.2309 168.301 17.2309C165.601 17.2309 164.234 15.3306 164.234 12.4179C164.234 9.57632 165.743 7.44512 168.354 7.44512C170.041 7.44512 171.693 8.22656 171.924 10.2867ZM184.923 11.6898V11.601C184.905 10.1446 184.408 8.42192 182.436 8.42192C180.696 8.42192 179.772 9.77168 179.612 11.6898H184.923ZM186.024 14.6734C185.686 16.0942 184.319 17.2309 182.49 17.2309C179.648 17.2309 178.351 15.3306 178.351 12.4179C178.351 9.59408 179.79 7.46288 182.436 7.46288C185.189 7.46288 186.166 9.66512 186.166 11.8674V12.631H179.595C179.666 14.8866 180.554 16.2541 182.507 16.2541C184.141 16.2541 184.692 15.1885 184.852 14.6734H186.024ZM189.343 4.90544H190.498V7.69376H192.878V8.6528H190.498V14.6734C190.498 15.668 190.924 16.0942 191.99 16.0942C192.523 16.0942 193.055 15.9877 193.055 15.9877V17.0178C193.055 17.0178 192.523 17.1598 191.688 17.1598C189.894 17.1598 189.272 16.2008 189.272 14.8155V8.6528H187.496V7.72928H187.905C189.095 7.72928 189.343 7.46288 189.343 5.75792V4.90544ZM201.213 17V11.1037C201.213 10.34 201.142 9.6296 200.804 9.16784C200.484 8.72384 199.969 8.51072 199.241 8.51072C197.323 8.51072 196.488 9.93152 196.488 11.5122V17H195.245V3.00512H196.488V9.32768H196.524C196.95 8.2976 197.98 7.46288 199.525 7.46288C201.532 7.46288 202.438 8.54624 202.438 10.6774V17H201.213ZM211.792 17V11.1214C211.792 10.34 211.721 9.6296 211.384 9.16784C211.064 8.72384 210.549 8.51072 209.821 8.51072C207.921 8.51072 207.068 9.91376 207.068 11.5122V17H205.825V7.69376H206.979V9.34544H207.015C207.512 8.2976 208.56 7.46288 210.105 7.46288C212.112 7.46288 213.018 8.54624 213.018 10.6774V17H211.792ZM216.369 5.38496V3.98192H217.701V5.38496H216.369ZM216.405 17V7.69376H217.648V17H216.405ZM228.013 10.2867H226.788C226.681 9.34544 225.918 8.43968 224.461 8.43968C222.668 8.43968 221.602 9.896 221.602 12.3291C221.602 14.7267 222.419 16.2363 224.408 16.2363C226.149 16.2363 226.681 15.0819 226.841 14.1406H228.031C227.747 16.183 226.308 17.2309 224.39 17.2309C221.691 17.2309 220.323 15.3306 220.323 12.4179C220.323 9.57632 221.833 7.44512 224.444 7.44512C226.131 7.44512 227.783 8.22656 228.013 10.2867ZM230.487 5.38496V3.98192H231.819V5.38496H230.487ZM230.522 17V7.69376H231.766V17H230.522ZM235.755 4.90544H236.91V7.69376H239.29V8.6528H236.91V14.6734C236.91 15.668 237.336 16.0942 238.402 16.0942C238.934 16.0942 239.467 15.9877 239.467 15.9877V17.0178C239.467 17.0178 238.934 17.1598 238.1 17.1598C236.306 17.1598 235.684 16.2008 235.684 14.8155V8.6528H233.908V7.72928H234.317C235.507 7.72928 235.755 7.46288 235.755 5.75792V4.90544ZM244.031 17.0178L240.798 7.69376H242.042L244.191 14.0696C244.439 14.8155 244.617 15.4194 244.617 15.4194H244.652C244.652 15.4194 244.848 14.78 245.079 14.0696L247.21 7.69376H248.435L244.972 17.7459C244.262 19.8061 243.587 20.5342 241.882 20.5342C241.438 20.5342 241.083 20.4454 240.834 20.3744V19.3443C241.136 19.4331 241.491 19.5042 241.828 19.5042C242.947 19.5042 243.338 18.9358 243.747 17.7992L244.031 17.0178Z" fill="#C9B8DF"/>
<path d="M115.958 7.03664H114.715C114.573 5.52704 113.773 4.23056 111.518 4.23056C109.547 4.23056 108.25 5.22512 108.25 6.84128C108.25 8.2976 108.925 8.97248 110.701 9.29216L112.974 9.70064C115.23 10.1091 116.366 11.3168 116.366 13.2171C116.366 15.6147 114.626 17.2842 111.447 17.2842C108.321 17.2842 106.545 15.3483 106.385 13.2171H107.664C107.859 14.709 108.907 16.2541 111.465 16.2541C114.093 16.2541 115.088 14.8866 115.088 13.3237C115.088 12.0272 114.466 11.228 112.708 10.9083L110.523 10.5176C107.859 10.0381 106.954 8.81264 106.954 6.91232C106.954 4.67456 108.854 3.21824 111.518 3.21824C114.288 3.21824 115.869 4.71008 115.958 7.03664ZM120.574 12.9507C120.574 14.6202 121.462 16.2363 123.398 16.2363C125.245 16.2363 126.168 14.6912 126.168 12.2403C126.168 10.1446 125.494 8.45744 123.433 8.45744C121.569 8.45744 120.574 9.9848 120.574 11.601V12.9507ZM119.366 20.3389V7.69376H120.538V9.34544H120.574C121.16 8.19104 122.243 7.46288 123.682 7.46288C125.618 7.46288 127.429 8.6528 127.429 12.2403C127.429 15.6147 125.618 17.2309 123.487 17.2309C122.066 17.2309 120.982 16.3429 120.645 15.4549H120.61V20.3389H119.366ZM136.083 11.6898V11.601C136.065 10.1446 135.568 8.42192 133.596 8.42192C131.856 8.42192 130.932 9.77168 130.772 11.6898H136.083ZM137.184 14.6734C136.846 16.0942 135.479 17.2309 133.65 17.2309C130.808 17.2309 129.511 15.3306 129.511 12.4179C129.511 9.59408 130.95 7.46288 133.596 7.46288C136.349 7.46288 137.326 9.66512 137.326 11.8674V12.631H130.755C130.826 14.8866 131.714 16.2541 133.667 16.2541C135.301 16.2541 135.852 15.1885 136.012 14.6734H137.184ZM146.966 10.2867H145.741C145.634 9.34544 144.87 8.43968 143.414 8.43968C141.62 8.43968 140.555 9.896 140.555 12.3291C140.555 14.7267 141.372 16.2363 143.361 16.2363C145.101 16.2363 145.634 15.0819 145.794 14.1406H146.984C146.7 16.183 145.261 17.2309 143.343 17.2309C140.643 17.2309 139.276 15.3306 139.276 12.4179C139.276 9.57632 140.786 7.44512 143.396 7.44512C145.083 7.44512 146.735 8.22656 146.966 10.2867ZM149.44 5.38496V3.98192H150.772V5.38496H149.44ZM149.475 17V7.69376H150.718V17H149.475ZM155.845 8.6528V17H154.601V8.6528H152.79V7.69376H154.601V5.34944C154.601 3.75104 155.614 2.95184 157.194 2.95184C157.496 2.95184 157.798 2.9696 158.136 3.04064V4.07072C157.923 4.01744 157.638 3.98192 157.248 3.98192C156.289 3.98192 155.845 4.42592 155.845 5.56256V7.69376H158.207V8.6528H155.845ZM160.279 5.38496V3.98192H161.611V5.38496H160.279ZM160.315 17V7.69376H161.558V17H160.315ZM171.924 10.2867H170.698C170.592 9.34544 169.828 8.43968 168.372 8.43968C166.578 8.43968 165.512 9.896 165.512 12.3291C165.512 14.7267 166.329 16.2363 168.318 16.2363C170.059 16.2363 170.592 15.0819 170.752 14.1406H171.941C171.657 16.183 170.219 17.2309 168.301 17.2309C165.601 17.2309 164.234 15.3306 164.234 12.4179C164.234 9.57632 165.743 7.44512 168.354 7.44512C170.041 7.44512 171.693 8.22656 171.924 10.2867ZM184.923 11.6898V11.601C184.905 10.1446 184.408 8.42192 182.436 8.42192C180.696 8.42192 179.772 9.77168 179.612 11.6898H184.923ZM186.024 14.6734C185.686 16.0942 184.319 17.2309 182.49 17.2309C179.648 17.2309 178.351 15.3306 178.351 12.4179C178.351 9.59408 179.79 7.46288 182.436 7.46288C185.189 7.46288 186.166 9.66512 186.166 11.8674V12.631H179.595C179.666 14.8866 180.554 16.2541 182.507 16.2541C184.141 16.2541 184.692 15.1885 184.852 14.6734H186.024ZM189.343 4.90544H190.498V7.69376H192.878V8.6528H190.498V14.6734C190.498 15.668 190.924 16.0942 191.99 16.0942C192.523 16.0942 193.055 15.9877 193.055 15.9877V17.0178C193.055 17.0178 192.523 17.1598 191.688 17.1598C189.894 17.1598 189.272 16.2008 189.272 14.8155V8.6528H187.496V7.72928H187.905C189.095 7.72928 189.343 7.46288 189.343 5.75792V4.90544ZM201.213 17V11.1037C201.213 10.34 201.142 9.6296 200.804 9.16784C200.484 8.72384 199.969 8.51072 199.241 8.51072C197.323 8.51072 196.488 9.93152 196.488 11.5122V17H195.245V3.00512H196.488V9.32768H196.524C196.95 8.2976 197.98 7.46288 199.525 7.46288C201.532 7.46288 202.438 8.54624 202.438 10.6774V17H201.213ZM211.792 17V11.1214C211.792 10.34 211.721 9.6296 211.384 9.16784C211.064 8.72384 210.549 8.51072 209.821 8.51072C207.921 8.51072 207.068 9.91376 207.068 11.5122V17H205.825V7.69376H206.979V9.34544H207.015C207.512 8.2976 208.56 7.46288 210.105 7.46288C212.112 7.46288 213.018 8.54624 213.018 10.6774V17H211.792ZM216.369 5.38496V3.98192H217.701V5.38496H216.369ZM216.405 17V7.69376H217.648V17H216.405ZM228.013 10.2867H226.788C226.681 9.34544 225.918 8.43968 224.461 8.43968C222.668 8.43968 221.602 9.896 221.602 12.3291C221.602 14.7267 222.419 16.2363 224.408 16.2363C226.149 16.2363 226.681 15.0819 226.841 14.1406H228.031C227.747 16.183 226.308 17.2309 224.39 17.2309C221.691 17.2309 220.323 15.3306 220.323 12.4179C220.323 9.57632 221.833 7.44512 224.444 7.44512C226.131 7.44512 227.783 8.22656 228.013 10.2867ZM230.487 5.38496V3.98192H231.819V5.38496H230.487ZM230.522 17V7.69376H231.766V17H230.522ZM235.755 4.90544H236.91V7.69376H239.29V8.6528H236.91V14.6734C236.91 15.668 237.336 16.0942 238.402 16.0942C238.934 16.0942 239.467 15.9877 239.467 15.9877V17.0178C239.467 17.0178 238.934 17.1598 238.1 17.1598C236.306 17.1598 235.684 16.2008 235.684 14.8155V8.6528H233.908V7.72928H234.317C235.507 7.72928 235.755 7.46288 235.755 5.75792V4.90544ZM244.031 17.0178L240.798 7.69376H242.042L244.191 14.0696C244.439 14.8155 244.617 15.4194 244.617 15.4194H244.652C244.652 15.4194 244.848 14.78 245.079 14.0696L247.21 7.69376H248.435L244.972 17.7459C244.262 19.8061 243.587 20.5342 241.882 20.5342C241.438 20.5342 241.083 20.4454 240.834 20.3744V19.3443C241.136 19.4331 241.491 19.5042 241.828 19.5042C242.947 19.5042 243.338 18.9358 243.747 17.7992L244.031 17.0178Z" fill="black"/>
<path d="M350.373 39.1766C349.633 39.1766 348.967 39.0294 348.374 38.7351C347.781 38.4408 347.306 38.0372 346.949 37.5242C346.591 37.0112 346.396 36.4268 346.362 35.7709H347.876C347.935 36.3553 348.2 36.8389 348.671 37.2215C349.146 37.5999 349.713 37.7891 350.373 37.7891C350.903 37.7891 351.374 37.6651 351.786 37.417C352.202 37.1689 352.528 36.8284 352.764 36.3953C353.003 35.958 353.123 35.464 353.123 34.9132C353.123 34.3498 352.999 33.8473 352.751 33.4059C352.507 32.9602 352.171 32.6091 351.742 32.3526C351.313 32.0961 350.823 31.9658 350.273 31.9616C349.877 31.9574 349.472 32.0184 349.055 32.1445C348.639 32.2664 348.296 32.4241 348.027 32.6175L346.564 32.4409L347.346 26.0836H354.057V27.4711H348.658L348.204 31.2805H348.28C348.544 31.0702 348.877 30.8957 349.276 30.757C349.675 30.6182 350.092 30.5489 350.525 30.5489C351.315 30.5489 352.019 30.7381 352.638 31.1165C353.26 31.4907 353.748 32.0036 354.101 32.6553C354.458 33.307 354.637 34.0512 354.637 34.888C354.637 35.712 354.452 36.4478 354.082 37.0953C353.716 37.7386 353.211 38.2474 352.568 38.6216C351.925 38.9916 351.193 39.1766 350.373 39.1766ZM357.142 39V37.8648L361.406 33.1977C361.906 32.6511 362.318 32.176 362.642 31.7724C362.965 31.3645 363.205 30.9819 363.361 30.6245C363.52 30.263 363.6 29.8845 363.6 29.4893C363.6 29.0352 363.491 28.6421 363.272 28.3099C363.058 27.9778 362.764 27.7213 362.389 27.5405C362.015 27.3597 361.595 27.2693 361.128 27.2693C360.632 27.2693 360.199 27.3723 359.829 27.5784C359.463 27.7802 359.179 28.064 358.977 28.4298C358.78 28.7956 358.681 29.2244 358.681 29.7164H357.193C357.193 28.9595 357.367 28.2952 357.716 27.7234C358.065 27.1516 358.54 26.7059 359.141 26.3864C359.747 26.0668 360.426 25.907 361.179 25.907C361.935 25.907 362.606 26.0668 363.19 26.3864C363.775 26.7059 364.233 27.1369 364.565 27.6793C364.897 28.2216 365.064 28.825 365.064 29.4893C365.064 29.9644 364.977 30.429 364.805 30.8831C364.637 31.333 364.342 31.8355 363.922 32.3905C363.506 32.9412 362.928 33.614 362.188 34.4086L359.287 37.5116V37.6125H365.291V39H357.142ZM374.48 36.5782V35.897C374.48 35.4261 374.576 34.9952 374.77 34.6041C374.967 34.2089 375.253 33.8936 375.627 33.6581C376.006 33.4185 376.464 33.2986 377.002 33.2986C377.549 33.2986 378.007 33.4185 378.377 33.6581C378.747 33.8936 379.027 34.2089 379.216 34.6041C379.405 34.9952 379.5 35.4261 379.5 35.897V36.5782C379.5 37.0491 379.403 37.4822 379.21 37.8774C379.021 38.2684 378.739 38.5837 378.365 38.8234C377.995 39.0589 377.541 39.1766 377.002 39.1766C376.456 39.1766 375.995 39.0589 375.621 38.8234C375.247 38.5837 374.963 38.2684 374.77 37.8774C374.576 37.4822 374.48 37.0491 374.48 36.5782ZM375.766 35.897V36.5782C375.766 36.9692 375.859 37.3203 376.044 37.6314C376.229 37.9384 376.548 38.0918 377.002 38.0918C377.444 38.0918 377.755 37.9384 377.936 37.6314C378.121 37.3203 378.213 36.9692 378.213 36.5782V35.897C378.213 35.506 378.125 35.157 377.948 34.8501C377.772 34.539 377.456 34.3834 377.002 34.3834C376.561 34.3834 376.243 34.539 376.05 34.8501C375.861 35.157 375.766 35.506 375.766 35.897ZM368.047 29.1866V28.5055C368.047 28.0345 368.143 27.6036 368.337 27.2126C368.534 26.8173 368.82 26.502 369.195 26.2665C369.573 26.0269 370.031 25.907 370.569 25.907C371.116 25.907 371.574 26.0269 371.944 26.2665C372.314 26.502 372.594 26.8173 372.783 27.2126C372.972 27.6036 373.067 28.0345 373.067 28.5055V29.1866C373.067 29.6575 372.97 30.0906 372.777 30.4858C372.588 30.8768 372.306 31.1922 371.932 31.4318C371.562 31.6673 371.108 31.785 370.569 31.785C370.023 31.785 369.562 31.6673 369.188 31.4318C368.814 31.1922 368.53 30.8768 368.337 30.4858C368.143 30.0906 368.047 29.6575 368.047 29.1866ZM369.333 28.5055V29.1866C369.333 29.5776 369.426 29.9287 369.611 30.2398C369.796 30.5468 370.115 30.7002 370.569 30.7002C371.011 30.7002 371.322 30.5468 371.503 30.2398C371.688 29.9287 371.78 29.5776 371.78 29.1866V28.5055C371.78 28.1144 371.692 27.7655 371.515 27.4585C371.339 27.1474 371.024 26.9918 370.569 26.9918C370.128 26.9918 369.81 27.1474 369.617 27.4585C369.428 27.7655 369.333 28.1144 369.333 28.5055ZM368.526 39L377.406 26.0836H378.844L369.964 39H368.526Z" fill="black" fill-opacity="0.96"/>
<path d="M346.337 112V110.865L350.6 106.198C351.101 105.651 351.513 105.176 351.837 104.772C352.16 104.365 352.4 103.982 352.556 103.625C352.715 103.263 352.795 102.885 352.795 102.489C352.795 102.035 352.686 101.642 352.467 101.31C352.253 100.978 351.959 100.721 351.584 100.541C351.21 100.36 350.79 100.269 350.323 100.269C349.827 100.269 349.394 100.372 349.024 100.578C348.658 100.78 348.374 101.064 348.172 101.43C347.975 101.796 347.876 102.224 347.876 102.716H346.388C346.388 101.96 346.562 101.295 346.911 100.723C347.26 100.152 347.735 99.7059 348.336 99.3864C348.942 99.0668 349.621 98.907 350.373 98.907C351.13 98.907 351.801 99.0668 352.385 99.3864C352.97 99.7059 353.428 100.137 353.76 100.679C354.092 101.222 354.258 101.825 354.258 102.489C354.258 102.964 354.172 103.429 354 103.883C353.832 104.333 353.537 104.835 353.117 105.39C352.701 105.941 352.123 106.614 351.383 107.409L348.481 110.512V110.612H354.485V112H346.337ZM361.227 112.177C360.361 112.177 359.596 112.023 358.932 111.716C358.272 111.405 357.757 110.978 357.387 110.436C357.017 109.889 356.834 109.267 356.838 108.569C356.834 108.022 356.941 107.518 357.16 107.055C357.378 106.589 357.677 106.2 358.055 105.889C358.438 105.573 358.864 105.374 359.335 105.29V105.214C358.717 105.054 358.225 104.707 357.86 104.173C357.494 103.635 357.313 103.023 357.317 102.338C357.313 101.682 357.479 101.096 357.815 100.578C358.152 100.061 358.614 99.6534 359.203 99.3548C359.796 99.0563 360.471 98.907 361.227 98.907C361.976 98.907 362.644 99.0563 363.233 99.3548C363.822 99.6534 364.284 100.061 364.621 100.578C364.961 101.096 365.133 101.682 365.138 102.338C365.133 103.023 364.946 103.635 364.576 104.173C364.211 104.707 363.725 105.054 363.119 105.214V105.29C363.586 105.374 364.007 105.573 364.381 105.889C364.755 106.2 365.054 106.589 365.276 107.055C365.499 107.518 365.613 108.022 365.617 108.569C365.613 109.267 365.424 109.889 365.049 110.436C364.679 110.978 364.164 111.405 363.504 111.716C362.848 112.023 362.089 112.177 361.227 112.177ZM361.227 110.789C361.812 110.789 362.316 110.694 362.741 110.505C363.166 110.316 363.494 110.049 363.725 109.704C363.956 109.36 364.074 108.956 364.078 108.493C364.074 108.006 363.948 107.575 363.7 107.201C363.452 106.826 363.113 106.532 362.684 106.318C362.26 106.103 361.774 105.996 361.227 105.996C360.677 105.996 360.185 106.103 359.752 106.318C359.323 106.532 358.984 106.826 358.736 107.201C358.492 107.575 358.373 108.006 358.377 108.493C358.373 108.956 358.484 109.36 358.711 109.704C358.942 110.049 359.272 110.316 359.701 110.505C360.13 110.694 360.639 110.789 361.227 110.789ZM361.227 104.659C361.69 104.659 362.1 104.566 362.457 104.381C362.819 104.196 363.103 103.938 363.309 103.606C363.515 103.273 363.62 102.885 363.624 102.439C363.62 102.002 363.517 101.621 363.315 101.297C363.113 100.969 362.834 100.717 362.476 100.541C362.119 100.36 361.703 100.269 361.227 100.269C360.744 100.269 360.321 100.36 359.96 100.541C359.598 100.717 359.319 100.969 359.121 101.297C358.923 101.621 358.827 102.002 358.831 102.439C358.827 102.885 358.925 103.273 359.127 103.606C359.333 103.938 359.617 104.196 359.979 104.381C360.34 104.566 360.757 104.659 361.227 104.659ZM374.618 109.578V108.897C374.618 108.426 374.715 107.995 374.909 107.604C375.106 107.209 375.392 106.894 375.766 106.658C376.145 106.418 376.603 106.299 377.141 106.299C377.688 106.299 378.146 106.418 378.516 106.658C378.886 106.894 379.166 107.209 379.355 107.604C379.544 107.995 379.639 108.426 379.639 108.897V109.578C379.639 110.049 379.542 110.482 379.349 110.877C379.159 111.268 378.878 111.584 378.503 111.823C378.133 112.059 377.679 112.177 377.141 112.177C376.595 112.177 376.134 112.059 375.76 111.823C375.386 111.584 375.102 111.268 374.909 110.877C374.715 110.482 374.618 110.049 374.618 109.578ZM375.905 108.897V109.578C375.905 109.969 375.997 110.32 376.182 110.631C376.367 110.938 376.687 111.092 377.141 111.092C377.583 111.092 377.894 110.938 378.075 110.631C378.26 110.32 378.352 109.969 378.352 109.578V108.897C378.352 108.506 378.264 108.157 378.087 107.85C377.911 107.539 377.595 107.383 377.141 107.383C376.7 107.383 376.382 107.539 376.189 107.85C376 108.157 375.905 108.506 375.905 108.897ZM368.185 102.187V101.505C368.185 101.035 368.282 100.604 368.476 100.213C368.673 99.8173 368.959 99.502 369.333 99.2665C369.712 99.0269 370.17 98.907 370.708 98.907C371.255 98.907 371.713 99.0269 372.083 99.2665C372.453 99.502 372.733 99.8173 372.922 100.213C373.111 100.604 373.206 101.035 373.206 101.505V102.187C373.206 102.657 373.109 103.091 372.916 103.486C372.726 103.877 372.445 104.192 372.07 104.432C371.7 104.667 371.246 104.785 370.708 104.785C370.162 104.785 369.701 104.667 369.327 104.432C368.953 104.192 368.669 103.877 368.476 103.486C368.282 103.091 368.185 102.657 368.185 102.187ZM369.472 101.505V102.187C369.472 102.578 369.565 102.929 369.75 103.24C369.935 103.547 370.254 103.7 370.708 103.7C371.15 103.7 371.461 103.547 371.642 103.24C371.827 102.929 371.919 102.578 371.919 102.187V101.505C371.919 101.114 371.831 100.765 371.654 100.459C371.478 100.147 371.162 99.9918 370.708 99.9918C370.267 99.9918 369.949 100.147 369.756 100.459C369.567 100.765 369.472 101.114 369.472 101.505ZM368.665 112L377.545 99.0836H378.983L370.103 112H368.665Z" fill="black" fill-opacity="0.96"/>
<path d="M291.337 183V181.865L295.6 177.198C296.101 176.651 296.513 176.176 296.837 175.772C297.16 175.365 297.4 174.982 297.556 174.625C297.715 174.263 297.795 173.885 297.795 173.489C297.795 173.035 297.686 172.642 297.467 172.31C297.253 171.978 296.959 171.721 296.584 171.541C296.21 171.36 295.79 171.269 295.323 171.269C294.827 171.269 294.394 171.372 294.024 171.578C293.658 171.78 293.374 172.064 293.172 172.43C292.975 172.796 292.876 173.224 292.876 173.716H291.388C291.388 172.96 291.562 172.295 291.911 171.723C292.26 171.152 292.735 170.706 293.336 170.386C293.942 170.067 294.621 169.907 295.373 169.907C296.13 169.907 296.801 170.067 297.385 170.386C297.97 170.706 298.428 171.137 298.76 171.679C299.092 172.222 299.258 172.825 299.258 173.489C299.258 173.964 299.172 174.429 299 174.883C298.832 175.333 298.537 175.835 298.117 176.39C297.701 176.941 297.123 177.614 296.383 178.409L293.481 181.512V181.612H299.485V183H291.337ZM306.303 183.177C305.353 183.177 304.544 182.918 303.875 182.401C303.206 181.879 302.696 181.125 302.342 180.137C301.989 179.144 301.813 177.946 301.813 176.542C301.813 175.146 301.989 173.954 302.342 172.966C302.7 171.974 303.213 171.217 303.881 170.695C304.554 170.17 305.361 169.907 306.303 169.907C307.245 169.907 308.05 170.17 308.719 170.695C309.391 171.217 309.904 171.974 310.258 172.966C310.615 173.954 310.794 175.146 310.794 176.542C310.794 177.946 310.617 179.144 310.264 180.137C309.911 181.125 309.4 181.879 308.731 182.401C308.063 182.918 307.253 183.177 306.303 183.177ZM306.303 181.789C307.245 181.789 307.977 181.335 308.498 180.427C309.019 179.519 309.28 178.224 309.28 176.542C309.28 175.423 309.16 174.471 308.92 173.685C308.685 172.899 308.344 172.299 307.899 171.887C307.457 171.475 306.925 171.269 306.303 171.269C305.37 171.269 304.64 171.73 304.115 172.651C303.589 173.567 303.326 174.864 303.326 176.542C303.326 177.66 303.444 178.61 303.679 179.392C303.915 180.175 304.253 180.769 304.695 181.177C305.141 181.585 305.677 181.789 306.303 181.789ZM319.774 180.578V179.897C319.774 179.426 319.871 178.995 320.065 178.604C320.262 178.209 320.548 177.894 320.922 177.658C321.301 177.418 321.759 177.299 322.297 177.299C322.844 177.299 323.302 177.418 323.672 177.658C324.042 177.894 324.322 178.209 324.511 178.604C324.7 178.995 324.795 179.426 324.795 179.897V180.578C324.795 181.049 324.698 181.482 324.505 181.877C324.315 182.268 324.034 182.584 323.659 182.823C323.289 183.059 322.835 183.177 322.297 183.177C321.751 183.177 321.29 183.059 320.916 182.823C320.542 182.584 320.258 182.268 320.065 181.877C319.871 181.482 319.774 181.049 319.774 180.578ZM321.061 179.897V180.578C321.061 180.969 321.154 181.32 321.339 181.631C321.524 181.938 321.843 182.092 322.297 182.092C322.739 182.092 323.05 181.938 323.231 181.631C323.416 181.32 323.508 180.969 323.508 180.578V179.897C323.508 179.506 323.42 179.157 323.243 178.85C323.067 178.539 322.751 178.383 322.297 178.383C321.856 178.383 321.538 178.539 321.345 178.85C321.156 179.157 321.061 179.506 321.061 179.897ZM313.342 173.187V172.505C313.342 172.035 313.438 171.604 313.632 171.213C313.829 170.817 314.115 170.502 314.489 170.267C314.868 170.027 315.326 169.907 315.864 169.907C316.411 169.907 316.869 170.027 317.239 170.267C317.609 170.502 317.889 170.817 318.078 171.213C318.267 171.604 318.362 172.035 318.362 172.505V173.187C318.362 173.657 318.265 174.091 318.072 174.486C317.882 174.877 317.601 175.192 317.227 175.432C316.857 175.667 316.402 175.785 315.864 175.785C315.318 175.785 314.857 175.667 314.483 175.432C314.109 175.192 313.825 174.877 313.632 174.486C313.438 174.091 313.342 173.657 313.342 173.187ZM314.628 172.505V173.187C314.628 173.578 314.721 173.929 314.906 174.24C315.091 174.547 315.41 174.7 315.864 174.7C316.306 174.7 316.617 174.547 316.798 174.24C316.983 173.929 317.075 173.578 317.075 173.187V172.505C317.075 172.114 316.987 171.765 316.81 171.459C316.634 171.147 316.318 170.992 315.864 170.992C315.423 170.992 315.105 171.147 314.912 171.459C314.723 171.765 314.628 172.114 314.628 172.505ZM313.821 183L322.701 170.084H324.139L315.259 183H313.821Z" fill="black" fill-opacity="0.96"/>
</svg>
