<svg width="620" height="261" viewBox="0 0 620 261" fill="none" xmlns="http://www.w3.org/2000/svg">
<path d="M155.339 78.5877H147V70.0889C147 64.9892 154.818 64.5196 155.339 70.2372V78.5877Z" fill="#FFBF00"/>
<ellipse cx="151.169" cy="62.2645" rx="4.16933" ry="3.84064" fill="#FFBF00"/>
<path d="M167.741 78.5877H159.403V70.0889C159.403 64.9892 167.22 64.5196 167.741 70.2372V78.5877Z" fill="#FFBF00"/>
<ellipse cx="163.572" cy="62.2645" rx="4.16933" ry="3.84064" fill="#FFBF00"/>
<path d="M180.145 78.5877H171.807V70.0889C171.807 64.9892 179.624 64.5196 180.145 70.2372V78.5877Z" fill="#FFBF00"/>
<ellipse cx="175.976" cy="62.2645" rx="4.16933" ry="3.84064" fill="#FFBF00"/>
<path d="M192.55 78.5877H184.211V70.0889C184.211 64.9892 192.029 64.5196 192.55 70.2372V78.5877Z" fill="#FFBF00"/>
<ellipse cx="188.38" cy="62.2645" rx="4.16933" ry="3.84064" fill="#FFBF00"/>
<path d="M204.954 78.5877H196.615V70.0889C196.615 64.9892 204.433 64.5196 204.954 70.2372V78.5877Z" fill="#FFBF00"/>
<ellipse cx="200.785" cy="62.2645" rx="4.16933" ry="3.84064" fill="#FFBF00"/>
<path d="M155.339 51.703H147V43.2041C147 38.1044 154.818 37.6348 155.339 43.3524V51.703Z" fill="#FFBF00"/>
<ellipse cx="151.169" cy="35.3797" rx="4.16933" ry="3.84064" fill="#FFBF00"/>
<path d="M167.741 51.703H159.403V43.2041C159.403 38.1044 167.22 37.6348 167.741 43.3524V51.703Z" fill="#FFBF00"/>
<ellipse cx="163.572" cy="35.3797" rx="4.16933" ry="3.84064" fill="#FFBF00"/>
<path d="M180.145 51.703H171.807V43.2041C171.807 38.1044 179.624 37.6348 180.145 43.3524V51.703Z" fill="#FFBF00"/>
<ellipse cx="175.976" cy="35.3797" rx="4.16933" ry="3.84064" fill="#FFBF00"/>
<path d="M192.55 51.703H184.211V43.2041C184.211 38.1044 192.029 37.6348 192.55 43.3524V51.703Z" fill="#FFBF00"/>
<ellipse cx="188.38" cy="35.3797" rx="4.16933" ry="3.84064" fill="#FFBF00"/>
<path d="M204.954 51.703H196.615V43.2041C196.615 38.1044 204.433 37.6348 204.954 43.3524V51.703Z" fill="#FFBF00"/>
<ellipse cx="200.785" cy="35.3797" rx="4.16933" ry="3.84064" fill="#FFBF00"/>
<path d="M404.339 79.1639H396V70.6651C396 65.5654 403.818 65.0957 404.339 70.8134V79.1639Z" fill="#FFBF00"/>
<ellipse cx="400.169" cy="62.8406" rx="4.16933" ry="3.84064" fill="#FFBF00"/>
<path d="M416.741 79.1639H408.402V70.6651C408.402 65.5654 416.22 65.0957 416.741 70.8134V79.1639Z" fill="#FFBF00"/>
<ellipse cx="412.572" cy="62.8406" rx="4.16933" ry="3.84064" fill="#FFBF00"/>
<path d="M429.145 79.1639H420.807V70.6651C420.807 65.5654 428.624 65.0957 429.145 70.8134V79.1639Z" fill="#FFBF00"/>
<ellipse cx="424.976" cy="62.8406" rx="4.16933" ry="3.84064" fill="#FFBF00"/>
<path d="M441.55 79.1639H433.211V70.6651C433.211 65.5654 441.029 65.0957 441.55 70.8134V79.1639Z" fill="#FFBF00"/>
<ellipse cx="437.38" cy="62.8406" rx="4.16933" ry="3.84064" fill="#FFBF00"/>
<path d="M453.954 79.1639H445.615V70.6651C445.615 65.5654 453.433 65.0957 453.954 70.8134V79.1639Z" fill="#FFBF00"/>
<ellipse cx="449.785" cy="62.8406" rx="4.16933" ry="3.84064" fill="#FFBF00"/>
<path d="M279.339 79.0487H271V70.5498C271 65.4501 278.818 64.9805 279.339 70.6981V79.0487Z" fill="#FFBF00"/>
<ellipse cx="275.169" cy="62.7254" rx="4.16933" ry="3.84064" fill="#FFBF00"/>
<path d="M291.741 79.0487H283.402V70.5498C283.402 65.4501 291.22 64.9805 291.741 70.6981V79.0487Z" fill="#FFBF00"/>
<ellipse cx="287.572" cy="62.7254" rx="4.16933" ry="3.84064" fill="#FFBF00"/>
<path d="M304.145 79.0487H295.807V70.5498C295.807 65.4501 303.624 64.9805 304.145 70.6981V79.0487Z" fill="#FFBF00"/>
<ellipse cx="299.976" cy="62.7254" rx="4.16933" ry="3.84064" fill="#FFBF00"/>
<path d="M316.55 79.0487H308.211V70.5498C308.211 65.4501 316.029 64.9805 316.55 70.6981V79.0487Z" fill="#FFBF00"/>
<ellipse cx="312.38" cy="62.7254" rx="4.16933" ry="3.84064" fill="#FFBF00"/>
<path d="M328.954 79.0487H320.615V70.5498C320.615 65.4501 328.433 64.9805 328.954 70.6981V79.0487Z" fill="#FFBF00"/>
<ellipse cx="324.785" cy="62.7254" rx="4.16933" ry="3.84064" fill="#FFBF00"/>
<path d="M217.358 78.5877H209.02V70.0889C209.02 64.9892 216.837 64.5196 217.358 70.2372V78.5877Z" fill="#FFBF00"/>
<ellipse cx="213.189" cy="62.2645" rx="4.16933" ry="3.84064" fill="#FFBF00"/>
<path d="M229.763 78.5877H221.424V70.0889C221.424 64.9892 229.241 64.5196 229.763 70.2372V78.5877Z" fill="#FFBF00"/>
<ellipse cx="225.593" cy="62.2645" rx="4.16933" ry="3.84064" fill="#FFBF00"/>
<path d="M242.165 78.5877H233.826V70.0889C233.826 64.9892 241.644 64.5196 242.165 70.2372V78.5877Z" fill="#FFBF00"/>
<ellipse cx="237.996" cy="62.2645" rx="4.16933" ry="3.84064" fill="#FFBF00"/>
<path d="M254.569 78.5877H246.231V70.0889C246.231 64.9892 254.048 64.5196 254.569 70.2372V78.5877Z" fill="#FFBF00"/>
<ellipse cx="250.4" cy="62.2645" rx="4.16933" ry="3.84064" fill="#FFBF00"/>
<path d="M266.972 78.5877H258.633V70.0889C258.633 64.9892 266.45 64.5196 266.972 70.2372V78.5877Z" fill="#FFBF00"/>
<ellipse cx="262.802" cy="62.2645" rx="4.16933" ry="3.84064" fill="#FFBF00"/>
<path d="M217.358 51.703H209.02V43.2041C209.02 38.1044 216.837 37.6348 217.358 43.3524V51.703Z" fill="#FFBF00"/>
<ellipse cx="213.189" cy="35.3797" rx="4.16933" ry="3.84064" fill="#FFBF00"/>
<path d="M229.763 51.703H221.424V43.2041C221.424 38.1044 229.241 37.6348 229.763 43.3524V51.703Z" fill="#FFBF00"/>
<ellipse cx="225.593" cy="35.3797" rx="4.16933" ry="3.84064" fill="#FFBF00"/>
<path d="M242.165 51.703H233.826V43.2041C233.826 38.1044 241.644 37.6348 242.165 43.3524V51.703Z" fill="#FFBF00"/>
<ellipse cx="237.996" cy="35.3797" rx="4.16933" ry="3.84064" fill="#FFBF00"/>
<path d="M254.569 51.703H246.231V43.2041C246.231 38.1044 254.048 37.6348 254.569 43.3524V51.703Z" fill="#FFBF00"/>
<ellipse cx="250.4" cy="35.3797" rx="4.16933" ry="3.84064" fill="#FFBF00"/>
<path d="M266.972 51.703H258.633V43.2041C258.633 38.1044 266.45 37.6348 266.972 43.3524V51.703Z" fill="#FFBF00"/>
<ellipse cx="262.802" cy="35.3797" rx="4.16933" ry="3.84064" fill="#FFBF00"/>
<path d="M328.338 151.164H320V142.665C320 137.565 327.817 137.096 328.338 142.813V151.164Z" fill="#563381"/>
<ellipse cx="324.169" cy="134.841" rx="4.16933" ry="3.84064" fill="#563381"/>
<path d="M340.741 151.164H332.402V142.665C332.402 137.565 340.219 137.096 340.741 142.813V151.164Z" fill="#563381"/>
<ellipse cx="336.571" cy="134.841" rx="4.16933" ry="3.84064" fill="#563381"/>
<path d="M353.145 151.164H344.806V142.665C344.806 137.565 352.624 137.096 353.145 142.813V151.164Z" fill="#563381"/>
<ellipse cx="348.976" cy="134.841" rx="4.16933" ry="3.84064" fill="#563381"/>
<path d="M365.549 151.164H357.21V142.665C357.21 137.565 365.028 137.096 365.549 142.813V151.164Z" fill="#563381"/>
<ellipse cx="361.38" cy="134.841" rx="4.16933" ry="3.84064" fill="#563381"/>
<path d="M377.953 151.164H369.615V142.665C369.615 137.565 377.432 137.096 377.953 142.813V151.164Z" fill="#563381"/>
<ellipse cx="373.784" cy="134.841" rx="4.16933" ry="3.84064" fill="#563381"/>
<path d="M154.338 151.164H146V142.665C146 137.565 153.817 137.096 154.338 142.813V151.164Z" fill="#563381"/>
<ellipse cx="150.169" cy="134.841" rx="4.16933" ry="3.84064" fill="#563381"/>
<path d="M166.741 151.164H158.402V142.665C158.402 137.565 166.219 137.096 166.741 142.813V151.164Z" fill="#563381"/>
<ellipse cx="162.571" cy="134.841" rx="4.16933" ry="3.84064" fill="#563381"/>
<path d="M179.145 151.164H170.806V142.665C170.806 137.565 178.624 137.096 179.145 142.813V151.164Z" fill="#563381"/>
<ellipse cx="174.975" cy="134.841" rx="4.16933" ry="3.84064" fill="#563381"/>
<path d="M191.549 151.164H183.21V142.665C183.21 137.565 191.028 137.096 191.549 142.813V151.164Z" fill="#563381"/>
<ellipse cx="187.38" cy="134.841" rx="4.16933" ry="3.84064" fill="#563381"/>
<path d="M203.953 151.164H195.615V142.665C195.615 137.565 203.432 137.096 203.953 142.813V151.164Z" fill="#563381"/>
<ellipse cx="199.784" cy="134.841" rx="4.16933" ry="3.84064" fill="#563381"/>
<path d="M390.356 151.164H382.017V142.665C382.017 137.565 389.835 137.096 390.356 142.813V151.164Z" fill="#563381"/>
<ellipse cx="386.186" cy="134.841" rx="4.16933" ry="3.84064" fill="#563381"/>
<path d="M402.76 151.164H394.421V142.665C394.421 137.565 402.239 137.096 402.76 142.813V151.164Z" fill="#563381"/>
<ellipse cx="398.591" cy="134.841" rx="4.16933" ry="3.84064" fill="#563381"/>
<path d="M415.164 151.164H406.826V142.665C406.826 137.565 414.643 137.096 415.164 142.813V151.164Z" fill="#563381"/>
<ellipse cx="410.995" cy="134.841" rx="4.16933" ry="3.84064" fill="#563381"/>
<path d="M427.567 151.164H419.228V142.665C419.228 137.565 427.046 137.096 427.567 142.813V151.164Z" fill="#563381"/>
<ellipse cx="423.397" cy="134.841" rx="4.16933" ry="3.84064" fill="#563381"/>
<path d="M439.971 151.164H431.632V142.665C431.632 137.565 439.45 137.096 439.971 142.813V151.164Z" fill="#563381"/>
<ellipse cx="435.802" cy="134.841" rx="4.16933" ry="3.84064" fill="#563381"/>
<path d="M216.356 151.164H208.017V142.665C208.017 137.565 215.835 137.096 216.356 142.813V151.164Z" fill="#563381"/>
<ellipse cx="212.186" cy="134.841" rx="4.16933" ry="3.84064" fill="#563381"/>
<path d="M228.76 151.164H220.421V142.665C220.421 137.565 228.239 137.096 228.76 142.813V151.164Z" fill="#563381"/>
<ellipse cx="224.591" cy="134.841" rx="4.16933" ry="3.84064" fill="#563381"/>
<path d="M241.164 151.164H232.826V142.665C232.826 137.565 240.643 137.096 241.164 142.813V151.164Z" fill="#563381"/>
<ellipse cx="236.995" cy="134.841" rx="4.16933" ry="3.84064" fill="#563381"/>
<path d="M253.567 151.164H245.228V142.665C245.228 137.565 253.046 137.096 253.567 142.813V151.164Z" fill="#563381"/>
<ellipse cx="249.397" cy="134.841" rx="4.16933" ry="3.84064" fill="#563381"/>
<path d="M265.971 151.164H257.632V142.665C257.632 137.565 265.45 137.096 265.971 142.813V151.164Z" fill="#563381"/>
<ellipse cx="261.802" cy="134.841" rx="4.16933" ry="3.84064" fill="#563381"/>
<path d="M275.338 250.164H267V241.665C267 236.565 274.817 236.096 275.338 241.813V250.164Z" fill="#563381"/>
<ellipse cx="271.169" cy="233.841" rx="4.16933" ry="3.84064" fill="#563381"/>
<path d="M287.742 250.164H279.404V241.665C279.404 236.565 287.221 236.096 287.742 241.813V250.164Z" fill="#563381"/>
<ellipse cx="283.573" cy="233.841" rx="4.16933" ry="3.84064" fill="#563381"/>
<path d="M300.147 250.164H291.808V241.665C291.808 236.565 299.626 236.096 300.147 241.813V250.164Z" fill="#563381"/>
<ellipse cx="295.977" cy="233.841" rx="4.16933" ry="3.84064" fill="#563381"/>
<path d="M312.551 250.164H304.212V241.665C304.212 236.565 312.03 236.096 312.551 241.813V250.164Z" fill="#563381"/>
<ellipse cx="308.382" cy="233.841" rx="4.16933" ry="3.84064" fill="#563381"/>
<path d="M324.955 250.164H316.617V241.665C316.617 236.565 324.434 236.096 324.955 241.813V250.164Z" fill="#563381"/>
<ellipse cx="320.786" cy="233.841" rx="4.16933" ry="3.84064" fill="#563381"/>
<path d="M151.338 250.164H143V241.665C143 236.565 150.817 236.096 151.338 241.813V250.164Z" fill="#563381"/>
<ellipse cx="147.169" cy="233.841" rx="4.16933" ry="3.84064" fill="#563381"/>
<path d="M163.742 250.164H155.404V241.665C155.404 236.565 163.221 236.096 163.742 241.813V250.164Z" fill="#563381"/>
<ellipse cx="159.573" cy="233.841" rx="4.16933" ry="3.84064" fill="#563381"/>
<path d="M176.147 250.164H167.808V241.665C167.808 236.565 175.626 236.096 176.147 241.813V250.164Z" fill="#563381"/>
<ellipse cx="171.977" cy="233.841" rx="4.16933" ry="3.84064" fill="#563381"/>
<path d="M188.551 250.164H180.212V241.665C180.212 236.565 188.03 236.096 188.551 241.813V250.164Z" fill="#563381"/>
<ellipse cx="184.382" cy="233.841" rx="4.16933" ry="3.84064" fill="#563381"/>
<path d="M200.955 250.164H192.617V241.665C192.617 236.565 200.434 236.096 200.955 241.813V250.164Z" fill="#563381"/>
<ellipse cx="196.786" cy="233.841" rx="4.16933" ry="3.84064" fill="#563381"/>
<path d="M337.356 250.164H329.017V241.665C329.017 236.565 336.835 236.096 337.356 241.813V250.164Z" fill="#563381"/>
<ellipse cx="333.186" cy="233.841" rx="4.16933" ry="3.84064" fill="#563381"/>
<path d="M349.76 250.164H341.421V241.665C341.421 236.565 349.239 236.096 349.76 241.813V250.164Z" fill="#563381"/>
<ellipse cx="345.591" cy="233.841" rx="4.16933" ry="3.84064" fill="#563381"/>
<path d="M362.164 250.164H353.826V241.665C353.826 236.565 361.643 236.096 362.164 241.813V250.164Z" fill="#563381"/>
<ellipse cx="357.995" cy="233.841" rx="4.16933" ry="3.84064" fill="#563381"/>
<path d="M374.569 250.164H366.23V241.665C366.23 236.565 374.048 236.096 374.569 241.813V250.164Z" fill="#563381"/>
<ellipse cx="370.399" cy="233.841" rx="4.16933" ry="3.84064" fill="#563381"/>
<path d="M386.973 250.164H378.634V241.665C378.634 236.565 386.452 236.096 386.973 241.813V250.164Z" fill="#563381"/>
<ellipse cx="382.804" cy="233.841" rx="4.16933" ry="3.84064" fill="#563381"/>
<path d="M213.356 250.164H205.017V241.665C205.017 236.565 212.835 236.096 213.356 241.813V250.164Z" fill="#563381"/>
<ellipse cx="209.186" cy="233.841" rx="4.16933" ry="3.84064" fill="#563381"/>
<path d="M225.76 250.164H217.421V241.665C217.421 236.565 225.239 236.096 225.76 241.813V250.164Z" fill="#563381"/>
<ellipse cx="221.591" cy="233.841" rx="4.16933" ry="3.84064" fill="#563381"/>
<path d="M238.164 250.164H229.826V241.665C229.826 236.565 237.643 236.096 238.164 241.813V250.164Z" fill="#563381"/>
<ellipse cx="233.995" cy="233.841" rx="4.16933" ry="3.84064" fill="#563381"/>
<path d="M250.569 250.164H242.23V241.665C242.23 236.565 250.048 236.096 250.569 241.813V250.164Z" fill="#563381"/>
<ellipse cx="246.399" cy="233.841" rx="4.16933" ry="3.84064" fill="#563381"/>
<path d="M262.973 250.164H254.634V241.665C254.634 236.565 262.452 236.096 262.973 241.813V250.164Z" fill="#563381"/>
<ellipse cx="258.804" cy="233.841" rx="4.16933" ry="3.84064" fill="#563381"/>
<path d="M466.358 79.1639H458.02V70.6651C458.02 65.5654 465.837 65.0957 466.358 70.8134V79.1639Z" fill="#FFBF00"/>
<ellipse cx="462.189" cy="62.8406" rx="4.16933" ry="3.84064" fill="#FFBF00"/>
<path d="M403.339 52.1639H395V43.6651C395 38.5654 402.818 38.0957 403.339 43.8134V52.1639Z" fill="#FFBF00"/>
<ellipse cx="399.169" cy="35.8406" rx="4.16933" ry="3.84064" fill="#FFBF00"/>
<path d="M415.741 52.1639H407.402V43.6651C407.402 38.5654 415.22 38.0957 415.741 43.8134V52.1639Z" fill="#FFBF00"/>
<ellipse cx="411.572" cy="35.8406" rx="4.16933" ry="3.84064" fill="#FFBF00"/>
<path d="M452.338 151.278H444V142.779C444 137.68 451.817 137.21 452.338 142.928V151.278Z" fill="#563381"/>
<ellipse cx="448.169" cy="134.955" rx="4.16933" ry="3.84064" fill="#563381"/>
<path d="M464.741 151.278H456.402V142.779C456.402 137.68 464.219 137.21 464.741 142.928V151.278Z" fill="#563381"/>
<ellipse cx="460.571" cy="134.955" rx="4.16933" ry="3.84064" fill="#563381"/>
<path d="M154.338 178.164H146V169.665C146 164.565 153.817 164.096 154.338 169.813V178.164Z" fill="#563381"/>
<ellipse cx="150.169" cy="161.841" rx="4.16933" ry="3.84064" fill="#563381"/>
<path d="M166.742 178.164H158.404V169.665C158.404 164.565 166.221 164.096 166.742 169.813V178.164Z" fill="#563381"/>
<ellipse cx="162.573" cy="161.841" rx="4.16933" ry="3.84064" fill="#563381"/>
<path d="M278.338 151.164H270V142.665C270 137.565 277.817 137.096 278.338 142.813V151.164Z" fill="#563381"/>
<ellipse cx="274.169" cy="134.841" rx="4.16933" ry="3.84064" fill="#563381"/>
<path d="M290.741 151.164H282.402V142.665C282.402 137.565 290.219 137.096 290.741 142.813V151.164Z" fill="#563381"/>
<ellipse cx="286.571" cy="134.841" rx="4.16933" ry="3.84064" fill="#563381"/>
<path d="M303.145 151.164H294.806V142.665C294.806 137.565 302.624 137.096 303.145 142.813V151.164Z" fill="#563381"/>
<ellipse cx="298.976" cy="134.841" rx="4.16933" ry="3.84064" fill="#563381"/>
<path d="M315.549 151.164H307.21V142.665C307.21 137.565 315.028 137.096 315.549 142.813V151.164Z" fill="#563381"/>
<ellipse cx="311.38" cy="134.841" rx="4.16933" ry="3.84064" fill="#563381"/>
<path d="M428.145 52.1639H419.807V43.6651C419.807 38.5654 427.624 38.0957 428.145 43.8134V52.1639Z" fill="#FFBF00"/>
<ellipse cx="423.976" cy="35.8406" rx="4.16933" ry="3.84064" fill="#FFBF00"/>
<path d="M440.548 52.1639H432.209V43.6651C432.209 38.5654 440.027 38.0957 440.548 43.8134V52.1639Z" fill="#FFBF00"/>
<ellipse cx="436.378" cy="35.8406" rx="4.16933" ry="3.84064" fill="#FFBF00"/>
<path d="M341.358 79.0487H333.02V70.5498C333.02 65.4501 340.837 64.9805 341.358 70.6981V79.0487Z" fill="#FFBF00"/>
<ellipse cx="337.189" cy="62.7254" rx="4.16933" ry="3.84064" fill="#FFBF00"/>
<path d="M353.763 79.0487H345.424V70.5498C345.424 65.4501 353.241 64.9805 353.763 70.6981V79.0487Z" fill="#FFBF00"/>
<ellipse cx="349.593" cy="62.7254" rx="4.16933" ry="3.84064" fill="#FFBF00"/>
<path d="M366.165 79.0467H357.826V70.5479C357.826 65.4482 365.644 64.9785 366.165 70.6962V79.0467Z" fill="#FFBF00"/>
<ellipse cx="361.996" cy="62.7235" rx="4.16933" ry="3.84064" fill="#FFBF00"/>
<path d="M378.569 79.0467H370.231V70.5479C370.231 65.4482 378.048 64.9785 378.569 70.6962V79.0467Z" fill="#FFBF00"/>
<ellipse cx="374.4" cy="62.7235" rx="4.16933" ry="3.84064" fill="#FFBF00"/>
<path d="M390.972 79.0467H382.633V70.5479C382.633 65.4482 390.45 64.9785 390.972 70.6962V79.0467Z" fill="#FFBF00"/>
<ellipse cx="386.802" cy="62.7235" rx="4.16933" ry="3.84064" fill="#FFBF00"/>
<path d="M279.339 52.1639H271V43.6651C271 38.5654 278.818 38.0957 279.339 43.8134V52.1639Z" fill="#FFBF00"/>
<ellipse cx="275.169" cy="35.8406" rx="4.16933" ry="3.84064" fill="#FFBF00"/>
<path d="M291.741 52.1639H283.402V43.6651C283.402 38.5654 291.22 38.0957 291.741 43.8134V52.1639Z" fill="#FFBF00"/>
<ellipse cx="287.572" cy="35.8406" rx="4.16933" ry="3.84064" fill="#FFBF00"/>
<path d="M452.915 52.5116H444.576V44.0127C444.576 38.913 452.394 38.4434 452.915 44.161V52.5116Z" fill="#FFBF00"/>
<ellipse cx="448.746" cy="36.1883" rx="4.16933" ry="3.84064" fill="#FFBF00"/>
<path d="M465.317 52.5116H456.979V44.0127C456.979 38.913 464.796 38.4434 465.317 44.161V52.5116Z" fill="#FFBF00"/>
<ellipse cx="461.148" cy="36.1883" rx="4.16933" ry="3.84064" fill="#FFBF00"/>
<path d="M304.145 52.1639H295.807V43.6651C295.807 38.5654 303.624 38.0957 304.145 43.8134V52.1639Z" fill="#FFBF00"/>
<ellipse cx="299.976" cy="35.8406" rx="4.16933" ry="3.84064" fill="#FFBF00"/>
<path d="M316.55 52.1639H308.211V43.6651C308.211 38.5654 316.029 38.0957 316.55 43.8134V52.1639Z" fill="#FFBF00"/>
<ellipse cx="312.38" cy="35.8406" rx="4.16933" ry="3.84064" fill="#FFBF00"/>
<path d="M328.954 52.1639H320.615V43.6651C320.615 38.5654 328.433 38.0957 328.954 43.8134V52.1639Z" fill="#FFBF00"/>
<ellipse cx="324.785" cy="35.8406" rx="4.16933" ry="3.84064" fill="#FFBF00"/>
<path d="M341.358 52.1639H333.02V43.6651C333.02 38.5654 340.837 38.0957 341.358 43.8134V52.1639Z" fill="#FFBF00"/>
<ellipse cx="337.189" cy="35.8406" rx="4.16933" ry="3.84064" fill="#FFBF00"/>
<path d="M353.763 52.1639H345.424V43.6651C345.424 38.5654 353.241 38.0957 353.763 43.8134V52.1639Z" fill="#FFBF00"/>
<ellipse cx="349.593" cy="35.8406" rx="4.16933" ry="3.84064" fill="#FFBF00"/>
<path d="M366.165 52.1639H357.826V43.6651C357.826 38.5654 365.644 38.0957 366.165 43.8134V52.1639Z" fill="#FFBF00"/>
<ellipse cx="361.996" cy="35.8406" rx="4.16933" ry="3.84064" fill="#FFBF00"/>
<path d="M378.569 52.1639H370.231V43.6651C370.231 38.5654 378.048 38.0957 378.569 43.8134V52.1639Z" fill="#FFBF00"/>
<ellipse cx="374.4" cy="35.8406" rx="4.16933" ry="3.84064" fill="#FFBF00"/>
<path d="M390.972 52.1639H382.633V43.6651C382.633 38.5654 390.45 38.0957 390.972 43.8134V52.1639Z" fill="#FFBF00"/>
<ellipse cx="386.802" cy="35.8406" rx="4.16933" ry="3.84064" fill="#FFBF00"/>
<rect y="59.9996" width="129" height="31" rx="5" fill="white"/>
<path d="M140.999 60.3506L125.963 73.5102L116.742 60.3509L140.999 60.3506Z" fill="white"/>
<path d="M11.1277 69.0836V82H9.56363V69.0836H11.1277ZM15.3738 69.0836V70.2189C15.3738 70.5636 15.3107 70.9315 15.1846 71.3226C15.0627 71.7094 14.8819 72.0857 14.6422 72.4515C14.4067 72.8131 14.1208 73.1284 13.7845 73.3975L12.9772 72.7416C13.2421 72.3632 13.4712 71.9701 13.6646 71.5622C13.8623 71.1502 13.9611 70.7108 13.9611 70.2441V69.0836H15.3738ZM16.9584 82V72.3127H18.3963V73.8264H18.5225C18.7243 73.3092 19.0501 72.9077 19.5 72.6218C19.9499 72.3316 20.4902 72.1866 21.1209 72.1866C21.76 72.1866 22.2918 72.3316 22.7165 72.6218C23.1454 72.9077 23.4796 73.3092 23.7193 73.8264H23.8202C24.0683 73.326 24.4404 72.9287 24.9365 72.6344C25.4326 72.3359 26.0276 72.1866 26.7213 72.1866C27.5875 72.1866 28.2959 72.4578 28.8467 73.0002C29.3975 73.5384 29.6729 74.3772 29.6729 75.5166V82H28.1845V75.5166C28.1845 74.8018 27.989 74.291 27.598 73.984C27.207 73.6771 26.7466 73.5236 26.2168 73.5236C25.5357 73.5236 25.008 73.7297 24.6338 74.1417C24.2596 74.5495 24.0725 75.0667 24.0725 75.6932V82H22.5588V75.3652C22.5588 74.8144 22.3801 74.3709 22.0228 74.0345C21.6654 73.6939 21.205 73.5236 20.6416 73.5236C20.2547 73.5236 19.8932 73.6266 19.5568 73.8327C19.2246 74.0387 18.9555 74.3246 18.7495 74.6904C18.5477 75.052 18.4468 75.4703 18.4468 75.9455V82H16.9584ZM37.5911 82V69.0836H41.9555C42.9687 69.0836 43.797 69.2665 44.4403 69.6323C45.0878 69.9939 45.5672 70.4837 45.8783 71.1018C46.1894 71.7199 46.345 72.4094 46.345 73.1705C46.345 73.9315 46.1894 74.6231 45.8783 75.2454C45.5714 75.8677 45.0962 76.3638 44.453 76.7338C43.8097 77.0996 42.9856 77.2825 41.9807 77.2825H38.8525V75.895H41.9302C42.624 75.895 43.1811 75.7752 43.6015 75.5355C44.022 75.2959 44.3268 74.9721 44.516 74.5643C44.7094 74.1522 44.8061 73.6876 44.8061 73.1705C44.8061 72.6533 44.7094 72.1908 44.516 71.783C44.3268 71.3751 44.0199 71.0556 43.5952 70.8243C43.1706 70.5889 42.6072 70.4711 41.905 70.4711H39.1552V82H37.5911ZM51.5134 82.227C50.8996 82.227 50.3425 82.1114 49.8421 81.8802C49.3418 81.6447 48.9445 81.3062 48.6501 80.8648C48.3558 80.4191 48.2087 79.8809 48.2087 79.2502C48.2087 78.6952 48.318 78.2453 48.5366 77.9006C48.7553 77.5516 49.0475 77.2783 49.4133 77.0807C49.7791 76.8831 50.1827 76.7359 50.6242 76.6392C51.0699 76.5383 51.5176 76.4584 51.9675 76.3995C52.5562 76.3239 53.0334 76.2671 53.3992 76.2293C53.7692 76.1872 54.0383 76.1178 54.2064 76.0211C54.3788 75.9244 54.465 75.7562 54.465 75.5166V75.4661C54.465 74.8439 54.2947 74.3603 53.9542 74.0156C53.6178 73.6708 53.107 73.4984 52.4216 73.4984C51.711 73.4984 51.1539 73.654 50.7503 73.9651C50.3467 74.2762 50.0629 74.6084 49.8989 74.9616L48.4862 74.457C48.7384 73.8684 49.0748 73.4101 49.4953 73.0822C49.9199 72.75 50.3824 72.5187 50.8828 72.3884C51.3873 72.2539 51.8834 72.1866 52.3712 72.1866C52.6823 72.1866 53.0397 72.2244 53.4433 72.3001C53.8512 72.3716 54.2443 72.5209 54.6227 72.7479C55.0053 72.9749 55.3228 73.3176 55.575 73.7759C55.8273 74.2342 55.9534 74.8481 55.9534 75.6175V82H54.465V80.6882H54.3893C54.2884 80.8984 54.1203 81.1234 53.8848 81.363C53.6493 81.6027 53.3361 81.8066 52.9451 81.9748C52.5541 82.143 52.0768 82.227 51.5134 82.227ZM51.7405 80.89C52.3291 80.89 52.8253 80.7744 53.2289 80.5431C53.6367 80.3119 53.9437 80.0134 54.1497 79.6476C54.3599 79.2818 54.465 78.897 54.465 78.4934V77.1311C54.402 77.2068 54.2632 77.2762 54.0488 77.3393C53.8385 77.3981 53.5947 77.4507 53.3172 77.4969C53.0439 77.539 52.7769 77.5768 52.5162 77.6105C52.2597 77.6399 52.0516 77.6651 51.8918 77.6861C51.505 77.7366 51.1434 77.8186 50.8071 77.9321C50.4749 78.0414 50.2058 78.2075 49.9998 78.4303C49.798 78.649 49.6971 78.9475 49.6971 79.3259C49.6971 79.8431 49.8884 80.2341 50.271 80.499C50.6578 80.7597 51.1476 80.89 51.7405 80.89ZM60.0576 78.4682L60.0324 76.6266H60.3351L64.5733 72.3127H66.4149L61.8992 76.8789H61.7731L60.0576 78.4682ZM58.6701 82V69.0836H60.1585V82H58.6701ZM64.8256 82L61.0415 77.2068L62.101 76.1725L66.7176 82H64.8256ZM68.3306 82V72.3127H69.819V82H68.3306ZM69.0874 70.6982C68.7973 70.6982 68.5471 70.5994 68.3369 70.4018C68.1308 70.2041 68.0278 69.9666 68.0278 69.6891C68.0278 69.4116 68.1308 69.174 68.3369 68.9764C68.5471 68.7788 68.7973 68.68 69.0874 68.68C69.3775 68.68 69.6256 68.7788 69.8316 68.9764C70.0418 69.174 70.1469 69.4116 70.1469 69.6891C70.1469 69.9666 70.0418 70.2041 69.8316 70.4018C69.6256 70.5994 69.3775 70.6982 69.0874 70.6982ZM79.4069 74.4823L78.0699 74.8607C77.9858 74.6378 77.8617 74.4213 77.6978 74.2111C77.538 73.9966 77.3194 73.8201 77.0419 73.6813C76.7644 73.5426 76.4091 73.4732 75.976 73.4732C75.3832 73.4732 74.8891 73.6098 74.4939 73.8831C74.1029 74.1522 73.9074 74.4949 73.9074 74.9111C73.9074 75.2811 74.0419 75.5734 74.311 75.7878C74.5801 76.0022 75.0006 76.1809 75.5724 76.3239L77.0103 76.677C77.8765 76.8873 78.5219 77.2089 78.9465 77.642C79.3712 78.0709 79.5835 78.6237 79.5835 79.3007C79.5835 79.8557 79.4237 80.3518 79.1042 80.7891C78.7888 81.2264 78.3474 81.5711 77.7798 81.8234C77.2121 82.0757 76.552 82.2018 75.7994 82.2018C74.8113 82.2018 73.9936 81.9874 73.3461 81.5585C72.6986 81.1297 72.2886 80.5032 72.1162 79.6791L73.529 79.3259C73.6635 79.8473 73.9179 80.2383 74.2921 80.499C74.6705 80.7597 75.1645 80.89 75.7742 80.89C76.4679 80.89 77.0187 80.7428 77.4266 80.4485C77.8386 80.15 78.0446 79.7926 78.0446 79.3764C78.0446 79.04 77.9269 78.7583 77.6915 78.5312C77.456 78.3 77.0944 78.1276 76.6067 78.0141L74.9921 77.6357C74.105 77.4255 73.4533 77.0996 73.037 76.6581C72.625 76.2124 72.419 75.6553 72.419 74.9868C72.419 74.4402 72.5724 73.9567 72.8794 73.5362C73.1905 73.1158 73.6131 72.7857 74.147 72.5461C74.6852 72.3064 75.2949 72.1866 75.976 72.1866C76.9346 72.1866 77.6873 72.3968 78.2338 72.8173C78.7846 73.2377 79.1757 73.7927 79.4069 74.4823ZM86.037 72.3127V73.5741H81.0167V72.3127H86.037ZM82.4799 69.9918H83.9683V79.225C83.9683 79.6455 84.0293 79.9608 84.1512 80.171C84.2774 80.377 84.4371 80.5158 84.6305 80.5873C84.8282 80.6545 85.0363 80.6882 85.2549 80.6882C85.4189 80.6882 85.5534 80.6798 85.6585 80.663C85.7637 80.6419 85.8478 80.6251 85.9108 80.6125L86.2135 81.9495C86.1126 81.9874 85.9718 82.0252 85.791 82.0631C85.6102 82.1051 85.381 82.1261 85.1035 82.1261C84.6831 82.1261 84.271 82.0357 83.8674 81.8549C83.468 81.6741 83.1358 81.3987 82.8709 81.0287C82.6103 80.6587 82.4799 80.192 82.4799 79.6286V69.9918ZM91.1266 82.227C90.5127 82.227 89.9556 82.1114 89.4553 81.8802C88.9549 81.6447 88.5576 81.3062 88.2633 80.8648C87.9689 80.4191 87.8218 79.8809 87.8218 79.2502C87.8218 78.6952 87.9311 78.2453 88.1497 77.9006C88.3684 77.5516 88.6606 77.2783 89.0264 77.0807C89.3922 76.8831 89.7958 76.7359 90.2373 76.6392C90.683 76.5383 91.1308 76.4584 91.5807 76.3995C92.1693 76.3239 92.6465 76.2671 93.0123 76.2293C93.3823 76.1872 93.6514 76.1178 93.8196 76.0211C93.992 75.9244 94.0782 75.7562 94.0782 75.5166V75.4661C94.0782 74.8439 93.9079 74.3603 93.5673 74.0156C93.2309 73.6708 92.7201 73.4984 92.0347 73.4984C91.3242 73.4984 90.7671 73.654 90.3634 73.9651C89.9598 74.2762 89.676 74.6084 89.512 74.9616L88.0993 74.457C88.3516 73.8684 88.6879 73.4101 89.1084 73.0822C89.533 72.75 89.9955 72.5187 90.4959 72.3884C91.0004 72.2539 91.4966 72.1866 91.9843 72.1866C92.2954 72.1866 92.6528 72.2244 93.0564 72.3001C93.4643 72.3716 93.8574 72.5209 94.2358 72.7479C94.6184 72.9749 94.9359 73.3176 95.1882 73.7759C95.4404 74.2342 95.5666 74.8481 95.5666 75.6175V82H94.0782V80.6882H94.0025C93.9016 80.8984 93.7334 81.1234 93.4979 81.363C93.2625 81.6027 92.9492 81.8066 92.5582 81.9748C92.1672 82.143 91.69 82.227 91.1266 82.227ZM91.3536 80.89C91.9422 80.89 92.4384 80.7744 92.842 80.5431C93.2499 80.3119 93.5568 80.0134 93.7628 79.6476C93.973 79.2818 94.0782 78.897 94.0782 78.4934V77.1311C94.0151 77.2068 93.8763 77.2762 93.6619 77.3393C93.4517 77.3981 93.2078 77.4507 92.9303 77.4969C92.657 77.539 92.39 77.5768 92.1293 77.6105C91.8729 77.6399 91.6647 77.6651 91.505 77.6861C91.1182 77.7366 90.7566 77.8186 90.4202 77.9321C90.088 78.0414 89.8189 78.2075 89.6129 78.4303C89.4111 78.649 89.3102 78.9475 89.3102 79.3259C89.3102 79.8431 89.5015 80.2341 89.8841 80.499C90.2709 80.7597 90.7608 80.89 91.3536 80.89ZM99.7716 76.1725V82H98.2832V72.3127H99.7212V73.8264H99.8473C100.074 73.3344 100.419 72.9392 100.882 72.6407C101.344 72.338 101.941 72.1866 102.673 72.1866C103.329 72.1866 103.903 72.3211 104.395 72.5902C104.886 72.8551 105.269 73.2587 105.542 73.8011C105.816 74.3393 105.952 75.0205 105.952 75.8445V82H104.464V75.9455C104.464 75.1844 104.266 74.5916 103.871 74.1669C103.476 73.7381 102.933 73.5236 102.244 73.5236C101.769 73.5236 101.344 73.6266 100.97 73.8327C100.6 74.0387 100.308 74.3393 100.093 74.7345C99.8788 75.1298 99.7716 75.6091 99.7716 76.1725ZM108.672 82V72.3127H110.161V82H108.672ZM109.429 70.6982C109.139 70.6982 108.889 70.5994 108.678 70.4018C108.472 70.2041 108.369 69.9666 108.369 69.6891C108.369 69.4116 108.472 69.174 108.678 68.9764C108.889 68.7788 109.139 68.68 109.429 68.68C109.719 68.68 109.967 68.7788 110.173 68.9764C110.383 69.174 110.488 69.4116 110.488 69.6891C110.488 69.9666 110.383 70.2041 110.173 70.4018C109.967 70.5994 109.719 70.6982 109.429 70.6982ZM114.854 69.0836L114.728 78.3673H113.265L113.139 69.0836H114.854ZM113.997 82.1009C113.686 82.1009 113.419 81.9895 113.196 81.7666C112.973 81.5438 112.861 81.2768 112.861 80.9657C112.861 80.6545 112.973 80.3876 113.196 80.1647C113.419 79.9419 113.686 79.8305 113.997 79.8305C114.308 79.8305 114.575 79.9419 114.798 80.1647C115.02 80.3876 115.132 80.6545 115.132 80.9657C115.132 81.1717 115.079 81.3609 114.974 81.5333C114.873 81.7057 114.737 81.8444 114.564 81.9495C114.396 82.0505 114.207 82.1009 113.997 82.1009Z" fill="black"/>
<rect width="113" height="26" rx="5" transform="matrix(-1 0 0 1 128 19.0002)" fill="white"/>
<path d="M124.986 19L123.849 33.8493L138 34.2678L124.986 19Z" fill="white"/>
<path d="M24.1277 26.0838V39.0002H22.5636V26.0838H24.1277ZM28.3738 26.0838V27.219C28.3738 27.5638 28.3107 27.9317 28.1846 28.3227C28.0627 28.7096 27.8819 29.0859 27.6422 29.4517C27.4067 29.8133 27.1208 30.1286 26.7845 30.3977L25.9772 29.7418C26.2421 29.3634 26.4712 28.9702 26.6646 28.5624C26.8623 28.1504 26.9611 27.711 26.9611 27.2443V26.0838H28.3738ZM29.9584 39.0002V29.3129H31.3963V30.8265H31.5225C31.7243 30.3094 32.0501 29.9079 32.5 29.6219C32.9499 29.3318 33.4902 29.1868 34.1209 29.1868C34.76 29.1868 35.2918 29.3318 35.7165 29.6219C36.1454 29.9079 36.4796 30.3094 36.7193 30.8265H36.8202C37.0683 30.3262 37.4404 29.9289 37.9365 29.6346C38.4326 29.336 39.0276 29.1868 39.7213 29.1868C40.5875 29.1868 41.2959 29.458 41.8467 30.0004C42.3975 30.5385 42.6729 31.3773 42.6729 32.5168V39.0002H41.1845V32.5168C41.1845 31.802 40.989 31.2911 40.598 30.9842C40.207 30.6773 39.7466 30.5238 39.2168 30.5238C38.5357 30.5238 38.008 30.7298 37.6338 31.1419C37.2596 31.5497 37.0725 32.0669 37.0725 32.6934V39.0002H35.5588V32.3654C35.5588 31.8146 35.3801 31.371 35.0228 31.0347C34.6654 30.6941 34.205 30.5238 33.6416 30.5238C33.2547 30.5238 32.8932 30.6268 32.5568 30.8329C32.2246 31.0389 31.9555 31.3248 31.7495 31.6906C31.5477 32.0522 31.4468 32.4705 31.4468 32.9456V39.0002H29.9584ZM50.5911 39.0002V26.0838H52.1552V31.8356H59.0423V26.0838H60.6064V39.0002H59.0423V33.2231H52.1552V39.0002H50.5911ZM63.5359 39.0002V29.3129H64.9738V30.8265H65.1C65.3018 30.3094 65.6276 29.9079 66.0775 29.6219C66.5274 29.3318 67.0677 29.1868 67.6984 29.1868C68.3375 29.1868 68.8693 29.3318 69.294 29.6219C69.7229 29.9079 70.0571 30.3094 70.2968 30.8265H70.3977C70.6458 30.3262 71.0179 29.9289 71.514 29.6346C72.0101 29.336 72.6051 29.1868 73.2988 29.1868C74.165 29.1868 74.8734 29.458 75.4242 30.0004C75.975 30.5385 76.2504 31.3773 76.2504 32.5168V39.0002H74.762V32.5168C74.762 31.802 74.5665 31.2911 74.1755 30.9842C73.7845 30.6773 73.3241 30.5238 72.7943 30.5238C72.1132 30.5238 71.5855 30.7298 71.2113 31.1419C70.8371 31.5497 70.65 32.0669 70.65 32.6934V39.0002H69.1363V32.3654C69.1363 31.8146 68.9576 31.371 68.6003 31.0347C68.2429 30.6941 67.7825 30.5238 67.2191 30.5238C66.8322 30.5238 66.4707 30.6268 66.1343 30.8329C65.8021 31.0389 65.533 31.3248 65.327 31.6906C65.1252 32.0522 65.0243 32.4705 65.0243 32.9456V39.0002H63.5359ZM82.9073 39.202C82.0327 39.202 81.2654 38.9939 80.6053 38.5776C79.9494 38.1614 79.4364 37.579 79.0664 36.8306C78.7006 36.0822 78.5177 35.2077 78.5177 34.207C78.5177 33.1979 78.7006 32.3171 79.0664 31.5644C79.4364 30.8118 79.9494 30.2274 80.6053 29.8111C81.2654 29.3949 82.0327 29.1868 82.9073 29.1868C83.7818 29.1868 84.547 29.3949 85.203 29.8111C85.8631 30.2274 86.376 30.8118 86.7418 31.5644C87.1118 32.3171 87.2968 33.1979 87.2968 34.207C87.2968 35.2077 87.1118 36.0822 86.7418 36.8306C86.376 37.579 85.8631 38.1614 85.203 38.5776C84.547 38.9939 83.7818 39.202 82.9073 39.202ZM82.9073 37.865C83.5716 37.865 84.1182 37.6947 84.547 37.3541C84.9759 37.0135 85.2933 36.5658 85.4994 36.0108C85.7054 35.4558 85.8084 34.8545 85.8084 34.207C85.8084 33.5595 85.7054 32.9561 85.4994 32.3969C85.2933 31.8377 84.9759 31.3858 84.547 31.041C84.1182 30.6962 83.5716 30.5238 82.9073 30.5238C82.243 30.5238 81.6964 30.6962 81.2675 31.041C80.8386 31.3858 80.5212 31.8377 80.3152 32.3969C80.1091 32.9561 80.0061 33.5595 80.0061 34.207C80.0061 34.8545 80.1091 35.4558 80.3152 36.0108C80.5212 36.5658 80.8386 37.0135 81.2675 37.3541C81.6964 37.6947 82.243 37.865 82.9073 37.865ZM91.0573 33.1727V39.0002H89.5688V29.3129H91.0068V30.8265H91.1329C91.36 30.3346 91.7048 29.9394 92.1673 29.6409C92.6298 29.3381 93.2268 29.1868 93.9584 29.1868C94.6143 29.1868 95.1882 29.3213 95.6802 29.5904C96.1721 29.8553 96.5547 30.2589 96.828 30.8013C97.1013 31.3395 97.2379 32.0206 97.2379 32.8447V39.0002H95.7495V32.9456C95.7495 32.1846 95.5519 31.5918 95.1567 31.1671C94.7615 30.7383 94.2191 30.5238 93.5295 30.5238C93.0544 30.5238 92.6298 30.6268 92.2556 30.8329C91.8856 31.0389 91.5933 31.3395 91.3789 31.7347C91.1645 32.13 91.0573 32.6093 91.0573 33.1727ZM103.868 42.8347C103.149 42.8347 102.531 42.7422 102.014 42.5572C101.497 42.3764 101.066 42.1368 100.721 41.8383C100.38 41.5439 100.109 41.2286 99.9073 40.8922L101.093 40.0597C101.228 40.2363 101.398 40.4381 101.604 40.6652C101.81 40.8964 102.092 41.0961 102.449 41.2643C102.811 41.4367 103.284 41.5229 103.868 41.5229C104.65 41.5229 105.295 41.3337 105.804 40.9553C106.313 40.5769 106.567 39.984 106.567 39.1768V37.209H106.441C106.332 37.3856 106.176 37.6043 105.974 37.865C105.777 38.1214 105.491 38.3506 105.117 38.5524C104.747 38.75 104.246 38.8488 103.616 38.8488C102.834 38.8488 102.132 38.6638 101.509 38.2938C100.891 37.9238 100.401 37.3856 100.04 36.6793C99.6824 35.9729 99.5037 35.1152 99.5037 34.1061C99.5037 33.1138 99.6782 32.2498 100.027 31.514C100.376 30.774 100.862 30.2022 101.484 29.7985C102.106 29.3907 102.825 29.1868 103.641 29.1868C104.272 29.1868 104.772 29.2919 105.142 29.5021C105.516 29.7081 105.802 29.9436 106 30.2085C106.202 30.4692 106.357 30.6836 106.466 30.8518H106.618V29.3129H108.056V39.2777C108.056 40.1102 107.867 40.7871 107.488 41.3085C107.114 41.834 106.609 42.2188 105.974 42.4626C105.344 42.7107 104.642 42.8347 103.868 42.8347ZM103.818 37.5118C104.415 37.5118 104.919 37.3751 105.331 37.1018C105.743 36.8285 106.056 36.4354 106.271 35.9225C106.485 35.4095 106.593 34.7956 106.593 34.0809C106.593 33.3829 106.487 32.7669 106.277 32.233C106.067 31.699 105.756 31.2806 105.344 30.9779C104.932 30.6752 104.423 30.5238 103.818 30.5238C103.187 30.5238 102.661 30.6836 102.241 31.0031C101.825 31.3227 101.511 31.7515 101.301 32.2897C101.095 32.8279 100.992 33.425 100.992 34.0809C100.992 34.7536 101.097 35.3485 101.307 35.8657C101.522 36.3786 101.837 36.7823 102.253 37.0766C102.674 37.3667 103.195 37.5118 103.818 37.5118ZM112.748 26.0838L112.622 35.3675H111.159L111.033 26.0838H112.748ZM111.89 39.1011C111.579 39.1011 111.312 38.9897 111.089 38.7668C110.866 38.544 110.755 38.277 110.755 37.9659C110.755 37.6547 110.866 37.3877 111.089 37.1649C111.312 36.9421 111.579 36.8306 111.89 36.8306C112.201 36.8306 112.468 36.9421 112.691 37.1649C112.914 37.3877 113.025 37.6547 113.025 37.9659C113.025 38.1719 112.973 38.3611 112.868 38.5335C112.767 38.7059 112.63 38.8446 112.458 38.9497C112.29 39.0506 112.1 39.1011 111.89 39.1011Z" fill="black"/>
<path d="M142.8 214.269C142.8 209.332 145.641 207.218 148.803 207.218C151.999 207.218 154.841 209.332 154.841 214.269C154.841 219.171 152.017 221.284 148.803 221.284C145.588 221.284 142.8 219.171 142.8 214.269ZM148.803 220.272C151.52 220.272 153.527 218.212 153.527 214.269C153.527 210.291 151.538 208.231 148.803 208.231C146.103 208.231 144.114 210.237 144.114 214.269C144.114 218.229 146.068 220.272 148.803 220.272ZM158.503 208.905H159.657V211.694H162.037V212.653H159.657V218.673C159.657 219.668 160.083 220.094 161.149 220.094C161.682 220.094 162.215 219.988 162.215 219.988V221.018C162.215 221.018 161.682 221.16 160.847 221.16C159.053 221.16 158.432 220.201 158.432 218.816V212.653H156.656V211.729H157.064C158.254 211.729 158.503 211.463 158.503 209.758V208.905ZM170.372 221V215.104C170.372 214.34 170.301 213.63 169.963 213.168C169.644 212.724 169.129 212.511 168.4 212.511C166.482 212.511 165.648 213.932 165.648 215.512V221H164.404V207.005H165.648V213.328H165.683C166.109 212.298 167.139 211.463 168.685 211.463C170.691 211.463 171.597 212.546 171.597 214.677V221H170.372ZM180.774 215.69V215.601C180.756 214.145 180.259 212.422 178.287 212.422C176.547 212.422 175.623 213.772 175.464 215.69H180.774ZM181.875 218.673C181.538 220.094 180.17 221.231 178.341 221.231C175.499 221.231 174.203 219.331 174.203 216.418C174.203 213.594 175.641 211.463 178.287 211.463C181.04 211.463 182.017 213.665 182.017 215.867V216.631H175.446C175.517 218.887 176.405 220.254 178.359 220.254C179.992 220.254 180.543 219.188 180.703 218.673H181.875ZM184.662 221V211.694H185.816V213.63H185.852C186.243 212.546 187.379 211.516 188.782 211.516H188.942V212.742H188.693C187.237 212.742 185.905 213.701 185.905 215.903V221H184.662ZM195.062 216.134C195.062 215.163 195.151 214.216 195.328 213.292C195.518 212.369 195.808 211.487 196.198 210.646C196.589 209.805 197.081 209.03 197.673 208.319H199.147C198.602 209.053 198.14 209.847 197.761 210.699C197.394 211.552 197.116 212.434 196.927 213.345C196.737 214.257 196.642 215.181 196.642 216.116C196.642 217.028 196.737 217.933 196.927 218.833C197.116 219.733 197.394 220.597 197.761 221.426C198.128 222.267 198.584 223.06 199.129 223.806H197.673C197.081 223.108 196.589 222.344 196.198 221.515C195.808 220.698 195.518 219.834 195.328 218.922C195.151 218.01 195.062 217.081 195.062 216.134ZM202.944 214.162H206.514C208.254 214.162 209.657 213.31 209.657 211.214C209.657 209.42 208.432 208.479 206.549 208.479H202.944V214.162ZM209.622 221L206.673 215.21H202.944V221H201.683V207.414H206.549C207.526 207.414 208.449 207.609 209.213 208.017C210.261 208.604 210.954 209.634 210.954 211.196C210.954 213.488 209.497 214.624 207.988 214.997V215.033L211.078 221H209.622ZM219.676 215.69V215.601C219.658 214.145 219.161 212.422 217.19 212.422C215.449 212.422 214.526 213.772 214.366 215.69H219.676ZM220.777 218.673C220.44 220.094 219.072 221.231 217.243 221.231C214.401 221.231 213.105 219.331 213.105 216.418C213.105 213.594 214.543 211.463 217.19 211.463C219.942 211.463 220.919 213.665 220.919 215.867V216.631H214.348C214.419 218.887 215.307 220.254 217.261 220.254C218.894 220.254 219.445 219.188 219.605 218.673H220.777ZM229.778 216.915V215.619C229.778 213.985 228.819 212.457 226.901 212.457C225.036 212.457 224.148 214.02 224.148 216.223C224.148 218.372 224.876 219.97 226.972 219.97C228.748 219.97 229.778 218.514 229.778 216.915ZM226.919 224.534C224.947 224.534 223.455 223.593 223.224 221.995H224.432C224.61 222.829 225.391 223.557 226.954 223.557C228.517 223.557 229.76 222.847 229.76 220.609V219.135H229.742C229.21 220.201 228.073 220.947 226.634 220.947C224.858 220.947 222.869 219.775 222.869 216.223C222.869 213.115 224.539 211.463 226.883 211.463C228.428 211.463 229.387 212.369 229.778 213.274H229.813V211.694H230.968V220.627C230.968 223.309 229.263 224.534 226.919 224.534ZM234.403 209.385V207.982H235.735V209.385H234.403ZM234.438 221V211.694H235.682V221H234.438ZM242.442 221.231C239.654 221.231 238.357 219.188 238.357 216.347C238.357 213.541 239.867 211.463 242.442 211.463C245.248 211.463 246.509 213.541 246.509 216.347C246.509 219.206 245.035 221.231 242.442 221.231ZM242.442 212.422C240.613 212.422 239.618 213.949 239.618 216.347C239.618 218.744 240.506 220.254 242.46 220.254C244.342 220.254 245.23 218.744 245.23 216.347C245.23 213.949 244.378 212.422 242.442 212.422ZM255.148 221V215.121C255.148 214.34 255.077 213.63 254.74 213.168C254.42 212.724 253.905 212.511 253.177 212.511C251.276 212.511 250.424 213.914 250.424 215.512V221H249.181V211.694H250.335V213.345H250.371C250.868 212.298 251.916 211.463 253.461 211.463C255.468 211.463 256.373 212.546 256.373 214.677V221H255.148ZM262.105 220.148C263.437 220.148 264.964 219.1 264.964 216.809V216.418C262.655 216.56 261.483 216.702 260.897 217.128C260.471 217.43 260.258 217.892 260.258 218.478C260.258 219.579 260.986 220.148 262.105 220.148ZM260.648 214.162H259.476C259.494 212.706 260.755 211.463 262.851 211.463C265.426 211.463 266.154 212.884 266.154 214.891V218.94C266.154 219.792 266.403 220.094 267.06 220.112V221.089H266.9C265.568 221.089 265.088 220.503 265.017 219.26H264.982C264.413 220.467 263.277 221.142 261.856 221.142C260.116 221.142 258.997 220.183 258.997 218.531C258.997 217.466 259.458 216.702 260.275 216.258C261.199 215.743 262.726 215.583 264.982 215.459V214.873C264.982 213.416 264.467 212.404 262.815 212.404C261.394 212.404 260.719 213.203 260.648 214.162ZM269.386 221V207.005H270.629V221H269.386ZM283.44 208.639C283.404 208.728 283.156 209.527 282.872 210.308L280.954 215.53H285.909L284.008 210.291C283.706 209.474 283.476 208.639 283.476 208.639H283.44ZM287.898 221L286.282 216.56H280.581L278.964 221H277.704L282.73 207.414H284.221L289.23 221H287.898ZM297.748 213.932H296.559C296.416 213.026 295.653 212.422 294.392 212.422C293.113 212.422 292.314 213.15 292.314 214.091C292.314 214.997 292.829 215.423 293.77 215.548L295.44 215.779C297.216 216.027 297.944 216.933 297.944 218.354C297.944 220.112 296.505 221.231 294.392 221.231C292.509 221.231 290.982 220.467 290.733 218.389H291.941C292.136 219.49 292.829 220.254 294.41 220.254C295.848 220.254 296.736 219.508 296.736 218.46C296.736 217.626 296.47 217.093 295.12 216.897L293.593 216.684C292.03 216.471 291.142 215.725 291.142 214.198C291.142 212.564 292.474 211.463 294.427 211.463C296.363 211.463 297.589 212.369 297.748 213.932ZM300.552 209.385V207.982H301.884V209.385H300.552ZM300.588 221V211.694H301.831V221H300.588ZM307.632 220.148C308.964 220.148 310.491 219.1 310.491 216.809V216.418C308.183 216.56 307.01 216.702 306.424 217.128C305.998 217.43 305.785 217.892 305.785 218.478C305.785 219.579 306.513 220.148 307.632 220.148ZM306.176 214.162H305.004C305.021 212.706 306.282 211.463 308.378 211.463C310.953 211.463 311.681 212.884 311.681 214.891V218.94C311.681 219.792 311.93 220.094 312.587 220.112V221.089H312.427C311.095 221.089 310.616 220.503 310.545 219.26H310.509C309.941 220.467 308.804 221.142 307.383 221.142C305.643 221.142 304.524 220.183 304.524 218.531C304.524 217.466 304.986 216.702 305.803 216.258C306.726 215.743 308.254 215.583 310.509 215.459V214.873C310.509 213.416 309.994 212.404 308.342 212.404C306.922 212.404 306.247 213.203 306.176 214.162ZM321.054 221V215.121C321.054 214.34 320.983 213.63 320.646 213.168C320.326 212.724 319.811 212.511 319.083 212.511C317.183 212.511 316.33 213.914 316.33 215.512V221H315.087V211.694H316.241V213.345H316.277C316.774 212.298 317.822 211.463 319.367 211.463C321.374 211.463 322.28 212.546 322.28 214.677V221H321.054ZM324.585 223.078L325.313 219.064H326.894L325.509 223.078H324.585ZM339.833 215.69V215.601C339.816 214.145 339.318 212.422 337.347 212.422C335.607 212.422 334.683 213.772 334.523 215.69H339.833ZM340.935 218.673C340.597 220.094 339.23 221.231 337.4 221.231C334.559 221.231 333.262 219.331 333.262 216.418C333.262 213.594 334.701 211.463 337.347 211.463C340.1 211.463 341.077 213.665 341.077 215.867V216.631H334.505C334.576 218.887 335.464 220.254 337.418 220.254C339.052 220.254 339.603 219.188 339.762 218.673H340.935ZM344.254 208.905H345.409V211.694H347.789V212.653H345.409V218.673C345.409 219.668 345.835 220.094 346.901 220.094C347.433 220.094 347.966 219.988 347.966 219.988V221.018C347.966 221.018 347.433 221.16 346.599 221.16C344.805 221.16 344.183 220.201 344.183 218.816V212.653H342.407V211.729H342.816C344.006 211.729 344.254 211.463 344.254 209.758V208.905ZM357.238 214.287H356.013C355.906 213.345 355.142 212.44 353.686 212.44C351.892 212.44 350.827 213.896 350.827 216.329C350.827 218.727 351.644 220.236 353.633 220.236C355.373 220.236 355.906 219.082 356.066 218.141H357.256C356.972 220.183 355.533 221.231 353.615 221.231C350.916 221.231 349.548 219.331 349.548 216.418C349.548 213.576 351.058 211.445 353.668 211.445C355.356 211.445 357.007 212.227 357.238 214.287ZM359.265 221V219.313H360.953V221H359.265ZM366.718 216.134C366.718 217.081 366.623 218.01 366.434 218.922C366.256 219.834 365.972 220.698 365.581 221.515C365.202 222.344 364.711 223.108 364.107 223.806H362.651C363.195 223.06 363.651 222.267 364.018 221.426C364.385 220.597 364.664 219.733 364.853 218.833C365.042 217.933 365.137 217.028 365.137 216.116C365.137 215.181 365.042 214.257 364.853 213.345C364.664 212.434 364.385 211.552 364.018 210.699C363.651 209.847 363.189 209.053 362.633 208.319H364.107C364.711 209.03 365.202 209.805 365.581 210.646C365.972 211.487 366.256 212.369 366.434 213.292C366.623 214.216 366.718 215.163 366.718 216.134Z" fill="#C9B8DF"/>
<path d="M142.8 214.269C142.8 209.332 145.641 207.218 148.803 207.218C151.999 207.218 154.841 209.332 154.841 214.269C154.841 219.171 152.017 221.284 148.803 221.284C145.588 221.284 142.8 219.171 142.8 214.269ZM148.803 220.272C151.52 220.272 153.527 218.212 153.527 214.269C153.527 210.291 151.538 208.231 148.803 208.231C146.103 208.231 144.114 210.237 144.114 214.269C144.114 218.229 146.068 220.272 148.803 220.272ZM158.503 208.905H159.657V211.694H162.037V212.653H159.657V218.673C159.657 219.668 160.083 220.094 161.149 220.094C161.682 220.094 162.215 219.988 162.215 219.988V221.018C162.215 221.018 161.682 221.16 160.847 221.16C159.053 221.16 158.432 220.201 158.432 218.816V212.653H156.656V211.729H157.064C158.254 211.729 158.503 211.463 158.503 209.758V208.905ZM170.372 221V215.104C170.372 214.34 170.301 213.63 169.963 213.168C169.644 212.724 169.129 212.511 168.4 212.511C166.482 212.511 165.648 213.932 165.648 215.512V221H164.404V207.005H165.648V213.328H165.683C166.109 212.298 167.139 211.463 168.685 211.463C170.691 211.463 171.597 212.546 171.597 214.677V221H170.372ZM180.774 215.69V215.601C180.756 214.145 180.259 212.422 178.287 212.422C176.547 212.422 175.623 213.772 175.464 215.69H180.774ZM181.875 218.673C181.538 220.094 180.17 221.231 178.341 221.231C175.499 221.231 174.203 219.331 174.203 216.418C174.203 213.594 175.641 211.463 178.287 211.463C181.04 211.463 182.017 213.665 182.017 215.867V216.631H175.446C175.517 218.887 176.405 220.254 178.359 220.254C179.992 220.254 180.543 219.188 180.703 218.673H181.875ZM184.662 221V211.694H185.816V213.63H185.852C186.243 212.546 187.379 211.516 188.782 211.516H188.942V212.742H188.693C187.237 212.742 185.905 213.701 185.905 215.903V221H184.662ZM195.062 216.134C195.062 215.163 195.151 214.216 195.328 213.292C195.518 212.369 195.808 211.487 196.198 210.646C196.589 209.805 197.081 209.03 197.673 208.319H199.147C198.602 209.053 198.14 209.847 197.761 210.699C197.394 211.552 197.116 212.434 196.927 213.345C196.737 214.257 196.642 215.181 196.642 216.116C196.642 217.028 196.737 217.933 196.927 218.833C197.116 219.733 197.394 220.597 197.761 221.426C198.128 222.267 198.584 223.06 199.129 223.806H197.673C197.081 223.108 196.589 222.344 196.198 221.515C195.808 220.698 195.518 219.834 195.328 218.922C195.151 218.01 195.062 217.081 195.062 216.134ZM202.944 214.162H206.514C208.254 214.162 209.657 213.31 209.657 211.214C209.657 209.42 208.432 208.479 206.549 208.479H202.944V214.162ZM209.622 221L206.673 215.21H202.944V221H201.683V207.414H206.549C207.526 207.414 208.449 207.609 209.213 208.017C210.261 208.604 210.954 209.634 210.954 211.196C210.954 213.488 209.497 214.624 207.988 214.997V215.033L211.078 221H209.622ZM219.676 215.69V215.601C219.658 214.145 219.161 212.422 217.19 212.422C215.449 212.422 214.526 213.772 214.366 215.69H219.676ZM220.777 218.673C220.44 220.094 219.072 221.231 217.243 221.231C214.401 221.231 213.105 219.331 213.105 216.418C213.105 213.594 214.543 211.463 217.19 211.463C219.942 211.463 220.919 213.665 220.919 215.867V216.631H214.348C214.419 218.887 215.307 220.254 217.261 220.254C218.894 220.254 219.445 219.188 219.605 218.673H220.777ZM229.778 216.915V215.619C229.778 213.985 228.819 212.457 226.901 212.457C225.036 212.457 224.148 214.02 224.148 216.223C224.148 218.372 224.876 219.97 226.972 219.97C228.748 219.97 229.778 218.514 229.778 216.915ZM226.919 224.534C224.947 224.534 223.455 223.593 223.224 221.995H224.432C224.61 222.829 225.391 223.557 226.954 223.557C228.517 223.557 229.76 222.847 229.76 220.609V219.135H229.742C229.21 220.201 228.073 220.947 226.634 220.947C224.858 220.947 222.869 219.775 222.869 216.223C222.869 213.115 224.539 211.463 226.883 211.463C228.428 211.463 229.387 212.369 229.778 213.274H229.813V211.694H230.968V220.627C230.968 223.309 229.263 224.534 226.919 224.534ZM234.403 209.385V207.982H235.735V209.385H234.403ZM234.438 221V211.694H235.682V221H234.438ZM242.442 221.231C239.654 221.231 238.357 219.188 238.357 216.347C238.357 213.541 239.867 211.463 242.442 211.463C245.248 211.463 246.509 213.541 246.509 216.347C246.509 219.206 245.035 221.231 242.442 221.231ZM242.442 212.422C240.613 212.422 239.618 213.949 239.618 216.347C239.618 218.744 240.506 220.254 242.46 220.254C244.342 220.254 245.23 218.744 245.23 216.347C245.23 213.949 244.378 212.422 242.442 212.422ZM255.148 221V215.121C255.148 214.34 255.077 213.63 254.74 213.168C254.42 212.724 253.905 212.511 253.177 212.511C251.276 212.511 250.424 213.914 250.424 215.512V221H249.181V211.694H250.335V213.345H250.371C250.868 212.298 251.916 211.463 253.461 211.463C255.468 211.463 256.373 212.546 256.373 214.677V221H255.148ZM262.105 220.148C263.437 220.148 264.964 219.1 264.964 216.809V216.418C262.655 216.56 261.483 216.702 260.897 217.128C260.471 217.43 260.258 217.892 260.258 218.478C260.258 219.579 260.986 220.148 262.105 220.148ZM260.648 214.162H259.476C259.494 212.706 260.755 211.463 262.851 211.463C265.426 211.463 266.154 212.884 266.154 214.891V218.94C266.154 219.792 266.403 220.094 267.06 220.112V221.089H266.9C265.568 221.089 265.088 220.503 265.017 219.26H264.982C264.413 220.467 263.277 221.142 261.856 221.142C260.116 221.142 258.997 220.183 258.997 218.531C258.997 217.466 259.458 216.702 260.275 216.258C261.199 215.743 262.726 215.583 264.982 215.459V214.873C264.982 213.416 264.467 212.404 262.815 212.404C261.394 212.404 260.719 213.203 260.648 214.162ZM269.386 221V207.005H270.629V221H269.386ZM283.44 208.639C283.404 208.728 283.156 209.527 282.872 210.308L280.954 215.53H285.909L284.008 210.291C283.706 209.474 283.476 208.639 283.476 208.639H283.44ZM287.898 221L286.282 216.56H280.581L278.964 221H277.704L282.73 207.414H284.221L289.23 221H287.898ZM297.748 213.932H296.559C296.416 213.026 295.653 212.422 294.392 212.422C293.113 212.422 292.314 213.15 292.314 214.091C292.314 214.997 292.829 215.423 293.77 215.548L295.44 215.779C297.216 216.027 297.944 216.933 297.944 218.354C297.944 220.112 296.505 221.231 294.392 221.231C292.509 221.231 290.982 220.467 290.733 218.389H291.941C292.136 219.49 292.829 220.254 294.41 220.254C295.848 220.254 296.736 219.508 296.736 218.46C296.736 217.626 296.47 217.093 295.12 216.897L293.593 216.684C292.03 216.471 291.142 215.725 291.142 214.198C291.142 212.564 292.474 211.463 294.427 211.463C296.363 211.463 297.589 212.369 297.748 213.932ZM300.552 209.385V207.982H301.884V209.385H300.552ZM300.588 221V211.694H301.831V221H300.588ZM307.632 220.148C308.964 220.148 310.491 219.1 310.491 216.809V216.418C308.183 216.56 307.01 216.702 306.424 217.128C305.998 217.43 305.785 217.892 305.785 218.478C305.785 219.579 306.513 220.148 307.632 220.148ZM306.176 214.162H305.004C305.021 212.706 306.282 211.463 308.378 211.463C310.953 211.463 311.681 212.884 311.681 214.891V218.94C311.681 219.792 311.93 220.094 312.587 220.112V221.089H312.427C311.095 221.089 310.616 220.503 310.545 219.26H310.509C309.941 220.467 308.804 221.142 307.383 221.142C305.643 221.142 304.524 220.183 304.524 218.531C304.524 217.466 304.986 216.702 305.803 216.258C306.726 215.743 308.254 215.583 310.509 215.459V214.873C310.509 213.416 309.994 212.404 308.342 212.404C306.922 212.404 306.247 213.203 306.176 214.162ZM321.054 221V215.121C321.054 214.34 320.983 213.63 320.646 213.168C320.326 212.724 319.811 212.511 319.083 212.511C317.183 212.511 316.33 213.914 316.33 215.512V221H315.087V211.694H316.241V213.345H316.277C316.774 212.298 317.822 211.463 319.367 211.463C321.374 211.463 322.28 212.546 322.28 214.677V221H321.054ZM324.585 223.078L325.313 219.064H326.894L325.509 223.078H324.585ZM339.833 215.69V215.601C339.816 214.145 339.318 212.422 337.347 212.422C335.607 212.422 334.683 213.772 334.523 215.69H339.833ZM340.935 218.673C340.597 220.094 339.23 221.231 337.4 221.231C334.559 221.231 333.262 219.331 333.262 216.418C333.262 213.594 334.701 211.463 337.347 211.463C340.1 211.463 341.077 213.665 341.077 215.867V216.631H334.505C334.576 218.887 335.464 220.254 337.418 220.254C339.052 220.254 339.603 219.188 339.762 218.673H340.935ZM344.254 208.905H345.409V211.694H347.789V212.653H345.409V218.673C345.409 219.668 345.835 220.094 346.901 220.094C347.433 220.094 347.966 219.988 347.966 219.988V221.018C347.966 221.018 347.433 221.16 346.599 221.16C344.805 221.16 344.183 220.201 344.183 218.816V212.653H342.407V211.729H342.816C344.006 211.729 344.254 211.463 344.254 209.758V208.905ZM357.238 214.287H356.013C355.906 213.345 355.142 212.44 353.686 212.44C351.892 212.44 350.827 213.896 350.827 216.329C350.827 218.727 351.644 220.236 353.633 220.236C355.373 220.236 355.906 219.082 356.066 218.141H357.256C356.972 220.183 355.533 221.231 353.615 221.231C350.916 221.231 349.548 219.331 349.548 216.418C349.548 213.576 351.058 211.445 353.668 211.445C355.356 211.445 357.007 212.227 357.238 214.287ZM359.265 221V219.313H360.953V221H359.265ZM366.718 216.134C366.718 217.081 366.623 218.01 366.434 218.922C366.256 219.834 365.972 220.698 365.581 221.515C365.202 222.344 364.711 223.108 364.107 223.806H362.651C363.195 223.06 363.651 222.267 364.018 221.426C364.385 220.597 364.664 219.733 364.853 218.833C365.042 217.933 365.137 217.028 365.137 216.116C365.137 215.181 365.042 214.257 364.853 213.345C364.664 212.434 364.385 211.552 364.018 210.699C363.651 209.847 363.189 209.053 362.633 208.319H364.107C364.711 209.03 365.202 209.805 365.581 210.646C365.972 211.487 366.256 212.369 366.434 213.292C366.623 214.216 366.718 215.163 366.718 216.134Z" fill="black"/>
<path d="M152.866 110.639C152.83 110.728 152.581 111.527 152.297 112.308L150.379 117.53H155.334L153.434 112.291C153.132 111.474 152.901 110.639 152.901 110.639H152.866ZM157.323 123L155.707 118.56H150.006L148.39 123H147.129L152.155 109.414H153.647L158.655 123H157.323ZM167.174 115.932H165.984C165.842 115.026 165.078 114.422 163.817 114.422C162.539 114.422 161.739 115.15 161.739 116.091C161.739 116.997 162.254 117.423 163.196 117.548L164.865 117.779C166.641 118.027 167.369 118.933 167.369 120.354C167.369 122.112 165.931 123.231 163.817 123.231C161.935 123.231 160.407 122.467 160.159 120.389H161.366C161.562 121.49 162.254 122.254 163.835 122.254C165.274 122.254 166.162 121.508 166.162 120.46C166.162 119.626 165.895 119.093 164.546 118.897L163.018 118.684C161.455 118.471 160.567 117.725 160.567 116.198C160.567 114.564 161.899 113.463 163.853 113.463C165.789 113.463 167.014 114.369 167.174 115.932ZM169.978 111.385V109.982H171.31V111.385H169.978ZM170.013 123V113.694H171.256V123H170.013ZM177.058 122.148C178.39 122.148 179.917 121.1 179.917 118.809V118.418C177.608 118.56 176.436 118.702 175.85 119.128C175.424 119.43 175.211 119.892 175.211 120.478C175.211 121.579 175.939 122.148 177.058 122.148ZM175.601 116.162H174.429C174.447 114.706 175.708 113.463 177.804 113.463C180.379 113.463 181.107 114.884 181.107 116.891V120.94C181.107 121.792 181.355 122.094 182.013 122.112V123.089H181.853C180.521 123.089 180.041 122.503 179.97 121.26H179.935C179.366 122.467 178.23 123.142 176.809 123.142C175.068 123.142 173.95 122.183 173.95 120.531C173.95 119.466 174.411 118.702 175.228 118.258C176.152 117.743 177.679 117.583 179.935 117.459V116.873C179.935 115.416 179.42 114.404 177.768 114.404C176.347 114.404 175.672 115.203 175.601 116.162ZM190.48 123V117.121C190.48 116.34 190.409 115.63 190.071 115.168C189.752 114.724 189.237 114.511 188.508 114.511C186.608 114.511 185.756 115.914 185.756 117.512V123H184.512V113.694H185.667V115.345H185.702C186.2 114.298 187.248 113.463 188.793 113.463C190.8 113.463 191.705 114.546 191.705 116.677V123H190.48ZM203.096 123.231C200.307 123.231 199.011 121.188 199.011 118.347C199.011 115.541 200.52 113.463 203.096 113.463C205.902 113.463 207.163 115.541 207.163 118.347C207.163 121.206 205.689 123.231 203.096 123.231ZM203.096 114.422C201.266 114.422 200.272 115.949 200.272 118.347C200.272 120.744 201.16 122.254 203.113 122.254C204.996 122.254 205.884 120.744 205.884 118.347C205.884 115.949 205.032 114.422 203.096 114.422ZM209.834 123V113.694H210.989V115.63H211.024C211.415 114.546 212.552 113.516 213.955 113.516H214.115V114.742H213.866C212.41 114.742 211.078 115.701 211.078 117.903V123H209.834ZM225.917 110.639C225.882 110.728 225.633 111.527 225.349 112.308L223.431 117.53H228.386L226.486 112.291C226.184 111.474 225.953 110.639 225.953 110.639H225.917ZM230.375 123L228.759 118.56H223.058L221.442 123H220.181L225.207 109.414H226.699L231.707 123H230.375ZM240.226 115.932H239.036C238.894 115.026 238.13 114.422 236.869 114.422C235.591 114.422 234.791 115.15 234.791 116.091C234.791 116.997 235.306 117.423 236.248 117.548L237.917 117.779C239.693 118.027 240.421 118.933 240.421 120.354C240.421 122.112 238.983 123.231 236.869 123.231C234.987 123.231 233.459 122.467 233.211 120.389H234.418C234.614 121.49 235.306 122.254 236.887 122.254C238.326 122.254 239.214 121.508 239.214 120.46C239.214 119.626 238.947 119.093 237.597 118.897L236.07 118.684C234.507 118.471 233.619 117.725 233.619 116.198C233.619 114.564 234.951 113.463 236.905 113.463C238.841 113.463 240.066 114.369 240.226 115.932ZM243.029 111.385V109.982H244.361V111.385H243.029ZM243.065 123V113.694H244.308V123H243.065ZM250.109 122.148C251.441 122.148 252.969 121.1 252.969 118.809V118.418C250.66 118.56 249.488 118.702 248.902 119.128C248.476 119.43 248.262 119.892 248.262 120.478C248.262 121.579 248.991 122.148 250.109 122.148ZM248.653 116.162H247.481C247.499 114.706 248.76 113.463 250.855 113.463C253.431 113.463 254.159 114.884 254.159 116.891V120.94C254.159 121.792 254.407 122.094 255.064 122.112V123.089H254.905C253.573 123.089 253.093 122.503 253.022 121.26H252.987C252.418 122.467 251.282 123.142 249.861 123.142C248.12 123.142 247.001 122.183 247.001 120.531C247.001 119.466 247.463 118.702 248.28 118.258C249.204 117.743 250.731 117.583 252.987 117.459V116.873C252.987 115.416 252.472 114.404 250.82 114.404C249.399 114.404 248.724 115.203 248.653 116.162ZM263.532 123V117.121C263.532 116.34 263.461 115.63 263.123 115.168C262.804 114.724 262.289 114.511 261.56 114.511C259.66 114.511 258.808 115.914 258.808 117.512V123H257.564V113.694H258.719V115.345H258.754C259.252 114.298 260.299 113.463 261.845 113.463C263.851 113.463 264.757 114.546 264.757 116.677V123H263.532ZM277.515 110.639C277.48 110.728 277.231 111.527 276.947 112.308L275.029 117.53H279.984L278.083 112.291C277.781 111.474 277.551 110.639 277.551 110.639H277.515ZM281.973 123L280.357 118.56H274.656L273.04 123H271.779L276.805 109.414H278.297L283.305 123H281.973ZM285.679 123V113.694H286.833V115.345H286.868C287.348 114.298 288.414 113.463 289.941 113.463C291.38 113.463 292.392 114.067 292.712 115.47H292.747C293.209 114.369 294.328 113.463 295.891 113.463C297.88 113.463 298.803 114.546 298.803 116.677V123H297.578V117.121C297.578 116.34 297.507 115.63 297.169 115.15C296.85 114.706 296.335 114.511 295.606 114.511C293.688 114.511 292.854 115.914 292.854 117.512V123H291.628V117.104C291.628 116.34 291.557 115.63 291.22 115.168C290.9 114.724 290.403 114.511 289.675 114.511C287.756 114.511 286.922 115.914 286.922 117.494V123H285.679ZM307.98 117.69V117.601C307.962 116.145 307.465 114.422 305.493 114.422C303.753 114.422 302.829 115.772 302.669 117.69H307.98ZM309.081 120.673C308.743 122.094 307.376 123.231 305.546 123.231C302.705 123.231 301.408 121.331 301.408 118.418C301.408 115.594 302.847 113.463 305.493 113.463C308.246 113.463 309.223 115.665 309.223 117.867V118.631H302.652C302.723 120.887 303.611 122.254 305.564 122.254C307.198 122.254 307.749 121.188 307.909 120.673H309.081ZM311.868 123V113.694H313.022V115.63H313.058C313.448 114.546 314.585 113.516 315.988 113.516H316.148V114.742H315.899C314.443 114.742 313.111 115.701 313.111 117.903V123H311.868ZM318.544 111.385V109.982H319.876V111.385H318.544ZM318.58 123V113.694H319.823V123H318.58ZM330.188 116.287H328.963C328.856 115.345 328.093 114.44 326.636 114.44C324.843 114.44 323.777 115.896 323.777 118.329C323.777 120.727 324.594 122.236 326.583 122.236C328.324 122.236 328.856 121.082 329.016 120.141H330.206C329.922 122.183 328.484 123.231 326.565 123.231C323.866 123.231 322.498 121.331 322.498 118.418C322.498 115.576 324.008 113.445 326.619 113.445C328.306 113.445 329.958 114.227 330.188 116.287ZM335.215 122.148C336.547 122.148 338.075 121.1 338.075 118.809V118.418C335.766 118.56 334.594 118.702 334.008 119.128C333.581 119.43 333.368 119.892 333.368 120.478C333.368 121.579 334.096 122.148 335.215 122.148ZM333.759 116.162H332.587C332.605 114.706 333.865 113.463 335.961 113.463C338.536 113.463 339.265 114.884 339.265 116.891V120.94C339.265 121.792 339.513 122.094 340.17 122.112V123.089H340.01C338.678 123.089 338.199 122.503 338.128 121.26H338.092C337.524 122.467 336.387 123.142 334.967 123.142C333.226 123.142 332.107 122.183 332.107 120.531C332.107 119.466 332.569 118.702 333.386 118.258C334.309 117.743 335.837 117.583 338.092 117.459V116.873C338.092 115.416 337.577 114.404 335.926 114.404C334.505 114.404 333.83 115.203 333.759 116.162ZM348.637 123V117.121C348.637 116.34 348.566 115.63 348.229 115.168C347.909 114.724 347.394 114.511 346.666 114.511C344.766 114.511 343.913 115.914 343.913 117.512V123H342.67V113.694H343.825V115.345H343.86C344.357 114.298 345.405 113.463 346.95 113.463C348.957 113.463 349.863 114.546 349.863 116.677V123H348.637Z" fill="#C9B8DF"/>
<path d="M152.866 110.639C152.83 110.728 152.581 111.527 152.297 112.308L150.379 117.53H155.334L153.434 112.291C153.132 111.474 152.901 110.639 152.901 110.639H152.866ZM157.323 123L155.707 118.56H150.006L148.39 123H147.129L152.155 109.414H153.647L158.655 123H157.323ZM167.174 115.932H165.984C165.842 115.026 165.078 114.422 163.817 114.422C162.539 114.422 161.739 115.15 161.739 116.091C161.739 116.997 162.254 117.423 163.196 117.548L164.865 117.779C166.641 118.027 167.369 118.933 167.369 120.354C167.369 122.112 165.931 123.231 163.817 123.231C161.935 123.231 160.407 122.467 160.159 120.389H161.366C161.562 121.49 162.254 122.254 163.835 122.254C165.274 122.254 166.162 121.508 166.162 120.46C166.162 119.626 165.895 119.093 164.546 118.897L163.018 118.684C161.455 118.471 160.567 117.725 160.567 116.198C160.567 114.564 161.899 113.463 163.853 113.463C165.789 113.463 167.014 114.369 167.174 115.932ZM169.978 111.385V109.982H171.31V111.385H169.978ZM170.013 123V113.694H171.256V123H170.013ZM177.058 122.148C178.39 122.148 179.917 121.1 179.917 118.809V118.418C177.608 118.56 176.436 118.702 175.85 119.128C175.424 119.43 175.211 119.892 175.211 120.478C175.211 121.579 175.939 122.148 177.058 122.148ZM175.601 116.162H174.429C174.447 114.706 175.708 113.463 177.804 113.463C180.379 113.463 181.107 114.884 181.107 116.891V120.94C181.107 121.792 181.355 122.094 182.013 122.112V123.089H181.853C180.521 123.089 180.041 122.503 179.97 121.26H179.935C179.366 122.467 178.23 123.142 176.809 123.142C175.068 123.142 173.95 122.183 173.95 120.531C173.95 119.466 174.411 118.702 175.228 118.258C176.152 117.743 177.679 117.583 179.935 117.459V116.873C179.935 115.416 179.42 114.404 177.768 114.404C176.347 114.404 175.672 115.203 175.601 116.162ZM190.48 123V117.121C190.48 116.34 190.409 115.63 190.071 115.168C189.752 114.724 189.237 114.511 188.508 114.511C186.608 114.511 185.756 115.914 185.756 117.512V123H184.512V113.694H185.667V115.345H185.702C186.2 114.298 187.248 113.463 188.793 113.463C190.8 113.463 191.705 114.546 191.705 116.677V123H190.48ZM203.096 123.231C200.307 123.231 199.011 121.188 199.011 118.347C199.011 115.541 200.52 113.463 203.096 113.463C205.902 113.463 207.163 115.541 207.163 118.347C207.163 121.206 205.689 123.231 203.096 123.231ZM203.096 114.422C201.266 114.422 200.272 115.949 200.272 118.347C200.272 120.744 201.16 122.254 203.113 122.254C204.996 122.254 205.884 120.744 205.884 118.347C205.884 115.949 205.032 114.422 203.096 114.422ZM209.834 123V113.694H210.989V115.63H211.024C211.415 114.546 212.552 113.516 213.955 113.516H214.115V114.742H213.866C212.41 114.742 211.078 115.701 211.078 117.903V123H209.834ZM225.917 110.639C225.882 110.728 225.633 111.527 225.349 112.308L223.431 117.53H228.386L226.486 112.291C226.184 111.474 225.953 110.639 225.953 110.639H225.917ZM230.375 123L228.759 118.56H223.058L221.442 123H220.181L225.207 109.414H226.699L231.707 123H230.375ZM240.226 115.932H239.036C238.894 115.026 238.13 114.422 236.869 114.422C235.591 114.422 234.791 115.15 234.791 116.091C234.791 116.997 235.306 117.423 236.248 117.548L237.917 117.779C239.693 118.027 240.421 118.933 240.421 120.354C240.421 122.112 238.983 123.231 236.869 123.231C234.987 123.231 233.459 122.467 233.211 120.389H234.418C234.614 121.49 235.306 122.254 236.887 122.254C238.326 122.254 239.214 121.508 239.214 120.46C239.214 119.626 238.947 119.093 237.597 118.897L236.07 118.684C234.507 118.471 233.619 117.725 233.619 116.198C233.619 114.564 234.951 113.463 236.905 113.463C238.841 113.463 240.066 114.369 240.226 115.932ZM243.029 111.385V109.982H244.361V111.385H243.029ZM243.065 123V113.694H244.308V123H243.065ZM250.109 122.148C251.441 122.148 252.969 121.1 252.969 118.809V118.418C250.66 118.56 249.488 118.702 248.902 119.128C248.476 119.43 248.262 119.892 248.262 120.478C248.262 121.579 248.991 122.148 250.109 122.148ZM248.653 116.162H247.481C247.499 114.706 248.76 113.463 250.855 113.463C253.431 113.463 254.159 114.884 254.159 116.891V120.94C254.159 121.792 254.407 122.094 255.064 122.112V123.089H254.905C253.573 123.089 253.093 122.503 253.022 121.26H252.987C252.418 122.467 251.282 123.142 249.861 123.142C248.12 123.142 247.001 122.183 247.001 120.531C247.001 119.466 247.463 118.702 248.28 118.258C249.204 117.743 250.731 117.583 252.987 117.459V116.873C252.987 115.416 252.472 114.404 250.82 114.404C249.399 114.404 248.724 115.203 248.653 116.162ZM263.532 123V117.121C263.532 116.34 263.461 115.63 263.123 115.168C262.804 114.724 262.289 114.511 261.56 114.511C259.66 114.511 258.808 115.914 258.808 117.512V123H257.564V113.694H258.719V115.345H258.754C259.252 114.298 260.299 113.463 261.845 113.463C263.851 113.463 264.757 114.546 264.757 116.677V123H263.532ZM277.515 110.639C277.48 110.728 277.231 111.527 276.947 112.308L275.029 117.53H279.984L278.083 112.291C277.781 111.474 277.551 110.639 277.551 110.639H277.515ZM281.973 123L280.357 118.56H274.656L273.04 123H271.779L276.805 109.414H278.297L283.305 123H281.973ZM285.679 123V113.694H286.833V115.345H286.868C287.348 114.298 288.414 113.463 289.941 113.463C291.38 113.463 292.392 114.067 292.712 115.47H292.747C293.209 114.369 294.328 113.463 295.891 113.463C297.88 113.463 298.803 114.546 298.803 116.677V123H297.578V117.121C297.578 116.34 297.507 115.63 297.169 115.15C296.85 114.706 296.335 114.511 295.606 114.511C293.688 114.511 292.854 115.914 292.854 117.512V123H291.628V117.104C291.628 116.34 291.557 115.63 291.22 115.168C290.9 114.724 290.403 114.511 289.675 114.511C287.756 114.511 286.922 115.914 286.922 117.494V123H285.679ZM307.98 117.69V117.601C307.962 116.145 307.465 114.422 305.493 114.422C303.753 114.422 302.829 115.772 302.669 117.69H307.98ZM309.081 120.673C308.743 122.094 307.376 123.231 305.546 123.231C302.705 123.231 301.408 121.331 301.408 118.418C301.408 115.594 302.847 113.463 305.493 113.463C308.246 113.463 309.223 115.665 309.223 117.867V118.631H302.652C302.723 120.887 303.611 122.254 305.564 122.254C307.198 122.254 307.749 121.188 307.909 120.673H309.081ZM311.868 123V113.694H313.022V115.63H313.058C313.448 114.546 314.585 113.516 315.988 113.516H316.148V114.742H315.899C314.443 114.742 313.111 115.701 313.111 117.903V123H311.868ZM318.544 111.385V109.982H319.876V111.385H318.544ZM318.58 123V113.694H319.823V123H318.58ZM330.188 116.287H328.963C328.856 115.345 328.093 114.44 326.636 114.44C324.843 114.44 323.777 115.896 323.777 118.329C323.777 120.727 324.594 122.236 326.583 122.236C328.324 122.236 328.856 121.082 329.016 120.141H330.206C329.922 122.183 328.484 123.231 326.565 123.231C323.866 123.231 322.498 121.331 322.498 118.418C322.498 115.576 324.008 113.445 326.619 113.445C328.306 113.445 329.958 114.227 330.188 116.287ZM335.215 122.148C336.547 122.148 338.075 121.1 338.075 118.809V118.418C335.766 118.56 334.594 118.702 334.008 119.128C333.581 119.43 333.368 119.892 333.368 120.478C333.368 121.579 334.096 122.148 335.215 122.148ZM333.759 116.162H332.587C332.605 114.706 333.865 113.463 335.961 113.463C338.536 113.463 339.265 114.884 339.265 116.891V120.94C339.265 121.792 339.513 122.094 340.17 122.112V123.089H340.01C338.678 123.089 338.199 122.503 338.128 121.26H338.092C337.524 122.467 336.387 123.142 334.967 123.142C333.226 123.142 332.107 122.183 332.107 120.531C332.107 119.466 332.569 118.702 333.386 118.258C334.309 117.743 335.837 117.583 338.092 117.459V116.873C338.092 115.416 337.577 114.404 335.926 114.404C334.505 114.404 333.83 115.203 333.759 116.162ZM348.637 123V117.121C348.637 116.34 348.566 115.63 348.229 115.168C347.909 114.724 347.394 114.511 346.666 114.511C344.766 114.511 343.913 115.914 343.913 117.512V123H342.67V113.694H343.825V115.345H343.86C344.357 114.298 345.405 113.463 346.95 113.463C348.957 113.463 349.863 114.546 349.863 116.677V123H348.637Z" fill="black"/>
<path d="M157.957 13.0366H156.714C156.572 11.527 155.773 10.2306 153.517 10.2306C151.546 10.2306 150.25 11.2251 150.25 12.8413C150.25 14.2976 150.924 14.9725 152.7 15.2922L154.974 15.7006C157.229 16.1091 158.366 17.3168 158.366 19.2171C158.366 21.6147 156.625 23.2842 153.446 23.2842C150.321 23.2842 148.545 21.3483 148.385 19.2171H149.664C149.859 20.709 150.907 22.2541 153.464 22.2541C156.093 22.2541 157.087 20.8866 157.087 19.3237C157.087 18.0272 156.466 17.228 154.707 16.9083L152.523 16.5176C149.859 16.0381 148.953 14.8126 148.953 12.9123C148.953 10.6746 150.853 9.21824 153.517 9.21824C156.288 9.21824 157.869 10.7101 157.957 13.0366ZM162.574 18.9507C162.574 20.6202 163.462 22.2363 165.397 22.2363C167.244 22.2363 168.168 20.6912 168.168 18.2403C168.168 16.1446 167.493 14.4574 165.433 14.4574C163.568 14.4574 162.574 15.9848 162.574 17.601V18.9507ZM161.366 26.3389V13.6938H162.538V15.3454H162.574C163.16 14.191 164.243 13.4629 165.682 13.4629C167.617 13.4629 169.429 14.6528 169.429 18.2403C169.429 21.6147 167.617 23.2309 165.486 23.2309C164.065 23.2309 162.982 22.3429 162.645 21.4549H162.609V26.3389H161.366ZM178.082 17.6898V17.601C178.064 16.1446 177.567 14.4219 175.596 14.4219C173.855 14.4219 172.932 15.7717 172.772 17.6898H178.082ZM179.183 20.6734C178.846 22.0942 177.478 23.2309 175.649 23.2309C172.807 23.2309 171.511 21.3306 171.511 18.4179C171.511 15.5941 172.95 13.4629 175.596 13.4629C178.349 13.4629 179.325 15.6651 179.325 17.8674V18.631H172.754C172.825 20.8866 173.713 22.2541 175.667 22.2541C177.301 22.2541 177.851 21.1885 178.011 20.6734H179.183ZM188.966 16.2867H187.74C187.634 15.3454 186.87 14.4397 185.414 14.4397C183.62 14.4397 182.554 15.896 182.554 18.3291C182.554 20.7267 183.371 22.2363 185.36 22.2363C187.101 22.2363 187.634 21.0819 187.793 20.1406H188.983C188.699 22.183 187.261 23.2309 185.343 23.2309C182.643 23.2309 181.275 21.3306 181.275 18.4179C181.275 15.5763 182.785 13.4451 185.396 13.4451C187.083 13.4451 188.735 14.2266 188.966 16.2867ZM191.439 11.385V9.98192H192.771V11.385H191.439ZM191.475 23V13.6938H192.718V23H191.475ZM197.844 14.6528V23H196.601V14.6528H194.789V13.6938H196.601V11.3494C196.601 9.75104 197.613 8.95184 199.194 8.95184C199.496 8.95184 199.798 8.9696 200.135 9.04064V10.0707C199.922 10.0174 199.638 9.98192 199.247 9.98192C198.288 9.98192 197.844 10.4259 197.844 11.5626V13.6938H200.206V14.6528H197.844ZM202.279 11.385V9.98192H203.611V11.385H202.279ZM202.314 23V13.6938H203.558V23H202.314ZM213.923 16.2867H212.698C212.591 15.3454 211.828 14.4397 210.371 14.4397C208.577 14.4397 207.512 15.896 207.512 18.3291C207.512 20.7267 208.329 22.2363 210.318 22.2363C212.058 22.2363 212.591 21.0819 212.751 20.1406H213.941C213.657 22.183 212.218 23.2309 210.3 23.2309C207.601 23.2309 206.233 21.3306 206.233 18.4179C206.233 15.5763 207.743 13.4451 210.353 13.4451C212.041 13.4451 213.692 14.2266 213.923 16.2867ZM226.922 17.6898V17.601C226.904 16.1446 226.407 14.4219 224.436 14.4219C222.695 14.4219 221.772 15.7717 221.612 17.6898H226.922ZM228.023 20.6734C227.686 22.0942 226.318 23.2309 224.489 23.2309C221.647 23.2309 220.351 21.3306 220.351 18.4179C220.351 15.5941 221.79 13.4629 224.436 13.4629C227.189 13.4629 228.165 15.6651 228.165 17.8674V18.631H221.594C221.665 20.8866 222.553 22.2541 224.507 22.2541C226.141 22.2541 226.691 21.1885 226.851 20.6734H228.023ZM231.343 10.9054H232.497V13.6938H234.877V14.6528H232.497V20.6734C232.497 21.668 232.924 22.0942 233.989 22.0942C234.522 22.0942 235.055 21.9877 235.055 21.9877V23.0178C235.055 23.0178 234.522 23.1598 233.687 23.1598C231.894 23.1598 231.272 22.2008 231.272 20.8155V14.6528H229.496V13.7293H229.904C231.094 13.7293 231.343 13.4629 231.343 11.7579V10.9054ZM243.212 23V17.1037C243.212 16.34 243.141 15.6296 242.804 15.1678C242.484 14.7238 241.969 14.5107 241.241 14.5107C239.323 14.5107 238.488 15.9315 238.488 17.5122V23H237.245V9.00512H238.488V15.3277H238.523C238.95 14.2976 239.98 13.4629 241.525 13.4629C243.532 13.4629 244.438 14.5462 244.438 16.6774V23H243.212ZM253.792 23V17.1214C253.792 16.34 253.721 15.6296 253.383 15.1678C253.064 14.7238 252.549 14.5107 251.82 14.5107C249.92 14.5107 249.068 15.9138 249.068 17.5122V23H247.824V13.6938H248.979V15.3454H249.014C249.512 14.2976 250.559 13.4629 252.105 13.4629C254.111 13.4629 255.017 14.5462 255.017 16.6774V23H253.792ZM258.369 11.385V9.98192H259.701V11.385H258.369ZM258.404 23V13.6938H259.647V23H258.404ZM270.013 16.2867H268.787C268.681 15.3454 267.917 14.4397 266.461 14.4397C264.667 14.4397 263.602 15.896 263.602 18.3291C263.602 20.7267 264.419 22.2363 266.408 22.2363C268.148 22.2363 268.681 21.0819 268.841 20.1406H270.031C269.747 22.183 268.308 23.2309 266.39 23.2309C263.69 23.2309 262.323 21.3306 262.323 18.4179C262.323 15.5763 263.832 13.4451 266.443 13.4451C268.13 13.4451 269.782 14.2266 270.013 16.2867ZM272.486 11.385V9.98192H273.818V11.385H272.486ZM272.522 23V13.6938H273.765V23H272.522ZM277.755 10.9054H278.909V13.6938H281.289V14.6528H278.909V20.6734C278.909 21.668 279.336 22.0942 280.401 22.0942C280.934 22.0942 281.467 21.9877 281.467 21.9877V23.0178C281.467 23.0178 280.934 23.1598 280.099 23.1598C278.305 23.1598 277.684 22.2008 277.684 20.8155V14.6528H275.908V13.7293H276.316C277.506 13.7293 277.755 13.4629 277.755 11.7579V10.9054ZM286.03 23.0178L282.798 13.6938H284.041L286.19 20.0696C286.439 20.8155 286.616 21.4194 286.616 21.4194H286.652C286.652 21.4194 286.847 20.78 287.078 20.0696L289.209 13.6938H290.435L286.972 23.7459C286.261 25.8061 285.586 26.5342 283.881 26.5342C283.437 26.5342 283.082 26.4454 282.833 26.3744V25.3443C283.135 25.4331 283.491 25.5042 283.828 25.5042C284.947 25.5042 285.338 24.9358 285.746 23.7992L286.03 23.0178Z" fill="#C9B8DF"/>
<path d="M157.957 13.0366H156.714C156.572 11.527 155.773 10.2306 153.517 10.2306C151.546 10.2306 150.25 11.2251 150.25 12.8413C150.25 14.2976 150.924 14.9725 152.7 15.2922L154.974 15.7006C157.229 16.1091 158.366 17.3168 158.366 19.2171C158.366 21.6147 156.625 23.2842 153.446 23.2842C150.321 23.2842 148.545 21.3483 148.385 19.2171H149.664C149.859 20.709 150.907 22.2541 153.464 22.2541C156.093 22.2541 157.087 20.8866 157.087 19.3237C157.087 18.0272 156.466 17.228 154.707 16.9083L152.523 16.5176C149.859 16.0381 148.953 14.8126 148.953 12.9123C148.953 10.6746 150.853 9.21824 153.517 9.21824C156.288 9.21824 157.869 10.7101 157.957 13.0366ZM162.574 18.9507C162.574 20.6202 163.462 22.2363 165.397 22.2363C167.244 22.2363 168.168 20.6912 168.168 18.2403C168.168 16.1446 167.493 14.4574 165.433 14.4574C163.568 14.4574 162.574 15.9848 162.574 17.601V18.9507ZM161.366 26.3389V13.6938H162.538V15.3454H162.574C163.16 14.191 164.243 13.4629 165.682 13.4629C167.617 13.4629 169.429 14.6528 169.429 18.2403C169.429 21.6147 167.617 23.2309 165.486 23.2309C164.065 23.2309 162.982 22.3429 162.645 21.4549H162.609V26.3389H161.366ZM178.082 17.6898V17.601C178.064 16.1446 177.567 14.4219 175.596 14.4219C173.855 14.4219 172.932 15.7717 172.772 17.6898H178.082ZM179.183 20.6734C178.846 22.0942 177.478 23.2309 175.649 23.2309C172.807 23.2309 171.511 21.3306 171.511 18.4179C171.511 15.5941 172.95 13.4629 175.596 13.4629C178.349 13.4629 179.325 15.6651 179.325 17.8674V18.631H172.754C172.825 20.8866 173.713 22.2541 175.667 22.2541C177.301 22.2541 177.851 21.1885 178.011 20.6734H179.183ZM188.966 16.2867H187.74C187.634 15.3454 186.87 14.4397 185.414 14.4397C183.62 14.4397 182.554 15.896 182.554 18.3291C182.554 20.7267 183.371 22.2363 185.36 22.2363C187.101 22.2363 187.634 21.0819 187.793 20.1406H188.983C188.699 22.183 187.261 23.2309 185.343 23.2309C182.643 23.2309 181.275 21.3306 181.275 18.4179C181.275 15.5763 182.785 13.4451 185.396 13.4451C187.083 13.4451 188.735 14.2266 188.966 16.2867ZM191.439 11.385V9.98192H192.771V11.385H191.439ZM191.475 23V13.6938H192.718V23H191.475ZM197.844 14.6528V23H196.601V14.6528H194.789V13.6938H196.601V11.3494C196.601 9.75104 197.613 8.95184 199.194 8.95184C199.496 8.95184 199.798 8.9696 200.135 9.04064V10.0707C199.922 10.0174 199.638 9.98192 199.247 9.98192C198.288 9.98192 197.844 10.4259 197.844 11.5626V13.6938H200.206V14.6528H197.844ZM202.279 11.385V9.98192H203.611V11.385H202.279ZM202.314 23V13.6938H203.558V23H202.314ZM213.923 16.2867H212.698C212.591 15.3454 211.828 14.4397 210.371 14.4397C208.577 14.4397 207.512 15.896 207.512 18.3291C207.512 20.7267 208.329 22.2363 210.318 22.2363C212.058 22.2363 212.591 21.0819 212.751 20.1406H213.941C213.657 22.183 212.218 23.2309 210.3 23.2309C207.601 23.2309 206.233 21.3306 206.233 18.4179C206.233 15.5763 207.743 13.4451 210.353 13.4451C212.041 13.4451 213.692 14.2266 213.923 16.2867ZM226.922 17.6898V17.601C226.904 16.1446 226.407 14.4219 224.436 14.4219C222.695 14.4219 221.772 15.7717 221.612 17.6898H226.922ZM228.023 20.6734C227.686 22.0942 226.318 23.2309 224.489 23.2309C221.647 23.2309 220.351 21.3306 220.351 18.4179C220.351 15.5941 221.79 13.4629 224.436 13.4629C227.189 13.4629 228.165 15.6651 228.165 17.8674V18.631H221.594C221.665 20.8866 222.553 22.2541 224.507 22.2541C226.141 22.2541 226.691 21.1885 226.851 20.6734H228.023ZM231.343 10.9054H232.497V13.6938H234.877V14.6528H232.497V20.6734C232.497 21.668 232.924 22.0942 233.989 22.0942C234.522 22.0942 235.055 21.9877 235.055 21.9877V23.0178C235.055 23.0178 234.522 23.1598 233.687 23.1598C231.894 23.1598 231.272 22.2008 231.272 20.8155V14.6528H229.496V13.7293H229.904C231.094 13.7293 231.343 13.4629 231.343 11.7579V10.9054ZM243.212 23V17.1037C243.212 16.34 243.141 15.6296 242.804 15.1678C242.484 14.7238 241.969 14.5107 241.241 14.5107C239.323 14.5107 238.488 15.9315 238.488 17.5122V23H237.245V9.00512H238.488V15.3277H238.523C238.95 14.2976 239.98 13.4629 241.525 13.4629C243.532 13.4629 244.438 14.5462 244.438 16.6774V23H243.212ZM253.792 23V17.1214C253.792 16.34 253.721 15.6296 253.383 15.1678C253.064 14.7238 252.549 14.5107 251.82 14.5107C249.92 14.5107 249.068 15.9138 249.068 17.5122V23H247.824V13.6938H248.979V15.3454H249.014C249.512 14.2976 250.559 13.4629 252.105 13.4629C254.111 13.4629 255.017 14.5462 255.017 16.6774V23H253.792ZM258.369 11.385V9.98192H259.701V11.385H258.369ZM258.404 23V13.6938H259.647V23H258.404ZM270.013 16.2867H268.787C268.681 15.3454 267.917 14.4397 266.461 14.4397C264.667 14.4397 263.602 15.896 263.602 18.3291C263.602 20.7267 264.419 22.2363 266.408 22.2363C268.148 22.2363 268.681 21.0819 268.841 20.1406H270.031C269.747 22.183 268.308 23.2309 266.39 23.2309C263.69 23.2309 262.323 21.3306 262.323 18.4179C262.323 15.5763 263.832 13.4451 266.443 13.4451C268.13 13.4451 269.782 14.2266 270.013 16.2867ZM272.486 11.385V9.98192H273.818V11.385H272.486ZM272.522 23V13.6938H273.765V23H272.522ZM277.755 10.9054H278.909V13.6938H281.289V14.6528H278.909V20.6734C278.909 21.668 279.336 22.0942 280.401 22.0942C280.934 22.0942 281.467 21.9877 281.467 21.9877V23.0178C281.467 23.0178 280.934 23.1598 280.099 23.1598C278.305 23.1598 277.684 22.2008 277.684 20.8155V14.6528H275.908V13.7293H276.316C277.506 13.7293 277.755 13.4629 277.755 11.7579V10.9054ZM286.03 23.0178L282.798 13.6938H284.041L286.19 20.0696C286.439 20.8155 286.616 21.4194 286.616 21.4194H286.652C286.652 21.4194 286.847 20.78 287.078 20.0696L289.209 13.6938H290.435L286.972 23.7459C286.261 25.8061 285.586 26.5342 283.881 26.5342C283.437 26.5342 283.082 26.4454 282.833 26.3744V25.3443C283.135 25.4331 283.491 25.5042 283.828 25.5042C284.947 25.5042 285.338 24.9358 285.746 23.7992L286.03 23.0178Z" fill="black"/>
<path d="M478.373 50.1766C477.633 50.1766 476.967 50.0294 476.374 49.7351C475.781 49.4408 475.306 49.0372 474.948 48.5242C474.591 48.0112 474.395 47.4268 474.362 46.7709H475.875C475.934 47.3553 476.199 47.8389 476.67 48.2215C477.145 48.5999 477.713 48.7891 478.373 48.7891C478.903 48.7891 479.374 48.6651 479.786 48.417C480.202 48.1689 480.528 47.8284 480.763 47.3953C481.003 46.958 481.123 46.464 481.123 45.9132C481.123 45.3498 480.999 44.8473 480.751 44.4059C480.507 43.9602 480.17 43.6091 479.742 43.3526C479.313 43.0961 478.823 42.9658 478.272 42.9616C477.877 42.9574 477.471 43.0184 477.055 43.1445C476.639 43.2664 476.296 43.4241 476.027 43.6175L474.564 43.4409L475.346 37.0836H482.056V38.4711H476.657L476.203 42.2805H476.279C476.544 42.0702 476.876 41.8957 477.276 41.757C477.675 41.6182 478.091 41.5489 478.524 41.5489C479.315 41.5489 480.019 41.7381 480.637 42.1165C481.259 42.4907 481.747 43.0036 482.1 43.6553C482.458 44.307 482.636 45.0512 482.636 45.888C482.636 46.712 482.451 47.4478 482.081 48.0953C481.716 48.7386 481.211 49.2474 480.568 49.6216C479.924 49.9916 479.193 50.1766 478.373 50.1766ZM485.142 50V48.8648L489.405 44.1977C489.905 43.6511 490.318 43.176 490.641 42.7724C490.965 42.3645 491.205 41.9819 491.36 41.6245C491.52 41.263 491.6 40.8845 491.6 40.4893C491.6 40.0352 491.491 39.6421 491.272 39.3099C491.058 38.9778 490.763 38.7213 490.389 38.5405C490.015 38.3597 489.594 38.2693 489.128 38.2693C488.632 38.2693 488.198 38.3723 487.828 38.5784C487.463 38.7802 487.179 39.064 486.977 39.4298C486.779 39.7956 486.681 40.2244 486.681 40.7164H485.192C485.192 39.9595 485.367 39.2952 485.716 38.7234C486.065 38.1516 486.54 37.7059 487.141 37.3864C487.746 37.0668 488.425 36.907 489.178 36.907C489.935 36.907 490.606 37.0668 491.19 37.3864C491.774 37.7059 492.233 38.1369 492.565 38.6793C492.897 39.2216 493.063 39.825 493.063 40.4893C493.063 40.9644 492.977 41.429 492.805 41.8831C492.636 42.333 492.342 42.8355 491.922 43.3905C491.505 43.9412 490.927 44.614 490.187 45.4086L487.286 48.5116V48.6125H493.29V50H485.142ZM502.479 47.5782V46.897C502.479 46.4261 502.576 45.9952 502.769 45.6041C502.967 45.2089 503.253 44.8936 503.627 44.6581C504.005 44.4185 504.464 44.2986 505.002 44.2986C505.549 44.2986 506.007 44.4185 506.377 44.6581C506.747 44.8936 507.026 45.2089 507.216 45.6041C507.405 45.9952 507.499 46.4261 507.499 46.897V47.5782C507.499 48.0491 507.403 48.4822 507.209 48.8774C507.02 49.2684 506.738 49.5837 506.364 49.8234C505.994 50.0589 505.54 50.1766 505.002 50.1766C504.455 50.1766 503.995 50.0589 503.621 49.8234C503.247 49.5837 502.963 49.2684 502.769 48.8774C502.576 48.4822 502.479 48.0491 502.479 47.5782ZM503.766 46.897V47.5782C503.766 47.9692 503.858 48.3203 504.043 48.6314C504.228 48.9384 504.548 49.0918 505.002 49.0918C505.443 49.0918 505.755 48.9384 505.935 48.6314C506.12 48.3203 506.213 47.9692 506.213 47.5782V46.897C506.213 46.506 506.125 46.157 505.948 45.8501C505.771 45.539 505.456 45.3834 505.002 45.3834C504.56 45.3834 504.243 45.539 504.05 45.8501C503.86 46.157 503.766 46.506 503.766 46.897ZM496.046 40.1866V39.5055C496.046 39.0345 496.143 38.6036 496.336 38.2126C496.534 37.8173 496.82 37.502 497.194 37.2665C497.572 37.0269 498.031 36.907 498.569 36.907C499.116 36.907 499.574 37.0269 499.944 37.2665C500.314 37.502 500.593 37.8173 500.783 38.2126C500.972 38.6036 501.066 39.0345 501.066 39.5055V40.1866C501.066 40.6575 500.97 41.0906 500.776 41.4858C500.587 41.8768 500.305 42.1922 499.931 42.4318C499.561 42.6673 499.107 42.785 498.569 42.785C498.022 42.785 497.562 42.6673 497.188 42.4318C496.814 42.1922 496.53 41.8768 496.336 41.4858C496.143 41.0906 496.046 40.6575 496.046 40.1866ZM497.333 39.5055V40.1866C497.333 40.5776 497.425 40.9287 497.61 41.2398C497.795 41.5468 498.115 41.7002 498.569 41.7002C499.01 41.7002 499.322 41.5468 499.502 41.2398C499.687 40.9287 499.78 40.5776 499.78 40.1866V39.5055C499.78 39.1144 499.692 38.7655 499.515 38.4585C499.338 38.1474 499.023 37.9918 498.569 37.9918C498.127 37.9918 497.81 38.1474 497.617 38.4585C497.427 38.7655 497.333 39.1144 497.333 39.5055ZM496.526 50L505.406 37.0836H506.844L497.964 50H496.526Z" fill="black" fill-opacity="0.96"/>
<path d="M474.337 150V148.865L478.6 144.198C479.1 143.651 479.512 143.176 479.836 142.772C480.16 142.365 480.4 141.982 480.555 141.625C480.715 141.263 480.795 140.885 480.795 140.489C480.795 140.035 480.685 139.642 480.467 139.31C480.252 138.978 479.958 138.721 479.584 138.541C479.21 138.36 478.789 138.269 478.322 138.269C477.826 138.269 477.393 138.372 477.023 138.578C476.657 138.78 476.374 139.064 476.172 139.43C475.974 139.796 475.875 140.224 475.875 140.716H474.387C474.387 139.96 474.562 139.295 474.911 138.723C475.259 138.152 475.735 137.706 476.336 137.386C476.941 137.067 477.62 136.907 478.373 136.907C479.13 136.907 479.8 137.067 480.385 137.386C480.969 137.706 481.428 138.137 481.76 138.679C482.092 139.222 482.258 139.825 482.258 140.489C482.258 140.964 482.172 141.429 481.999 141.883C481.831 142.333 481.537 142.835 481.116 143.39C480.7 143.941 480.122 144.614 479.382 145.409L476.481 148.512V148.612H482.485V150H474.337ZM489.227 150.177C488.361 150.177 487.596 150.023 486.931 149.716C486.271 149.405 485.756 148.978 485.386 148.436C485.016 147.889 484.833 147.267 484.837 146.569C484.833 146.022 484.94 145.518 485.159 145.055C485.378 144.589 485.676 144.2 486.055 143.889C486.437 143.573 486.864 143.374 487.335 143.29V143.214C486.717 143.054 486.225 142.707 485.859 142.173C485.493 141.635 485.313 141.023 485.317 140.338C485.313 139.682 485.479 139.096 485.815 138.578C486.151 138.061 486.614 137.653 487.202 137.355C487.795 137.056 488.47 136.907 489.227 136.907C489.975 136.907 490.644 137.056 491.233 137.355C491.821 137.653 492.284 138.061 492.62 138.578C492.961 139.096 493.133 139.682 493.137 140.338C493.133 141.023 492.946 141.635 492.576 142.173C492.21 142.707 491.724 143.054 491.119 143.214V143.29C491.586 143.374 492.006 143.573 492.38 143.889C492.755 144.2 493.053 144.589 493.276 145.055C493.499 145.518 493.612 146.022 493.617 146.569C493.612 147.267 493.423 147.889 493.049 148.436C492.679 148.978 492.164 149.405 491.504 149.716C490.848 150.023 490.089 150.177 489.227 150.177ZM489.227 148.789C489.811 148.789 490.316 148.694 490.741 148.505C491.165 148.316 491.493 148.049 491.724 147.704C491.956 147.36 492.073 146.956 492.078 146.493C492.073 146.006 491.947 145.575 491.699 145.201C491.451 144.826 491.113 144.532 490.684 144.318C490.259 144.103 489.774 143.996 489.227 143.996C488.676 143.996 488.184 144.103 487.751 144.318C487.322 144.532 486.984 144.826 486.736 145.201C486.492 145.575 486.372 146.006 486.376 146.493C486.372 146.956 486.484 147.36 486.711 147.704C486.942 148.049 487.272 148.316 487.701 148.505C488.13 148.694 488.638 148.789 489.227 148.789ZM489.227 142.659C489.689 142.659 490.099 142.566 490.457 142.381C490.818 142.196 491.102 141.938 491.308 141.606C491.514 141.273 491.619 140.885 491.624 140.439C491.619 140.002 491.516 139.621 491.315 139.297C491.113 138.969 490.833 138.717 490.476 138.541C490.118 138.36 489.702 138.269 489.227 138.269C488.743 138.269 488.321 138.36 487.959 138.541C487.598 138.717 487.318 138.969 487.121 139.297C486.923 139.621 486.826 140.002 486.83 140.439C486.826 140.885 486.925 141.273 487.127 141.606C487.333 141.938 487.617 142.196 487.978 142.381C488.34 142.566 488.756 142.659 489.227 142.659ZM502.618 147.578V146.897C502.618 146.426 502.715 145.995 502.908 145.604C503.106 145.209 503.392 144.894 503.766 144.658C504.144 144.418 504.602 144.299 505.141 144.299C505.687 144.299 506.146 144.418 506.516 144.658C506.886 144.894 507.165 145.209 507.354 145.604C507.544 145.995 507.638 146.426 507.638 146.897V147.578C507.638 148.049 507.541 148.482 507.348 148.877C507.159 149.268 506.877 149.584 506.503 149.823C506.133 150.059 505.679 150.177 505.141 150.177C504.594 150.177 504.134 150.059 503.759 149.823C503.385 149.584 503.101 149.268 502.908 148.877C502.715 148.482 502.618 148.049 502.618 147.578ZM503.905 146.897V147.578C503.905 147.969 503.997 148.32 504.182 148.631C504.367 148.938 504.687 149.092 505.141 149.092C505.582 149.092 505.893 148.938 506.074 148.631C506.259 148.32 506.352 147.969 506.352 147.578V146.897C506.352 146.506 506.263 146.157 506.087 145.85C505.91 145.539 505.595 145.383 505.141 145.383C504.699 145.383 504.382 145.539 504.188 145.85C503.999 146.157 503.905 146.506 503.905 146.897ZM496.185 140.187V139.505C496.185 139.035 496.282 138.604 496.475 138.213C496.673 137.817 496.959 137.502 497.333 137.267C497.711 137.027 498.17 136.907 498.708 136.907C499.254 136.907 499.713 137.027 500.083 137.267C500.453 137.502 500.732 137.817 500.921 138.213C501.111 138.604 501.205 139.035 501.205 139.505V140.187C501.205 140.657 501.109 141.091 500.915 141.486C500.726 141.877 500.444 142.192 500.07 142.432C499.7 142.667 499.246 142.785 498.708 142.785C498.161 142.785 497.701 142.667 497.327 142.432C496.952 142.192 496.669 141.877 496.475 141.486C496.282 141.091 496.185 140.657 496.185 140.187ZM497.472 139.505V140.187C497.472 140.578 497.564 140.929 497.749 141.24C497.934 141.547 498.254 141.7 498.708 141.7C499.149 141.7 499.46 141.547 499.641 141.24C499.826 140.929 499.919 140.578 499.919 140.187V139.505C499.919 139.114 499.83 138.765 499.654 138.459C499.477 138.147 499.162 137.992 498.708 137.992C498.266 137.992 497.949 138.147 497.755 138.459C497.566 138.765 497.472 139.114 497.472 139.505ZM496.664 150L505.544 137.084H506.982L498.102 150H496.664Z" fill="black" fill-opacity="0.96"/>
<path d="M399.337 247V245.865L403.6 241.198C404.1 240.651 404.512 240.176 404.836 239.772C405.16 239.365 405.4 238.982 405.555 238.625C405.715 238.263 405.795 237.885 405.795 237.489C405.795 237.035 405.685 236.642 405.467 236.31C405.252 235.978 404.958 235.721 404.584 235.541C404.21 235.36 403.789 235.269 403.322 235.269C402.826 235.269 402.393 235.372 402.023 235.578C401.657 235.78 401.374 236.064 401.172 236.43C400.974 236.796 400.875 237.224 400.875 237.716H399.387C399.387 236.96 399.562 236.295 399.911 235.723C400.259 235.152 400.735 234.706 401.336 234.386C401.941 234.067 402.62 233.907 403.373 233.907C404.13 233.907 404.8 234.067 405.385 234.386C405.969 234.706 406.428 235.137 406.76 235.679C407.092 236.222 407.258 236.825 407.258 237.489C407.258 237.964 407.172 238.429 406.999 238.883C406.831 239.333 406.537 239.835 406.116 240.39C405.7 240.941 405.122 241.614 404.382 242.409L401.481 245.512V245.612H407.485V247H399.337ZM414.303 247.177C413.352 247.177 412.543 246.918 411.875 246.401C411.206 245.879 410.695 245.125 410.342 244.137C409.989 243.144 409.812 241.946 409.812 240.542C409.812 239.146 409.989 237.954 410.342 236.966C410.699 235.974 411.212 235.217 411.881 234.695C412.554 234.17 413.361 233.907 414.303 233.907C415.244 233.907 416.05 234.17 416.718 234.695C417.391 235.217 417.904 235.974 418.257 236.966C418.614 237.954 418.793 239.146 418.793 240.542C418.793 241.946 418.617 243.144 418.263 244.137C417.91 245.125 417.399 245.879 416.731 246.401C416.062 246.918 415.253 247.177 414.303 247.177ZM414.303 245.789C415.244 245.789 415.976 245.335 416.497 244.427C417.019 243.519 417.279 242.224 417.279 240.542C417.279 239.423 417.16 238.471 416.92 237.685C416.685 236.899 416.344 236.299 415.898 235.887C415.457 235.475 414.925 235.269 414.303 235.269C413.369 235.269 412.64 235.73 412.114 236.651C411.589 237.567 411.326 238.864 411.326 240.542C411.326 241.66 411.444 242.61 411.679 243.392C411.914 244.175 412.253 244.769 412.694 245.177C413.14 245.585 413.676 245.789 414.303 245.789ZM427.774 244.578V243.897C427.774 243.426 427.871 242.995 428.064 242.604C428.262 242.209 428.548 241.894 428.922 241.658C429.3 241.418 429.759 241.299 430.297 241.299C430.843 241.299 431.302 241.418 431.672 241.658C432.042 241.894 432.321 242.209 432.51 242.604C432.7 242.995 432.794 243.426 432.794 243.897V244.578C432.794 245.049 432.698 245.482 432.504 245.877C432.315 246.268 432.033 246.584 431.659 246.823C431.289 247.059 430.835 247.177 430.297 247.177C429.75 247.177 429.29 247.059 428.916 246.823C428.541 246.584 428.258 246.268 428.064 245.877C427.871 245.482 427.774 245.049 427.774 244.578ZM429.061 243.897V244.578C429.061 244.969 429.153 245.32 429.338 245.631C429.523 245.938 429.843 246.092 430.297 246.092C430.738 246.092 431.049 245.938 431.23 245.631C431.415 245.32 431.508 244.969 431.508 244.578V243.897C431.508 243.506 431.419 243.157 431.243 242.85C431.066 242.539 430.751 242.383 430.297 242.383C429.855 242.383 429.538 242.539 429.344 242.85C429.155 243.157 429.061 243.506 429.061 243.897ZM421.341 237.187V236.505C421.341 236.035 421.438 235.604 421.631 235.213C421.829 234.817 422.115 234.502 422.489 234.267C422.867 234.027 423.326 233.907 423.864 233.907C424.41 233.907 424.869 234.027 425.239 234.267C425.609 234.502 425.888 234.817 426.077 235.213C426.267 235.604 426.361 236.035 426.361 236.505V237.187C426.361 237.657 426.265 238.091 426.071 238.486C425.882 238.877 425.6 239.192 425.226 239.432C424.856 239.667 424.402 239.785 423.864 239.785C423.317 239.785 422.857 239.667 422.483 239.432C422.108 239.192 421.825 238.877 421.631 238.486C421.438 238.091 421.341 237.657 421.341 237.187ZM422.628 236.505V237.187C422.628 237.578 422.72 237.929 422.905 238.24C423.09 238.547 423.41 238.7 423.864 238.7C424.305 238.7 424.616 238.547 424.797 238.24C424.982 237.929 425.075 237.578 425.075 237.187V236.505C425.075 236.114 424.986 235.765 424.81 235.459C424.633 235.147 424.318 234.992 423.864 234.992C423.422 234.992 423.105 235.147 422.911 235.459C422.722 235.765 422.628 236.114 422.628 236.505ZM421.82 247L430.7 234.084H432.138L423.258 247H421.82Z" fill="black" fill-opacity="0.96"/>
</svg>
